G04 #@! TF.GenerationSoftware,KiCad,Pcbnew,(5.1.4)-1*
G04 #@! TF.CreationDate,2020-01-11T22:59:22-08:00*
G04 #@! TF.ProjectId,Alchemy49,416c6368-656d-4793-9439-2e6b69636164,rev?*
G04 #@! TF.SameCoordinates,Original*
G04 #@! TF.FileFunction,Profile,NP*
%FSLAX46Y46*%
G04 Gerber Fmt 4.6, Leading zero omitted, Abs format (unit mm)*
G04 Created by KiCad (PCBNEW (5.1.4)-1) date 2020-01-11 22:59:22*
%MOMM*%
%LPD*%
G04 APERTURE LIST*
%ADD10C,0.200000*%
G04 APERTURE END LIST*
D10*
X35750000Y-82750000D02*
G75*
G03X35750000Y-82750000I-2500000J0D01*
G01*
X281750000Y-86750000D02*
G75*
G02X278750000Y-89750000I-3000000J0D01*
G01*
X14250000Y-17500000D02*
X17750000Y-17500000D01*
X255450000Y-17000000D02*
X255450000Y-13500000D01*
X17250000Y-89750000D02*
G75*
G02X14250000Y-86750000I0J3000000D01*
G01*
X281750000Y-86750000D02*
X281750000Y-16500000D01*
X141000000Y-82750000D02*
G75*
G03X141000000Y-82750000I-2750000J0D01*
G01*
X260450000Y-13500000D02*
X260450000Y-17000000D01*
X32650000Y-13500000D02*
X32650000Y-18500000D01*
X140000000Y-20000000D02*
G75*
G03X140000000Y-20000000I-2750000J0D01*
G01*
X14250000Y-16500000D02*
G75*
G02X17250000Y-13500000I3000000J0D01*
G01*
X14250000Y-86750000D02*
X14250000Y-22500000D01*
X264700000Y-82700000D02*
G75*
G03X264700000Y-82700000I-2750000J0D01*
G01*
X278750000Y-13500000D02*
G75*
G02X281750000Y-16500000I0J-3000000D01*
G01*
X278750000Y-89750000D02*
X17250000Y-89750000D01*
X17750000Y-17500000D02*
G75*
G02X17750000Y-22500000I0J-2500000D01*
G01*
X47400000Y-18500000D02*
X47400000Y-13500000D01*
X260450000Y-17000000D02*
G75*
G02X255450000Y-17000000I-2500000J0D01*
G01*
X14250000Y-22500000D02*
X17750000Y-22500000D01*
X278750000Y-13500000D02*
X260450000Y-13500000D01*
X32650000Y-13500000D02*
X17250000Y-13500000D01*
X14250000Y-17500000D02*
X14250000Y-16500000D01*
X47400000Y-18500000D02*
X32650000Y-18500000D01*
X255450000Y-13500000D02*
X47400000Y-13500000D01*
M02*
