G04 #@! TF.GenerationSoftware,KiCad,Pcbnew,(5.1.4)-1*
G04 #@! TF.CreationDate,2019-11-27T09:33:44-08:00*
G04 #@! TF.ProjectId,Alchemy49,416c6368-656d-4793-9439-2e6b69636164,rev?*
G04 #@! TF.SameCoordinates,Original*
G04 #@! TF.FileFunction,Legend,Bot*
G04 #@! TF.FilePolarity,Positive*
%FSLAX46Y46*%
G04 Gerber Fmt 4.6, Leading zero omitted, Abs format (unit mm)*
G04 Created by KiCad (PCBNEW (5.1.4)-1) date 2019-11-27 09:33:44*
%MOMM*%
%LPD*%
G04 APERTURE LIST*
%ADD10C,0.120000*%
%ADD11C,0.127000*%
%ADD12C,0.150000*%
G04 APERTURE END LIST*
D10*
X144820000Y-73590000D02*
X144820000Y-75050000D01*
X147980000Y-73590000D02*
X147980000Y-75750000D01*
X147980000Y-73590000D02*
X147050000Y-73590000D01*
X144820000Y-73590000D02*
X145750000Y-73590000D01*
D11*
X21347074Y-34110000D02*
G75*
G03X21347074Y-34110000I-924574J0D01*
G01*
X21311500Y-25855000D02*
G75*
G03X21057500Y-25601000I-254000J0D01*
G01*
X21057500Y-25601000D02*
X19787500Y-25601000D01*
X21057500Y-27379000D02*
G75*
G03X21311500Y-27125000I0J254000D01*
G01*
X21311500Y-27125000D02*
X21311500Y-25855000D01*
X19787500Y-27379000D02*
X21057500Y-27379000D01*
X19533500Y-27125000D02*
G75*
G03X19787500Y-27379000I254000J0D01*
G01*
X19533500Y-25855000D02*
X19533500Y-27125000D01*
X19787500Y-25601000D02*
G75*
G03X19533500Y-25855000I0J-254000D01*
G01*
D10*
X19302500Y-28780000D02*
X21542500Y-28780000D01*
X19302500Y-29020000D02*
X21542500Y-29020000D01*
X19302500Y-28900000D02*
X21542500Y-28900000D01*
X20422500Y-33170200D02*
X20422500Y-32459000D01*
X20422500Y-27379000D02*
X20422500Y-28180000D01*
X19302500Y-32420000D02*
X19302500Y-28180000D01*
X21542500Y-32420000D02*
X19302500Y-32420000D01*
X21542500Y-28180000D02*
X21542500Y-32420000D01*
X19302500Y-28180000D02*
X21542500Y-28180000D01*
D11*
X40033324Y-43750000D02*
G75*
G03X40033324Y-43750000I-924574J0D01*
G01*
X39997750Y-35495000D02*
G75*
G03X39743750Y-35241000I-254000J0D01*
G01*
X39743750Y-35241000D02*
X38473750Y-35241000D01*
X39743750Y-37019000D02*
G75*
G03X39997750Y-36765000I0J254000D01*
G01*
X39997750Y-36765000D02*
X39997750Y-35495000D01*
X38473750Y-37019000D02*
X39743750Y-37019000D01*
X38219750Y-36765000D02*
G75*
G03X38473750Y-37019000I254000J0D01*
G01*
X38219750Y-35495000D02*
X38219750Y-36765000D01*
X38473750Y-35241000D02*
G75*
G03X38219750Y-35495000I0J-254000D01*
G01*
D10*
X37988750Y-38420000D02*
X40228750Y-38420000D01*
X37988750Y-38660000D02*
X40228750Y-38660000D01*
X37988750Y-38540000D02*
X40228750Y-38540000D01*
X39108750Y-42810200D02*
X39108750Y-42099000D01*
X39108750Y-37019000D02*
X39108750Y-37820000D01*
X37988750Y-42060000D02*
X37988750Y-37820000D01*
X40228750Y-42060000D02*
X37988750Y-42060000D01*
X40228750Y-37820000D02*
X40228750Y-42060000D01*
X37988750Y-37820000D02*
X40228750Y-37820000D01*
D11*
X51939574Y-60760000D02*
G75*
G03X51939574Y-60760000I-924574J0D01*
G01*
X51904000Y-52505000D02*
G75*
G03X51650000Y-52251000I-254000J0D01*
G01*
X51650000Y-52251000D02*
X50380000Y-52251000D01*
X51650000Y-54029000D02*
G75*
G03X51904000Y-53775000I0J254000D01*
G01*
X51904000Y-53775000D02*
X51904000Y-52505000D01*
X50380000Y-54029000D02*
X51650000Y-54029000D01*
X50126000Y-53775000D02*
G75*
G03X50380000Y-54029000I254000J0D01*
G01*
X50126000Y-52505000D02*
X50126000Y-53775000D01*
X50380000Y-52251000D02*
G75*
G03X50126000Y-52505000I0J-254000D01*
G01*
D10*
X49895000Y-55430000D02*
X52135000Y-55430000D01*
X49895000Y-55670000D02*
X52135000Y-55670000D01*
X49895000Y-55550000D02*
X52135000Y-55550000D01*
X51015000Y-59820200D02*
X51015000Y-59109000D01*
X51015000Y-54029000D02*
X51015000Y-54830000D01*
X49895000Y-59070000D02*
X49895000Y-54830000D01*
X52135000Y-59070000D02*
X49895000Y-59070000D01*
X52135000Y-54830000D02*
X52135000Y-59070000D01*
X49895000Y-54830000D02*
X52135000Y-54830000D01*
D11*
X32889574Y-79210000D02*
G75*
G03X32889574Y-79210000I-924574J0D01*
G01*
X32854000Y-70955000D02*
G75*
G03X32600000Y-70701000I-254000J0D01*
G01*
X32600000Y-70701000D02*
X31330000Y-70701000D01*
X32600000Y-72479000D02*
G75*
G03X32854000Y-72225000I0J254000D01*
G01*
X32854000Y-72225000D02*
X32854000Y-70955000D01*
X31330000Y-72479000D02*
X32600000Y-72479000D01*
X31076000Y-72225000D02*
G75*
G03X31330000Y-72479000I254000J0D01*
G01*
X31076000Y-70955000D02*
X31076000Y-72225000D01*
X31330000Y-70701000D02*
G75*
G03X31076000Y-70955000I0J-254000D01*
G01*
D10*
X30845000Y-73880000D02*
X33085000Y-73880000D01*
X30845000Y-74120000D02*
X33085000Y-74120000D01*
X30845000Y-74000000D02*
X33085000Y-74000000D01*
X31965000Y-78270200D02*
X31965000Y-77559000D01*
X31965000Y-72479000D02*
X31965000Y-73280000D01*
X30845000Y-77520000D02*
X30845000Y-73280000D01*
X33085000Y-77520000D02*
X30845000Y-77520000D01*
X33085000Y-73280000D02*
X33085000Y-77520000D01*
X30845000Y-73280000D02*
X33085000Y-73280000D01*
D11*
X61324574Y-22660000D02*
G75*
G03X61324574Y-22660000I-924574J0D01*
G01*
X61289000Y-14405000D02*
G75*
G03X61035000Y-14151000I-254000J0D01*
G01*
X61035000Y-14151000D02*
X59765000Y-14151000D01*
X61035000Y-15929000D02*
G75*
G03X61289000Y-15675000I0J254000D01*
G01*
X61289000Y-15675000D02*
X61289000Y-14405000D01*
X59765000Y-15929000D02*
X61035000Y-15929000D01*
X59511000Y-15675000D02*
G75*
G03X59765000Y-15929000I254000J0D01*
G01*
X59511000Y-14405000D02*
X59511000Y-15675000D01*
X59765000Y-14151000D02*
G75*
G03X59511000Y-14405000I0J-254000D01*
G01*
D10*
X59280000Y-17330000D02*
X61520000Y-17330000D01*
X59280000Y-17570000D02*
X61520000Y-17570000D01*
X59280000Y-17450000D02*
X61520000Y-17450000D01*
X60400000Y-21720200D02*
X60400000Y-21009000D01*
X60400000Y-15929000D02*
X60400000Y-16730000D01*
X59280000Y-20970000D02*
X59280000Y-16730000D01*
X61520000Y-20970000D02*
X59280000Y-20970000D01*
X61520000Y-16730000D02*
X61520000Y-20970000D01*
X59280000Y-16730000D02*
X61520000Y-16730000D01*
D11*
X66227074Y-41710000D02*
G75*
G03X66227074Y-41710000I-924574J0D01*
G01*
X66191500Y-33455000D02*
G75*
G03X65937500Y-33201000I-254000J0D01*
G01*
X65937500Y-33201000D02*
X64667500Y-33201000D01*
X65937500Y-34979000D02*
G75*
G03X66191500Y-34725000I0J254000D01*
G01*
X66191500Y-34725000D02*
X66191500Y-33455000D01*
X64667500Y-34979000D02*
X65937500Y-34979000D01*
X64413500Y-34725000D02*
G75*
G03X64667500Y-34979000I254000J0D01*
G01*
X64413500Y-33455000D02*
X64413500Y-34725000D01*
X64667500Y-33201000D02*
G75*
G03X64413500Y-33455000I0J-254000D01*
G01*
D10*
X64182500Y-36380000D02*
X66422500Y-36380000D01*
X64182500Y-36620000D02*
X66422500Y-36620000D01*
X64182500Y-36500000D02*
X66422500Y-36500000D01*
X65302500Y-40770200D02*
X65302500Y-40059000D01*
X65302500Y-34979000D02*
X65302500Y-35780000D01*
X64182500Y-40020000D02*
X64182500Y-35780000D01*
X66422500Y-40020000D02*
X64182500Y-40020000D01*
X66422500Y-35780000D02*
X66422500Y-40020000D01*
X64182500Y-35780000D02*
X66422500Y-35780000D01*
D11*
X54684574Y-60760000D02*
G75*
G03X54684574Y-60760000I-924574J0D01*
G01*
X54649000Y-52505000D02*
G75*
G03X54395000Y-52251000I-254000J0D01*
G01*
X54395000Y-52251000D02*
X53125000Y-52251000D01*
X54395000Y-54029000D02*
G75*
G03X54649000Y-53775000I0J254000D01*
G01*
X54649000Y-53775000D02*
X54649000Y-52505000D01*
X53125000Y-54029000D02*
X54395000Y-54029000D01*
X52871000Y-53775000D02*
G75*
G03X53125000Y-54029000I254000J0D01*
G01*
X52871000Y-52505000D02*
X52871000Y-53775000D01*
X53125000Y-52251000D02*
G75*
G03X52871000Y-52505000I0J-254000D01*
G01*
D10*
X52640000Y-55430000D02*
X54880000Y-55430000D01*
X52640000Y-55670000D02*
X54880000Y-55670000D01*
X52640000Y-55550000D02*
X54880000Y-55550000D01*
X53760000Y-59820200D02*
X53760000Y-59109000D01*
X53760000Y-54029000D02*
X53760000Y-54830000D01*
X52640000Y-59070000D02*
X52640000Y-54830000D01*
X54880000Y-59070000D02*
X52640000Y-59070000D01*
X54880000Y-54830000D02*
X54880000Y-59070000D01*
X52640000Y-54830000D02*
X54880000Y-54830000D01*
D11*
X51939574Y-79810000D02*
G75*
G03X51939574Y-79810000I-924574J0D01*
G01*
X51904000Y-71555000D02*
G75*
G03X51650000Y-71301000I-254000J0D01*
G01*
X51650000Y-71301000D02*
X50380000Y-71301000D01*
X51650000Y-73079000D02*
G75*
G03X51904000Y-72825000I0J254000D01*
G01*
X51904000Y-72825000D02*
X51904000Y-71555000D01*
X50380000Y-73079000D02*
X51650000Y-73079000D01*
X50126000Y-72825000D02*
G75*
G03X50380000Y-73079000I254000J0D01*
G01*
X50126000Y-71555000D02*
X50126000Y-72825000D01*
X50380000Y-71301000D02*
G75*
G03X50126000Y-71555000I0J-254000D01*
G01*
D10*
X49895000Y-74480000D02*
X52135000Y-74480000D01*
X49895000Y-74720000D02*
X52135000Y-74720000D01*
X49895000Y-74600000D02*
X52135000Y-74600000D01*
X51015000Y-78870200D02*
X51015000Y-78159000D01*
X51015000Y-73079000D02*
X51015000Y-73880000D01*
X49895000Y-78120000D02*
X49895000Y-73880000D01*
X52135000Y-78120000D02*
X49895000Y-78120000D01*
X52135000Y-73880000D02*
X52135000Y-78120000D01*
X49895000Y-73880000D02*
X52135000Y-73880000D01*
D11*
X64209574Y-22660000D02*
G75*
G03X64209574Y-22660000I-924574J0D01*
G01*
X64174000Y-14405000D02*
G75*
G03X63920000Y-14151000I-254000J0D01*
G01*
X63920000Y-14151000D02*
X62650000Y-14151000D01*
X63920000Y-15929000D02*
G75*
G03X64174000Y-15675000I0J254000D01*
G01*
X64174000Y-15675000D02*
X64174000Y-14405000D01*
X62650000Y-15929000D02*
X63920000Y-15929000D01*
X62396000Y-15675000D02*
G75*
G03X62650000Y-15929000I254000J0D01*
G01*
X62396000Y-14405000D02*
X62396000Y-15675000D01*
X62650000Y-14151000D02*
G75*
G03X62396000Y-14405000I0J-254000D01*
G01*
D10*
X62165000Y-17330000D02*
X64405000Y-17330000D01*
X62165000Y-17570000D02*
X64405000Y-17570000D01*
X62165000Y-17450000D02*
X64405000Y-17450000D01*
X63285000Y-21720200D02*
X63285000Y-21009000D01*
X63285000Y-15929000D02*
X63285000Y-16730000D01*
X62165000Y-20970000D02*
X62165000Y-16730000D01*
X64405000Y-20970000D02*
X62165000Y-20970000D01*
X64405000Y-16730000D02*
X64405000Y-20970000D01*
X62165000Y-16730000D02*
X64405000Y-16730000D01*
D11*
X68972074Y-41710000D02*
G75*
G03X68972074Y-41710000I-924574J0D01*
G01*
X68936500Y-33455000D02*
G75*
G03X68682500Y-33201000I-254000J0D01*
G01*
X68682500Y-33201000D02*
X67412500Y-33201000D01*
X68682500Y-34979000D02*
G75*
G03X68936500Y-34725000I0J254000D01*
G01*
X68936500Y-34725000D02*
X68936500Y-33455000D01*
X67412500Y-34979000D02*
X68682500Y-34979000D01*
X67158500Y-34725000D02*
G75*
G03X67412500Y-34979000I254000J0D01*
G01*
X67158500Y-33455000D02*
X67158500Y-34725000D01*
X67412500Y-33201000D02*
G75*
G03X67158500Y-33455000I0J-254000D01*
G01*
D10*
X66927500Y-36380000D02*
X69167500Y-36380000D01*
X66927500Y-36620000D02*
X69167500Y-36620000D01*
X66927500Y-36500000D02*
X69167500Y-36500000D01*
X68047500Y-40770200D02*
X68047500Y-40059000D01*
X68047500Y-34979000D02*
X68047500Y-35780000D01*
X66927500Y-40020000D02*
X66927500Y-35780000D01*
X69167500Y-40020000D02*
X66927500Y-40020000D01*
X69167500Y-35780000D02*
X69167500Y-40020000D01*
X66927500Y-35780000D02*
X69167500Y-35780000D01*
D11*
X90039574Y-60760000D02*
G75*
G03X90039574Y-60760000I-924574J0D01*
G01*
X90004000Y-52505000D02*
G75*
G03X89750000Y-52251000I-254000J0D01*
G01*
X89750000Y-52251000D02*
X88480000Y-52251000D01*
X89750000Y-54029000D02*
G75*
G03X90004000Y-53775000I0J254000D01*
G01*
X90004000Y-53775000D02*
X90004000Y-52505000D01*
X88480000Y-54029000D02*
X89750000Y-54029000D01*
X88226000Y-53775000D02*
G75*
G03X88480000Y-54029000I254000J0D01*
G01*
X88226000Y-52505000D02*
X88226000Y-53775000D01*
X88480000Y-52251000D02*
G75*
G03X88226000Y-52505000I0J-254000D01*
G01*
D10*
X87995000Y-55430000D02*
X90235000Y-55430000D01*
X87995000Y-55670000D02*
X90235000Y-55670000D01*
X87995000Y-55550000D02*
X90235000Y-55550000D01*
X89115000Y-59820200D02*
X89115000Y-59109000D01*
X89115000Y-54029000D02*
X89115000Y-54830000D01*
X87995000Y-59070000D02*
X87995000Y-54830000D01*
X90235000Y-59070000D02*
X87995000Y-59070000D01*
X90235000Y-54830000D02*
X90235000Y-59070000D01*
X87995000Y-54830000D02*
X90235000Y-54830000D01*
D11*
X54684574Y-79810000D02*
G75*
G03X54684574Y-79810000I-924574J0D01*
G01*
X54649000Y-71555000D02*
G75*
G03X54395000Y-71301000I-254000J0D01*
G01*
X54395000Y-71301000D02*
X53125000Y-71301000D01*
X54395000Y-73079000D02*
G75*
G03X54649000Y-72825000I0J254000D01*
G01*
X54649000Y-72825000D02*
X54649000Y-71555000D01*
X53125000Y-73079000D02*
X54395000Y-73079000D01*
X52871000Y-72825000D02*
G75*
G03X53125000Y-73079000I254000J0D01*
G01*
X52871000Y-71555000D02*
X52871000Y-72825000D01*
X53125000Y-71301000D02*
G75*
G03X52871000Y-71555000I0J-254000D01*
G01*
D10*
X52640000Y-74480000D02*
X54880000Y-74480000D01*
X52640000Y-74720000D02*
X54880000Y-74720000D01*
X52640000Y-74600000D02*
X54880000Y-74600000D01*
X53760000Y-78870200D02*
X53760000Y-78159000D01*
X53760000Y-73079000D02*
X53760000Y-73880000D01*
X52640000Y-78120000D02*
X52640000Y-73880000D01*
X54880000Y-78120000D02*
X52640000Y-78120000D01*
X54880000Y-73880000D02*
X54880000Y-78120000D01*
X52640000Y-73880000D02*
X54880000Y-73880000D01*
D11*
X83259574Y-22660000D02*
G75*
G03X83259574Y-22660000I-924574J0D01*
G01*
X83224000Y-14405000D02*
G75*
G03X82970000Y-14151000I-254000J0D01*
G01*
X82970000Y-14151000D02*
X81700000Y-14151000D01*
X82970000Y-15929000D02*
G75*
G03X83224000Y-15675000I0J254000D01*
G01*
X83224000Y-15675000D02*
X83224000Y-14405000D01*
X81700000Y-15929000D02*
X82970000Y-15929000D01*
X81446000Y-15675000D02*
G75*
G03X81700000Y-15929000I254000J0D01*
G01*
X81446000Y-14405000D02*
X81446000Y-15675000D01*
X81700000Y-14151000D02*
G75*
G03X81446000Y-14405000I0J-254000D01*
G01*
D10*
X81215000Y-17330000D02*
X83455000Y-17330000D01*
X81215000Y-17570000D02*
X83455000Y-17570000D01*
X81215000Y-17450000D02*
X83455000Y-17450000D01*
X82335000Y-21720200D02*
X82335000Y-21009000D01*
X82335000Y-15929000D02*
X82335000Y-16730000D01*
X81215000Y-20970000D02*
X81215000Y-16730000D01*
X83455000Y-20970000D02*
X81215000Y-20970000D01*
X83455000Y-16730000D02*
X83455000Y-20970000D01*
X81215000Y-16730000D02*
X83455000Y-16730000D01*
D11*
X88022074Y-41710000D02*
G75*
G03X88022074Y-41710000I-924574J0D01*
G01*
X87986500Y-33455000D02*
G75*
G03X87732500Y-33201000I-254000J0D01*
G01*
X87732500Y-33201000D02*
X86462500Y-33201000D01*
X87732500Y-34979000D02*
G75*
G03X87986500Y-34725000I0J254000D01*
G01*
X87986500Y-34725000D02*
X87986500Y-33455000D01*
X86462500Y-34979000D02*
X87732500Y-34979000D01*
X86208500Y-34725000D02*
G75*
G03X86462500Y-34979000I254000J0D01*
G01*
X86208500Y-33455000D02*
X86208500Y-34725000D01*
X86462500Y-33201000D02*
G75*
G03X86208500Y-33455000I0J-254000D01*
G01*
D10*
X85977500Y-36380000D02*
X88217500Y-36380000D01*
X85977500Y-36620000D02*
X88217500Y-36620000D01*
X85977500Y-36500000D02*
X88217500Y-36500000D01*
X87097500Y-40770200D02*
X87097500Y-40059000D01*
X87097500Y-34979000D02*
X87097500Y-35780000D01*
X85977500Y-40020000D02*
X85977500Y-35780000D01*
X88217500Y-40020000D02*
X85977500Y-40020000D01*
X88217500Y-35780000D02*
X88217500Y-40020000D01*
X85977500Y-35780000D02*
X88217500Y-35780000D01*
D11*
X92784574Y-60760000D02*
G75*
G03X92784574Y-60760000I-924574J0D01*
G01*
X92749000Y-52505000D02*
G75*
G03X92495000Y-52251000I-254000J0D01*
G01*
X92495000Y-52251000D02*
X91225000Y-52251000D01*
X92495000Y-54029000D02*
G75*
G03X92749000Y-53775000I0J254000D01*
G01*
X92749000Y-53775000D02*
X92749000Y-52505000D01*
X91225000Y-54029000D02*
X92495000Y-54029000D01*
X90971000Y-53775000D02*
G75*
G03X91225000Y-54029000I254000J0D01*
G01*
X90971000Y-52505000D02*
X90971000Y-53775000D01*
X91225000Y-52251000D02*
G75*
G03X90971000Y-52505000I0J-254000D01*
G01*
D10*
X90740000Y-55430000D02*
X92980000Y-55430000D01*
X90740000Y-55670000D02*
X92980000Y-55670000D01*
X90740000Y-55550000D02*
X92980000Y-55550000D01*
X91860000Y-59820200D02*
X91860000Y-59109000D01*
X91860000Y-54029000D02*
X91860000Y-54830000D01*
X90740000Y-59070000D02*
X90740000Y-54830000D01*
X92980000Y-59070000D02*
X90740000Y-59070000D01*
X92980000Y-54830000D02*
X92980000Y-59070000D01*
X90740000Y-54830000D02*
X92980000Y-54830000D01*
D11*
X90039574Y-79810000D02*
G75*
G03X90039574Y-79810000I-924574J0D01*
G01*
X90004000Y-71555000D02*
G75*
G03X89750000Y-71301000I-254000J0D01*
G01*
X89750000Y-71301000D02*
X88480000Y-71301000D01*
X89750000Y-73079000D02*
G75*
G03X90004000Y-72825000I0J254000D01*
G01*
X90004000Y-72825000D02*
X90004000Y-71555000D01*
X88480000Y-73079000D02*
X89750000Y-73079000D01*
X88226000Y-72825000D02*
G75*
G03X88480000Y-73079000I254000J0D01*
G01*
X88226000Y-71555000D02*
X88226000Y-72825000D01*
X88480000Y-71301000D02*
G75*
G03X88226000Y-71555000I0J-254000D01*
G01*
D10*
X87995000Y-74480000D02*
X90235000Y-74480000D01*
X87995000Y-74720000D02*
X90235000Y-74720000D01*
X87995000Y-74600000D02*
X90235000Y-74600000D01*
X89115000Y-78870200D02*
X89115000Y-78159000D01*
X89115000Y-73079000D02*
X89115000Y-73880000D01*
X87995000Y-78120000D02*
X87995000Y-73880000D01*
X90235000Y-78120000D02*
X87995000Y-78120000D01*
X90235000Y-73880000D02*
X90235000Y-78120000D01*
X87995000Y-73880000D02*
X90235000Y-73880000D01*
D11*
X102309574Y-22660000D02*
G75*
G03X102309574Y-22660000I-924574J0D01*
G01*
X102274000Y-14405000D02*
G75*
G03X102020000Y-14151000I-254000J0D01*
G01*
X102020000Y-14151000D02*
X100750000Y-14151000D01*
X102020000Y-15929000D02*
G75*
G03X102274000Y-15675000I0J254000D01*
G01*
X102274000Y-15675000D02*
X102274000Y-14405000D01*
X100750000Y-15929000D02*
X102020000Y-15929000D01*
X100496000Y-15675000D02*
G75*
G03X100750000Y-15929000I254000J0D01*
G01*
X100496000Y-14405000D02*
X100496000Y-15675000D01*
X100750000Y-14151000D02*
G75*
G03X100496000Y-14405000I0J-254000D01*
G01*
D10*
X100265000Y-17330000D02*
X102505000Y-17330000D01*
X100265000Y-17570000D02*
X102505000Y-17570000D01*
X100265000Y-17450000D02*
X102505000Y-17450000D01*
X101385000Y-21720200D02*
X101385000Y-21009000D01*
X101385000Y-15929000D02*
X101385000Y-16730000D01*
X100265000Y-20970000D02*
X100265000Y-16730000D01*
X102505000Y-20970000D02*
X100265000Y-20970000D01*
X102505000Y-16730000D02*
X102505000Y-20970000D01*
X100265000Y-16730000D02*
X102505000Y-16730000D01*
D11*
X107072074Y-41710000D02*
G75*
G03X107072074Y-41710000I-924574J0D01*
G01*
X107036500Y-33455000D02*
G75*
G03X106782500Y-33201000I-254000J0D01*
G01*
X106782500Y-33201000D02*
X105512500Y-33201000D01*
X106782500Y-34979000D02*
G75*
G03X107036500Y-34725000I0J254000D01*
G01*
X107036500Y-34725000D02*
X107036500Y-33455000D01*
X105512500Y-34979000D02*
X106782500Y-34979000D01*
X105258500Y-34725000D02*
G75*
G03X105512500Y-34979000I254000J0D01*
G01*
X105258500Y-33455000D02*
X105258500Y-34725000D01*
X105512500Y-33201000D02*
G75*
G03X105258500Y-33455000I0J-254000D01*
G01*
D10*
X105027500Y-36380000D02*
X107267500Y-36380000D01*
X105027500Y-36620000D02*
X107267500Y-36620000D01*
X105027500Y-36500000D02*
X107267500Y-36500000D01*
X106147500Y-40770200D02*
X106147500Y-40059000D01*
X106147500Y-34979000D02*
X106147500Y-35780000D01*
X105027500Y-40020000D02*
X105027500Y-35780000D01*
X107267500Y-40020000D02*
X105027500Y-40020000D01*
X107267500Y-35780000D02*
X107267500Y-40020000D01*
X105027500Y-35780000D02*
X107267500Y-35780000D01*
D11*
X111824574Y-61010000D02*
G75*
G03X111824574Y-61010000I-924574J0D01*
G01*
X111789000Y-52755000D02*
G75*
G03X111535000Y-52501000I-254000J0D01*
G01*
X111535000Y-52501000D02*
X110265000Y-52501000D01*
X111535000Y-54279000D02*
G75*
G03X111789000Y-54025000I0J254000D01*
G01*
X111789000Y-54025000D02*
X111789000Y-52755000D01*
X110265000Y-54279000D02*
X111535000Y-54279000D01*
X110011000Y-54025000D02*
G75*
G03X110265000Y-54279000I254000J0D01*
G01*
X110011000Y-52755000D02*
X110011000Y-54025000D01*
X110265000Y-52501000D02*
G75*
G03X110011000Y-52755000I0J-254000D01*
G01*
D10*
X109780000Y-55680000D02*
X112020000Y-55680000D01*
X109780000Y-55920000D02*
X112020000Y-55920000D01*
X109780000Y-55800000D02*
X112020000Y-55800000D01*
X110900000Y-60070200D02*
X110900000Y-59359000D01*
X110900000Y-54279000D02*
X110900000Y-55080000D01*
X109780000Y-59320000D02*
X109780000Y-55080000D01*
X112020000Y-59320000D02*
X109780000Y-59320000D01*
X112020000Y-55080000D02*
X112020000Y-59320000D01*
X109780000Y-55080000D02*
X112020000Y-55080000D01*
D11*
X121359574Y-22660000D02*
G75*
G03X121359574Y-22660000I-924574J0D01*
G01*
X121324000Y-14405000D02*
G75*
G03X121070000Y-14151000I-254000J0D01*
G01*
X121070000Y-14151000D02*
X119800000Y-14151000D01*
X121070000Y-15929000D02*
G75*
G03X121324000Y-15675000I0J254000D01*
G01*
X121324000Y-15675000D02*
X121324000Y-14405000D01*
X119800000Y-15929000D02*
X121070000Y-15929000D01*
X119546000Y-15675000D02*
G75*
G03X119800000Y-15929000I254000J0D01*
G01*
X119546000Y-14405000D02*
X119546000Y-15675000D01*
X119800000Y-14151000D02*
G75*
G03X119546000Y-14405000I0J-254000D01*
G01*
D10*
X119315000Y-17330000D02*
X121555000Y-17330000D01*
X119315000Y-17570000D02*
X121555000Y-17570000D01*
X119315000Y-17450000D02*
X121555000Y-17450000D01*
X120435000Y-21720200D02*
X120435000Y-21009000D01*
X120435000Y-15929000D02*
X120435000Y-16730000D01*
X119315000Y-20970000D02*
X119315000Y-16730000D01*
X121555000Y-20970000D02*
X119315000Y-20970000D01*
X121555000Y-16730000D02*
X121555000Y-20970000D01*
X119315000Y-16730000D02*
X121555000Y-16730000D01*
D11*
X104327074Y-41710000D02*
G75*
G03X104327074Y-41710000I-924574J0D01*
G01*
X104291500Y-33455000D02*
G75*
G03X104037500Y-33201000I-254000J0D01*
G01*
X104037500Y-33201000D02*
X102767500Y-33201000D01*
X104037500Y-34979000D02*
G75*
G03X104291500Y-34725000I0J254000D01*
G01*
X104291500Y-34725000D02*
X104291500Y-33455000D01*
X102767500Y-34979000D02*
X104037500Y-34979000D01*
X102513500Y-34725000D02*
G75*
G03X102767500Y-34979000I254000J0D01*
G01*
X102513500Y-33455000D02*
X102513500Y-34725000D01*
X102767500Y-33201000D02*
G75*
G03X102513500Y-33455000I0J-254000D01*
G01*
D10*
X102282500Y-36380000D02*
X104522500Y-36380000D01*
X102282500Y-36620000D02*
X104522500Y-36620000D01*
X102282500Y-36500000D02*
X104522500Y-36500000D01*
X103402500Y-40770200D02*
X103402500Y-40059000D01*
X103402500Y-34979000D02*
X103402500Y-35780000D01*
X102282500Y-40020000D02*
X102282500Y-35780000D01*
X104522500Y-40020000D02*
X102282500Y-40020000D01*
X104522500Y-35780000D02*
X104522500Y-40020000D01*
X102282500Y-35780000D02*
X104522500Y-35780000D01*
D11*
X147189574Y-60760000D02*
G75*
G03X147189574Y-60760000I-924574J0D01*
G01*
X147154000Y-52505000D02*
G75*
G03X146900000Y-52251000I-254000J0D01*
G01*
X146900000Y-52251000D02*
X145630000Y-52251000D01*
X146900000Y-54029000D02*
G75*
G03X147154000Y-53775000I0J254000D01*
G01*
X147154000Y-53775000D02*
X147154000Y-52505000D01*
X145630000Y-54029000D02*
X146900000Y-54029000D01*
X145376000Y-53775000D02*
G75*
G03X145630000Y-54029000I254000J0D01*
G01*
X145376000Y-52505000D02*
X145376000Y-53775000D01*
X145630000Y-52251000D02*
G75*
G03X145376000Y-52505000I0J-254000D01*
G01*
D10*
X145145000Y-55430000D02*
X147385000Y-55430000D01*
X145145000Y-55670000D02*
X147385000Y-55670000D01*
X145145000Y-55550000D02*
X147385000Y-55550000D01*
X146265000Y-59820200D02*
X146265000Y-59109000D01*
X146265000Y-54029000D02*
X146265000Y-54830000D01*
X145145000Y-59070000D02*
X145145000Y-54830000D01*
X147385000Y-59070000D02*
X145145000Y-59070000D01*
X147385000Y-54830000D02*
X147385000Y-59070000D01*
X145145000Y-54830000D02*
X147385000Y-54830000D01*
D11*
X92784574Y-79810000D02*
G75*
G03X92784574Y-79810000I-924574J0D01*
G01*
X92749000Y-71555000D02*
G75*
G03X92495000Y-71301000I-254000J0D01*
G01*
X92495000Y-71301000D02*
X91225000Y-71301000D01*
X92495000Y-73079000D02*
G75*
G03X92749000Y-72825000I0J254000D01*
G01*
X92749000Y-72825000D02*
X92749000Y-71555000D01*
X91225000Y-73079000D02*
X92495000Y-73079000D01*
X90971000Y-72825000D02*
G75*
G03X91225000Y-73079000I254000J0D01*
G01*
X90971000Y-71555000D02*
X90971000Y-72825000D01*
X91225000Y-71301000D02*
G75*
G03X90971000Y-71555000I0J-254000D01*
G01*
D10*
X90740000Y-74480000D02*
X92980000Y-74480000D01*
X90740000Y-74720000D02*
X92980000Y-74720000D01*
X90740000Y-74600000D02*
X92980000Y-74600000D01*
X91860000Y-78870200D02*
X91860000Y-78159000D01*
X91860000Y-73079000D02*
X91860000Y-73880000D01*
X90740000Y-78120000D02*
X90740000Y-73880000D01*
X92980000Y-78120000D02*
X90740000Y-78120000D01*
X92980000Y-73880000D02*
X92980000Y-78120000D01*
X90740000Y-73880000D02*
X92980000Y-73880000D01*
D11*
X156714574Y-22660000D02*
G75*
G03X156714574Y-22660000I-924574J0D01*
G01*
X156679000Y-14405000D02*
G75*
G03X156425000Y-14151000I-254000J0D01*
G01*
X156425000Y-14151000D02*
X155155000Y-14151000D01*
X156425000Y-15929000D02*
G75*
G03X156679000Y-15675000I0J254000D01*
G01*
X156679000Y-15675000D02*
X156679000Y-14405000D01*
X155155000Y-15929000D02*
X156425000Y-15929000D01*
X154901000Y-15675000D02*
G75*
G03X155155000Y-15929000I254000J0D01*
G01*
X154901000Y-14405000D02*
X154901000Y-15675000D01*
X155155000Y-14151000D02*
G75*
G03X154901000Y-14405000I0J-254000D01*
G01*
D10*
X154670000Y-17330000D02*
X156910000Y-17330000D01*
X154670000Y-17570000D02*
X156910000Y-17570000D01*
X154670000Y-17450000D02*
X156910000Y-17450000D01*
X155790000Y-21720200D02*
X155790000Y-21009000D01*
X155790000Y-15929000D02*
X155790000Y-16730000D01*
X154670000Y-20970000D02*
X154670000Y-16730000D01*
X156910000Y-20970000D02*
X154670000Y-20970000D01*
X156910000Y-16730000D02*
X156910000Y-20970000D01*
X154670000Y-16730000D02*
X156910000Y-16730000D01*
D11*
X161477074Y-42160000D02*
G75*
G03X161477074Y-42160000I-924574J0D01*
G01*
X161441500Y-33905000D02*
G75*
G03X161187500Y-33651000I-254000J0D01*
G01*
X161187500Y-33651000D02*
X159917500Y-33651000D01*
X161187500Y-35429000D02*
G75*
G03X161441500Y-35175000I0J254000D01*
G01*
X161441500Y-35175000D02*
X161441500Y-33905000D01*
X159917500Y-35429000D02*
X161187500Y-35429000D01*
X159663500Y-35175000D02*
G75*
G03X159917500Y-35429000I254000J0D01*
G01*
X159663500Y-33905000D02*
X159663500Y-35175000D01*
X159917500Y-33651000D02*
G75*
G03X159663500Y-33905000I0J-254000D01*
G01*
D10*
X159432500Y-36830000D02*
X161672500Y-36830000D01*
X159432500Y-37070000D02*
X161672500Y-37070000D01*
X159432500Y-36950000D02*
X161672500Y-36950000D01*
X160552500Y-41220200D02*
X160552500Y-40509000D01*
X160552500Y-35429000D02*
X160552500Y-36230000D01*
X159432500Y-40470000D02*
X159432500Y-36230000D01*
X161672500Y-40470000D02*
X159432500Y-40470000D01*
X161672500Y-36230000D02*
X161672500Y-40470000D01*
X159432500Y-36230000D02*
X161672500Y-36230000D01*
D11*
X166239574Y-60760000D02*
G75*
G03X166239574Y-60760000I-924574J0D01*
G01*
X166204000Y-52505000D02*
G75*
G03X165950000Y-52251000I-254000J0D01*
G01*
X165950000Y-52251000D02*
X164680000Y-52251000D01*
X165950000Y-54029000D02*
G75*
G03X166204000Y-53775000I0J254000D01*
G01*
X166204000Y-53775000D02*
X166204000Y-52505000D01*
X164680000Y-54029000D02*
X165950000Y-54029000D01*
X164426000Y-53775000D02*
G75*
G03X164680000Y-54029000I254000J0D01*
G01*
X164426000Y-52505000D02*
X164426000Y-53775000D01*
X164680000Y-52251000D02*
G75*
G03X164426000Y-52505000I0J-254000D01*
G01*
D10*
X164195000Y-55430000D02*
X166435000Y-55430000D01*
X164195000Y-55670000D02*
X166435000Y-55670000D01*
X164195000Y-55550000D02*
X166435000Y-55550000D01*
X165315000Y-59820200D02*
X165315000Y-59109000D01*
X165315000Y-54029000D02*
X165315000Y-54830000D01*
X164195000Y-59070000D02*
X164195000Y-54830000D01*
X166435000Y-59070000D02*
X164195000Y-59070000D01*
X166435000Y-54830000D02*
X166435000Y-59070000D01*
X164195000Y-54830000D02*
X166435000Y-54830000D01*
D11*
X159459574Y-22660000D02*
G75*
G03X159459574Y-22660000I-924574J0D01*
G01*
X159424000Y-14405000D02*
G75*
G03X159170000Y-14151000I-254000J0D01*
G01*
X159170000Y-14151000D02*
X157900000Y-14151000D01*
X159170000Y-15929000D02*
G75*
G03X159424000Y-15675000I0J254000D01*
G01*
X159424000Y-15675000D02*
X159424000Y-14405000D01*
X157900000Y-15929000D02*
X159170000Y-15929000D01*
X157646000Y-15675000D02*
G75*
G03X157900000Y-15929000I254000J0D01*
G01*
X157646000Y-14405000D02*
X157646000Y-15675000D01*
X157900000Y-14151000D02*
G75*
G03X157646000Y-14405000I0J-254000D01*
G01*
D10*
X157415000Y-17330000D02*
X159655000Y-17330000D01*
X157415000Y-17570000D02*
X159655000Y-17570000D01*
X157415000Y-17450000D02*
X159655000Y-17450000D01*
X158535000Y-21720200D02*
X158535000Y-21009000D01*
X158535000Y-15929000D02*
X158535000Y-16730000D01*
X157415000Y-20970000D02*
X157415000Y-16730000D01*
X159655000Y-20970000D02*
X157415000Y-20970000D01*
X159655000Y-16730000D02*
X159655000Y-20970000D01*
X157415000Y-16730000D02*
X159655000Y-16730000D01*
D11*
X164222074Y-42160000D02*
G75*
G03X164222074Y-42160000I-924574J0D01*
G01*
X164186500Y-33905000D02*
G75*
G03X163932500Y-33651000I-254000J0D01*
G01*
X163932500Y-33651000D02*
X162662500Y-33651000D01*
X163932500Y-35429000D02*
G75*
G03X164186500Y-35175000I0J254000D01*
G01*
X164186500Y-35175000D02*
X164186500Y-33905000D01*
X162662500Y-35429000D02*
X163932500Y-35429000D01*
X162408500Y-35175000D02*
G75*
G03X162662500Y-35429000I254000J0D01*
G01*
X162408500Y-33905000D02*
X162408500Y-35175000D01*
X162662500Y-33651000D02*
G75*
G03X162408500Y-33905000I0J-254000D01*
G01*
D10*
X162177500Y-36830000D02*
X164417500Y-36830000D01*
X162177500Y-37070000D02*
X164417500Y-37070000D01*
X162177500Y-36950000D02*
X164417500Y-36950000D01*
X163297500Y-41220200D02*
X163297500Y-40509000D01*
X163297500Y-35429000D02*
X163297500Y-36230000D01*
X162177500Y-40470000D02*
X162177500Y-36230000D01*
X164417500Y-40470000D02*
X162177500Y-40470000D01*
X164417500Y-36230000D02*
X164417500Y-40470000D01*
X162177500Y-36230000D02*
X164417500Y-36230000D01*
D11*
X168984574Y-60760000D02*
G75*
G03X168984574Y-60760000I-924574J0D01*
G01*
X168949000Y-52505000D02*
G75*
G03X168695000Y-52251000I-254000J0D01*
G01*
X168695000Y-52251000D02*
X167425000Y-52251000D01*
X168695000Y-54029000D02*
G75*
G03X168949000Y-53775000I0J254000D01*
G01*
X168949000Y-53775000D02*
X168949000Y-52505000D01*
X167425000Y-54029000D02*
X168695000Y-54029000D01*
X167171000Y-53775000D02*
G75*
G03X167425000Y-54029000I254000J0D01*
G01*
X167171000Y-52505000D02*
X167171000Y-53775000D01*
X167425000Y-52251000D02*
G75*
G03X167171000Y-52505000I0J-254000D01*
G01*
D10*
X166940000Y-55430000D02*
X169180000Y-55430000D01*
X166940000Y-55670000D02*
X169180000Y-55670000D01*
X166940000Y-55550000D02*
X169180000Y-55550000D01*
X168060000Y-59820200D02*
X168060000Y-59109000D01*
X168060000Y-54029000D02*
X168060000Y-54830000D01*
X166940000Y-59070000D02*
X166940000Y-54830000D01*
X169180000Y-59070000D02*
X166940000Y-59070000D01*
X169180000Y-54830000D02*
X169180000Y-59070000D01*
X166940000Y-54830000D02*
X169180000Y-54830000D01*
D11*
X185289574Y-79810000D02*
G75*
G03X185289574Y-79810000I-924574J0D01*
G01*
X185254000Y-71555000D02*
G75*
G03X185000000Y-71301000I-254000J0D01*
G01*
X185000000Y-71301000D02*
X183730000Y-71301000D01*
X185000000Y-73079000D02*
G75*
G03X185254000Y-72825000I0J254000D01*
G01*
X185254000Y-72825000D02*
X185254000Y-71555000D01*
X183730000Y-73079000D02*
X185000000Y-73079000D01*
X183476000Y-72825000D02*
G75*
G03X183730000Y-73079000I254000J0D01*
G01*
X183476000Y-71555000D02*
X183476000Y-72825000D01*
X183730000Y-71301000D02*
G75*
G03X183476000Y-71555000I0J-254000D01*
G01*
D10*
X183245000Y-74480000D02*
X185485000Y-74480000D01*
X183245000Y-74720000D02*
X185485000Y-74720000D01*
X183245000Y-74600000D02*
X185485000Y-74600000D01*
X184365000Y-78870200D02*
X184365000Y-78159000D01*
X184365000Y-73079000D02*
X184365000Y-73880000D01*
X183245000Y-78120000D02*
X183245000Y-73880000D01*
X185485000Y-78120000D02*
X183245000Y-78120000D01*
X185485000Y-73880000D02*
X185485000Y-78120000D01*
X183245000Y-73880000D02*
X185485000Y-73880000D01*
D11*
X178509574Y-22660000D02*
G75*
G03X178509574Y-22660000I-924574J0D01*
G01*
X178474000Y-14405000D02*
G75*
G03X178220000Y-14151000I-254000J0D01*
G01*
X178220000Y-14151000D02*
X176950000Y-14151000D01*
X178220000Y-15929000D02*
G75*
G03X178474000Y-15675000I0J254000D01*
G01*
X178474000Y-15675000D02*
X178474000Y-14405000D01*
X176950000Y-15929000D02*
X178220000Y-15929000D01*
X176696000Y-15675000D02*
G75*
G03X176950000Y-15929000I254000J0D01*
G01*
X176696000Y-14405000D02*
X176696000Y-15675000D01*
X176950000Y-14151000D02*
G75*
G03X176696000Y-14405000I0J-254000D01*
G01*
D10*
X176465000Y-17330000D02*
X178705000Y-17330000D01*
X176465000Y-17570000D02*
X178705000Y-17570000D01*
X176465000Y-17450000D02*
X178705000Y-17450000D01*
X177585000Y-21720200D02*
X177585000Y-21009000D01*
X177585000Y-15929000D02*
X177585000Y-16730000D01*
X176465000Y-20970000D02*
X176465000Y-16730000D01*
X178705000Y-20970000D02*
X176465000Y-20970000D01*
X178705000Y-16730000D02*
X178705000Y-20970000D01*
X176465000Y-16730000D02*
X178705000Y-16730000D01*
D11*
X183272074Y-41710000D02*
G75*
G03X183272074Y-41710000I-924574J0D01*
G01*
X183236500Y-33455000D02*
G75*
G03X182982500Y-33201000I-254000J0D01*
G01*
X182982500Y-33201000D02*
X181712500Y-33201000D01*
X182982500Y-34979000D02*
G75*
G03X183236500Y-34725000I0J254000D01*
G01*
X183236500Y-34725000D02*
X183236500Y-33455000D01*
X181712500Y-34979000D02*
X182982500Y-34979000D01*
X181458500Y-34725000D02*
G75*
G03X181712500Y-34979000I254000J0D01*
G01*
X181458500Y-33455000D02*
X181458500Y-34725000D01*
X181712500Y-33201000D02*
G75*
G03X181458500Y-33455000I0J-254000D01*
G01*
D10*
X181227500Y-36380000D02*
X183467500Y-36380000D01*
X181227500Y-36620000D02*
X183467500Y-36620000D01*
X181227500Y-36500000D02*
X183467500Y-36500000D01*
X182347500Y-40770200D02*
X182347500Y-40059000D01*
X182347500Y-34979000D02*
X182347500Y-35780000D01*
X181227500Y-40020000D02*
X181227500Y-35780000D01*
X183467500Y-40020000D02*
X181227500Y-40020000D01*
X183467500Y-35780000D02*
X183467500Y-40020000D01*
X181227500Y-35780000D02*
X183467500Y-35780000D01*
D11*
X188034574Y-60760000D02*
G75*
G03X188034574Y-60760000I-924574J0D01*
G01*
X187999000Y-52505000D02*
G75*
G03X187745000Y-52251000I-254000J0D01*
G01*
X187745000Y-52251000D02*
X186475000Y-52251000D01*
X187745000Y-54029000D02*
G75*
G03X187999000Y-53775000I0J254000D01*
G01*
X187999000Y-53775000D02*
X187999000Y-52505000D01*
X186475000Y-54029000D02*
X187745000Y-54029000D01*
X186221000Y-53775000D02*
G75*
G03X186475000Y-54029000I254000J0D01*
G01*
X186221000Y-52505000D02*
X186221000Y-53775000D01*
X186475000Y-52251000D02*
G75*
G03X186221000Y-52505000I0J-254000D01*
G01*
D10*
X185990000Y-55430000D02*
X188230000Y-55430000D01*
X185990000Y-55670000D02*
X188230000Y-55670000D01*
X185990000Y-55550000D02*
X188230000Y-55550000D01*
X187110000Y-59820200D02*
X187110000Y-59109000D01*
X187110000Y-54029000D02*
X187110000Y-54830000D01*
X185990000Y-59070000D02*
X185990000Y-54830000D01*
X188230000Y-59070000D02*
X185990000Y-59070000D01*
X188230000Y-54830000D02*
X188230000Y-59070000D01*
X185990000Y-54830000D02*
X188230000Y-54830000D01*
D11*
X188034574Y-79810000D02*
G75*
G03X188034574Y-79810000I-924574J0D01*
G01*
X187999000Y-71555000D02*
G75*
G03X187745000Y-71301000I-254000J0D01*
G01*
X187745000Y-71301000D02*
X186475000Y-71301000D01*
X187745000Y-73079000D02*
G75*
G03X187999000Y-72825000I0J254000D01*
G01*
X187999000Y-72825000D02*
X187999000Y-71555000D01*
X186475000Y-73079000D02*
X187745000Y-73079000D01*
X186221000Y-72825000D02*
G75*
G03X186475000Y-73079000I254000J0D01*
G01*
X186221000Y-71555000D02*
X186221000Y-72825000D01*
X186475000Y-71301000D02*
G75*
G03X186221000Y-71555000I0J-254000D01*
G01*
D10*
X185990000Y-74480000D02*
X188230000Y-74480000D01*
X185990000Y-74720000D02*
X188230000Y-74720000D01*
X185990000Y-74600000D02*
X188230000Y-74600000D01*
X187110000Y-78870200D02*
X187110000Y-78159000D01*
X187110000Y-73079000D02*
X187110000Y-73880000D01*
X185990000Y-78120000D02*
X185990000Y-73880000D01*
X188230000Y-78120000D02*
X185990000Y-78120000D01*
X188230000Y-73880000D02*
X188230000Y-78120000D01*
X185990000Y-73880000D02*
X188230000Y-73880000D01*
D11*
X197559574Y-22660000D02*
G75*
G03X197559574Y-22660000I-924574J0D01*
G01*
X197524000Y-14405000D02*
G75*
G03X197270000Y-14151000I-254000J0D01*
G01*
X197270000Y-14151000D02*
X196000000Y-14151000D01*
X197270000Y-15929000D02*
G75*
G03X197524000Y-15675000I0J254000D01*
G01*
X197524000Y-15675000D02*
X197524000Y-14405000D01*
X196000000Y-15929000D02*
X197270000Y-15929000D01*
X195746000Y-15675000D02*
G75*
G03X196000000Y-15929000I254000J0D01*
G01*
X195746000Y-14405000D02*
X195746000Y-15675000D01*
X196000000Y-14151000D02*
G75*
G03X195746000Y-14405000I0J-254000D01*
G01*
D10*
X195515000Y-17330000D02*
X197755000Y-17330000D01*
X195515000Y-17570000D02*
X197755000Y-17570000D01*
X195515000Y-17450000D02*
X197755000Y-17450000D01*
X196635000Y-21720200D02*
X196635000Y-21009000D01*
X196635000Y-15929000D02*
X196635000Y-16730000D01*
X195515000Y-20970000D02*
X195515000Y-16730000D01*
X197755000Y-20970000D02*
X195515000Y-20970000D01*
X197755000Y-16730000D02*
X197755000Y-20970000D01*
X195515000Y-16730000D02*
X197755000Y-16730000D01*
D11*
X202322074Y-41710000D02*
G75*
G03X202322074Y-41710000I-924574J0D01*
G01*
X202286500Y-33455000D02*
G75*
G03X202032500Y-33201000I-254000J0D01*
G01*
X202032500Y-33201000D02*
X200762500Y-33201000D01*
X202032500Y-34979000D02*
G75*
G03X202286500Y-34725000I0J254000D01*
G01*
X202286500Y-34725000D02*
X202286500Y-33455000D01*
X200762500Y-34979000D02*
X202032500Y-34979000D01*
X200508500Y-34725000D02*
G75*
G03X200762500Y-34979000I254000J0D01*
G01*
X200508500Y-33455000D02*
X200508500Y-34725000D01*
X200762500Y-33201000D02*
G75*
G03X200508500Y-33455000I0J-254000D01*
G01*
D10*
X200277500Y-36380000D02*
X202517500Y-36380000D01*
X200277500Y-36620000D02*
X202517500Y-36620000D01*
X200277500Y-36500000D02*
X202517500Y-36500000D01*
X201397500Y-40770200D02*
X201397500Y-40059000D01*
X201397500Y-34979000D02*
X201397500Y-35780000D01*
X200277500Y-40020000D02*
X200277500Y-35780000D01*
X202517500Y-40020000D02*
X200277500Y-40020000D01*
X202517500Y-35780000D02*
X202517500Y-40020000D01*
X200277500Y-35780000D02*
X202517500Y-35780000D01*
D11*
X207084574Y-60760000D02*
G75*
G03X207084574Y-60760000I-924574J0D01*
G01*
X207049000Y-52505000D02*
G75*
G03X206795000Y-52251000I-254000J0D01*
G01*
X206795000Y-52251000D02*
X205525000Y-52251000D01*
X206795000Y-54029000D02*
G75*
G03X207049000Y-53775000I0J254000D01*
G01*
X207049000Y-53775000D02*
X207049000Y-52505000D01*
X205525000Y-54029000D02*
X206795000Y-54029000D01*
X205271000Y-53775000D02*
G75*
G03X205525000Y-54029000I254000J0D01*
G01*
X205271000Y-52505000D02*
X205271000Y-53775000D01*
X205525000Y-52251000D02*
G75*
G03X205271000Y-52505000I0J-254000D01*
G01*
D10*
X205040000Y-55430000D02*
X207280000Y-55430000D01*
X205040000Y-55670000D02*
X207280000Y-55670000D01*
X205040000Y-55550000D02*
X207280000Y-55550000D01*
X206160000Y-59820200D02*
X206160000Y-59109000D01*
X206160000Y-54029000D02*
X206160000Y-54830000D01*
X205040000Y-59070000D02*
X205040000Y-54830000D01*
X207280000Y-59070000D02*
X205040000Y-59070000D01*
X207280000Y-54830000D02*
X207280000Y-59070000D01*
X205040000Y-54830000D02*
X207280000Y-54830000D01*
D11*
X207084574Y-79810000D02*
G75*
G03X207084574Y-79810000I-924574J0D01*
G01*
X207049000Y-71555000D02*
G75*
G03X206795000Y-71301000I-254000J0D01*
G01*
X206795000Y-71301000D02*
X205525000Y-71301000D01*
X206795000Y-73079000D02*
G75*
G03X207049000Y-72825000I0J254000D01*
G01*
X207049000Y-72825000D02*
X207049000Y-71555000D01*
X205525000Y-73079000D02*
X206795000Y-73079000D01*
X205271000Y-72825000D02*
G75*
G03X205525000Y-73079000I254000J0D01*
G01*
X205271000Y-71555000D02*
X205271000Y-72825000D01*
X205525000Y-71301000D02*
G75*
G03X205271000Y-71555000I0J-254000D01*
G01*
D10*
X205040000Y-74480000D02*
X207280000Y-74480000D01*
X205040000Y-74720000D02*
X207280000Y-74720000D01*
X205040000Y-74600000D02*
X207280000Y-74600000D01*
X206160000Y-78870200D02*
X206160000Y-78159000D01*
X206160000Y-73079000D02*
X206160000Y-73880000D01*
X205040000Y-78120000D02*
X205040000Y-73880000D01*
X207280000Y-78120000D02*
X205040000Y-78120000D01*
X207280000Y-73880000D02*
X207280000Y-78120000D01*
X205040000Y-73880000D02*
X207280000Y-73880000D01*
D11*
X216609574Y-22660000D02*
G75*
G03X216609574Y-22660000I-924574J0D01*
G01*
X216574000Y-14405000D02*
G75*
G03X216320000Y-14151000I-254000J0D01*
G01*
X216320000Y-14151000D02*
X215050000Y-14151000D01*
X216320000Y-15929000D02*
G75*
G03X216574000Y-15675000I0J254000D01*
G01*
X216574000Y-15675000D02*
X216574000Y-14405000D01*
X215050000Y-15929000D02*
X216320000Y-15929000D01*
X214796000Y-15675000D02*
G75*
G03X215050000Y-15929000I254000J0D01*
G01*
X214796000Y-14405000D02*
X214796000Y-15675000D01*
X215050000Y-14151000D02*
G75*
G03X214796000Y-14405000I0J-254000D01*
G01*
D10*
X214565000Y-17330000D02*
X216805000Y-17330000D01*
X214565000Y-17570000D02*
X216805000Y-17570000D01*
X214565000Y-17450000D02*
X216805000Y-17450000D01*
X215685000Y-21720200D02*
X215685000Y-21009000D01*
X215685000Y-15929000D02*
X215685000Y-16730000D01*
X214565000Y-20970000D02*
X214565000Y-16730000D01*
X216805000Y-20970000D02*
X214565000Y-20970000D01*
X216805000Y-16730000D02*
X216805000Y-20970000D01*
X214565000Y-16730000D02*
X216805000Y-16730000D01*
D11*
X242439574Y-60760000D02*
G75*
G03X242439574Y-60760000I-924574J0D01*
G01*
X242404000Y-52505000D02*
G75*
G03X242150000Y-52251000I-254000J0D01*
G01*
X242150000Y-52251000D02*
X240880000Y-52251000D01*
X242150000Y-54029000D02*
G75*
G03X242404000Y-53775000I0J254000D01*
G01*
X242404000Y-53775000D02*
X242404000Y-52505000D01*
X240880000Y-54029000D02*
X242150000Y-54029000D01*
X240626000Y-53775000D02*
G75*
G03X240880000Y-54029000I254000J0D01*
G01*
X240626000Y-52505000D02*
X240626000Y-53775000D01*
X240880000Y-52251000D02*
G75*
G03X240626000Y-52505000I0J-254000D01*
G01*
D10*
X240395000Y-55430000D02*
X242635000Y-55430000D01*
X240395000Y-55670000D02*
X242635000Y-55670000D01*
X240395000Y-55550000D02*
X242635000Y-55550000D01*
X241515000Y-59820200D02*
X241515000Y-59109000D01*
X241515000Y-54029000D02*
X241515000Y-54830000D01*
X240395000Y-59070000D02*
X240395000Y-54830000D01*
X242635000Y-59070000D02*
X240395000Y-59070000D01*
X242635000Y-54830000D02*
X242635000Y-59070000D01*
X240395000Y-54830000D02*
X242635000Y-54830000D01*
D11*
X226134574Y-79810000D02*
G75*
G03X226134574Y-79810000I-924574J0D01*
G01*
X226099000Y-71555000D02*
G75*
G03X225845000Y-71301000I-254000J0D01*
G01*
X225845000Y-71301000D02*
X224575000Y-71301000D01*
X225845000Y-73079000D02*
G75*
G03X226099000Y-72825000I0J254000D01*
G01*
X226099000Y-72825000D02*
X226099000Y-71555000D01*
X224575000Y-73079000D02*
X225845000Y-73079000D01*
X224321000Y-72825000D02*
G75*
G03X224575000Y-73079000I254000J0D01*
G01*
X224321000Y-71555000D02*
X224321000Y-72825000D01*
X224575000Y-71301000D02*
G75*
G03X224321000Y-71555000I0J-254000D01*
G01*
D10*
X224090000Y-74480000D02*
X226330000Y-74480000D01*
X224090000Y-74720000D02*
X226330000Y-74720000D01*
X224090000Y-74600000D02*
X226330000Y-74600000D01*
X225210000Y-78870200D02*
X225210000Y-78159000D01*
X225210000Y-73079000D02*
X225210000Y-73880000D01*
X224090000Y-78120000D02*
X224090000Y-73880000D01*
X226330000Y-78120000D02*
X224090000Y-78120000D01*
X226330000Y-73880000D02*
X226330000Y-78120000D01*
X224090000Y-73880000D02*
X226330000Y-73880000D01*
D11*
X240422074Y-22660000D02*
G75*
G03X240422074Y-22660000I-924574J0D01*
G01*
X240386500Y-14405000D02*
G75*
G03X240132500Y-14151000I-254000J0D01*
G01*
X240132500Y-14151000D02*
X238862500Y-14151000D01*
X240132500Y-15929000D02*
G75*
G03X240386500Y-15675000I0J254000D01*
G01*
X240386500Y-15675000D02*
X240386500Y-14405000D01*
X238862500Y-15929000D02*
X240132500Y-15929000D01*
X238608500Y-15675000D02*
G75*
G03X238862500Y-15929000I254000J0D01*
G01*
X238608500Y-14405000D02*
X238608500Y-15675000D01*
X238862500Y-14151000D02*
G75*
G03X238608500Y-14405000I0J-254000D01*
G01*
D10*
X238377500Y-17330000D02*
X240617500Y-17330000D01*
X238377500Y-17570000D02*
X240617500Y-17570000D01*
X238377500Y-17450000D02*
X240617500Y-17450000D01*
X239497500Y-21720200D02*
X239497500Y-21009000D01*
X239497500Y-15929000D02*
X239497500Y-16730000D01*
X238377500Y-20970000D02*
X238377500Y-16730000D01*
X240617500Y-20970000D02*
X238377500Y-20970000D01*
X240617500Y-16730000D02*
X240617500Y-20970000D01*
X238377500Y-16730000D02*
X240617500Y-16730000D01*
D11*
X261489574Y-41710000D02*
G75*
G03X261489574Y-41710000I-924574J0D01*
G01*
X261454000Y-33455000D02*
G75*
G03X261200000Y-33201000I-254000J0D01*
G01*
X261200000Y-33201000D02*
X259930000Y-33201000D01*
X261200000Y-34979000D02*
G75*
G03X261454000Y-34725000I0J254000D01*
G01*
X261454000Y-34725000D02*
X261454000Y-33455000D01*
X259930000Y-34979000D02*
X261200000Y-34979000D01*
X259676000Y-34725000D02*
G75*
G03X259930000Y-34979000I254000J0D01*
G01*
X259676000Y-33455000D02*
X259676000Y-34725000D01*
X259930000Y-33201000D02*
G75*
G03X259676000Y-33455000I0J-254000D01*
G01*
D10*
X259445000Y-36380000D02*
X261685000Y-36380000D01*
X259445000Y-36620000D02*
X261685000Y-36620000D01*
X259445000Y-36500000D02*
X261685000Y-36500000D01*
X260565000Y-40770200D02*
X260565000Y-40059000D01*
X260565000Y-34979000D02*
X260565000Y-35780000D01*
X259445000Y-40020000D02*
X259445000Y-35780000D01*
X261685000Y-40020000D02*
X259445000Y-40020000D01*
X261685000Y-35780000D02*
X261685000Y-40020000D01*
X259445000Y-35780000D02*
X261685000Y-35780000D01*
D11*
X245124574Y-60760000D02*
G75*
G03X245124574Y-60760000I-924574J0D01*
G01*
X245089000Y-52505000D02*
G75*
G03X244835000Y-52251000I-254000J0D01*
G01*
X244835000Y-52251000D02*
X243565000Y-52251000D01*
X244835000Y-54029000D02*
G75*
G03X245089000Y-53775000I0J254000D01*
G01*
X245089000Y-53775000D02*
X245089000Y-52505000D01*
X243565000Y-54029000D02*
X244835000Y-54029000D01*
X243311000Y-53775000D02*
G75*
G03X243565000Y-54029000I254000J0D01*
G01*
X243311000Y-52505000D02*
X243311000Y-53775000D01*
X243565000Y-52251000D02*
G75*
G03X243311000Y-52505000I0J-254000D01*
G01*
D10*
X243080000Y-55430000D02*
X245320000Y-55430000D01*
X243080000Y-55670000D02*
X245320000Y-55670000D01*
X243080000Y-55550000D02*
X245320000Y-55550000D01*
X244200000Y-59820200D02*
X244200000Y-59109000D01*
X244200000Y-54029000D02*
X244200000Y-54830000D01*
X243080000Y-59070000D02*
X243080000Y-54830000D01*
X245320000Y-59070000D02*
X243080000Y-59070000D01*
X245320000Y-54830000D02*
X245320000Y-59070000D01*
X243080000Y-54830000D02*
X245320000Y-54830000D01*
D11*
X245324574Y-79810000D02*
G75*
G03X245324574Y-79810000I-924574J0D01*
G01*
X245289000Y-71555000D02*
G75*
G03X245035000Y-71301000I-254000J0D01*
G01*
X245035000Y-71301000D02*
X243765000Y-71301000D01*
X245035000Y-73079000D02*
G75*
G03X245289000Y-72825000I0J254000D01*
G01*
X245289000Y-72825000D02*
X245289000Y-71555000D01*
X243765000Y-73079000D02*
X245035000Y-73079000D01*
X243511000Y-72825000D02*
G75*
G03X243765000Y-73079000I254000J0D01*
G01*
X243511000Y-71555000D02*
X243511000Y-72825000D01*
X243765000Y-71301000D02*
G75*
G03X243511000Y-71555000I0J-254000D01*
G01*
D10*
X243280000Y-74480000D02*
X245520000Y-74480000D01*
X243280000Y-74720000D02*
X245520000Y-74720000D01*
X243280000Y-74600000D02*
X245520000Y-74600000D01*
X244400000Y-78870200D02*
X244400000Y-78159000D01*
X244400000Y-73079000D02*
X244400000Y-73880000D01*
X243280000Y-78120000D02*
X243280000Y-73880000D01*
X245520000Y-78120000D02*
X243280000Y-78120000D01*
X245520000Y-73880000D02*
X245520000Y-78120000D01*
X243280000Y-73880000D02*
X245520000Y-73880000D01*
D11*
X264234574Y-22660000D02*
G75*
G03X264234574Y-22660000I-924574J0D01*
G01*
X264199000Y-14405000D02*
G75*
G03X263945000Y-14151000I-254000J0D01*
G01*
X263945000Y-14151000D02*
X262675000Y-14151000D01*
X263945000Y-15929000D02*
G75*
G03X264199000Y-15675000I0J254000D01*
G01*
X264199000Y-15675000D02*
X264199000Y-14405000D01*
X262675000Y-15929000D02*
X263945000Y-15929000D01*
X262421000Y-15675000D02*
G75*
G03X262675000Y-15929000I254000J0D01*
G01*
X262421000Y-14405000D02*
X262421000Y-15675000D01*
X262675000Y-14151000D02*
G75*
G03X262421000Y-14405000I0J-254000D01*
G01*
D10*
X262190000Y-17330000D02*
X264430000Y-17330000D01*
X262190000Y-17570000D02*
X264430000Y-17570000D01*
X262190000Y-17450000D02*
X264430000Y-17450000D01*
X263310000Y-21720200D02*
X263310000Y-21009000D01*
X263310000Y-15929000D02*
X263310000Y-16730000D01*
X262190000Y-20970000D02*
X262190000Y-16730000D01*
X264430000Y-20970000D02*
X262190000Y-20970000D01*
X264430000Y-16730000D02*
X264430000Y-20970000D01*
X262190000Y-16730000D02*
X264430000Y-16730000D01*
D11*
X264234574Y-41710000D02*
G75*
G03X264234574Y-41710000I-924574J0D01*
G01*
X264199000Y-33455000D02*
G75*
G03X263945000Y-33201000I-254000J0D01*
G01*
X263945000Y-33201000D02*
X262675000Y-33201000D01*
X263945000Y-34979000D02*
G75*
G03X264199000Y-34725000I0J254000D01*
G01*
X264199000Y-34725000D02*
X264199000Y-33455000D01*
X262675000Y-34979000D02*
X263945000Y-34979000D01*
X262421000Y-34725000D02*
G75*
G03X262675000Y-34979000I254000J0D01*
G01*
X262421000Y-33455000D02*
X262421000Y-34725000D01*
X262675000Y-33201000D02*
G75*
G03X262421000Y-33455000I0J-254000D01*
G01*
D10*
X262190000Y-36380000D02*
X264430000Y-36380000D01*
X262190000Y-36620000D02*
X264430000Y-36620000D01*
X262190000Y-36500000D02*
X264430000Y-36500000D01*
X263310000Y-40770200D02*
X263310000Y-40059000D01*
X263310000Y-34979000D02*
X263310000Y-35780000D01*
X262190000Y-40020000D02*
X262190000Y-35780000D01*
X264430000Y-40020000D02*
X262190000Y-40020000D01*
X264430000Y-35780000D02*
X264430000Y-40020000D01*
X262190000Y-35780000D02*
X264430000Y-35780000D01*
D11*
X264234574Y-60760000D02*
G75*
G03X264234574Y-60760000I-924574J0D01*
G01*
X264199000Y-52505000D02*
G75*
G03X263945000Y-52251000I-254000J0D01*
G01*
X263945000Y-52251000D02*
X262675000Y-52251000D01*
X263945000Y-54029000D02*
G75*
G03X264199000Y-53775000I0J254000D01*
G01*
X264199000Y-53775000D02*
X264199000Y-52505000D01*
X262675000Y-54029000D02*
X263945000Y-54029000D01*
X262421000Y-53775000D02*
G75*
G03X262675000Y-54029000I254000J0D01*
G01*
X262421000Y-52505000D02*
X262421000Y-53775000D01*
X262675000Y-52251000D02*
G75*
G03X262421000Y-52505000I0J-254000D01*
G01*
D10*
X262190000Y-55430000D02*
X264430000Y-55430000D01*
X262190000Y-55670000D02*
X264430000Y-55670000D01*
X262190000Y-55550000D02*
X264430000Y-55550000D01*
X263310000Y-59820200D02*
X263310000Y-59109000D01*
X263310000Y-54029000D02*
X263310000Y-54830000D01*
X262190000Y-59070000D02*
X262190000Y-54830000D01*
X264430000Y-59070000D02*
X262190000Y-59070000D01*
X264430000Y-54830000D02*
X264430000Y-59070000D01*
X262190000Y-54830000D02*
X264430000Y-54830000D01*
D11*
X242439574Y-79810000D02*
G75*
G03X242439574Y-79810000I-924574J0D01*
G01*
X242404000Y-71555000D02*
G75*
G03X242150000Y-71301000I-254000J0D01*
G01*
X242150000Y-71301000D02*
X240880000Y-71301000D01*
X242150000Y-73079000D02*
G75*
G03X242404000Y-72825000I0J254000D01*
G01*
X242404000Y-72825000D02*
X242404000Y-71555000D01*
X240880000Y-73079000D02*
X242150000Y-73079000D01*
X240626000Y-72825000D02*
G75*
G03X240880000Y-73079000I254000J0D01*
G01*
X240626000Y-71555000D02*
X240626000Y-72825000D01*
X240880000Y-71301000D02*
G75*
G03X240626000Y-71555000I0J-254000D01*
G01*
D10*
X240395000Y-74480000D02*
X242635000Y-74480000D01*
X240395000Y-74720000D02*
X242635000Y-74720000D01*
X240395000Y-74600000D02*
X242635000Y-74600000D01*
X241515000Y-78870200D02*
X241515000Y-78159000D01*
X241515000Y-73079000D02*
X241515000Y-73880000D01*
X240395000Y-78120000D02*
X240395000Y-73880000D01*
X242635000Y-78120000D02*
X240395000Y-78120000D01*
X242635000Y-73880000D02*
X242635000Y-78120000D01*
X240395000Y-73880000D02*
X242635000Y-73880000D01*
X44750000Y-41250000D02*
X46250000Y-41250000D01*
X48750000Y-42500000D02*
X48750000Y-47000000D01*
X46250000Y-48250000D02*
X44750000Y-48250000D01*
X42250000Y-47000000D02*
X42250000Y-42500000D01*
D11*
X28745000Y-30438000D02*
X28745000Y-31200000D01*
X26205000Y-30438000D02*
X28745000Y-30438000D01*
X26205000Y-31200000D02*
X26205000Y-30438000D01*
X28745000Y-31962000D02*
X26205000Y-31962000D01*
X28745000Y-31200000D02*
X28745000Y-31962000D01*
X29151400Y-31200000D02*
X28745000Y-31200000D01*
X26205000Y-31200000D02*
X26205000Y-31962000D01*
X25798600Y-31200000D02*
X26205000Y-31200000D01*
X30818219Y-31200000D02*
G75*
G03X30818219Y-31200000I-803219J0D01*
G01*
X25738219Y-31200000D02*
G75*
G03X25738219Y-31200000I-803219J0D01*
G01*
X59638000Y-26880000D02*
X60400000Y-26880000D01*
X59638000Y-29420000D02*
X59638000Y-26880000D01*
X60400000Y-29420000D02*
X59638000Y-29420000D01*
X61162000Y-26880000D02*
X61162000Y-29420000D01*
X60400000Y-26880000D02*
X61162000Y-26880000D01*
X60400000Y-26473600D02*
X60400000Y-26880000D01*
X60400000Y-29420000D02*
X61162000Y-29420000D01*
X60400000Y-29826400D02*
X60400000Y-29420000D01*
X61203219Y-25610000D02*
G75*
G03X61203219Y-25610000I-803219J0D01*
G01*
X61203219Y-30690000D02*
G75*
G03X61203219Y-30690000I-803219J0D01*
G01*
X62523000Y-26880000D02*
X63285000Y-26880000D01*
X62523000Y-29420000D02*
X62523000Y-26880000D01*
X63285000Y-29420000D02*
X62523000Y-29420000D01*
X64047000Y-26880000D02*
X64047000Y-29420000D01*
X63285000Y-26880000D02*
X64047000Y-26880000D01*
X63285000Y-26473600D02*
X63285000Y-26880000D01*
X63285000Y-29420000D02*
X64047000Y-29420000D01*
X63285000Y-29826400D02*
X63285000Y-29420000D01*
X64088219Y-25610000D02*
G75*
G03X64088219Y-25610000I-803219J0D01*
G01*
X64088219Y-30690000D02*
G75*
G03X64088219Y-30690000I-803219J0D01*
G01*
X81573000Y-26880000D02*
X82335000Y-26880000D01*
X81573000Y-29420000D02*
X81573000Y-26880000D01*
X82335000Y-29420000D02*
X81573000Y-29420000D01*
X83097000Y-26880000D02*
X83097000Y-29420000D01*
X82335000Y-26880000D02*
X83097000Y-26880000D01*
X82335000Y-26473600D02*
X82335000Y-26880000D01*
X82335000Y-29420000D02*
X83097000Y-29420000D01*
X82335000Y-29826400D02*
X82335000Y-29420000D01*
X83138219Y-25610000D02*
G75*
G03X83138219Y-25610000I-803219J0D01*
G01*
X83138219Y-30690000D02*
G75*
G03X83138219Y-30690000I-803219J0D01*
G01*
X100623000Y-26880000D02*
X101385000Y-26880000D01*
X100623000Y-29420000D02*
X100623000Y-26880000D01*
X101385000Y-29420000D02*
X100623000Y-29420000D01*
X102147000Y-26880000D02*
X102147000Y-29420000D01*
X101385000Y-26880000D02*
X102147000Y-26880000D01*
X101385000Y-26473600D02*
X101385000Y-26880000D01*
X101385000Y-29420000D02*
X102147000Y-29420000D01*
X101385000Y-29826400D02*
X101385000Y-29420000D01*
X102188219Y-25610000D02*
G75*
G03X102188219Y-25610000I-803219J0D01*
G01*
X102188219Y-30690000D02*
G75*
G03X102188219Y-30690000I-803219J0D01*
G01*
X119673000Y-26880000D02*
X120435000Y-26880000D01*
X119673000Y-29420000D02*
X119673000Y-26880000D01*
X120435000Y-29420000D02*
X119673000Y-29420000D01*
X121197000Y-26880000D02*
X121197000Y-29420000D01*
X120435000Y-26880000D02*
X121197000Y-26880000D01*
X120435000Y-26473600D02*
X120435000Y-26880000D01*
X120435000Y-29420000D02*
X121197000Y-29420000D01*
X120435000Y-29826400D02*
X120435000Y-29420000D01*
X121238219Y-25610000D02*
G75*
G03X121238219Y-25610000I-803219J0D01*
G01*
X121238219Y-30690000D02*
G75*
G03X121238219Y-30690000I-803219J0D01*
G01*
X155028000Y-26880000D02*
X155790000Y-26880000D01*
X155028000Y-29420000D02*
X155028000Y-26880000D01*
X155790000Y-29420000D02*
X155028000Y-29420000D01*
X156552000Y-26880000D02*
X156552000Y-29420000D01*
X155790000Y-26880000D02*
X156552000Y-26880000D01*
X155790000Y-26473600D02*
X155790000Y-26880000D01*
X155790000Y-29420000D02*
X156552000Y-29420000D01*
X155790000Y-29826400D02*
X155790000Y-29420000D01*
X156593219Y-25610000D02*
G75*
G03X156593219Y-25610000I-803219J0D01*
G01*
X156593219Y-30690000D02*
G75*
G03X156593219Y-30690000I-803219J0D01*
G01*
X157773000Y-26880000D02*
X158535000Y-26880000D01*
X157773000Y-29420000D02*
X157773000Y-26880000D01*
X158535000Y-29420000D02*
X157773000Y-29420000D01*
X159297000Y-26880000D02*
X159297000Y-29420000D01*
X158535000Y-26880000D02*
X159297000Y-26880000D01*
X158535000Y-26473600D02*
X158535000Y-26880000D01*
X158535000Y-29420000D02*
X159297000Y-29420000D01*
X158535000Y-29826400D02*
X158535000Y-29420000D01*
X159338219Y-25610000D02*
G75*
G03X159338219Y-25610000I-803219J0D01*
G01*
X159338219Y-30690000D02*
G75*
G03X159338219Y-30690000I-803219J0D01*
G01*
X176823000Y-26880000D02*
X177585000Y-26880000D01*
X176823000Y-29420000D02*
X176823000Y-26880000D01*
X177585000Y-29420000D02*
X176823000Y-29420000D01*
X178347000Y-26880000D02*
X178347000Y-29420000D01*
X177585000Y-26880000D02*
X178347000Y-26880000D01*
X177585000Y-26473600D02*
X177585000Y-26880000D01*
X177585000Y-29420000D02*
X178347000Y-29420000D01*
X177585000Y-29826400D02*
X177585000Y-29420000D01*
X178388219Y-25610000D02*
G75*
G03X178388219Y-25610000I-803219J0D01*
G01*
X178388219Y-30690000D02*
G75*
G03X178388219Y-30690000I-803219J0D01*
G01*
X195873000Y-26880000D02*
X196635000Y-26880000D01*
X195873000Y-29420000D02*
X195873000Y-26880000D01*
X196635000Y-29420000D02*
X195873000Y-29420000D01*
X197397000Y-26880000D02*
X197397000Y-29420000D01*
X196635000Y-26880000D02*
X197397000Y-26880000D01*
X196635000Y-26473600D02*
X196635000Y-26880000D01*
X196635000Y-29420000D02*
X197397000Y-29420000D01*
X196635000Y-29826400D02*
X196635000Y-29420000D01*
X197438219Y-25610000D02*
G75*
G03X197438219Y-25610000I-803219J0D01*
G01*
X197438219Y-30690000D02*
G75*
G03X197438219Y-30690000I-803219J0D01*
G01*
X148112000Y-83120000D02*
X147350000Y-83120000D01*
X148112000Y-80580000D02*
X148112000Y-83120000D01*
X147350000Y-80580000D02*
X148112000Y-80580000D01*
X146588000Y-83120000D02*
X146588000Y-80580000D01*
X147350000Y-83120000D02*
X146588000Y-83120000D01*
X147350000Y-83526400D02*
X147350000Y-83120000D01*
X147350000Y-80580000D02*
X146588000Y-80580000D01*
X147350000Y-80173600D02*
X147350000Y-80580000D01*
X148153219Y-84390000D02*
G75*
G03X148153219Y-84390000I-803219J0D01*
G01*
X148153219Y-79310000D02*
G75*
G03X148153219Y-79310000I-803219J0D01*
G01*
X143438000Y-80580000D02*
X144200000Y-80580000D01*
X143438000Y-83120000D02*
X143438000Y-80580000D01*
X144200000Y-83120000D02*
X143438000Y-83120000D01*
X144962000Y-80580000D02*
X144962000Y-83120000D01*
X144200000Y-80580000D02*
X144962000Y-80580000D01*
X144200000Y-80173600D02*
X144200000Y-80580000D01*
X144200000Y-83120000D02*
X144962000Y-83120000D01*
X144200000Y-83526400D02*
X144200000Y-83120000D01*
X145003219Y-79310000D02*
G75*
G03X145003219Y-79310000I-803219J0D01*
G01*
X145003219Y-84390000D02*
G75*
G03X145003219Y-84390000I-803219J0D01*
G01*
X214923000Y-26880000D02*
X215685000Y-26880000D01*
X214923000Y-29420000D02*
X214923000Y-26880000D01*
X215685000Y-29420000D02*
X214923000Y-29420000D01*
X216447000Y-26880000D02*
X216447000Y-29420000D01*
X215685000Y-26880000D02*
X216447000Y-26880000D01*
X215685000Y-26473600D02*
X215685000Y-26880000D01*
X215685000Y-29420000D02*
X216447000Y-29420000D01*
X215685000Y-29826400D02*
X215685000Y-29420000D01*
X216488219Y-25610000D02*
G75*
G03X216488219Y-25610000I-803219J0D01*
G01*
X216488219Y-30690000D02*
G75*
G03X216488219Y-30690000I-803219J0D01*
G01*
X238735500Y-26880000D02*
X239497500Y-26880000D01*
X238735500Y-29420000D02*
X238735500Y-26880000D01*
X239497500Y-29420000D02*
X238735500Y-29420000D01*
X240259500Y-26880000D02*
X240259500Y-29420000D01*
X239497500Y-26880000D02*
X240259500Y-26880000D01*
X239497500Y-26473600D02*
X239497500Y-26880000D01*
X239497500Y-29420000D02*
X240259500Y-29420000D01*
X239497500Y-29826400D02*
X239497500Y-29420000D01*
X240300719Y-25610000D02*
G75*
G03X240300719Y-25610000I-803219J0D01*
G01*
X240300719Y-30690000D02*
G75*
G03X240300719Y-30690000I-803219J0D01*
G01*
X262548000Y-26880000D02*
X263310000Y-26880000D01*
X262548000Y-29420000D02*
X262548000Y-26880000D01*
X263310000Y-29420000D02*
X262548000Y-29420000D01*
X264072000Y-26880000D02*
X264072000Y-29420000D01*
X263310000Y-26880000D02*
X264072000Y-26880000D01*
X263310000Y-26473600D02*
X263310000Y-26880000D01*
X263310000Y-29420000D02*
X264072000Y-29420000D01*
X263310000Y-29826400D02*
X263310000Y-29420000D01*
X264113219Y-25610000D02*
G75*
G03X264113219Y-25610000I-803219J0D01*
G01*
X264113219Y-30690000D02*
G75*
G03X264113219Y-30690000I-803219J0D01*
G01*
X38346750Y-47230000D02*
X39108750Y-47230000D01*
X38346750Y-49770000D02*
X38346750Y-47230000D01*
X39108750Y-49770000D02*
X38346750Y-49770000D01*
X39870750Y-47230000D02*
X39870750Y-49770000D01*
X39108750Y-47230000D02*
X39870750Y-47230000D01*
X39108750Y-46823600D02*
X39108750Y-47230000D01*
X39108750Y-49770000D02*
X39870750Y-49770000D01*
X39108750Y-50176400D02*
X39108750Y-49770000D01*
X39911969Y-45960000D02*
G75*
G03X39911969Y-45960000I-803219J0D01*
G01*
X39911969Y-51040000D02*
G75*
G03X39911969Y-51040000I-803219J0D01*
G01*
X64540500Y-45930000D02*
X65302500Y-45930000D01*
X64540500Y-48470000D02*
X64540500Y-45930000D01*
X65302500Y-48470000D02*
X64540500Y-48470000D01*
X66064500Y-45930000D02*
X66064500Y-48470000D01*
X65302500Y-45930000D02*
X66064500Y-45930000D01*
X65302500Y-45523600D02*
X65302500Y-45930000D01*
X65302500Y-48470000D02*
X66064500Y-48470000D01*
X65302500Y-48876400D02*
X65302500Y-48470000D01*
X66105719Y-44660000D02*
G75*
G03X66105719Y-44660000I-803219J0D01*
G01*
X66105719Y-49740000D02*
G75*
G03X66105719Y-49740000I-803219J0D01*
G01*
X67285500Y-45930000D02*
X68047500Y-45930000D01*
X67285500Y-48470000D02*
X67285500Y-45930000D01*
X68047500Y-48470000D02*
X67285500Y-48470000D01*
X68809500Y-45930000D02*
X68809500Y-48470000D01*
X68047500Y-45930000D02*
X68809500Y-45930000D01*
X68047500Y-45523600D02*
X68047500Y-45930000D01*
X68047500Y-48470000D02*
X68809500Y-48470000D01*
X68047500Y-48876400D02*
X68047500Y-48470000D01*
X68850719Y-44660000D02*
G75*
G03X68850719Y-44660000I-803219J0D01*
G01*
X68850719Y-49740000D02*
G75*
G03X68850719Y-49740000I-803219J0D01*
G01*
X86335500Y-45930000D02*
X87097500Y-45930000D01*
X86335500Y-48470000D02*
X86335500Y-45930000D01*
X87097500Y-48470000D02*
X86335500Y-48470000D01*
X87859500Y-45930000D02*
X87859500Y-48470000D01*
X87097500Y-45930000D02*
X87859500Y-45930000D01*
X87097500Y-45523600D02*
X87097500Y-45930000D01*
X87097500Y-48470000D02*
X87859500Y-48470000D01*
X87097500Y-48876400D02*
X87097500Y-48470000D01*
X87900719Y-44660000D02*
G75*
G03X87900719Y-44660000I-803219J0D01*
G01*
X87900719Y-49740000D02*
G75*
G03X87900719Y-49740000I-803219J0D01*
G01*
X102640500Y-45930000D02*
X103402500Y-45930000D01*
X102640500Y-48470000D02*
X102640500Y-45930000D01*
X103402500Y-48470000D02*
X102640500Y-48470000D01*
X104164500Y-45930000D02*
X104164500Y-48470000D01*
X103402500Y-45930000D02*
X104164500Y-45930000D01*
X103402500Y-45523600D02*
X103402500Y-45930000D01*
X103402500Y-48470000D02*
X104164500Y-48470000D01*
X103402500Y-48876400D02*
X103402500Y-48470000D01*
X104205719Y-44660000D02*
G75*
G03X104205719Y-44660000I-803219J0D01*
G01*
X104205719Y-49740000D02*
G75*
G03X104205719Y-49740000I-803219J0D01*
G01*
X105385500Y-45930000D02*
X106147500Y-45930000D01*
X105385500Y-48470000D02*
X105385500Y-45930000D01*
X106147500Y-48470000D02*
X105385500Y-48470000D01*
X106909500Y-45930000D02*
X106909500Y-48470000D01*
X106147500Y-45930000D02*
X106909500Y-45930000D01*
X106147500Y-45523600D02*
X106147500Y-45930000D01*
X106147500Y-48470000D02*
X106909500Y-48470000D01*
X106147500Y-48876400D02*
X106147500Y-48470000D01*
X106950719Y-44660000D02*
G75*
G03X106950719Y-44660000I-803219J0D01*
G01*
X106950719Y-49740000D02*
G75*
G03X106950719Y-49740000I-803219J0D01*
G01*
X159740500Y-46280000D02*
X160502500Y-46280000D01*
X159740500Y-48820000D02*
X159740500Y-46280000D01*
X160502500Y-48820000D02*
X159740500Y-48820000D01*
X161264500Y-46280000D02*
X161264500Y-48820000D01*
X160502500Y-46280000D02*
X161264500Y-46280000D01*
X160502500Y-45873600D02*
X160502500Y-46280000D01*
X160502500Y-48820000D02*
X161264500Y-48820000D01*
X160502500Y-49226400D02*
X160502500Y-48820000D01*
X161305719Y-45010000D02*
G75*
G03X161305719Y-45010000I-803219J0D01*
G01*
X161305719Y-50090000D02*
G75*
G03X161305719Y-50090000I-803219J0D01*
G01*
X162485500Y-46280000D02*
X163247500Y-46280000D01*
X162485500Y-48820000D02*
X162485500Y-46280000D01*
X163247500Y-48820000D02*
X162485500Y-48820000D01*
X164009500Y-46280000D02*
X164009500Y-48820000D01*
X163247500Y-46280000D02*
X164009500Y-46280000D01*
X163247500Y-45873600D02*
X163247500Y-46280000D01*
X163247500Y-48820000D02*
X164009500Y-48820000D01*
X163247500Y-49226400D02*
X163247500Y-48820000D01*
X164050719Y-45010000D02*
G75*
G03X164050719Y-45010000I-803219J0D01*
G01*
X164050719Y-50090000D02*
G75*
G03X164050719Y-50090000I-803219J0D01*
G01*
X181585500Y-45930000D02*
X182347500Y-45930000D01*
X181585500Y-48470000D02*
X181585500Y-45930000D01*
X182347500Y-48470000D02*
X181585500Y-48470000D01*
X183109500Y-45930000D02*
X183109500Y-48470000D01*
X182347500Y-45930000D02*
X183109500Y-45930000D01*
X182347500Y-45523600D02*
X182347500Y-45930000D01*
X182347500Y-48470000D02*
X183109500Y-48470000D01*
X182347500Y-48876400D02*
X182347500Y-48470000D01*
X183150719Y-44660000D02*
G75*
G03X183150719Y-44660000I-803219J0D01*
G01*
X183150719Y-49740000D02*
G75*
G03X183150719Y-49740000I-803219J0D01*
G01*
X200635500Y-45930000D02*
X201397500Y-45930000D01*
X200635500Y-48470000D02*
X200635500Y-45930000D01*
X201397500Y-48470000D02*
X200635500Y-48470000D01*
X202159500Y-45930000D02*
X202159500Y-48470000D01*
X201397500Y-45930000D02*
X202159500Y-45930000D01*
X201397500Y-45523600D02*
X201397500Y-45930000D01*
X201397500Y-48470000D02*
X202159500Y-48470000D01*
X201397500Y-48876400D02*
X201397500Y-48470000D01*
X202200719Y-44660000D02*
G75*
G03X202200719Y-44660000I-803219J0D01*
G01*
X202200719Y-49740000D02*
G75*
G03X202200719Y-49740000I-803219J0D01*
G01*
X259803000Y-45930000D02*
X260565000Y-45930000D01*
X259803000Y-48470000D02*
X259803000Y-45930000D01*
X260565000Y-48470000D02*
X259803000Y-48470000D01*
X261327000Y-45930000D02*
X261327000Y-48470000D01*
X260565000Y-45930000D02*
X261327000Y-45930000D01*
X260565000Y-45523600D02*
X260565000Y-45930000D01*
X260565000Y-48470000D02*
X261327000Y-48470000D01*
X260565000Y-48876400D02*
X260565000Y-48470000D01*
X261368219Y-44660000D02*
G75*
G03X261368219Y-44660000I-803219J0D01*
G01*
X261368219Y-49740000D02*
G75*
G03X261368219Y-49740000I-803219J0D01*
G01*
X262548000Y-45930000D02*
X263310000Y-45930000D01*
X262548000Y-48470000D02*
X262548000Y-45930000D01*
X263310000Y-48470000D02*
X262548000Y-48470000D01*
X264072000Y-45930000D02*
X264072000Y-48470000D01*
X263310000Y-45930000D02*
X264072000Y-45930000D01*
X263310000Y-45523600D02*
X263310000Y-45930000D01*
X263310000Y-48470000D02*
X264072000Y-48470000D01*
X263310000Y-48876400D02*
X263310000Y-48470000D01*
X264113219Y-44660000D02*
G75*
G03X264113219Y-44660000I-803219J0D01*
G01*
X264113219Y-49740000D02*
G75*
G03X264113219Y-49740000I-803219J0D01*
G01*
X50253000Y-64980000D02*
X51015000Y-64980000D01*
X50253000Y-67520000D02*
X50253000Y-64980000D01*
X51015000Y-67520000D02*
X50253000Y-67520000D01*
X51777000Y-64980000D02*
X51777000Y-67520000D01*
X51015000Y-64980000D02*
X51777000Y-64980000D01*
X51015000Y-64573600D02*
X51015000Y-64980000D01*
X51015000Y-67520000D02*
X51777000Y-67520000D01*
X51015000Y-67926400D02*
X51015000Y-67520000D01*
X51818219Y-63710000D02*
G75*
G03X51818219Y-63710000I-803219J0D01*
G01*
X51818219Y-68790000D02*
G75*
G03X51818219Y-68790000I-803219J0D01*
G01*
X52998000Y-64980000D02*
X53760000Y-64980000D01*
X52998000Y-67520000D02*
X52998000Y-64980000D01*
X53760000Y-67520000D02*
X52998000Y-67520000D01*
X54522000Y-64980000D02*
X54522000Y-67520000D01*
X53760000Y-64980000D02*
X54522000Y-64980000D01*
X53760000Y-64573600D02*
X53760000Y-64980000D01*
X53760000Y-67520000D02*
X54522000Y-67520000D01*
X53760000Y-67926400D02*
X53760000Y-67520000D01*
X54563219Y-63710000D02*
G75*
G03X54563219Y-63710000I-803219J0D01*
G01*
X54563219Y-68790000D02*
G75*
G03X54563219Y-68790000I-803219J0D01*
G01*
X88353000Y-64980000D02*
X89115000Y-64980000D01*
X88353000Y-67520000D02*
X88353000Y-64980000D01*
X89115000Y-67520000D02*
X88353000Y-67520000D01*
X89877000Y-64980000D02*
X89877000Y-67520000D01*
X89115000Y-64980000D02*
X89877000Y-64980000D01*
X89115000Y-64573600D02*
X89115000Y-64980000D01*
X89115000Y-67520000D02*
X89877000Y-67520000D01*
X89115000Y-67926400D02*
X89115000Y-67520000D01*
X89918219Y-63710000D02*
G75*
G03X89918219Y-63710000I-803219J0D01*
G01*
X89918219Y-68790000D02*
G75*
G03X89918219Y-68790000I-803219J0D01*
G01*
X91098000Y-64980000D02*
X91860000Y-64980000D01*
X91098000Y-67520000D02*
X91098000Y-64980000D01*
X91860000Y-67520000D02*
X91098000Y-67520000D01*
X92622000Y-64980000D02*
X92622000Y-67520000D01*
X91860000Y-64980000D02*
X92622000Y-64980000D01*
X91860000Y-64573600D02*
X91860000Y-64980000D01*
X91860000Y-67520000D02*
X92622000Y-67520000D01*
X91860000Y-67926400D02*
X91860000Y-67520000D01*
X92663219Y-63710000D02*
G75*
G03X92663219Y-63710000I-803219J0D01*
G01*
X92663219Y-68790000D02*
G75*
G03X92663219Y-68790000I-803219J0D01*
G01*
X110148000Y-64980000D02*
X110910000Y-64980000D01*
X110148000Y-67520000D02*
X110148000Y-64980000D01*
X110910000Y-67520000D02*
X110148000Y-67520000D01*
X111672000Y-64980000D02*
X111672000Y-67520000D01*
X110910000Y-64980000D02*
X111672000Y-64980000D01*
X110910000Y-64573600D02*
X110910000Y-64980000D01*
X110910000Y-67520000D02*
X111672000Y-67520000D01*
X110910000Y-67926400D02*
X110910000Y-67520000D01*
X111713219Y-63710000D02*
G75*
G03X111713219Y-63710000I-803219J0D01*
G01*
X111713219Y-68790000D02*
G75*
G03X111713219Y-68790000I-803219J0D01*
G01*
X145503000Y-64980000D02*
X146265000Y-64980000D01*
X145503000Y-67520000D02*
X145503000Y-64980000D01*
X146265000Y-67520000D02*
X145503000Y-67520000D01*
X147027000Y-64980000D02*
X147027000Y-67520000D01*
X146265000Y-64980000D02*
X147027000Y-64980000D01*
X146265000Y-64573600D02*
X146265000Y-64980000D01*
X146265000Y-67520000D02*
X147027000Y-67520000D01*
X146265000Y-67926400D02*
X146265000Y-67520000D01*
X147068219Y-63710000D02*
G75*
G03X147068219Y-63710000I-803219J0D01*
G01*
X147068219Y-68790000D02*
G75*
G03X147068219Y-68790000I-803219J0D01*
G01*
X164553000Y-64980000D02*
X165315000Y-64980000D01*
X164553000Y-67520000D02*
X164553000Y-64980000D01*
X165315000Y-67520000D02*
X164553000Y-67520000D01*
X166077000Y-64980000D02*
X166077000Y-67520000D01*
X165315000Y-64980000D02*
X166077000Y-64980000D01*
X165315000Y-64573600D02*
X165315000Y-64980000D01*
X165315000Y-67520000D02*
X166077000Y-67520000D01*
X165315000Y-67926400D02*
X165315000Y-67520000D01*
X166118219Y-63710000D02*
G75*
G03X166118219Y-63710000I-803219J0D01*
G01*
X166118219Y-68790000D02*
G75*
G03X166118219Y-68790000I-803219J0D01*
G01*
X167298000Y-64980000D02*
X168060000Y-64980000D01*
X167298000Y-67520000D02*
X167298000Y-64980000D01*
X168060000Y-67520000D02*
X167298000Y-67520000D01*
X168822000Y-64980000D02*
X168822000Y-67520000D01*
X168060000Y-64980000D02*
X168822000Y-64980000D01*
X168060000Y-64573600D02*
X168060000Y-64980000D01*
X168060000Y-67520000D02*
X168822000Y-67520000D01*
X168060000Y-67926400D02*
X168060000Y-67520000D01*
X168863219Y-63710000D02*
G75*
G03X168863219Y-63710000I-803219J0D01*
G01*
X168863219Y-68790000D02*
G75*
G03X168863219Y-68790000I-803219J0D01*
G01*
X186348000Y-64980000D02*
X187110000Y-64980000D01*
X186348000Y-67520000D02*
X186348000Y-64980000D01*
X187110000Y-67520000D02*
X186348000Y-67520000D01*
X187872000Y-64980000D02*
X187872000Y-67520000D01*
X187110000Y-64980000D02*
X187872000Y-64980000D01*
X187110000Y-64573600D02*
X187110000Y-64980000D01*
X187110000Y-67520000D02*
X187872000Y-67520000D01*
X187110000Y-67926400D02*
X187110000Y-67520000D01*
X187913219Y-63710000D02*
G75*
G03X187913219Y-63710000I-803219J0D01*
G01*
X187913219Y-68790000D02*
G75*
G03X187913219Y-68790000I-803219J0D01*
G01*
X205398000Y-64980000D02*
X206160000Y-64980000D01*
X205398000Y-67520000D02*
X205398000Y-64980000D01*
X206160000Y-67520000D02*
X205398000Y-67520000D01*
X206922000Y-64980000D02*
X206922000Y-67520000D01*
X206160000Y-64980000D02*
X206922000Y-64980000D01*
X206160000Y-64573600D02*
X206160000Y-64980000D01*
X206160000Y-67520000D02*
X206922000Y-67520000D01*
X206160000Y-67926400D02*
X206160000Y-67520000D01*
X206963219Y-63710000D02*
G75*
G03X206963219Y-63710000I-803219J0D01*
G01*
X206963219Y-68790000D02*
G75*
G03X206963219Y-68790000I-803219J0D01*
G01*
X240753000Y-64980000D02*
X241515000Y-64980000D01*
X240753000Y-67520000D02*
X240753000Y-64980000D01*
X241515000Y-67520000D02*
X240753000Y-67520000D01*
X242277000Y-64980000D02*
X242277000Y-67520000D01*
X241515000Y-64980000D02*
X242277000Y-64980000D01*
X241515000Y-64573600D02*
X241515000Y-64980000D01*
X241515000Y-67520000D02*
X242277000Y-67520000D01*
X241515000Y-67926400D02*
X241515000Y-67520000D01*
X242318219Y-63710000D02*
G75*
G03X242318219Y-63710000I-803219J0D01*
G01*
X242318219Y-68790000D02*
G75*
G03X242318219Y-68790000I-803219J0D01*
G01*
X243438000Y-64980000D02*
X244200000Y-64980000D01*
X243438000Y-67520000D02*
X243438000Y-64980000D01*
X244200000Y-67520000D02*
X243438000Y-67520000D01*
X244962000Y-64980000D02*
X244962000Y-67520000D01*
X244200000Y-64980000D02*
X244962000Y-64980000D01*
X244200000Y-64573600D02*
X244200000Y-64980000D01*
X244200000Y-67520000D02*
X244962000Y-67520000D01*
X244200000Y-67926400D02*
X244200000Y-67520000D01*
X245003219Y-63710000D02*
G75*
G03X245003219Y-63710000I-803219J0D01*
G01*
X245003219Y-68790000D02*
G75*
G03X245003219Y-68790000I-803219J0D01*
G01*
X262548000Y-64980000D02*
X263310000Y-64980000D01*
X262548000Y-67520000D02*
X262548000Y-64980000D01*
X263310000Y-67520000D02*
X262548000Y-67520000D01*
X264072000Y-64980000D02*
X264072000Y-67520000D01*
X263310000Y-64980000D02*
X264072000Y-64980000D01*
X263310000Y-64573600D02*
X263310000Y-64980000D01*
X263310000Y-67520000D02*
X264072000Y-67520000D01*
X263310000Y-67926400D02*
X263310000Y-67520000D01*
X264113219Y-63710000D02*
G75*
G03X264113219Y-63710000I-803219J0D01*
G01*
X264113219Y-68790000D02*
G75*
G03X264113219Y-68790000I-803219J0D01*
G01*
X28910000Y-87238000D02*
X28910000Y-88000000D01*
X26370000Y-87238000D02*
X28910000Y-87238000D01*
X26370000Y-88000000D02*
X26370000Y-87238000D01*
X28910000Y-88762000D02*
X26370000Y-88762000D01*
X28910000Y-88000000D02*
X28910000Y-88762000D01*
X29316400Y-88000000D02*
X28910000Y-88000000D01*
X26370000Y-88000000D02*
X26370000Y-88762000D01*
X25963600Y-88000000D02*
X26370000Y-88000000D01*
X30983219Y-88000000D02*
G75*
G03X30983219Y-88000000I-803219J0D01*
G01*
X25903219Y-88000000D02*
G75*
G03X25903219Y-88000000I-803219J0D01*
G01*
X50253000Y-84030000D02*
X51015000Y-84030000D01*
X50253000Y-86570000D02*
X50253000Y-84030000D01*
X51015000Y-86570000D02*
X50253000Y-86570000D01*
X51777000Y-84030000D02*
X51777000Y-86570000D01*
X51015000Y-84030000D02*
X51777000Y-84030000D01*
X51015000Y-83623600D02*
X51015000Y-84030000D01*
X51015000Y-86570000D02*
X51777000Y-86570000D01*
X51015000Y-86976400D02*
X51015000Y-86570000D01*
X51818219Y-82760000D02*
G75*
G03X51818219Y-82760000I-803219J0D01*
G01*
X51818219Y-87840000D02*
G75*
G03X51818219Y-87840000I-803219J0D01*
G01*
X52998000Y-84030000D02*
X53760000Y-84030000D01*
X52998000Y-86570000D02*
X52998000Y-84030000D01*
X53760000Y-86570000D02*
X52998000Y-86570000D01*
X54522000Y-84030000D02*
X54522000Y-86570000D01*
X53760000Y-84030000D02*
X54522000Y-84030000D01*
X53760000Y-83623600D02*
X53760000Y-84030000D01*
X53760000Y-86570000D02*
X54522000Y-86570000D01*
X53760000Y-86976400D02*
X53760000Y-86570000D01*
X54563219Y-82760000D02*
G75*
G03X54563219Y-82760000I-803219J0D01*
G01*
X54563219Y-87840000D02*
G75*
G03X54563219Y-87840000I-803219J0D01*
G01*
X88353000Y-84030000D02*
X89115000Y-84030000D01*
X88353000Y-86570000D02*
X88353000Y-84030000D01*
X89115000Y-86570000D02*
X88353000Y-86570000D01*
X89877000Y-84030000D02*
X89877000Y-86570000D01*
X89115000Y-84030000D02*
X89877000Y-84030000D01*
X89115000Y-83623600D02*
X89115000Y-84030000D01*
X89115000Y-86570000D02*
X89877000Y-86570000D01*
X89115000Y-86976400D02*
X89115000Y-86570000D01*
X89918219Y-82760000D02*
G75*
G03X89918219Y-82760000I-803219J0D01*
G01*
X89918219Y-87840000D02*
G75*
G03X89918219Y-87840000I-803219J0D01*
G01*
X91098000Y-84030000D02*
X91860000Y-84030000D01*
X91098000Y-86570000D02*
X91098000Y-84030000D01*
X91860000Y-86570000D02*
X91098000Y-86570000D01*
X92622000Y-84030000D02*
X92622000Y-86570000D01*
X91860000Y-84030000D02*
X92622000Y-84030000D01*
X91860000Y-83623600D02*
X91860000Y-84030000D01*
X91860000Y-86570000D02*
X92622000Y-86570000D01*
X91860000Y-86976400D02*
X91860000Y-86570000D01*
X92663219Y-82760000D02*
G75*
G03X92663219Y-82760000I-803219J0D01*
G01*
X92663219Y-87840000D02*
G75*
G03X92663219Y-87840000I-803219J0D01*
G01*
X183603000Y-84030000D02*
X184365000Y-84030000D01*
X183603000Y-86570000D02*
X183603000Y-84030000D01*
X184365000Y-86570000D02*
X183603000Y-86570000D01*
X185127000Y-84030000D02*
X185127000Y-86570000D01*
X184365000Y-84030000D02*
X185127000Y-84030000D01*
X184365000Y-83623600D02*
X184365000Y-84030000D01*
X184365000Y-86570000D02*
X185127000Y-86570000D01*
X184365000Y-86976400D02*
X184365000Y-86570000D01*
X185168219Y-82760000D02*
G75*
G03X185168219Y-82760000I-803219J0D01*
G01*
X185168219Y-87840000D02*
G75*
G03X185168219Y-87840000I-803219J0D01*
G01*
X186348000Y-84030000D02*
X187110000Y-84030000D01*
X186348000Y-86570000D02*
X186348000Y-84030000D01*
X187110000Y-86570000D02*
X186348000Y-86570000D01*
X187872000Y-84030000D02*
X187872000Y-86570000D01*
X187110000Y-84030000D02*
X187872000Y-84030000D01*
X187110000Y-83623600D02*
X187110000Y-84030000D01*
X187110000Y-86570000D02*
X187872000Y-86570000D01*
X187110000Y-86976400D02*
X187110000Y-86570000D01*
X187913219Y-82760000D02*
G75*
G03X187913219Y-82760000I-803219J0D01*
G01*
X187913219Y-87840000D02*
G75*
G03X187913219Y-87840000I-803219J0D01*
G01*
X205398000Y-84030000D02*
X206160000Y-84030000D01*
X205398000Y-86570000D02*
X205398000Y-84030000D01*
X206160000Y-86570000D02*
X205398000Y-86570000D01*
X206922000Y-84030000D02*
X206922000Y-86570000D01*
X206160000Y-84030000D02*
X206922000Y-84030000D01*
X206160000Y-83623600D02*
X206160000Y-84030000D01*
X206160000Y-86570000D02*
X206922000Y-86570000D01*
X206160000Y-86976400D02*
X206160000Y-86570000D01*
X206963219Y-82760000D02*
G75*
G03X206963219Y-82760000I-803219J0D01*
G01*
X206963219Y-87840000D02*
G75*
G03X206963219Y-87840000I-803219J0D01*
G01*
X224448000Y-84030000D02*
X225210000Y-84030000D01*
X224448000Y-86570000D02*
X224448000Y-84030000D01*
X225210000Y-86570000D02*
X224448000Y-86570000D01*
X225972000Y-84030000D02*
X225972000Y-86570000D01*
X225210000Y-84030000D02*
X225972000Y-84030000D01*
X225210000Y-83623600D02*
X225210000Y-84030000D01*
X225210000Y-86570000D02*
X225972000Y-86570000D01*
X225210000Y-86976400D02*
X225210000Y-86570000D01*
X226013219Y-82760000D02*
G75*
G03X226013219Y-82760000I-803219J0D01*
G01*
X226013219Y-87840000D02*
G75*
G03X226013219Y-87840000I-803219J0D01*
G01*
X243638000Y-84030000D02*
X244400000Y-84030000D01*
X243638000Y-86570000D02*
X243638000Y-84030000D01*
X244400000Y-86570000D02*
X243638000Y-86570000D01*
X245162000Y-84030000D02*
X245162000Y-86570000D01*
X244400000Y-84030000D02*
X245162000Y-84030000D01*
X244400000Y-83623600D02*
X244400000Y-84030000D01*
X244400000Y-86570000D02*
X245162000Y-86570000D01*
X244400000Y-86976400D02*
X244400000Y-86570000D01*
X245203219Y-82760000D02*
G75*
G03X245203219Y-82760000I-803219J0D01*
G01*
X245203219Y-87840000D02*
G75*
G03X245203219Y-87840000I-803219J0D01*
G01*
X240753000Y-84030000D02*
X241515000Y-84030000D01*
X240753000Y-86570000D02*
X240753000Y-84030000D01*
X241515000Y-86570000D02*
X240753000Y-86570000D01*
X242277000Y-84030000D02*
X242277000Y-86570000D01*
X241515000Y-84030000D02*
X242277000Y-84030000D01*
X241515000Y-83623600D02*
X241515000Y-84030000D01*
X241515000Y-86570000D02*
X242277000Y-86570000D01*
X241515000Y-86976400D02*
X241515000Y-86570000D01*
X242318219Y-82760000D02*
G75*
G03X242318219Y-82760000I-803219J0D01*
G01*
X242318219Y-87840000D02*
G75*
G03X242318219Y-87840000I-803219J0D01*
G01*
D10*
X46350000Y-31484000D02*
X46350000Y-33516000D01*
X38730000Y-31484000D02*
X38476000Y-31230000D01*
X46096000Y-31230000D02*
X44064000Y-31230000D01*
X41016000Y-31230000D02*
X38984000Y-31230000D01*
X46350000Y-31484000D02*
X46096000Y-31230000D01*
X35936000Y-31230000D02*
X33904000Y-31230000D01*
X33904000Y-31230000D02*
X33650000Y-31484000D01*
X38476000Y-31230000D02*
X36444000Y-31230000D01*
X43810000Y-31484000D02*
X43556000Y-31230000D01*
X41270000Y-31484000D02*
X41016000Y-31230000D01*
X36444000Y-31230000D02*
X36190000Y-31484000D01*
X36190000Y-31484000D02*
X35936000Y-31230000D01*
X43556000Y-31230000D02*
X41524000Y-31230000D01*
X38984000Y-31230000D02*
X38730000Y-31484000D01*
X41524000Y-31230000D02*
X41270000Y-31484000D01*
X43810000Y-31484000D02*
X43556000Y-31230000D01*
X44064000Y-31230000D02*
X43810000Y-31484000D01*
X33904000Y-31230000D02*
X33650000Y-31484000D01*
X33650000Y-33516000D02*
X33650000Y-31484000D01*
X33904000Y-33770000D02*
X33650000Y-33516000D01*
X44064000Y-33770000D02*
X46096000Y-33770000D01*
X46096000Y-33770000D02*
X46350000Y-33516000D01*
X43810000Y-33516000D02*
X44064000Y-33770000D01*
X43810000Y-33516000D02*
X44064000Y-33770000D01*
X41524000Y-33770000D02*
X43556000Y-33770000D01*
X43556000Y-33770000D02*
X43810000Y-33516000D01*
X41270000Y-33516000D02*
X41524000Y-33770000D01*
X41016000Y-33770000D02*
X41270000Y-33516000D01*
X38984000Y-33770000D02*
X41016000Y-33770000D01*
X38730000Y-33516000D02*
X38984000Y-33770000D01*
X38476000Y-33770000D02*
X38730000Y-33516000D01*
X36444000Y-33770000D02*
X38476000Y-33770000D01*
X36190000Y-33516000D02*
X36444000Y-33770000D01*
X35936000Y-33770000D02*
X36190000Y-33516000D01*
X35682000Y-33770000D02*
X35936000Y-33770000D01*
X33904000Y-33770000D02*
X35682000Y-33770000D01*
D12*
X40333333Y-22772380D02*
X40333333Y-23486666D01*
X40380952Y-23629523D01*
X40476190Y-23724761D01*
X40619047Y-23772380D01*
X40714285Y-23772380D01*
X39333333Y-23772380D02*
X39904761Y-23772380D01*
X39619047Y-23772380D02*
X39619047Y-22772380D01*
X39714285Y-22915238D01*
X39809523Y-23010476D01*
X39904761Y-23058095D01*
X144147619Y-74754761D02*
X144100000Y-74659523D01*
X144004761Y-74564285D01*
X143861904Y-74421428D01*
X143814285Y-74326190D01*
X143814285Y-74230952D01*
X144052380Y-74278571D02*
X144004761Y-74183333D01*
X143909523Y-74088095D01*
X143719047Y-74040476D01*
X143385714Y-74040476D01*
X143195238Y-74088095D01*
X143100000Y-74183333D01*
X143052380Y-74278571D01*
X143052380Y-74469047D01*
X143100000Y-74564285D01*
X143195238Y-74659523D01*
X143385714Y-74707142D01*
X143719047Y-74707142D01*
X143909523Y-74659523D01*
X144004761Y-74564285D01*
X144052380Y-74469047D01*
X144052380Y-74278571D01*
X144052380Y-75659523D02*
X144052380Y-75088095D01*
X144052380Y-75373809D02*
X143052380Y-75373809D01*
X143195238Y-75278571D01*
X143290476Y-75183333D01*
X143338095Y-75088095D01*
X50154761Y-43988095D02*
X50202380Y-44130952D01*
X50202380Y-44369047D01*
X50154761Y-44464285D01*
X50107142Y-44511904D01*
X50011904Y-44559523D01*
X49916666Y-44559523D01*
X49821428Y-44511904D01*
X49773809Y-44464285D01*
X49726190Y-44369047D01*
X49678571Y-44178571D01*
X49630952Y-44083333D01*
X49583333Y-44035714D01*
X49488095Y-43988095D01*
X49392857Y-43988095D01*
X49297619Y-44035714D01*
X49250000Y-44083333D01*
X49202380Y-44178571D01*
X49202380Y-44416666D01*
X49250000Y-44559523D01*
X50202380Y-45511904D02*
X50202380Y-44940476D01*
X50202380Y-45226190D02*
X49202380Y-45226190D01*
X49345238Y-45130952D01*
X49440476Y-45035714D01*
X49488095Y-44940476D01*
D11*
X27559666Y-31429809D02*
X27729000Y-31187904D01*
X27849952Y-31429809D02*
X27849952Y-30921809D01*
X27656428Y-30921809D01*
X27608047Y-30946000D01*
X27583857Y-30970190D01*
X27559666Y-31018571D01*
X27559666Y-31091142D01*
X27583857Y-31139523D01*
X27608047Y-31163714D01*
X27656428Y-31187904D01*
X27849952Y-31187904D01*
X27075857Y-31429809D02*
X27366142Y-31429809D01*
X27221000Y-31429809D02*
X27221000Y-30921809D01*
X27269380Y-30994380D01*
X27317761Y-31042761D01*
X27366142Y-31066952D01*
X60629809Y-28065333D02*
X60387904Y-27896000D01*
X60629809Y-27775047D02*
X60121809Y-27775047D01*
X60121809Y-27968571D01*
X60146000Y-28016952D01*
X60170190Y-28041142D01*
X60218571Y-28065333D01*
X60291142Y-28065333D01*
X60339523Y-28041142D01*
X60363714Y-28016952D01*
X60387904Y-27968571D01*
X60387904Y-27775047D01*
X60170190Y-28258857D02*
X60146000Y-28283047D01*
X60121809Y-28331428D01*
X60121809Y-28452380D01*
X60146000Y-28500761D01*
X60170190Y-28524952D01*
X60218571Y-28549142D01*
X60266952Y-28549142D01*
X60339523Y-28524952D01*
X60629809Y-28234666D01*
X60629809Y-28549142D01*
X63514809Y-28065333D02*
X63272904Y-27896000D01*
X63514809Y-27775047D02*
X63006809Y-27775047D01*
X63006809Y-27968571D01*
X63031000Y-28016952D01*
X63055190Y-28041142D01*
X63103571Y-28065333D01*
X63176142Y-28065333D01*
X63224523Y-28041142D01*
X63248714Y-28016952D01*
X63272904Y-27968571D01*
X63272904Y-27775047D01*
X63006809Y-28234666D02*
X63006809Y-28549142D01*
X63200333Y-28379809D01*
X63200333Y-28452380D01*
X63224523Y-28500761D01*
X63248714Y-28524952D01*
X63297095Y-28549142D01*
X63418047Y-28549142D01*
X63466428Y-28524952D01*
X63490619Y-28500761D01*
X63514809Y-28452380D01*
X63514809Y-28307238D01*
X63490619Y-28258857D01*
X63466428Y-28234666D01*
X82564809Y-28065333D02*
X82322904Y-27896000D01*
X82564809Y-27775047D02*
X82056809Y-27775047D01*
X82056809Y-27968571D01*
X82081000Y-28016952D01*
X82105190Y-28041142D01*
X82153571Y-28065333D01*
X82226142Y-28065333D01*
X82274523Y-28041142D01*
X82298714Y-28016952D01*
X82322904Y-27968571D01*
X82322904Y-27775047D01*
X82226142Y-28500761D02*
X82564809Y-28500761D01*
X82032619Y-28379809D02*
X82395476Y-28258857D01*
X82395476Y-28573333D01*
X101614809Y-28065333D02*
X101372904Y-27896000D01*
X101614809Y-27775047D02*
X101106809Y-27775047D01*
X101106809Y-27968571D01*
X101131000Y-28016952D01*
X101155190Y-28041142D01*
X101203571Y-28065333D01*
X101276142Y-28065333D01*
X101324523Y-28041142D01*
X101348714Y-28016952D01*
X101372904Y-27968571D01*
X101372904Y-27775047D01*
X101106809Y-28524952D02*
X101106809Y-28283047D01*
X101348714Y-28258857D01*
X101324523Y-28283047D01*
X101300333Y-28331428D01*
X101300333Y-28452380D01*
X101324523Y-28500761D01*
X101348714Y-28524952D01*
X101397095Y-28549142D01*
X101518047Y-28549142D01*
X101566428Y-28524952D01*
X101590619Y-28500761D01*
X101614809Y-28452380D01*
X101614809Y-28331428D01*
X101590619Y-28283047D01*
X101566428Y-28258857D01*
X120664809Y-28065333D02*
X120422904Y-27896000D01*
X120664809Y-27775047D02*
X120156809Y-27775047D01*
X120156809Y-27968571D01*
X120181000Y-28016952D01*
X120205190Y-28041142D01*
X120253571Y-28065333D01*
X120326142Y-28065333D01*
X120374523Y-28041142D01*
X120398714Y-28016952D01*
X120422904Y-27968571D01*
X120422904Y-27775047D01*
X120156809Y-28500761D02*
X120156809Y-28404000D01*
X120181000Y-28355619D01*
X120205190Y-28331428D01*
X120277761Y-28283047D01*
X120374523Y-28258857D01*
X120568047Y-28258857D01*
X120616428Y-28283047D01*
X120640619Y-28307238D01*
X120664809Y-28355619D01*
X120664809Y-28452380D01*
X120640619Y-28500761D01*
X120616428Y-28524952D01*
X120568047Y-28549142D01*
X120447095Y-28549142D01*
X120398714Y-28524952D01*
X120374523Y-28500761D01*
X120350333Y-28452380D01*
X120350333Y-28355619D01*
X120374523Y-28307238D01*
X120398714Y-28283047D01*
X120447095Y-28258857D01*
X156019809Y-28065333D02*
X155777904Y-27896000D01*
X156019809Y-27775047D02*
X155511809Y-27775047D01*
X155511809Y-27968571D01*
X155536000Y-28016952D01*
X155560190Y-28041142D01*
X155608571Y-28065333D01*
X155681142Y-28065333D01*
X155729523Y-28041142D01*
X155753714Y-28016952D01*
X155777904Y-27968571D01*
X155777904Y-27775047D01*
X155511809Y-28234666D02*
X155511809Y-28573333D01*
X156019809Y-28355619D01*
X158764809Y-28065333D02*
X158522904Y-27896000D01*
X158764809Y-27775047D02*
X158256809Y-27775047D01*
X158256809Y-27968571D01*
X158281000Y-28016952D01*
X158305190Y-28041142D01*
X158353571Y-28065333D01*
X158426142Y-28065333D01*
X158474523Y-28041142D01*
X158498714Y-28016952D01*
X158522904Y-27968571D01*
X158522904Y-27775047D01*
X158474523Y-28355619D02*
X158450333Y-28307238D01*
X158426142Y-28283047D01*
X158377761Y-28258857D01*
X158353571Y-28258857D01*
X158305190Y-28283047D01*
X158281000Y-28307238D01*
X158256809Y-28355619D01*
X158256809Y-28452380D01*
X158281000Y-28500761D01*
X158305190Y-28524952D01*
X158353571Y-28549142D01*
X158377761Y-28549142D01*
X158426142Y-28524952D01*
X158450333Y-28500761D01*
X158474523Y-28452380D01*
X158474523Y-28355619D01*
X158498714Y-28307238D01*
X158522904Y-28283047D01*
X158571285Y-28258857D01*
X158668047Y-28258857D01*
X158716428Y-28283047D01*
X158740619Y-28307238D01*
X158764809Y-28355619D01*
X158764809Y-28452380D01*
X158740619Y-28500761D01*
X158716428Y-28524952D01*
X158668047Y-28549142D01*
X158571285Y-28549142D01*
X158522904Y-28524952D01*
X158498714Y-28500761D01*
X158474523Y-28452380D01*
X177814809Y-28065333D02*
X177572904Y-27896000D01*
X177814809Y-27775047D02*
X177306809Y-27775047D01*
X177306809Y-27968571D01*
X177331000Y-28016952D01*
X177355190Y-28041142D01*
X177403571Y-28065333D01*
X177476142Y-28065333D01*
X177524523Y-28041142D01*
X177548714Y-28016952D01*
X177572904Y-27968571D01*
X177572904Y-27775047D01*
X177814809Y-28307238D02*
X177814809Y-28404000D01*
X177790619Y-28452380D01*
X177766428Y-28476571D01*
X177693857Y-28524952D01*
X177597095Y-28549142D01*
X177403571Y-28549142D01*
X177355190Y-28524952D01*
X177331000Y-28500761D01*
X177306809Y-28452380D01*
X177306809Y-28355619D01*
X177331000Y-28307238D01*
X177355190Y-28283047D01*
X177403571Y-28258857D01*
X177524523Y-28258857D01*
X177572904Y-28283047D01*
X177597095Y-28307238D01*
X177621285Y-28355619D01*
X177621285Y-28452380D01*
X177597095Y-28500761D01*
X177572904Y-28524952D01*
X177524523Y-28549142D01*
X196864809Y-27823428D02*
X196622904Y-27654095D01*
X196864809Y-27533142D02*
X196356809Y-27533142D01*
X196356809Y-27726666D01*
X196381000Y-27775047D01*
X196405190Y-27799238D01*
X196453571Y-27823428D01*
X196526142Y-27823428D01*
X196574523Y-27799238D01*
X196598714Y-27775047D01*
X196622904Y-27726666D01*
X196622904Y-27533142D01*
X196864809Y-28307238D02*
X196864809Y-28016952D01*
X196864809Y-28162095D02*
X196356809Y-28162095D01*
X196429380Y-28113714D01*
X196477761Y-28065333D01*
X196501952Y-28016952D01*
X196356809Y-28621714D02*
X196356809Y-28670095D01*
X196381000Y-28718476D01*
X196405190Y-28742666D01*
X196453571Y-28766857D01*
X196550333Y-28791047D01*
X196671285Y-28791047D01*
X196768047Y-28766857D01*
X196816428Y-28742666D01*
X196840619Y-28718476D01*
X196864809Y-28670095D01*
X196864809Y-28621714D01*
X196840619Y-28573333D01*
X196816428Y-28549142D01*
X196768047Y-28524952D01*
X196671285Y-28500761D01*
X196550333Y-28500761D01*
X196453571Y-28524952D01*
X196405190Y-28549142D01*
X196381000Y-28573333D01*
X196356809Y-28621714D01*
X147579809Y-81523428D02*
X147337904Y-81354095D01*
X147579809Y-81233142D02*
X147071809Y-81233142D01*
X147071809Y-81426666D01*
X147096000Y-81475047D01*
X147120190Y-81499238D01*
X147168571Y-81523428D01*
X147241142Y-81523428D01*
X147289523Y-81499238D01*
X147313714Y-81475047D01*
X147337904Y-81426666D01*
X147337904Y-81233142D01*
X147071809Y-81983047D02*
X147071809Y-81741142D01*
X147313714Y-81716952D01*
X147289523Y-81741142D01*
X147265333Y-81789523D01*
X147265333Y-81910476D01*
X147289523Y-81958857D01*
X147313714Y-81983047D01*
X147362095Y-82007238D01*
X147483047Y-82007238D01*
X147531428Y-81983047D01*
X147555619Y-81958857D01*
X147579809Y-81910476D01*
X147579809Y-81789523D01*
X147555619Y-81741142D01*
X147531428Y-81716952D01*
X147071809Y-82321714D02*
X147071809Y-82370095D01*
X147096000Y-82418476D01*
X147120190Y-82442666D01*
X147168571Y-82466857D01*
X147265333Y-82491047D01*
X147386285Y-82491047D01*
X147483047Y-82466857D01*
X147531428Y-82442666D01*
X147555619Y-82418476D01*
X147579809Y-82370095D01*
X147579809Y-82321714D01*
X147555619Y-82273333D01*
X147531428Y-82249142D01*
X147483047Y-82224952D01*
X147386285Y-82200761D01*
X147265333Y-82200761D01*
X147168571Y-82224952D01*
X147120190Y-82249142D01*
X147096000Y-82273333D01*
X147071809Y-82321714D01*
X144429809Y-81523428D02*
X144187904Y-81354095D01*
X144429809Y-81233142D02*
X143921809Y-81233142D01*
X143921809Y-81426666D01*
X143946000Y-81475047D01*
X143970190Y-81499238D01*
X144018571Y-81523428D01*
X144091142Y-81523428D01*
X144139523Y-81499238D01*
X144163714Y-81475047D01*
X144187904Y-81426666D01*
X144187904Y-81233142D01*
X143921809Y-81983047D02*
X143921809Y-81741142D01*
X144163714Y-81716952D01*
X144139523Y-81741142D01*
X144115333Y-81789523D01*
X144115333Y-81910476D01*
X144139523Y-81958857D01*
X144163714Y-81983047D01*
X144212095Y-82007238D01*
X144333047Y-82007238D01*
X144381428Y-81983047D01*
X144405619Y-81958857D01*
X144429809Y-81910476D01*
X144429809Y-81789523D01*
X144405619Y-81741142D01*
X144381428Y-81716952D01*
X144429809Y-82491047D02*
X144429809Y-82200761D01*
X144429809Y-82345904D02*
X143921809Y-82345904D01*
X143994380Y-82297523D01*
X144042761Y-82249142D01*
X144066952Y-82200761D01*
X215914809Y-27823428D02*
X215672904Y-27654095D01*
X215914809Y-27533142D02*
X215406809Y-27533142D01*
X215406809Y-27726666D01*
X215431000Y-27775047D01*
X215455190Y-27799238D01*
X215503571Y-27823428D01*
X215576142Y-27823428D01*
X215624523Y-27799238D01*
X215648714Y-27775047D01*
X215672904Y-27726666D01*
X215672904Y-27533142D01*
X215914809Y-28307238D02*
X215914809Y-28016952D01*
X215914809Y-28162095D02*
X215406809Y-28162095D01*
X215479380Y-28113714D01*
X215527761Y-28065333D01*
X215551952Y-28016952D01*
X215914809Y-28791047D02*
X215914809Y-28500761D01*
X215914809Y-28645904D02*
X215406809Y-28645904D01*
X215479380Y-28597523D01*
X215527761Y-28549142D01*
X215551952Y-28500761D01*
X239727309Y-27823428D02*
X239485404Y-27654095D01*
X239727309Y-27533142D02*
X239219309Y-27533142D01*
X239219309Y-27726666D01*
X239243500Y-27775047D01*
X239267690Y-27799238D01*
X239316071Y-27823428D01*
X239388642Y-27823428D01*
X239437023Y-27799238D01*
X239461214Y-27775047D01*
X239485404Y-27726666D01*
X239485404Y-27533142D01*
X239727309Y-28307238D02*
X239727309Y-28016952D01*
X239727309Y-28162095D02*
X239219309Y-28162095D01*
X239291880Y-28113714D01*
X239340261Y-28065333D01*
X239364452Y-28016952D01*
X239267690Y-28500761D02*
X239243500Y-28524952D01*
X239219309Y-28573333D01*
X239219309Y-28694285D01*
X239243500Y-28742666D01*
X239267690Y-28766857D01*
X239316071Y-28791047D01*
X239364452Y-28791047D01*
X239437023Y-28766857D01*
X239727309Y-28476571D01*
X239727309Y-28791047D01*
X263539809Y-27823428D02*
X263297904Y-27654095D01*
X263539809Y-27533142D02*
X263031809Y-27533142D01*
X263031809Y-27726666D01*
X263056000Y-27775047D01*
X263080190Y-27799238D01*
X263128571Y-27823428D01*
X263201142Y-27823428D01*
X263249523Y-27799238D01*
X263273714Y-27775047D01*
X263297904Y-27726666D01*
X263297904Y-27533142D01*
X263539809Y-28307238D02*
X263539809Y-28016952D01*
X263539809Y-28162095D02*
X263031809Y-28162095D01*
X263104380Y-28113714D01*
X263152761Y-28065333D01*
X263176952Y-28016952D01*
X263031809Y-28476571D02*
X263031809Y-28791047D01*
X263225333Y-28621714D01*
X263225333Y-28694285D01*
X263249523Y-28742666D01*
X263273714Y-28766857D01*
X263322095Y-28791047D01*
X263443047Y-28791047D01*
X263491428Y-28766857D01*
X263515619Y-28742666D01*
X263539809Y-28694285D01*
X263539809Y-28549142D01*
X263515619Y-28500761D01*
X263491428Y-28476571D01*
X39338559Y-48173428D02*
X39096654Y-48004095D01*
X39338559Y-47883142D02*
X38830559Y-47883142D01*
X38830559Y-48076666D01*
X38854750Y-48125047D01*
X38878940Y-48149238D01*
X38927321Y-48173428D01*
X38999892Y-48173428D01*
X39048273Y-48149238D01*
X39072464Y-48125047D01*
X39096654Y-48076666D01*
X39096654Y-47883142D01*
X39338559Y-48657238D02*
X39338559Y-48366952D01*
X39338559Y-48512095D02*
X38830559Y-48512095D01*
X38903130Y-48463714D01*
X38951511Y-48415333D01*
X38975702Y-48366952D01*
X38999892Y-49092666D02*
X39338559Y-49092666D01*
X38806369Y-48971714D02*
X39169226Y-48850761D01*
X39169226Y-49165238D01*
X65532309Y-46873428D02*
X65290404Y-46704095D01*
X65532309Y-46583142D02*
X65024309Y-46583142D01*
X65024309Y-46776666D01*
X65048500Y-46825047D01*
X65072690Y-46849238D01*
X65121071Y-46873428D01*
X65193642Y-46873428D01*
X65242023Y-46849238D01*
X65266214Y-46825047D01*
X65290404Y-46776666D01*
X65290404Y-46583142D01*
X65532309Y-47357238D02*
X65532309Y-47066952D01*
X65532309Y-47212095D02*
X65024309Y-47212095D01*
X65096880Y-47163714D01*
X65145261Y-47115333D01*
X65169452Y-47066952D01*
X65024309Y-47816857D02*
X65024309Y-47574952D01*
X65266214Y-47550761D01*
X65242023Y-47574952D01*
X65217833Y-47623333D01*
X65217833Y-47744285D01*
X65242023Y-47792666D01*
X65266214Y-47816857D01*
X65314595Y-47841047D01*
X65435547Y-47841047D01*
X65483928Y-47816857D01*
X65508119Y-47792666D01*
X65532309Y-47744285D01*
X65532309Y-47623333D01*
X65508119Y-47574952D01*
X65483928Y-47550761D01*
X68277309Y-46873428D02*
X68035404Y-46704095D01*
X68277309Y-46583142D02*
X67769309Y-46583142D01*
X67769309Y-46776666D01*
X67793500Y-46825047D01*
X67817690Y-46849238D01*
X67866071Y-46873428D01*
X67938642Y-46873428D01*
X67987023Y-46849238D01*
X68011214Y-46825047D01*
X68035404Y-46776666D01*
X68035404Y-46583142D01*
X68277309Y-47357238D02*
X68277309Y-47066952D01*
X68277309Y-47212095D02*
X67769309Y-47212095D01*
X67841880Y-47163714D01*
X67890261Y-47115333D01*
X67914452Y-47066952D01*
X67769309Y-47792666D02*
X67769309Y-47695904D01*
X67793500Y-47647523D01*
X67817690Y-47623333D01*
X67890261Y-47574952D01*
X67987023Y-47550761D01*
X68180547Y-47550761D01*
X68228928Y-47574952D01*
X68253119Y-47599142D01*
X68277309Y-47647523D01*
X68277309Y-47744285D01*
X68253119Y-47792666D01*
X68228928Y-47816857D01*
X68180547Y-47841047D01*
X68059595Y-47841047D01*
X68011214Y-47816857D01*
X67987023Y-47792666D01*
X67962833Y-47744285D01*
X67962833Y-47647523D01*
X67987023Y-47599142D01*
X68011214Y-47574952D01*
X68059595Y-47550761D01*
X87327309Y-46873428D02*
X87085404Y-46704095D01*
X87327309Y-46583142D02*
X86819309Y-46583142D01*
X86819309Y-46776666D01*
X86843500Y-46825047D01*
X86867690Y-46849238D01*
X86916071Y-46873428D01*
X86988642Y-46873428D01*
X87037023Y-46849238D01*
X87061214Y-46825047D01*
X87085404Y-46776666D01*
X87085404Y-46583142D01*
X87327309Y-47357238D02*
X87327309Y-47066952D01*
X87327309Y-47212095D02*
X86819309Y-47212095D01*
X86891880Y-47163714D01*
X86940261Y-47115333D01*
X86964452Y-47066952D01*
X86819309Y-47526571D02*
X86819309Y-47865238D01*
X87327309Y-47647523D01*
X103632309Y-46873428D02*
X103390404Y-46704095D01*
X103632309Y-46583142D02*
X103124309Y-46583142D01*
X103124309Y-46776666D01*
X103148500Y-46825047D01*
X103172690Y-46849238D01*
X103221071Y-46873428D01*
X103293642Y-46873428D01*
X103342023Y-46849238D01*
X103366214Y-46825047D01*
X103390404Y-46776666D01*
X103390404Y-46583142D01*
X103632309Y-47357238D02*
X103632309Y-47066952D01*
X103632309Y-47212095D02*
X103124309Y-47212095D01*
X103196880Y-47163714D01*
X103245261Y-47115333D01*
X103269452Y-47066952D01*
X103342023Y-47647523D02*
X103317833Y-47599142D01*
X103293642Y-47574952D01*
X103245261Y-47550761D01*
X103221071Y-47550761D01*
X103172690Y-47574952D01*
X103148500Y-47599142D01*
X103124309Y-47647523D01*
X103124309Y-47744285D01*
X103148500Y-47792666D01*
X103172690Y-47816857D01*
X103221071Y-47841047D01*
X103245261Y-47841047D01*
X103293642Y-47816857D01*
X103317833Y-47792666D01*
X103342023Y-47744285D01*
X103342023Y-47647523D01*
X103366214Y-47599142D01*
X103390404Y-47574952D01*
X103438785Y-47550761D01*
X103535547Y-47550761D01*
X103583928Y-47574952D01*
X103608119Y-47599142D01*
X103632309Y-47647523D01*
X103632309Y-47744285D01*
X103608119Y-47792666D01*
X103583928Y-47816857D01*
X103535547Y-47841047D01*
X103438785Y-47841047D01*
X103390404Y-47816857D01*
X103366214Y-47792666D01*
X103342023Y-47744285D01*
X106377309Y-46873428D02*
X106135404Y-46704095D01*
X106377309Y-46583142D02*
X105869309Y-46583142D01*
X105869309Y-46776666D01*
X105893500Y-46825047D01*
X105917690Y-46849238D01*
X105966071Y-46873428D01*
X106038642Y-46873428D01*
X106087023Y-46849238D01*
X106111214Y-46825047D01*
X106135404Y-46776666D01*
X106135404Y-46583142D01*
X106377309Y-47357238D02*
X106377309Y-47066952D01*
X106377309Y-47212095D02*
X105869309Y-47212095D01*
X105941880Y-47163714D01*
X105990261Y-47115333D01*
X106014452Y-47066952D01*
X106377309Y-47599142D02*
X106377309Y-47695904D01*
X106353119Y-47744285D01*
X106328928Y-47768476D01*
X106256357Y-47816857D01*
X106159595Y-47841047D01*
X105966071Y-47841047D01*
X105917690Y-47816857D01*
X105893500Y-47792666D01*
X105869309Y-47744285D01*
X105869309Y-47647523D01*
X105893500Y-47599142D01*
X105917690Y-47574952D01*
X105966071Y-47550761D01*
X106087023Y-47550761D01*
X106135404Y-47574952D01*
X106159595Y-47599142D01*
X106183785Y-47647523D01*
X106183785Y-47744285D01*
X106159595Y-47792666D01*
X106135404Y-47816857D01*
X106087023Y-47841047D01*
X160732309Y-47223428D02*
X160490404Y-47054095D01*
X160732309Y-46933142D02*
X160224309Y-46933142D01*
X160224309Y-47126666D01*
X160248500Y-47175047D01*
X160272690Y-47199238D01*
X160321071Y-47223428D01*
X160393642Y-47223428D01*
X160442023Y-47199238D01*
X160466214Y-47175047D01*
X160490404Y-47126666D01*
X160490404Y-46933142D01*
X160272690Y-47416952D02*
X160248500Y-47441142D01*
X160224309Y-47489523D01*
X160224309Y-47610476D01*
X160248500Y-47658857D01*
X160272690Y-47683047D01*
X160321071Y-47707238D01*
X160369452Y-47707238D01*
X160442023Y-47683047D01*
X160732309Y-47392761D01*
X160732309Y-47707238D01*
X160224309Y-48021714D02*
X160224309Y-48070095D01*
X160248500Y-48118476D01*
X160272690Y-48142666D01*
X160321071Y-48166857D01*
X160417833Y-48191047D01*
X160538785Y-48191047D01*
X160635547Y-48166857D01*
X160683928Y-48142666D01*
X160708119Y-48118476D01*
X160732309Y-48070095D01*
X160732309Y-48021714D01*
X160708119Y-47973333D01*
X160683928Y-47949142D01*
X160635547Y-47924952D01*
X160538785Y-47900761D01*
X160417833Y-47900761D01*
X160321071Y-47924952D01*
X160272690Y-47949142D01*
X160248500Y-47973333D01*
X160224309Y-48021714D01*
X163477309Y-47223428D02*
X163235404Y-47054095D01*
X163477309Y-46933142D02*
X162969309Y-46933142D01*
X162969309Y-47126666D01*
X162993500Y-47175047D01*
X163017690Y-47199238D01*
X163066071Y-47223428D01*
X163138642Y-47223428D01*
X163187023Y-47199238D01*
X163211214Y-47175047D01*
X163235404Y-47126666D01*
X163235404Y-46933142D01*
X163017690Y-47416952D02*
X162993500Y-47441142D01*
X162969309Y-47489523D01*
X162969309Y-47610476D01*
X162993500Y-47658857D01*
X163017690Y-47683047D01*
X163066071Y-47707238D01*
X163114452Y-47707238D01*
X163187023Y-47683047D01*
X163477309Y-47392761D01*
X163477309Y-47707238D01*
X163477309Y-48191047D02*
X163477309Y-47900761D01*
X163477309Y-48045904D02*
X162969309Y-48045904D01*
X163041880Y-47997523D01*
X163090261Y-47949142D01*
X163114452Y-47900761D01*
X182577309Y-46873428D02*
X182335404Y-46704095D01*
X182577309Y-46583142D02*
X182069309Y-46583142D01*
X182069309Y-46776666D01*
X182093500Y-46825047D01*
X182117690Y-46849238D01*
X182166071Y-46873428D01*
X182238642Y-46873428D01*
X182287023Y-46849238D01*
X182311214Y-46825047D01*
X182335404Y-46776666D01*
X182335404Y-46583142D01*
X182117690Y-47066952D02*
X182093500Y-47091142D01*
X182069309Y-47139523D01*
X182069309Y-47260476D01*
X182093500Y-47308857D01*
X182117690Y-47333047D01*
X182166071Y-47357238D01*
X182214452Y-47357238D01*
X182287023Y-47333047D01*
X182577309Y-47042761D01*
X182577309Y-47357238D01*
X182117690Y-47550761D02*
X182093500Y-47574952D01*
X182069309Y-47623333D01*
X182069309Y-47744285D01*
X182093500Y-47792666D01*
X182117690Y-47816857D01*
X182166071Y-47841047D01*
X182214452Y-47841047D01*
X182287023Y-47816857D01*
X182577309Y-47526571D01*
X182577309Y-47841047D01*
X201627309Y-46873428D02*
X201385404Y-46704095D01*
X201627309Y-46583142D02*
X201119309Y-46583142D01*
X201119309Y-46776666D01*
X201143500Y-46825047D01*
X201167690Y-46849238D01*
X201216071Y-46873428D01*
X201288642Y-46873428D01*
X201337023Y-46849238D01*
X201361214Y-46825047D01*
X201385404Y-46776666D01*
X201385404Y-46583142D01*
X201167690Y-47066952D02*
X201143500Y-47091142D01*
X201119309Y-47139523D01*
X201119309Y-47260476D01*
X201143500Y-47308857D01*
X201167690Y-47333047D01*
X201216071Y-47357238D01*
X201264452Y-47357238D01*
X201337023Y-47333047D01*
X201627309Y-47042761D01*
X201627309Y-47357238D01*
X201119309Y-47526571D02*
X201119309Y-47841047D01*
X201312833Y-47671714D01*
X201312833Y-47744285D01*
X201337023Y-47792666D01*
X201361214Y-47816857D01*
X201409595Y-47841047D01*
X201530547Y-47841047D01*
X201578928Y-47816857D01*
X201603119Y-47792666D01*
X201627309Y-47744285D01*
X201627309Y-47599142D01*
X201603119Y-47550761D01*
X201578928Y-47526571D01*
X260794809Y-46873428D02*
X260552904Y-46704095D01*
X260794809Y-46583142D02*
X260286809Y-46583142D01*
X260286809Y-46776666D01*
X260311000Y-46825047D01*
X260335190Y-46849238D01*
X260383571Y-46873428D01*
X260456142Y-46873428D01*
X260504523Y-46849238D01*
X260528714Y-46825047D01*
X260552904Y-46776666D01*
X260552904Y-46583142D01*
X260335190Y-47066952D02*
X260311000Y-47091142D01*
X260286809Y-47139523D01*
X260286809Y-47260476D01*
X260311000Y-47308857D01*
X260335190Y-47333047D01*
X260383571Y-47357238D01*
X260431952Y-47357238D01*
X260504523Y-47333047D01*
X260794809Y-47042761D01*
X260794809Y-47357238D01*
X260456142Y-47792666D02*
X260794809Y-47792666D01*
X260262619Y-47671714D02*
X260625476Y-47550761D01*
X260625476Y-47865238D01*
X263539809Y-46873428D02*
X263297904Y-46704095D01*
X263539809Y-46583142D02*
X263031809Y-46583142D01*
X263031809Y-46776666D01*
X263056000Y-46825047D01*
X263080190Y-46849238D01*
X263128571Y-46873428D01*
X263201142Y-46873428D01*
X263249523Y-46849238D01*
X263273714Y-46825047D01*
X263297904Y-46776666D01*
X263297904Y-46583142D01*
X263080190Y-47066952D02*
X263056000Y-47091142D01*
X263031809Y-47139523D01*
X263031809Y-47260476D01*
X263056000Y-47308857D01*
X263080190Y-47333047D01*
X263128571Y-47357238D01*
X263176952Y-47357238D01*
X263249523Y-47333047D01*
X263539809Y-47042761D01*
X263539809Y-47357238D01*
X263031809Y-47816857D02*
X263031809Y-47574952D01*
X263273714Y-47550761D01*
X263249523Y-47574952D01*
X263225333Y-47623333D01*
X263225333Y-47744285D01*
X263249523Y-47792666D01*
X263273714Y-47816857D01*
X263322095Y-47841047D01*
X263443047Y-47841047D01*
X263491428Y-47816857D01*
X263515619Y-47792666D01*
X263539809Y-47744285D01*
X263539809Y-47623333D01*
X263515619Y-47574952D01*
X263491428Y-47550761D01*
X51244809Y-65923428D02*
X51002904Y-65754095D01*
X51244809Y-65633142D02*
X50736809Y-65633142D01*
X50736809Y-65826666D01*
X50761000Y-65875047D01*
X50785190Y-65899238D01*
X50833571Y-65923428D01*
X50906142Y-65923428D01*
X50954523Y-65899238D01*
X50978714Y-65875047D01*
X51002904Y-65826666D01*
X51002904Y-65633142D01*
X50785190Y-66116952D02*
X50761000Y-66141142D01*
X50736809Y-66189523D01*
X50736809Y-66310476D01*
X50761000Y-66358857D01*
X50785190Y-66383047D01*
X50833571Y-66407238D01*
X50881952Y-66407238D01*
X50954523Y-66383047D01*
X51244809Y-66092761D01*
X51244809Y-66407238D01*
X50736809Y-66842666D02*
X50736809Y-66745904D01*
X50761000Y-66697523D01*
X50785190Y-66673333D01*
X50857761Y-66624952D01*
X50954523Y-66600761D01*
X51148047Y-66600761D01*
X51196428Y-66624952D01*
X51220619Y-66649142D01*
X51244809Y-66697523D01*
X51244809Y-66794285D01*
X51220619Y-66842666D01*
X51196428Y-66866857D01*
X51148047Y-66891047D01*
X51027095Y-66891047D01*
X50978714Y-66866857D01*
X50954523Y-66842666D01*
X50930333Y-66794285D01*
X50930333Y-66697523D01*
X50954523Y-66649142D01*
X50978714Y-66624952D01*
X51027095Y-66600761D01*
X53989809Y-65923428D02*
X53747904Y-65754095D01*
X53989809Y-65633142D02*
X53481809Y-65633142D01*
X53481809Y-65826666D01*
X53506000Y-65875047D01*
X53530190Y-65899238D01*
X53578571Y-65923428D01*
X53651142Y-65923428D01*
X53699523Y-65899238D01*
X53723714Y-65875047D01*
X53747904Y-65826666D01*
X53747904Y-65633142D01*
X53530190Y-66116952D02*
X53506000Y-66141142D01*
X53481809Y-66189523D01*
X53481809Y-66310476D01*
X53506000Y-66358857D01*
X53530190Y-66383047D01*
X53578571Y-66407238D01*
X53626952Y-66407238D01*
X53699523Y-66383047D01*
X53989809Y-66092761D01*
X53989809Y-66407238D01*
X53481809Y-66576571D02*
X53481809Y-66915238D01*
X53989809Y-66697523D01*
X89344809Y-65923428D02*
X89102904Y-65754095D01*
X89344809Y-65633142D02*
X88836809Y-65633142D01*
X88836809Y-65826666D01*
X88861000Y-65875047D01*
X88885190Y-65899238D01*
X88933571Y-65923428D01*
X89006142Y-65923428D01*
X89054523Y-65899238D01*
X89078714Y-65875047D01*
X89102904Y-65826666D01*
X89102904Y-65633142D01*
X88885190Y-66116952D02*
X88861000Y-66141142D01*
X88836809Y-66189523D01*
X88836809Y-66310476D01*
X88861000Y-66358857D01*
X88885190Y-66383047D01*
X88933571Y-66407238D01*
X88981952Y-66407238D01*
X89054523Y-66383047D01*
X89344809Y-66092761D01*
X89344809Y-66407238D01*
X89054523Y-66697523D02*
X89030333Y-66649142D01*
X89006142Y-66624952D01*
X88957761Y-66600761D01*
X88933571Y-66600761D01*
X88885190Y-66624952D01*
X88861000Y-66649142D01*
X88836809Y-66697523D01*
X88836809Y-66794285D01*
X88861000Y-66842666D01*
X88885190Y-66866857D01*
X88933571Y-66891047D01*
X88957761Y-66891047D01*
X89006142Y-66866857D01*
X89030333Y-66842666D01*
X89054523Y-66794285D01*
X89054523Y-66697523D01*
X89078714Y-66649142D01*
X89102904Y-66624952D01*
X89151285Y-66600761D01*
X89248047Y-66600761D01*
X89296428Y-66624952D01*
X89320619Y-66649142D01*
X89344809Y-66697523D01*
X89344809Y-66794285D01*
X89320619Y-66842666D01*
X89296428Y-66866857D01*
X89248047Y-66891047D01*
X89151285Y-66891047D01*
X89102904Y-66866857D01*
X89078714Y-66842666D01*
X89054523Y-66794285D01*
X92089809Y-65923428D02*
X91847904Y-65754095D01*
X92089809Y-65633142D02*
X91581809Y-65633142D01*
X91581809Y-65826666D01*
X91606000Y-65875047D01*
X91630190Y-65899238D01*
X91678571Y-65923428D01*
X91751142Y-65923428D01*
X91799523Y-65899238D01*
X91823714Y-65875047D01*
X91847904Y-65826666D01*
X91847904Y-65633142D01*
X91630190Y-66116952D02*
X91606000Y-66141142D01*
X91581809Y-66189523D01*
X91581809Y-66310476D01*
X91606000Y-66358857D01*
X91630190Y-66383047D01*
X91678571Y-66407238D01*
X91726952Y-66407238D01*
X91799523Y-66383047D01*
X92089809Y-66092761D01*
X92089809Y-66407238D01*
X92089809Y-66649142D02*
X92089809Y-66745904D01*
X92065619Y-66794285D01*
X92041428Y-66818476D01*
X91968857Y-66866857D01*
X91872095Y-66891047D01*
X91678571Y-66891047D01*
X91630190Y-66866857D01*
X91606000Y-66842666D01*
X91581809Y-66794285D01*
X91581809Y-66697523D01*
X91606000Y-66649142D01*
X91630190Y-66624952D01*
X91678571Y-66600761D01*
X91799523Y-66600761D01*
X91847904Y-66624952D01*
X91872095Y-66649142D01*
X91896285Y-66697523D01*
X91896285Y-66794285D01*
X91872095Y-66842666D01*
X91847904Y-66866857D01*
X91799523Y-66891047D01*
X111139809Y-65923428D02*
X110897904Y-65754095D01*
X111139809Y-65633142D02*
X110631809Y-65633142D01*
X110631809Y-65826666D01*
X110656000Y-65875047D01*
X110680190Y-65899238D01*
X110728571Y-65923428D01*
X110801142Y-65923428D01*
X110849523Y-65899238D01*
X110873714Y-65875047D01*
X110897904Y-65826666D01*
X110897904Y-65633142D01*
X110631809Y-66092761D02*
X110631809Y-66407238D01*
X110825333Y-66237904D01*
X110825333Y-66310476D01*
X110849523Y-66358857D01*
X110873714Y-66383047D01*
X110922095Y-66407238D01*
X111043047Y-66407238D01*
X111091428Y-66383047D01*
X111115619Y-66358857D01*
X111139809Y-66310476D01*
X111139809Y-66165333D01*
X111115619Y-66116952D01*
X111091428Y-66092761D01*
X110631809Y-66721714D02*
X110631809Y-66770095D01*
X110656000Y-66818476D01*
X110680190Y-66842666D01*
X110728571Y-66866857D01*
X110825333Y-66891047D01*
X110946285Y-66891047D01*
X111043047Y-66866857D01*
X111091428Y-66842666D01*
X111115619Y-66818476D01*
X111139809Y-66770095D01*
X111139809Y-66721714D01*
X111115619Y-66673333D01*
X111091428Y-66649142D01*
X111043047Y-66624952D01*
X110946285Y-66600761D01*
X110825333Y-66600761D01*
X110728571Y-66624952D01*
X110680190Y-66649142D01*
X110656000Y-66673333D01*
X110631809Y-66721714D01*
X146494809Y-65923428D02*
X146252904Y-65754095D01*
X146494809Y-65633142D02*
X145986809Y-65633142D01*
X145986809Y-65826666D01*
X146011000Y-65875047D01*
X146035190Y-65899238D01*
X146083571Y-65923428D01*
X146156142Y-65923428D01*
X146204523Y-65899238D01*
X146228714Y-65875047D01*
X146252904Y-65826666D01*
X146252904Y-65633142D01*
X145986809Y-66092761D02*
X145986809Y-66407238D01*
X146180333Y-66237904D01*
X146180333Y-66310476D01*
X146204523Y-66358857D01*
X146228714Y-66383047D01*
X146277095Y-66407238D01*
X146398047Y-66407238D01*
X146446428Y-66383047D01*
X146470619Y-66358857D01*
X146494809Y-66310476D01*
X146494809Y-66165333D01*
X146470619Y-66116952D01*
X146446428Y-66092761D01*
X146494809Y-66891047D02*
X146494809Y-66600761D01*
X146494809Y-66745904D02*
X145986809Y-66745904D01*
X146059380Y-66697523D01*
X146107761Y-66649142D01*
X146131952Y-66600761D01*
X165544809Y-65923428D02*
X165302904Y-65754095D01*
X165544809Y-65633142D02*
X165036809Y-65633142D01*
X165036809Y-65826666D01*
X165061000Y-65875047D01*
X165085190Y-65899238D01*
X165133571Y-65923428D01*
X165206142Y-65923428D01*
X165254523Y-65899238D01*
X165278714Y-65875047D01*
X165302904Y-65826666D01*
X165302904Y-65633142D01*
X165036809Y-66092761D02*
X165036809Y-66407238D01*
X165230333Y-66237904D01*
X165230333Y-66310476D01*
X165254523Y-66358857D01*
X165278714Y-66383047D01*
X165327095Y-66407238D01*
X165448047Y-66407238D01*
X165496428Y-66383047D01*
X165520619Y-66358857D01*
X165544809Y-66310476D01*
X165544809Y-66165333D01*
X165520619Y-66116952D01*
X165496428Y-66092761D01*
X165085190Y-66600761D02*
X165061000Y-66624952D01*
X165036809Y-66673333D01*
X165036809Y-66794285D01*
X165061000Y-66842666D01*
X165085190Y-66866857D01*
X165133571Y-66891047D01*
X165181952Y-66891047D01*
X165254523Y-66866857D01*
X165544809Y-66576571D01*
X165544809Y-66891047D01*
X168289809Y-65923428D02*
X168047904Y-65754095D01*
X168289809Y-65633142D02*
X167781809Y-65633142D01*
X167781809Y-65826666D01*
X167806000Y-65875047D01*
X167830190Y-65899238D01*
X167878571Y-65923428D01*
X167951142Y-65923428D01*
X167999523Y-65899238D01*
X168023714Y-65875047D01*
X168047904Y-65826666D01*
X168047904Y-65633142D01*
X167781809Y-66092761D02*
X167781809Y-66407238D01*
X167975333Y-66237904D01*
X167975333Y-66310476D01*
X167999523Y-66358857D01*
X168023714Y-66383047D01*
X168072095Y-66407238D01*
X168193047Y-66407238D01*
X168241428Y-66383047D01*
X168265619Y-66358857D01*
X168289809Y-66310476D01*
X168289809Y-66165333D01*
X168265619Y-66116952D01*
X168241428Y-66092761D01*
X167781809Y-66576571D02*
X167781809Y-66891047D01*
X167975333Y-66721714D01*
X167975333Y-66794285D01*
X167999523Y-66842666D01*
X168023714Y-66866857D01*
X168072095Y-66891047D01*
X168193047Y-66891047D01*
X168241428Y-66866857D01*
X168265619Y-66842666D01*
X168289809Y-66794285D01*
X168289809Y-66649142D01*
X168265619Y-66600761D01*
X168241428Y-66576571D01*
X187339809Y-65923428D02*
X187097904Y-65754095D01*
X187339809Y-65633142D02*
X186831809Y-65633142D01*
X186831809Y-65826666D01*
X186856000Y-65875047D01*
X186880190Y-65899238D01*
X186928571Y-65923428D01*
X187001142Y-65923428D01*
X187049523Y-65899238D01*
X187073714Y-65875047D01*
X187097904Y-65826666D01*
X187097904Y-65633142D01*
X186831809Y-66092761D02*
X186831809Y-66407238D01*
X187025333Y-66237904D01*
X187025333Y-66310476D01*
X187049523Y-66358857D01*
X187073714Y-66383047D01*
X187122095Y-66407238D01*
X187243047Y-66407238D01*
X187291428Y-66383047D01*
X187315619Y-66358857D01*
X187339809Y-66310476D01*
X187339809Y-66165333D01*
X187315619Y-66116952D01*
X187291428Y-66092761D01*
X187001142Y-66842666D02*
X187339809Y-66842666D01*
X186807619Y-66721714D02*
X187170476Y-66600761D01*
X187170476Y-66915238D01*
X206389809Y-65923428D02*
X206147904Y-65754095D01*
X206389809Y-65633142D02*
X205881809Y-65633142D01*
X205881809Y-65826666D01*
X205906000Y-65875047D01*
X205930190Y-65899238D01*
X205978571Y-65923428D01*
X206051142Y-65923428D01*
X206099523Y-65899238D01*
X206123714Y-65875047D01*
X206147904Y-65826666D01*
X206147904Y-65633142D01*
X205881809Y-66092761D02*
X205881809Y-66407238D01*
X206075333Y-66237904D01*
X206075333Y-66310476D01*
X206099523Y-66358857D01*
X206123714Y-66383047D01*
X206172095Y-66407238D01*
X206293047Y-66407238D01*
X206341428Y-66383047D01*
X206365619Y-66358857D01*
X206389809Y-66310476D01*
X206389809Y-66165333D01*
X206365619Y-66116952D01*
X206341428Y-66092761D01*
X205881809Y-66866857D02*
X205881809Y-66624952D01*
X206123714Y-66600761D01*
X206099523Y-66624952D01*
X206075333Y-66673333D01*
X206075333Y-66794285D01*
X206099523Y-66842666D01*
X206123714Y-66866857D01*
X206172095Y-66891047D01*
X206293047Y-66891047D01*
X206341428Y-66866857D01*
X206365619Y-66842666D01*
X206389809Y-66794285D01*
X206389809Y-66673333D01*
X206365619Y-66624952D01*
X206341428Y-66600761D01*
X241744809Y-65923428D02*
X241502904Y-65754095D01*
X241744809Y-65633142D02*
X241236809Y-65633142D01*
X241236809Y-65826666D01*
X241261000Y-65875047D01*
X241285190Y-65899238D01*
X241333571Y-65923428D01*
X241406142Y-65923428D01*
X241454523Y-65899238D01*
X241478714Y-65875047D01*
X241502904Y-65826666D01*
X241502904Y-65633142D01*
X241236809Y-66092761D02*
X241236809Y-66407238D01*
X241430333Y-66237904D01*
X241430333Y-66310476D01*
X241454523Y-66358857D01*
X241478714Y-66383047D01*
X241527095Y-66407238D01*
X241648047Y-66407238D01*
X241696428Y-66383047D01*
X241720619Y-66358857D01*
X241744809Y-66310476D01*
X241744809Y-66165333D01*
X241720619Y-66116952D01*
X241696428Y-66092761D01*
X241236809Y-66842666D02*
X241236809Y-66745904D01*
X241261000Y-66697523D01*
X241285190Y-66673333D01*
X241357761Y-66624952D01*
X241454523Y-66600761D01*
X241648047Y-66600761D01*
X241696428Y-66624952D01*
X241720619Y-66649142D01*
X241744809Y-66697523D01*
X241744809Y-66794285D01*
X241720619Y-66842666D01*
X241696428Y-66866857D01*
X241648047Y-66891047D01*
X241527095Y-66891047D01*
X241478714Y-66866857D01*
X241454523Y-66842666D01*
X241430333Y-66794285D01*
X241430333Y-66697523D01*
X241454523Y-66649142D01*
X241478714Y-66624952D01*
X241527095Y-66600761D01*
X244429809Y-65923428D02*
X244187904Y-65754095D01*
X244429809Y-65633142D02*
X243921809Y-65633142D01*
X243921809Y-65826666D01*
X243946000Y-65875047D01*
X243970190Y-65899238D01*
X244018571Y-65923428D01*
X244091142Y-65923428D01*
X244139523Y-65899238D01*
X244163714Y-65875047D01*
X244187904Y-65826666D01*
X244187904Y-65633142D01*
X243921809Y-66092761D02*
X243921809Y-66407238D01*
X244115333Y-66237904D01*
X244115333Y-66310476D01*
X244139523Y-66358857D01*
X244163714Y-66383047D01*
X244212095Y-66407238D01*
X244333047Y-66407238D01*
X244381428Y-66383047D01*
X244405619Y-66358857D01*
X244429809Y-66310476D01*
X244429809Y-66165333D01*
X244405619Y-66116952D01*
X244381428Y-66092761D01*
X243921809Y-66576571D02*
X243921809Y-66915238D01*
X244429809Y-66697523D01*
X263539809Y-65923428D02*
X263297904Y-65754095D01*
X263539809Y-65633142D02*
X263031809Y-65633142D01*
X263031809Y-65826666D01*
X263056000Y-65875047D01*
X263080190Y-65899238D01*
X263128571Y-65923428D01*
X263201142Y-65923428D01*
X263249523Y-65899238D01*
X263273714Y-65875047D01*
X263297904Y-65826666D01*
X263297904Y-65633142D01*
X263031809Y-66092761D02*
X263031809Y-66407238D01*
X263225333Y-66237904D01*
X263225333Y-66310476D01*
X263249523Y-66358857D01*
X263273714Y-66383047D01*
X263322095Y-66407238D01*
X263443047Y-66407238D01*
X263491428Y-66383047D01*
X263515619Y-66358857D01*
X263539809Y-66310476D01*
X263539809Y-66165333D01*
X263515619Y-66116952D01*
X263491428Y-66092761D01*
X263249523Y-66697523D02*
X263225333Y-66649142D01*
X263201142Y-66624952D01*
X263152761Y-66600761D01*
X263128571Y-66600761D01*
X263080190Y-66624952D01*
X263056000Y-66649142D01*
X263031809Y-66697523D01*
X263031809Y-66794285D01*
X263056000Y-66842666D01*
X263080190Y-66866857D01*
X263128571Y-66891047D01*
X263152761Y-66891047D01*
X263201142Y-66866857D01*
X263225333Y-66842666D01*
X263249523Y-66794285D01*
X263249523Y-66697523D01*
X263273714Y-66649142D01*
X263297904Y-66624952D01*
X263346285Y-66600761D01*
X263443047Y-66600761D01*
X263491428Y-66624952D01*
X263515619Y-66649142D01*
X263539809Y-66697523D01*
X263539809Y-66794285D01*
X263515619Y-66842666D01*
X263491428Y-66866857D01*
X263443047Y-66891047D01*
X263346285Y-66891047D01*
X263297904Y-66866857D01*
X263273714Y-66842666D01*
X263249523Y-66794285D01*
X27966571Y-88229809D02*
X28135904Y-87987904D01*
X28256857Y-88229809D02*
X28256857Y-87721809D01*
X28063333Y-87721809D01*
X28014952Y-87746000D01*
X27990761Y-87770190D01*
X27966571Y-87818571D01*
X27966571Y-87891142D01*
X27990761Y-87939523D01*
X28014952Y-87963714D01*
X28063333Y-87987904D01*
X28256857Y-87987904D01*
X27797238Y-87721809D02*
X27482761Y-87721809D01*
X27652095Y-87915333D01*
X27579523Y-87915333D01*
X27531142Y-87939523D01*
X27506952Y-87963714D01*
X27482761Y-88012095D01*
X27482761Y-88133047D01*
X27506952Y-88181428D01*
X27531142Y-88205619D01*
X27579523Y-88229809D01*
X27724666Y-88229809D01*
X27773047Y-88205619D01*
X27797238Y-88181428D01*
X27240857Y-88229809D02*
X27144095Y-88229809D01*
X27095714Y-88205619D01*
X27071523Y-88181428D01*
X27023142Y-88108857D01*
X26998952Y-88012095D01*
X26998952Y-87818571D01*
X27023142Y-87770190D01*
X27047333Y-87746000D01*
X27095714Y-87721809D01*
X27192476Y-87721809D01*
X27240857Y-87746000D01*
X27265047Y-87770190D01*
X27289238Y-87818571D01*
X27289238Y-87939523D01*
X27265047Y-87987904D01*
X27240857Y-88012095D01*
X27192476Y-88036285D01*
X27095714Y-88036285D01*
X27047333Y-88012095D01*
X27023142Y-87987904D01*
X26998952Y-87939523D01*
X51244809Y-84973428D02*
X51002904Y-84804095D01*
X51244809Y-84683142D02*
X50736809Y-84683142D01*
X50736809Y-84876666D01*
X50761000Y-84925047D01*
X50785190Y-84949238D01*
X50833571Y-84973428D01*
X50906142Y-84973428D01*
X50954523Y-84949238D01*
X50978714Y-84925047D01*
X51002904Y-84876666D01*
X51002904Y-84683142D01*
X50906142Y-85408857D02*
X51244809Y-85408857D01*
X50712619Y-85287904D02*
X51075476Y-85166952D01*
X51075476Y-85481428D01*
X50736809Y-85771714D02*
X50736809Y-85820095D01*
X50761000Y-85868476D01*
X50785190Y-85892666D01*
X50833571Y-85916857D01*
X50930333Y-85941047D01*
X51051285Y-85941047D01*
X51148047Y-85916857D01*
X51196428Y-85892666D01*
X51220619Y-85868476D01*
X51244809Y-85820095D01*
X51244809Y-85771714D01*
X51220619Y-85723333D01*
X51196428Y-85699142D01*
X51148047Y-85674952D01*
X51051285Y-85650761D01*
X50930333Y-85650761D01*
X50833571Y-85674952D01*
X50785190Y-85699142D01*
X50761000Y-85723333D01*
X50736809Y-85771714D01*
X53989809Y-84973428D02*
X53747904Y-84804095D01*
X53989809Y-84683142D02*
X53481809Y-84683142D01*
X53481809Y-84876666D01*
X53506000Y-84925047D01*
X53530190Y-84949238D01*
X53578571Y-84973428D01*
X53651142Y-84973428D01*
X53699523Y-84949238D01*
X53723714Y-84925047D01*
X53747904Y-84876666D01*
X53747904Y-84683142D01*
X53651142Y-85408857D02*
X53989809Y-85408857D01*
X53457619Y-85287904D02*
X53820476Y-85166952D01*
X53820476Y-85481428D01*
X53989809Y-85941047D02*
X53989809Y-85650761D01*
X53989809Y-85795904D02*
X53481809Y-85795904D01*
X53554380Y-85747523D01*
X53602761Y-85699142D01*
X53626952Y-85650761D01*
X89344809Y-84973428D02*
X89102904Y-84804095D01*
X89344809Y-84683142D02*
X88836809Y-84683142D01*
X88836809Y-84876666D01*
X88861000Y-84925047D01*
X88885190Y-84949238D01*
X88933571Y-84973428D01*
X89006142Y-84973428D01*
X89054523Y-84949238D01*
X89078714Y-84925047D01*
X89102904Y-84876666D01*
X89102904Y-84683142D01*
X89006142Y-85408857D02*
X89344809Y-85408857D01*
X88812619Y-85287904D02*
X89175476Y-85166952D01*
X89175476Y-85481428D01*
X88885190Y-85650761D02*
X88861000Y-85674952D01*
X88836809Y-85723333D01*
X88836809Y-85844285D01*
X88861000Y-85892666D01*
X88885190Y-85916857D01*
X88933571Y-85941047D01*
X88981952Y-85941047D01*
X89054523Y-85916857D01*
X89344809Y-85626571D01*
X89344809Y-85941047D01*
X92089809Y-84973428D02*
X91847904Y-84804095D01*
X92089809Y-84683142D02*
X91581809Y-84683142D01*
X91581809Y-84876666D01*
X91606000Y-84925047D01*
X91630190Y-84949238D01*
X91678571Y-84973428D01*
X91751142Y-84973428D01*
X91799523Y-84949238D01*
X91823714Y-84925047D01*
X91847904Y-84876666D01*
X91847904Y-84683142D01*
X91751142Y-85408857D02*
X92089809Y-85408857D01*
X91557619Y-85287904D02*
X91920476Y-85166952D01*
X91920476Y-85481428D01*
X91581809Y-85626571D02*
X91581809Y-85941047D01*
X91775333Y-85771714D01*
X91775333Y-85844285D01*
X91799523Y-85892666D01*
X91823714Y-85916857D01*
X91872095Y-85941047D01*
X91993047Y-85941047D01*
X92041428Y-85916857D01*
X92065619Y-85892666D01*
X92089809Y-85844285D01*
X92089809Y-85699142D01*
X92065619Y-85650761D01*
X92041428Y-85626571D01*
X184594809Y-84973428D02*
X184352904Y-84804095D01*
X184594809Y-84683142D02*
X184086809Y-84683142D01*
X184086809Y-84876666D01*
X184111000Y-84925047D01*
X184135190Y-84949238D01*
X184183571Y-84973428D01*
X184256142Y-84973428D01*
X184304523Y-84949238D01*
X184328714Y-84925047D01*
X184352904Y-84876666D01*
X184352904Y-84683142D01*
X184256142Y-85408857D02*
X184594809Y-85408857D01*
X184062619Y-85287904D02*
X184425476Y-85166952D01*
X184425476Y-85481428D01*
X184256142Y-85892666D02*
X184594809Y-85892666D01*
X184062619Y-85771714D02*
X184425476Y-85650761D01*
X184425476Y-85965238D01*
X187339809Y-84973428D02*
X187097904Y-84804095D01*
X187339809Y-84683142D02*
X186831809Y-84683142D01*
X186831809Y-84876666D01*
X186856000Y-84925047D01*
X186880190Y-84949238D01*
X186928571Y-84973428D01*
X187001142Y-84973428D01*
X187049523Y-84949238D01*
X187073714Y-84925047D01*
X187097904Y-84876666D01*
X187097904Y-84683142D01*
X187001142Y-85408857D02*
X187339809Y-85408857D01*
X186807619Y-85287904D02*
X187170476Y-85166952D01*
X187170476Y-85481428D01*
X186831809Y-85916857D02*
X186831809Y-85674952D01*
X187073714Y-85650761D01*
X187049523Y-85674952D01*
X187025333Y-85723333D01*
X187025333Y-85844285D01*
X187049523Y-85892666D01*
X187073714Y-85916857D01*
X187122095Y-85941047D01*
X187243047Y-85941047D01*
X187291428Y-85916857D01*
X187315619Y-85892666D01*
X187339809Y-85844285D01*
X187339809Y-85723333D01*
X187315619Y-85674952D01*
X187291428Y-85650761D01*
X206389809Y-84973428D02*
X206147904Y-84804095D01*
X206389809Y-84683142D02*
X205881809Y-84683142D01*
X205881809Y-84876666D01*
X205906000Y-84925047D01*
X205930190Y-84949238D01*
X205978571Y-84973428D01*
X206051142Y-84973428D01*
X206099523Y-84949238D01*
X206123714Y-84925047D01*
X206147904Y-84876666D01*
X206147904Y-84683142D01*
X206051142Y-85408857D02*
X206389809Y-85408857D01*
X205857619Y-85287904D02*
X206220476Y-85166952D01*
X206220476Y-85481428D01*
X205881809Y-85892666D02*
X205881809Y-85795904D01*
X205906000Y-85747523D01*
X205930190Y-85723333D01*
X206002761Y-85674952D01*
X206099523Y-85650761D01*
X206293047Y-85650761D01*
X206341428Y-85674952D01*
X206365619Y-85699142D01*
X206389809Y-85747523D01*
X206389809Y-85844285D01*
X206365619Y-85892666D01*
X206341428Y-85916857D01*
X206293047Y-85941047D01*
X206172095Y-85941047D01*
X206123714Y-85916857D01*
X206099523Y-85892666D01*
X206075333Y-85844285D01*
X206075333Y-85747523D01*
X206099523Y-85699142D01*
X206123714Y-85674952D01*
X206172095Y-85650761D01*
X225439809Y-84973428D02*
X225197904Y-84804095D01*
X225439809Y-84683142D02*
X224931809Y-84683142D01*
X224931809Y-84876666D01*
X224956000Y-84925047D01*
X224980190Y-84949238D01*
X225028571Y-84973428D01*
X225101142Y-84973428D01*
X225149523Y-84949238D01*
X225173714Y-84925047D01*
X225197904Y-84876666D01*
X225197904Y-84683142D01*
X225101142Y-85408857D02*
X225439809Y-85408857D01*
X224907619Y-85287904D02*
X225270476Y-85166952D01*
X225270476Y-85481428D01*
X224931809Y-85626571D02*
X224931809Y-85965238D01*
X225439809Y-85747523D01*
X244629809Y-84973428D02*
X244387904Y-84804095D01*
X244629809Y-84683142D02*
X244121809Y-84683142D01*
X244121809Y-84876666D01*
X244146000Y-84925047D01*
X244170190Y-84949238D01*
X244218571Y-84973428D01*
X244291142Y-84973428D01*
X244339523Y-84949238D01*
X244363714Y-84925047D01*
X244387904Y-84876666D01*
X244387904Y-84683142D01*
X244291142Y-85408857D02*
X244629809Y-85408857D01*
X244097619Y-85287904D02*
X244460476Y-85166952D01*
X244460476Y-85481428D01*
X244339523Y-85747523D02*
X244315333Y-85699142D01*
X244291142Y-85674952D01*
X244242761Y-85650761D01*
X244218571Y-85650761D01*
X244170190Y-85674952D01*
X244146000Y-85699142D01*
X244121809Y-85747523D01*
X244121809Y-85844285D01*
X244146000Y-85892666D01*
X244170190Y-85916857D01*
X244218571Y-85941047D01*
X244242761Y-85941047D01*
X244291142Y-85916857D01*
X244315333Y-85892666D01*
X244339523Y-85844285D01*
X244339523Y-85747523D01*
X244363714Y-85699142D01*
X244387904Y-85674952D01*
X244436285Y-85650761D01*
X244533047Y-85650761D01*
X244581428Y-85674952D01*
X244605619Y-85699142D01*
X244629809Y-85747523D01*
X244629809Y-85844285D01*
X244605619Y-85892666D01*
X244581428Y-85916857D01*
X244533047Y-85941047D01*
X244436285Y-85941047D01*
X244387904Y-85916857D01*
X244363714Y-85892666D01*
X244339523Y-85844285D01*
X241744809Y-84973428D02*
X241502904Y-84804095D01*
X241744809Y-84683142D02*
X241236809Y-84683142D01*
X241236809Y-84876666D01*
X241261000Y-84925047D01*
X241285190Y-84949238D01*
X241333571Y-84973428D01*
X241406142Y-84973428D01*
X241454523Y-84949238D01*
X241478714Y-84925047D01*
X241502904Y-84876666D01*
X241502904Y-84683142D01*
X241406142Y-85408857D02*
X241744809Y-85408857D01*
X241212619Y-85287904D02*
X241575476Y-85166952D01*
X241575476Y-85481428D01*
X241744809Y-85699142D02*
X241744809Y-85795904D01*
X241720619Y-85844285D01*
X241696428Y-85868476D01*
X241623857Y-85916857D01*
X241527095Y-85941047D01*
X241333571Y-85941047D01*
X241285190Y-85916857D01*
X241261000Y-85892666D01*
X241236809Y-85844285D01*
X241236809Y-85747523D01*
X241261000Y-85699142D01*
X241285190Y-85674952D01*
X241333571Y-85650761D01*
X241454523Y-85650761D01*
X241502904Y-85674952D01*
X241527095Y-85699142D01*
X241551285Y-85747523D01*
X241551285Y-85844285D01*
X241527095Y-85892666D01*
X241502904Y-85916857D01*
X241454523Y-85941047D01*
M02*
