M48
; DRILL file {KiCad (5.1.4)-1} date 11/27/2019 10:18:14 AM
; FORMAT={-:-/ absolute / inch / decimal}
; #@! TF.CreationDate,2019-11-27T10:18:14-08:00
; #@! TF.GenerationSoftware,Kicad,Pcbnew,(5.1.4)-1
; #@! TF.FileFunction,NonPlated,1,2,NPTH
FMAT,2
INCH
T1C0.0670
T2C0.1200
T3C0.1570
%
G90
G05
T1
X2.2375Y-2.4062
X2.6375Y-2.4062
X2.05Y-1.6562
X2.45Y-1.6562
X9.2687Y-1.6562
X9.6687Y-1.6562
X8.2375Y-2.4062
X8.6375Y-2.4062
X2.8Y-1.6562
X3.2Y-1.6562
X7.3Y-1.6562
X7.7Y-1.6562
X10.4875Y-2.4062
X10.8875Y-2.4062
X3.55Y-1.6562
X3.95Y-1.6562
X9.55Y-0.9062
X9.95Y-0.9062
X3.7375Y-2.4062
X4.1375Y-2.4062
X0.925Y-0.9055
X1.325Y-0.9055
X7.4875Y-2.4062
X7.8875Y-2.4062
X10.4875Y-3.1562
X10.8875Y-3.1562
X5.05Y-1.6562
X5.45Y-1.6562
X1.0188Y-1.6562
X1.4187Y-1.6562
X7.4875Y-3.1562
X7.8875Y-3.1562
X1.8625Y-0.9062
X2.2625Y-0.9062
X8.2375Y-3.1562
X8.6375Y-3.1562
X2.9875Y-2.4062
X3.3875Y-2.4062
X8.6125Y-0.9062
X9.0125Y-0.9062
X9.7375Y-2.4062
X10.1375Y-2.4062
X8.9875Y-2.4062
X9.3875Y-2.4062
X10.4875Y-0.9062
X10.8875Y-0.9062
X3.3625Y-0.9062
X3.7625Y-0.9062
X8.9875Y-3.1562
X9.3875Y-3.1562
X1.1125Y-2.4062
X1.5125Y-2.4062
X2.2375Y-3.1562
X2.6375Y-3.1562
X6.55Y-1.6562
X6.95Y-1.6562
X6.2687Y-3.1562
X6.6688Y-3.1562
X4.3Y-1.6562
X4.7Y-1.6562
X6.3625Y-0.9062
X6.7625Y-0.9062
X4.3937Y-3.1562
X4.7938Y-3.1562
X2.9875Y-3.1562
X3.3875Y-3.1562
X5.9875Y-2.4062
X6.3875Y-2.4062
X4.1125Y-0.9062
X4.5125Y-0.9062
X4.4875Y-2.4062
X4.8875Y-2.4062
X8.05Y-1.6562
X8.45Y-1.6562
X7.8625Y-0.9062
X8.2625Y-0.9062
X1.4875Y-3.1562
X1.8875Y-3.1562
X5.8Y-1.6562
X6.2Y-1.6562
X0.7375Y-3.1562
X1.1375Y-3.1562
X2.6125Y-0.9062
X3.0125Y-0.9062
X5.6125Y-0.9062
X6.0125Y-0.9062
X9.7375Y-3.1562
X10.1375Y-3.1562
X4.8625Y-0.9062
X5.2625Y-0.9062
X7.1125Y-0.9062
X7.5125Y-0.9062
X10.4875Y-1.6562
X10.8875Y-1.6562
X5.2375Y-2.4062
X5.6375Y-2.4062
X6.7375Y-2.4062
X7.1375Y-2.4062
T2
X8.9987Y-1.3812
X9.9388Y-1.3812
X0.8425Y-2.1313
X1.7825Y-2.1313
X5.9988Y-3.4312
X6.9387Y-3.4312
X4.1238Y-3.4312
X5.0637Y-3.4312
T3
X8.9987Y-1.9812
X9.4688Y-1.6562
X9.9388Y-1.9812
X8.4375Y-2.4062
X3.0Y-1.6562
X7.5Y-1.6562
X10.6875Y-2.4062
X3.75Y-1.6562
X9.75Y-0.9062
X3.9375Y-2.4062
X1.125Y-0.9055
X7.6875Y-2.4062
X10.6875Y-3.1562
X5.25Y-1.6562
X1.2188Y-1.6562
X7.6875Y-3.1562
X2.0625Y-0.9062
X8.4375Y-3.1562
X3.1875Y-2.4062
X8.8125Y-0.9062
X9.9375Y-2.4062
X9.1875Y-2.4062
X10.6875Y-0.9062
X3.5625Y-0.9062
X9.1875Y-3.1562
X0.8425Y-2.7312
X1.3125Y-2.4062
X1.7825Y-2.7312
X2.4375Y-3.1562
X6.75Y-1.6562
X5.9988Y-2.8312
X6.4688Y-3.1562
X6.9387Y-2.8312
X4.5Y-1.6562
X6.5625Y-0.9062
X4.1238Y-2.8312
X4.5938Y-3.1562
X5.0637Y-2.8312
X3.1875Y-3.1562
X6.1875Y-2.4062
X4.3125Y-0.9062
X4.6875Y-2.4062
X8.25Y-1.6562
X8.0625Y-0.9062
X1.6875Y-3.1562
X6.0Y-1.6562
X0.9375Y-3.1562
X2.8125Y-0.9062
X5.8125Y-0.9062
X9.9375Y-3.1562
X5.0625Y-0.9062
X7.3125Y-0.9062
X10.6875Y-1.6562
X5.4375Y-2.4062
X6.9375Y-2.4062
X2.4375Y-2.4062
X2.25Y-1.6562
T0
M30
