G04 #@! TF.GenerationSoftware,KiCad,Pcbnew,(5.1.4)-1*
G04 #@! TF.CreationDate,2019-11-25T15:24:34-08:00*
G04 #@! TF.ProjectId,Alchemy49,416c6368-656d-4793-9439-2e6b69636164,rev?*
G04 #@! TF.SameCoordinates,Original*
G04 #@! TF.FileFunction,Legend,Top*
G04 #@! TF.FilePolarity,Positive*
%FSLAX46Y46*%
G04 Gerber Fmt 4.6, Leading zero omitted, Abs format (unit mm)*
G04 Created by KiCad (PCBNEW (5.1.4)-1) date 2019-11-25 15:24:34*
%MOMM*%
%LPD*%
G04 APERTURE LIST*
%ADD10C,0.100000*%
%ADD11C,0.150000*%
G04 APERTURE END LIST*
D10*
X39100000Y-27700000D02*
G75*
G03X39100000Y-27700000I-700000J0D01*
G01*
X41500000Y-26500000D02*
G75*
G03X41500000Y-26500000I-700000J0D01*
G01*
X42300000Y-27700000D02*
G75*
G03X42300000Y-27700000I-700000J0D01*
G01*
X39900000Y-26500000D02*
G75*
G03X39900000Y-26500000I-700000J0D01*
G01*
X40700000Y-27700000D02*
G75*
G03X40700000Y-27700000I-700000J0D01*
G01*
X35550000Y-27050000D02*
G75*
G03X37050000Y-27050000I750000J0D01*
G01*
X37050000Y-25950000D02*
G75*
G03X35550000Y-25950000I-750000J0D01*
G01*
X35550000Y-25950000D02*
X35550000Y-27050000D01*
X37050000Y-25950000D02*
X37050000Y-27050000D01*
X44450000Y-21200000D02*
X44450000Y-22300000D01*
X44450000Y-21200000D02*
G75*
G03X42950000Y-21200000I-750000J0D01*
G01*
X42950000Y-21200000D02*
X42950000Y-22300000D01*
X42950000Y-22300000D02*
G75*
G03X44450000Y-22300000I750000J0D01*
G01*
X37050000Y-21200000D02*
X37050000Y-22300000D01*
X37050000Y-21200000D02*
G75*
G03X35550000Y-21200000I-750000J0D01*
G01*
X35550000Y-21200000D02*
X35550000Y-22300000D01*
X44450000Y-25950000D02*
X44450000Y-27050000D01*
X44450000Y-25950000D02*
G75*
G03X42950000Y-25950000I-750000J0D01*
G01*
X42950000Y-25950000D02*
X42950000Y-27050000D01*
X42950000Y-27050000D02*
G75*
G03X44450000Y-27050000I750000J0D01*
G01*
X35550000Y-22300000D02*
G75*
G03X37050000Y-22300000I750000J0D01*
G01*
D11*
X18488095Y-37952380D02*
X18488095Y-36952380D01*
X18488095Y-37428571D02*
X19059523Y-37428571D01*
X19059523Y-37952380D02*
X19059523Y-36952380D01*
X20059523Y-37952380D02*
X19488095Y-37952380D01*
X19773809Y-37952380D02*
X19773809Y-36952380D01*
X19678571Y-37095238D01*
X19583333Y-37190476D01*
X19488095Y-37238095D01*
X218988095Y-43452380D02*
X218988095Y-42452380D01*
X218988095Y-42928571D02*
X219559523Y-42928571D01*
X219559523Y-43452380D02*
X219559523Y-42452380D01*
X219988095Y-42547619D02*
X220035714Y-42500000D01*
X220130952Y-42452380D01*
X220369047Y-42452380D01*
X220464285Y-42500000D01*
X220511904Y-42547619D01*
X220559523Y-42642857D01*
X220559523Y-42738095D01*
X220511904Y-42880952D01*
X219940476Y-43452380D01*
X220559523Y-43452380D01*
M02*
