M48
; DRILL file {KiCad (5.1.4)-1} date 2020-01-11 22:59:10
; FORMAT={-:-/ absolute / inch / decimal}
; #@! TF.CreationDate,2020-01-11T22:59:10-08:00
; #@! TF.GenerationSoftware,Kicad,Pcbnew,(5.1.4)-1
FMAT,2
INCH
T1C0.0157
T2C0.0197
T3C0.0276
T4C0.0300
T5C0.0315
T6C0.0390
T7C0.0400
T8C0.0433
T9C0.0600
T10C0.0600
T11C0.1378
T12C0.0670
T13C0.1200
T14C0.1570
%
G90
G05
T1
X2.2146Y-1.3091
X3.2875Y-2.0611
X5.2894Y-2.0472
X5.5339Y-2.0256
X5.9104Y-1.4459
X6.85Y-1.2122
X7.6Y-1.222
X8.35Y-1.224
X8.9125Y-1.3047
X9.8058Y-1.2192
X10.7875Y-1.2912
X10.8862Y-1.0083
X10.8894Y-2.5083
X10.9012Y-1.7583
T2
X8.5482Y-1.8701
X8.5785Y-1.797
X8.5785Y-1.9432
X8.6516Y-1.7667
X8.6516Y-1.9734
X8.7247Y-1.797
X8.7247Y-1.9432
X8.7549Y-1.8701
X0.6545Y-1.6535
X0.6848Y-1.5805
X0.6848Y-1.7266
X0.7579Y-1.5502
X0.7579Y-1.7569
X0.831Y-1.5805
X0.831Y-1.7266
X0.8612Y-1.6535
T3
X9.5085Y-3.2583
X9.5085Y-3.4583
X6.6165Y-2.5083
X6.6165Y-2.7083
X2.378Y-1.0083
X2.378Y-1.2083
X5.3035Y-2.8878
X5.5035Y-2.8878
X4.7415Y-1.0083
X4.7415Y-1.2083
X7.3665Y-3.2583
X7.3665Y-3.4583
X2.1165Y-3.2583
X2.1165Y-3.4583
X3.6165Y-3.2583
X3.6165Y-3.4583
X7.7415Y-1.0083
X7.7415Y-1.2083
X6.5085Y-2.5083
X6.5085Y-2.7083
X2.0085Y-3.2583
X2.0085Y-3.4583
X8.4915Y-1.0083
X8.4915Y-1.2083
X3.5085Y-2.5083
X3.5085Y-2.7083
X3.429Y-1.7583
X3.429Y-1.9583
X4.3665Y-2.5083
X4.3665Y-2.7083
X1.5118Y-1.0906
X1.5433Y-1.0433
X1.5748Y-1.0906
X1.6063Y-1.0433
X1.6378Y-1.0906
X2.571Y-1.7583
X2.571Y-1.9583
X7.179Y-1.7583
X7.179Y-1.9583
X3.9915Y-1.0083
X3.9915Y-1.2083
X2.679Y-1.7583
X2.679Y-1.9583
X3.2415Y-1.0083
X3.2415Y-1.2083
X2.0085Y-2.5083
X2.0085Y-2.7083
X0.9817Y-1.2283
X1.1817Y-1.2283
X3.5085Y-3.2583
X3.5085Y-3.4583
X6.1335Y-1.0083
X6.1335Y-1.2083
X7.2585Y-3.2583
X7.2585Y-3.4583
X2.1165Y-2.5083
X2.1165Y-2.7083
X8.1165Y-2.5083
X8.1165Y-2.7083
X1.5397Y-1.8094
X1.5397Y-2.0094
X9.429Y-1.0083
X9.429Y-1.2083
X6.319Y-1.772
X6.319Y-1.972
X3.6165Y-2.5083
X3.6165Y-2.7083
X5.7585Y-2.5083
X5.7585Y-2.7083
X8.8665Y-3.2583
X8.8665Y-3.4583
X10.3665Y-1.7583
X10.3665Y-1.9583
X0.9882Y-3.4646
X1.1882Y-3.4646
X6.2415Y-1.0083
X6.2415Y-1.2083
X7.929Y-1.7583
X7.929Y-1.9583
X2.4915Y-1.0083
X2.4915Y-1.2083
X9.5085Y-2.5083
X9.5085Y-2.7083
X4.179Y-1.7583
X4.179Y-1.9583
X6.9915Y-1.0083
X6.9915Y-1.2083
X4.071Y-1.7583
X4.071Y-1.9583
X10.3665Y-2.5083
X10.3665Y-2.7083
X9.622Y-3.2583
X9.622Y-3.4583
X5.3035Y-2.7795
X5.5035Y-2.7795
X6.4271Y-1.772
X6.4271Y-1.972
X10.3665Y-1.0083
X10.3665Y-1.2083
X10.2585Y-1.7583
X10.2585Y-1.9583
X7.3665Y-2.5083
X7.3665Y-2.7083
X8.1165Y-3.2583
X8.1165Y-3.4583
X9.6142Y-2.5083
X9.6142Y-2.7083
T4
X1.3748Y-1.2795
X1.4748Y-1.2795
X1.5748Y-1.2795
X1.6748Y-1.2795
X1.7748Y-1.2795
T5
X7.179Y-1.3421
X7.179Y-1.6421
X0.804Y-1.0429
X0.804Y-1.3429
X9.622Y-2.8421
X9.622Y-3.1421
X4.179Y-1.3421
X4.179Y-1.6421
X1.5397Y-1.4224
X1.5397Y-1.7224
X9.6142Y-2.0921
X9.6142Y-2.3921
X6.321Y-1.3598
X6.321Y-1.6598
X3.6165Y-2.8421
X3.6165Y-3.1421
X4.071Y-1.3421
X4.071Y-1.6421
X2.4915Y-0.5921
X2.4915Y-0.8921
X9.5085Y-2.8421
X9.5085Y-3.1421
X7.929Y-1.3421
X7.929Y-1.6421
X3.5085Y-2.0921
X3.5085Y-2.3921
X8.8665Y-2.8421
X8.8665Y-3.1421
X7.2585Y-2.8421
X7.2585Y-3.1421
X2.571Y-1.3421
X2.571Y-1.6421
X10.2585Y-1.3421
X10.2585Y-1.6421
X5.7585Y-2.0921
X5.7585Y-2.3921
X2.1165Y-2.0921
X2.1165Y-2.3921
X10.3665Y-0.5921
X10.3665Y-0.8921
X3.9915Y-0.5921
X3.9915Y-0.8921
X10.3665Y-1.3421
X10.3665Y-1.6421
X6.5085Y-2.0921
X6.5085Y-2.3921
X6.1335Y-0.5921
X6.1335Y-0.8921
X6.429Y-1.3598
X6.429Y-1.6598
X8.1165Y-2.0921
X8.1165Y-2.3921
X9.429Y-0.5921
X9.429Y-0.8921
X2.1165Y-2.8421
X2.1165Y-3.1421
X7.7415Y-0.5921
X7.7415Y-0.8921
X6.6165Y-2.0921
X6.6165Y-2.3921
X1.2585Y-2.8185
X1.2585Y-3.1185
X8.4915Y-0.5921
X8.4915Y-0.8921
X6.9915Y-0.5921
X6.9915Y-0.8921
X3.429Y-1.3421
X3.429Y-1.6421
X8.1165Y-2.8421
X8.1165Y-3.1421
X6.2415Y-0.5921
X6.2415Y-0.8921
X2.0085Y-2.8421
X2.0085Y-3.1421
X7.3665Y-2.8421
X7.3665Y-3.1421
X3.5085Y-2.8421
X3.5085Y-3.1421
X4.7415Y-0.5921
X4.7415Y-0.8921
X3.6165Y-2.0921
X3.6165Y-2.3921
X2.0085Y-2.0921
X2.0085Y-2.3921
X10.3665Y-2.0921
X10.3665Y-2.3921
X2.679Y-1.3421
X2.679Y-1.6421
X3.2415Y-0.5921
X3.2415Y-0.8921
X7.3665Y-2.0921
X7.3665Y-2.3921
X4.3661Y-2.102
X4.3661Y-2.402
X2.378Y-0.5921
X2.378Y-0.8921
X9.5085Y-2.0921
X9.5085Y-2.3921
T6
X7.2625Y-1.1063
X9.1375Y-2.6063
X0.8875Y-3.3563
X6.5125Y-1.1063
X8.0125Y-1.1063
X10.6375Y-1.8563
X5.95Y-1.8563
X1.075Y-1.1063
X9.8875Y-3.3563
X5.3875Y-2.6063
X5.0125Y-1.1063
X4.6375Y-2.6063
X6.7Y-1.8563
X3.8875Y-2.6063
X7.45Y-1.8563
X1.2625Y-2.6063
X3.1375Y-3.3563
X6.4195Y-3.3563
X2.7625Y-1.1063
X9.8875Y-2.6063
X4.45Y-1.8563
X9.7Y-1.1063
X7.6375Y-3.3563
X2.95Y-1.8563
X6.138Y-2.6063
X8.7625Y-1.1063
X4.5438Y-3.3563
X3.7Y-1.8563
X6.887Y-2.6063
X2.3875Y-3.3563
X8.199Y-1.8563
X9.4187Y-1.8563
X5.7625Y-1.1063
X1.6375Y-3.3563
X2.0125Y-1.1063
X10.6375Y-3.3563
X10.6375Y-1.1063
X10.638Y-2.6063
X5.2Y-1.8563
X2.2Y-1.8563
X8.3875Y-2.6063
X7.6375Y-2.6063
X1.1687Y-1.8563
X8.3875Y-3.3563
X2.3875Y-2.6063
X4.2625Y-1.1063
X9.1375Y-3.3563
X3.5125Y-1.1063
X3.137Y-2.6063
T7
X2.4875Y-2.6063
X4.3625Y-1.1063
X9.2375Y-3.3563
X3.6125Y-1.1063
X3.237Y-2.6063
X7.3625Y-1.1063
X9.2375Y-2.6063
X0.9875Y-3.3563
X6.6125Y-1.1063
X8.1125Y-1.1063
X10.7375Y-1.8563
X6.05Y-1.8563
X1.175Y-1.1063
X9.9875Y-3.3563
X5.4875Y-2.6063
X5.1125Y-1.1063
X4.7375Y-2.6063
X6.8Y-1.8563
X3.9875Y-2.6063
X7.55Y-1.8563
X1.3625Y-2.6063
X3.2375Y-3.3563
X6.5195Y-3.3563
X4.813Y-1.3465
X4.813Y-1.9465
X4.913Y-1.3465
X4.913Y-1.9465
X5.013Y-1.3465
X5.013Y-1.9465
X5.113Y-1.3465
X5.113Y-1.9465
X5.213Y-1.3465
X5.213Y-1.9465
X5.313Y-1.3465
X5.313Y-1.9465
X5.413Y-1.3465
X5.413Y-1.9465
X5.513Y-1.3465
X5.513Y-1.9465
X5.613Y-1.3465
X5.613Y-1.9465
X5.713Y-1.3465
X5.713Y-1.9465
X5.813Y-1.3465
X5.813Y-1.9465
X5.913Y-1.3465
X5.913Y-1.9465
X2.8625Y-1.1063
X9.9875Y-2.6063
X4.55Y-1.8563
X9.8Y-1.1063
X7.7375Y-3.3563
X3.05Y-1.8563
X6.238Y-2.6063
X8.8625Y-1.1063
X4.6437Y-3.3563
X3.8Y-1.8563
X6.987Y-2.6063
X2.4875Y-3.3563
X8.299Y-1.8563
X9.5187Y-1.8563
X5.8625Y-1.1063
X1.7375Y-3.3563
X2.1125Y-1.1063
X10.7375Y-3.3563
X10.7375Y-1.1063
X10.738Y-2.6063
X5.3Y-1.8563
X2.3Y-1.8563
X8.4875Y-2.6063
X7.7375Y-2.6063
X1.2688Y-1.8563
X8.4875Y-3.3563
T8
X1.7028Y-1.6339
X1.7028Y-1.8898
X1.8799Y-1.6339
X1.8799Y-1.8898
T9
X9.6Y-0.8063
X9.85Y-0.7062
X0.975Y-0.8055
X1.225Y-0.7055
X6.3187Y-3.0562
X6.5687Y-2.9562
X9.3187Y-1.5562
X9.5687Y-1.4563
X1.0687Y-1.5562
X1.3187Y-1.4563
X4.4437Y-3.0562
X4.6937Y-2.9562
X1.1625Y-2.3062
X1.4125Y-2.2062
T10
X6.0375Y-2.3062
X6.2875Y-2.2062
X3.4125Y-0.8063
X3.6625Y-0.7062
X8.6625Y-0.8063
X8.9125Y-0.7062
X3.7875Y-2.3062
X4.0375Y-2.2062
X7.5375Y-3.0562
X7.7875Y-2.9562
X10.5375Y-2.3062
X10.7875Y-2.2062
X2.1Y-1.5562
X2.35Y-1.4563
X5.85Y-1.5562
X6.1Y-1.4563
X1.5375Y-3.0562
X1.7875Y-2.9562
X10.5375Y-1.5562
X10.7875Y-1.4563
X6.6Y-1.5562
X6.85Y-1.4563
X4.35Y-1.5562
X4.6Y-1.4563
X9.0375Y-2.3062
X9.2875Y-2.2062
X9.7875Y-2.3062
X10.0375Y-2.2062
X4.5375Y-2.3062
X4.7875Y-2.2062
X1.9125Y-0.8063
X2.1625Y-0.7062
X6.7875Y-2.3062
X7.0375Y-2.2062
X3.6Y-1.5562
X3.85Y-1.4563
X7.5375Y-2.3062
X7.7875Y-2.2062
X10.5375Y-3.0562
X10.7875Y-2.9562
X3.0375Y-3.0562
X3.2875Y-2.9562
X8.1Y-1.5562
X8.35Y-1.4563
X0.7875Y-3.0562
X1.0375Y-2.9562
X5.1Y-1.5562
X5.35Y-1.4563
X2.6625Y-0.8063
X2.9125Y-0.7062
X6.4125Y-0.8063
X6.6625Y-0.7062
X7.9125Y-0.8063
X8.1625Y-0.7062
X9.0375Y-3.0562
X9.2875Y-2.9562
X4.9125Y-0.8063
X5.1625Y-0.7062
X5.2875Y-2.3062
X5.5375Y-2.2062
X9.7875Y-3.0562
X10.0375Y-2.9562
X3.0375Y-2.3062
X3.2875Y-2.2062
X8.2875Y-2.3062
X8.5375Y-2.2062
X2.2875Y-3.0562
X2.5375Y-2.9562
X10.5375Y-0.8063
X10.7875Y-0.7062
X7.1625Y-0.8063
X7.4125Y-0.7062
X4.1625Y-0.8063
X4.4125Y-0.7062
X8.2875Y-3.0562
X8.5375Y-2.9562
X2.2875Y-2.3062
X2.5375Y-2.2062
X5.6625Y-0.8063
X5.9125Y-0.7062
X2.85Y-1.5562
X3.1Y-1.4563
X7.35Y-1.5562
X7.6Y-1.4563
T11
X8.6516Y-1.8701
X0.7579Y-1.6535
T12
X0.925Y-0.9055
X1.325Y-0.9055
X8.9875Y-3.1562
X9.3875Y-3.1562
X4.8625Y-0.9062
X5.2625Y-0.9062
X5.2375Y-2.4062
X5.6375Y-2.4062
X9.7375Y-3.1562
X10.1375Y-3.1562
X2.9875Y-2.4062
X3.3875Y-2.4062
X8.2375Y-2.4062
X8.6375Y-2.4062
X6.2687Y-3.1562
X6.6688Y-3.1562
X2.2375Y-3.1562
X2.6375Y-3.1562
X10.4875Y-0.9062
X10.8875Y-0.9062
X7.1125Y-0.9062
X7.5125Y-0.9062
X4.1125Y-0.9062
X4.5125Y-0.9062
X8.2375Y-3.1562
X8.6375Y-3.1562
X2.2375Y-2.4062
X2.6375Y-2.4062
X5.6125Y-0.9062
X6.0125Y-0.9062
X2.8Y-1.6562
X3.2Y-1.6562
X7.3Y-1.6562
X7.7Y-1.6562
X9.2687Y-1.6562
X9.6687Y-1.6562
X1.0188Y-1.6562
X1.4187Y-1.6562
X4.3937Y-3.1562
X4.7938Y-3.1562
X1.1125Y-2.4062
X1.5125Y-2.4062
X5.9875Y-2.4062
X6.3875Y-2.4062
X3.3625Y-0.9062
X3.7625Y-0.9062
X8.6125Y-0.9062
X9.0125Y-0.9062
X3.7375Y-2.4062
X4.1375Y-2.4062
X7.4875Y-3.1562
X7.8875Y-3.1562
X10.4875Y-2.4062
X10.8875Y-2.4062
X2.05Y-1.6562
X2.45Y-1.6562
X5.8Y-1.6562
X6.2Y-1.6562
X1.4875Y-3.1562
X1.8875Y-3.1562
X10.4875Y-1.6562
X10.8875Y-1.6562
X6.55Y-1.6562
X6.95Y-1.6562
X4.3Y-1.6562
X4.7Y-1.6562
X8.9875Y-2.4062
X9.3875Y-2.4062
X9.55Y-0.9062
X9.95Y-0.9062
X9.7375Y-2.4062
X10.1375Y-2.4062
X4.4875Y-2.4062
X4.8875Y-2.4062
X1.8625Y-0.9062
X2.2625Y-0.9062
X6.7375Y-2.4062
X7.1375Y-2.4062
X3.55Y-1.6562
X3.95Y-1.6562
X7.4875Y-2.4062
X7.8875Y-2.4062
X10.4875Y-3.1562
X10.8875Y-3.1562
X2.9875Y-3.1562
X3.3875Y-3.1562
X8.05Y-1.6562
X8.45Y-1.6562
X0.7375Y-3.1562
X1.1375Y-3.1562
X5.05Y-1.6562
X5.45Y-1.6562
X2.6125Y-0.9062
X3.0125Y-0.9062
X6.3625Y-0.9062
X6.7625Y-0.9062
X7.8625Y-0.9062
X8.2625Y-0.9062
T13
X5.9988Y-3.4312
X6.9387Y-3.4312
X8.9987Y-1.3812
X9.9388Y-1.3812
X4.1238Y-3.4312
X5.0637Y-3.4312
X0.8425Y-2.1313
X1.7825Y-2.1313
T14
X1.125Y-0.9055
X9.1875Y-3.1562
X5.0625Y-0.9062
X5.4375Y-2.4062
X9.9375Y-3.1562
X3.1875Y-2.4062
X8.4375Y-2.4062
X5.9988Y-2.8312
X6.4688Y-3.1562
X6.9387Y-2.8312
X2.4375Y-3.1562
X10.6875Y-0.9062
X7.3125Y-0.9062
X4.3125Y-0.9062
X8.4375Y-3.1562
X2.4375Y-2.4062
X5.8125Y-0.9062
X3.0Y-1.6562
X7.5Y-1.6562
X8.9987Y-1.9812
X9.4688Y-1.6562
X9.9388Y-1.9812
X1.2188Y-1.6562
X4.1238Y-2.8312
X4.5938Y-3.1562
X5.0637Y-2.8312
X0.8425Y-2.7312
X1.3125Y-2.4062
X1.7825Y-2.7312
X6.1875Y-2.4062
X3.5625Y-0.9062
X8.8125Y-0.9062
X3.9375Y-2.4062
X7.6875Y-3.1562
X10.6875Y-2.4062
X2.25Y-1.6562
X6.0Y-1.6562
X1.6875Y-3.1562
X10.6875Y-1.6562
X6.75Y-1.6562
X4.5Y-1.6562
X9.1875Y-2.4062
X9.75Y-0.9062
X9.9375Y-2.4062
X4.6875Y-2.4062
X2.0625Y-0.9062
X6.9375Y-2.4062
X3.75Y-1.6562
X7.6875Y-2.4062
X10.6875Y-3.1562
X3.1875Y-3.1562
X8.25Y-1.6562
X0.9375Y-3.1562
X5.25Y-1.6562
X2.8125Y-0.9062
X6.5625Y-0.9062
X8.0625Y-0.9062
T5
G00X1.4291Y-0.8346
M15
G01X1.4291Y-0.878
M16
G05
G00X1.4291Y-1.0217
M15
G01X1.4291Y-1.065
M16
G05
G00X1.7205Y-0.8346
M15
G01X1.7205Y-0.878
M16
G05
G00X1.7205Y-1.0217
M15
G01X1.7205Y-1.065
M16
G05
T0
M30
