%FSLAX45Y45*%
G04 Gerber Fmt 4.5, Leading zero omitted, Abs format (unit mm)*
G04 Created by KiCad (PCBNEW (5.1.6)-1) date 2020-07-14 13:56:55*
%MOMM*%
%LPD*%
G01*
G04 APERTURE LIST*
%TA.AperFunction,Profile*%
%ADD10C,0.200000*%
%TD*%
%ADD11C,0.200000*%
%ADD12C,0.300000*%
G04 APERTURE END LIST*
D10*
X26070000Y-1700000D02*
G75*
G02*
X25520000Y-1700000I-275000J0D01*
G01*
X2200000Y-4200000D02*
G75*
G03*
X2200000Y-4200000I-275000J0D01*
G01*
X22250000Y-4750000D02*
G75*
G03*
X22250000Y-4750000I-275000J0D01*
G01*
X3600000Y-8275000D02*
G75*
G03*
X3600000Y-8275000I-275000J0D01*
G01*
X28175000Y-8675000D02*
G75*
G02*
X27875000Y-8975000I-300000J0D01*
G01*
X1425000Y-1750000D02*
X1900000Y-1750000D01*
X25520000Y-1700000D02*
X25520000Y-1350000D01*
X1725000Y-8975000D02*
G75*
G02*
X1425000Y-8675000I0J300000D01*
G01*
X28175000Y-8675000D02*
X28175000Y-1650000D01*
X14100000Y-8275000D02*
G75*
G03*
X14100000Y-8275000I-275000J0D01*
G01*
X26070000Y-1350000D02*
X26070000Y-1700000D01*
X3265000Y-1350000D02*
X3265000Y-1850000D01*
X14100000Y-2000000D02*
G75*
G03*
X14100000Y-2000000I-275000J0D01*
G01*
X1425000Y-1650000D02*
G75*
G02*
X1725000Y-1350000I300000J0D01*
G01*
X1425000Y-8675000D02*
X1425000Y-2250000D01*
X26470000Y-8270000D02*
G75*
G03*
X26470000Y-8270000I-275000J0D01*
G01*
X27875000Y-1350000D02*
G75*
G02*
X28175000Y-1650000I0J-300000D01*
G01*
X27875000Y-8975000D02*
X1725000Y-8975000D01*
X1900000Y-1750000D02*
G75*
G02*
X1900000Y-2250000I0J-250000D01*
G01*
X4740000Y-1850000D02*
X4740000Y-1350000D01*
X1425000Y-2250000D02*
X1900000Y-2250000D01*
X27875000Y-1350000D02*
X26070000Y-1350000D01*
X3265000Y-1350000D02*
X1725000Y-1350000D01*
X1425000Y-1750000D02*
X1425000Y-1650000D01*
X4740000Y-1850000D02*
X3265000Y-1850000D01*
X25520000Y-1350000D02*
X4740000Y-1350000D01*
D11*
X5605000Y-3305000D02*
X5645000Y-3345000D01*
X5645000Y-3305000D02*
X5605000Y-3345000D01*
X8330250Y-5215250D02*
X8370250Y-5255250D01*
X8370250Y-5215250D02*
X8330250Y-5255250D01*
X13415000Y-5180000D02*
X13455000Y-5220000D01*
X13455000Y-5180000D02*
X13415000Y-5220000D01*
X14036000Y-5125000D02*
X14076000Y-5165000D01*
X14076000Y-5125000D02*
X14036000Y-5165000D01*
X14450000Y-7220000D02*
X14490000Y-7260000D01*
X14490000Y-7220000D02*
X14450000Y-7260000D01*
X14992500Y-3652500D02*
X15032500Y-3692500D01*
X15032500Y-3652500D02*
X14992500Y-3692500D01*
X17379000Y-3059000D02*
X17419000Y-3099000D01*
X17419000Y-3059000D02*
X17379000Y-3099000D01*
X19284000Y-3084000D02*
X19324000Y-3124000D01*
X19324000Y-3084000D02*
X19284000Y-3124000D01*
X21189000Y-3089000D02*
X21229000Y-3129000D01*
X21229000Y-3089000D02*
X21189000Y-3129000D01*
X22617750Y-3294002D02*
X22657750Y-3334002D01*
X22657750Y-3294002D02*
X22617750Y-3334002D01*
X24886750Y-3076750D02*
X24926750Y-3116750D01*
X24926750Y-3076750D02*
X24886750Y-3116750D01*
X27380250Y-3259750D02*
X27420250Y-3299750D01*
X27420250Y-3259750D02*
X27380250Y-3299750D01*
X27631000Y-2541000D02*
X27671000Y-2581000D01*
X27671000Y-2541000D02*
X27631000Y-2581000D01*
X27639000Y-6351000D02*
X27679000Y-6391000D01*
X27679000Y-6351000D02*
X27639000Y-6391000D01*
X27669000Y-4446000D02*
X27709000Y-4486000D01*
X27709000Y-4446000D02*
X27669000Y-4486000D01*
X24186500Y-6371000D02*
G75*
G03*
X24186500Y-6371000I-35000J0D01*
G01*
X24186500Y-6879000D02*
G75*
G03*
X24186500Y-6879000I-35000J0D01*
G01*
X16085250Y-4501000D02*
G75*
G03*
X16085250Y-4501000I-35000J0D01*
G01*
X16085250Y-5009000D02*
G75*
G03*
X16085250Y-5009000I-35000J0D01*
G01*
X20651000Y-6371000D02*
G75*
G03*
X20651000Y-6371000I-35000J0D01*
G01*
X20651000Y-6879000D02*
G75*
G03*
X20651000Y-6879000I-35000J0D01*
G01*
X8744750Y-4466000D02*
G75*
G03*
X8744750Y-4466000I-35000J0D01*
G01*
X8744750Y-4974000D02*
G75*
G03*
X8744750Y-4974000I-35000J0D01*
G01*
X11126000Y-6371000D02*
G75*
G03*
X11126000Y-6371000I-35000J0D01*
G01*
X11126000Y-6879000D02*
G75*
G03*
X11126000Y-6879000I-35000J0D01*
G01*
X26366000Y-2561000D02*
G75*
G03*
X26366000Y-2561000I-35000J0D01*
G01*
X26366000Y-3069000D02*
G75*
G03*
X26366000Y-3069000I-35000J0D01*
G01*
X18471500Y-8276000D02*
G75*
G03*
X18471500Y-8276000I-35000J0D01*
G01*
X18471500Y-8784000D02*
G75*
G03*
X18471500Y-8784000I-35000J0D01*
G01*
X24186500Y-8276000D02*
G75*
G03*
X24186500Y-8276000I-35000J0D01*
G01*
X24186500Y-8784000D02*
G75*
G03*
X24186500Y-8784000I-35000J0D01*
G01*
X18269750Y-4466000D02*
G75*
G03*
X18269750Y-4466000I-35000J0D01*
G01*
X18269750Y-4974000D02*
G75*
G03*
X18269750Y-4974000I-35000J0D01*
G01*
X3995000Y-2770000D02*
G75*
G03*
X3995000Y-2770000I-35000J0D01*
G01*
X4075000Y-2650000D02*
G75*
G03*
X4075000Y-2650000I-35000J0D01*
G01*
X4155000Y-2770000D02*
G75*
G03*
X4155000Y-2770000I-35000J0D01*
G01*
X4235000Y-2650000D02*
G75*
G03*
X4235000Y-2650000I-35000J0D01*
G01*
X4315000Y-2770000D02*
G75*
G03*
X4315000Y-2770000I-35000J0D01*
G01*
X26366000Y-4466000D02*
G75*
G03*
X26366000Y-4466000I-35000J0D01*
G01*
X26366000Y-4974000D02*
G75*
G03*
X26366000Y-4974000I-35000J0D01*
G01*
X26091500Y-4466000D02*
G75*
G03*
X26091500Y-4466000I-35000J0D01*
G01*
X26091500Y-4974000D02*
G75*
G03*
X26091500Y-4974000I-35000J0D01*
G01*
X23984750Y-2561000D02*
G75*
G03*
X23984750Y-2561000I-35000J0D01*
G01*
X23984750Y-3069000D02*
G75*
G03*
X23984750Y-3069000I-35000J0D01*
G01*
X3945875Y-4596000D02*
G75*
G03*
X3945875Y-4596000I-35000J0D01*
G01*
X3945875Y-5104000D02*
G75*
G03*
X3945875Y-5104000I-35000J0D01*
G01*
X8946500Y-8276000D02*
G75*
G03*
X8946500Y-8276000I-35000J0D01*
G01*
X8946500Y-8784000D02*
G75*
G03*
X8946500Y-8784000I-35000J0D01*
G01*
X24475000Y-8276000D02*
G75*
G03*
X24475000Y-8276000I-35000J0D01*
G01*
X24475000Y-8784000D02*
G75*
G03*
X24475000Y-8784000I-35000J0D01*
G01*
X5136500Y-8276000D02*
G75*
G03*
X5136500Y-8276000I-35000J0D01*
G01*
X5136500Y-8784000D02*
G75*
G03*
X5136500Y-8784000I-35000J0D01*
G01*
X6839750Y-4466000D02*
G75*
G03*
X6839750Y-4466000I-35000J0D01*
G01*
X6839750Y-4974000D02*
G75*
G03*
X6839750Y-4974000I-35000J0D01*
G01*
X17793500Y-2561000D02*
G75*
G03*
X17793500Y-2561000I-35000J0D01*
G01*
X17793500Y-3069000D02*
G75*
G03*
X17793500Y-3069000I-35000J0D01*
G01*
X14259000Y-7212000D02*
G75*
G03*
X14259000Y-7212000I-35000J0D01*
G01*
X14767000Y-7212000D02*
G75*
G03*
X14767000Y-7212000I-35000J0D01*
G01*
X2528500Y-3120000D02*
G75*
G03*
X2528500Y-3120000I-35000J0D01*
G01*
X3036500Y-3120000D02*
G75*
G03*
X3036500Y-3120000I-35000J0D01*
G01*
X2545000Y-8800000D02*
G75*
G03*
X2545000Y-8800000I-35000J0D01*
G01*
X3053000Y-8800000D02*
G75*
G03*
X3053000Y-8800000I-35000J0D01*
G01*
X18746000Y-8276000D02*
G75*
G03*
X18746000Y-8276000I-35000J0D01*
G01*
X18746000Y-8784000D02*
G75*
G03*
X18746000Y-8784000I-35000J0D01*
G01*
X26366000Y-6371000D02*
G75*
G03*
X26366000Y-6371000I-35000J0D01*
G01*
X26366000Y-6879000D02*
G75*
G03*
X26366000Y-6879000I-35000J0D01*
G01*
X16566500Y-6371000D02*
G75*
G03*
X16566500Y-6371000I-35000J0D01*
G01*
X16566500Y-6879000D02*
G75*
G03*
X16566500Y-6879000I-35000J0D01*
G01*
X15888500Y-2561000D02*
G75*
G03*
X15888500Y-2561000I-35000J0D01*
G01*
X15888500Y-3069000D02*
G75*
G03*
X15888500Y-3069000I-35000J0D01*
G01*
X21603500Y-2561000D02*
G75*
G03*
X21603500Y-2561000I-35000J0D01*
G01*
X21603500Y-3069000D02*
G75*
G03*
X21603500Y-3069000I-35000J0D01*
G01*
X12078500Y-2561000D02*
G75*
G03*
X12078500Y-2561000I-35000J0D01*
G01*
X12078500Y-3069000D02*
G75*
G03*
X12078500Y-3069000I-35000J0D01*
G01*
X19698500Y-2561000D02*
G75*
G03*
X19698500Y-2561000I-35000J0D01*
G01*
X19698500Y-3069000D02*
G75*
G03*
X19698500Y-3069000I-35000J0D01*
G01*
X14661500Y-6371000D02*
G75*
G03*
X14661500Y-6371000I-35000J0D01*
G01*
X14661500Y-6879000D02*
G75*
G03*
X14661500Y-6879000I-35000J0D01*
G01*
X9221000Y-6371000D02*
G75*
G03*
X9221000Y-6371000I-35000J0D01*
G01*
X9221000Y-6879000D02*
G75*
G03*
X9221000Y-6879000I-35000J0D01*
G01*
X9221000Y-8276000D02*
G75*
G03*
X9221000Y-8276000I-35000J0D01*
G01*
X9221000Y-8784000D02*
G75*
G03*
X9221000Y-8784000I-35000J0D01*
G01*
X24455000Y-6371000D02*
G75*
G03*
X24455000Y-6371000I-35000J0D01*
G01*
X24455000Y-6879000D02*
G75*
G03*
X24455000Y-6879000I-35000J0D01*
G01*
X16359750Y-4501000D02*
G75*
G03*
X16359750Y-4501000I-35000J0D01*
G01*
X16359750Y-5009000D02*
G75*
G03*
X16359750Y-5009000I-35000J0D01*
G01*
X10173500Y-2561000D02*
G75*
G03*
X10173500Y-2561000I-35000J0D01*
G01*
X10173500Y-3069000D02*
G75*
G03*
X10173500Y-3069000I-35000J0D01*
G01*
X22556000Y-8276000D02*
G75*
G03*
X22556000Y-8276000I-35000J0D01*
G01*
X22556000Y-8784000D02*
G75*
G03*
X22556000Y-8784000I-35000J0D01*
G01*
X13370000Y-7212000D02*
G75*
G03*
X13370000Y-7212000I-35000J0D01*
G01*
X13878000Y-7212000D02*
G75*
G03*
X13878000Y-7212000I-35000J0D01*
G01*
X6075000Y-2561000D02*
G75*
G03*
X6075000Y-2561000I-35000J0D01*
G01*
X6075000Y-3069000D02*
G75*
G03*
X6075000Y-3069000I-35000J0D01*
G01*
X20651000Y-8276000D02*
G75*
G03*
X20651000Y-8276000I-35000J0D01*
G01*
X20651000Y-8784000D02*
G75*
G03*
X20651000Y-8784000I-35000J0D01*
G01*
X20174750Y-4466000D02*
G75*
G03*
X20174750Y-4466000I-35000J0D01*
G01*
X20174750Y-4974000D02*
G75*
G03*
X20174750Y-4974000I-35000J0D01*
G01*
X5411000Y-8276000D02*
G75*
G03*
X5411000Y-8276000I-35000J0D01*
G01*
X5411000Y-8784000D02*
G75*
G03*
X5411000Y-8784000I-35000J0D01*
G01*
X16841000Y-6371000D02*
G75*
G03*
X16841000Y-6371000I-35000J0D01*
G01*
X16841000Y-6879000D02*
G75*
G03*
X16841000Y-6879000I-35000J0D01*
G01*
X10649750Y-4466000D02*
G75*
G03*
X10649750Y-4466000I-35000J0D01*
G01*
X10649750Y-4974000D02*
G75*
G03*
X10649750Y-4974000I-35000J0D01*
G01*
X6363500Y-2561000D02*
G75*
G03*
X6363500Y-2561000I-35000J0D01*
G01*
X6363500Y-3069000D02*
G75*
G03*
X6363500Y-3069000I-35000J0D01*
G01*
X6565250Y-4466000D02*
G75*
G03*
X6565250Y-4466000I-35000J0D01*
G01*
X6565250Y-4974000D02*
G75*
G03*
X6565250Y-4974000I-35000J0D01*
G01*
X10375250Y-4466000D02*
G75*
G03*
X10375250Y-4466000I-35000J0D01*
G01*
X10375250Y-4974000D02*
G75*
G03*
X10375250Y-4974000I-35000J0D01*
G01*
X5136500Y-6371000D02*
G75*
G03*
X5136500Y-6371000I-35000J0D01*
G01*
X5136500Y-6879000D02*
G75*
G03*
X5136500Y-6879000I-35000J0D01*
G01*
X18746000Y-6371000D02*
G75*
G03*
X18746000Y-6371000I-35000J0D01*
G01*
X18746000Y-6879000D02*
G75*
G03*
X18746000Y-6879000I-35000J0D01*
G01*
X5411000Y-6371000D02*
G75*
G03*
X5411000Y-6371000I-35000J0D01*
G01*
X5411000Y-6879000D02*
G75*
G03*
X5411000Y-6879000I-35000J0D01*
G01*
X8946500Y-6371000D02*
G75*
G03*
X8946500Y-6371000I-35000J0D01*
G01*
X8946500Y-6879000D02*
G75*
G03*
X8946500Y-6879000I-35000J0D01*
G01*
X8268500Y-2561000D02*
G75*
G03*
X8268500Y-2561000I-35000J0D01*
G01*
X8268500Y-3069000D02*
G75*
G03*
X8268500Y-3069000I-35000J0D01*
G01*
X15614000Y-2561000D02*
G75*
G03*
X15614000Y-2561000I-35000J0D01*
G01*
X15614000Y-3069000D02*
G75*
G03*
X15614000Y-3069000I-35000J0D01*
G01*
X3612000Y-3211900D02*
X3612000Y-3288100D01*
X3573900Y-3250000D02*
X3650100Y-3250000D01*
X3866000Y-3211900D02*
X3866000Y-3288100D01*
X3827900Y-3250000D02*
X3904100Y-3250000D01*
X4120000Y-3211900D02*
X4120000Y-3288100D01*
X4081900Y-3250000D02*
X4158100Y-3250000D01*
X4374000Y-3211900D02*
X4374000Y-3288100D01*
X4335900Y-3250000D02*
X4412100Y-3250000D01*
X4628000Y-3211900D02*
X4628000Y-3288100D01*
X4589900Y-3250000D02*
X4666100Y-3250000D01*
X6833034Y-3437284D02*
X6833034Y-3380715D01*
X6776465Y-3380715D01*
X6776465Y-3437284D01*
X6833034Y-3437284D01*
X6833034Y-4199285D02*
X6833034Y-4142715D01*
X6776465Y-4142715D01*
X6776465Y-4199285D01*
X6833034Y-4199285D01*
X8939785Y-7247284D02*
X8939785Y-7190715D01*
X8883216Y-7190715D01*
X8883216Y-7247284D01*
X8939785Y-7247284D01*
X8939785Y-8009284D02*
X8939785Y-7952715D01*
X8883216Y-7952715D01*
X8883216Y-8009284D01*
X8939785Y-8009284D01*
X5404285Y-7247284D02*
X5404285Y-7190715D01*
X5347716Y-7190715D01*
X5347716Y-7247284D01*
X5404285Y-7247284D01*
X5404285Y-8009284D02*
X5404285Y-7952715D01*
X5347716Y-7952715D01*
X5347716Y-8009284D01*
X5404285Y-8009284D01*
X18739285Y-5342285D02*
X18739285Y-5285716D01*
X18682716Y-5285716D01*
X18682716Y-5342285D01*
X18739285Y-5342285D01*
X18739285Y-6104284D02*
X18739285Y-6047715D01*
X18682716Y-6047715D01*
X18682716Y-6104284D01*
X18739285Y-6104284D01*
X24179784Y-7247284D02*
X24179784Y-7190715D01*
X24123215Y-7190715D01*
X24123215Y-7247284D01*
X24179784Y-7247284D01*
X24179784Y-8009284D02*
X24179784Y-7952715D01*
X24123215Y-7952715D01*
X24123215Y-8009284D01*
X24179784Y-8009284D01*
X16083534Y-3482284D02*
X16083534Y-3425715D01*
X16026965Y-3425715D01*
X16026965Y-3482284D01*
X16083534Y-3482284D01*
X16083534Y-4244285D02*
X16083534Y-4187715D01*
X16026965Y-4187715D01*
X16026965Y-4244285D01*
X16083534Y-4244285D01*
X23978034Y-1532284D02*
X23978034Y-1475715D01*
X23921465Y-1475715D01*
X23921465Y-1532284D01*
X23978034Y-1532284D01*
X23978034Y-2294285D02*
X23978034Y-2237716D01*
X23921465Y-2237716D01*
X23921465Y-2294285D01*
X23978034Y-2294285D01*
X9214285Y-5342285D02*
X9214285Y-5285716D01*
X9157716Y-5285716D01*
X9157716Y-5342285D01*
X9214285Y-5342285D01*
X9214285Y-6104284D02*
X9214285Y-6047715D01*
X9157716Y-6047715D01*
X9157716Y-6104284D01*
X9214285Y-6104284D01*
X8738035Y-3437284D02*
X8738035Y-3380715D01*
X8681466Y-3380715D01*
X8681466Y-3437284D01*
X8738035Y-3437284D01*
X8738035Y-4199285D02*
X8738035Y-4142715D01*
X8681466Y-4142715D01*
X8681466Y-4199285D01*
X8738035Y-4199285D01*
X15881784Y-1532284D02*
X15881784Y-1475715D01*
X15825215Y-1475715D01*
X15825215Y-1532284D01*
X15881784Y-1532284D01*
X15881784Y-2294285D02*
X15881784Y-2237716D01*
X15825215Y-2237716D01*
X15825215Y-2294285D01*
X15881784Y-2294285D01*
X26359284Y-5342285D02*
X26359284Y-5285716D01*
X26302715Y-5285716D01*
X26302715Y-5342285D01*
X26359284Y-5342285D01*
X26359284Y-6104284D02*
X26359284Y-6047715D01*
X26302715Y-6047715D01*
X26302715Y-6104284D01*
X26359284Y-6104284D01*
X19691785Y-1532284D02*
X19691785Y-1475715D01*
X19635216Y-1475715D01*
X19635216Y-1532284D01*
X19691785Y-1532284D01*
X19691785Y-2294285D02*
X19691785Y-2237716D01*
X19635216Y-2237716D01*
X19635216Y-2294285D01*
X19691785Y-2294285D01*
X20644285Y-7247284D02*
X20644285Y-7190715D01*
X20587716Y-7190715D01*
X20587716Y-7247284D01*
X20644285Y-7247284D01*
X20644285Y-8009284D02*
X20644285Y-7952715D01*
X20587716Y-7952715D01*
X20587716Y-8009284D01*
X20644285Y-8009284D01*
X6068284Y-1532284D02*
X6068284Y-1475715D01*
X6011715Y-1475715D01*
X6011715Y-1532284D01*
X6068284Y-1532284D01*
X6068284Y-2294285D02*
X6068284Y-2237716D01*
X6011715Y-2237716D01*
X6011715Y-2294285D01*
X6068284Y-2294285D01*
X6356784Y-1532284D02*
X6356784Y-1475715D01*
X6300215Y-1475715D01*
X6300215Y-1532284D01*
X6356784Y-1532284D01*
X6356784Y-2294285D02*
X6356784Y-2237716D01*
X6300215Y-2237716D01*
X6300215Y-2294285D01*
X6356784Y-2294285D01*
X12071784Y-1532284D02*
X12071784Y-1475715D01*
X12015215Y-1475715D01*
X12015215Y-1532284D01*
X12071784Y-1532284D01*
X12071784Y-2294285D02*
X12071784Y-2237716D01*
X12015215Y-2237716D01*
X12015215Y-2294285D01*
X12071784Y-2294285D01*
X26359284Y-3437284D02*
X26359284Y-3380715D01*
X26302715Y-3380715D01*
X26302715Y-3437284D01*
X26359284Y-3437284D01*
X26359284Y-4199285D02*
X26359284Y-4142715D01*
X26302715Y-4142715D01*
X26302715Y-4199285D01*
X26359284Y-4199285D01*
X18739285Y-7247284D02*
X18739285Y-7190715D01*
X18682716Y-7190715D01*
X18682716Y-7247284D01*
X18739285Y-7247284D01*
X18739285Y-8009284D02*
X18739285Y-7952715D01*
X18682716Y-7952715D01*
X18682716Y-8009284D01*
X18739285Y-8009284D01*
X26084784Y-3437284D02*
X26084784Y-3380715D01*
X26028215Y-3380715D01*
X26028215Y-3437284D01*
X26084784Y-3437284D01*
X26084784Y-4199285D02*
X26084784Y-4142715D01*
X26028215Y-4142715D01*
X26028215Y-4199285D01*
X26084784Y-4199285D01*
X22549284Y-7247284D02*
X22549284Y-7190715D01*
X22492715Y-7190715D01*
X22492715Y-7247284D01*
X22549284Y-7247284D01*
X22549284Y-8009284D02*
X22549284Y-7952715D01*
X22492715Y-7952715D01*
X22492715Y-8009284D01*
X22549284Y-8009284D01*
X10643035Y-3437284D02*
X10643035Y-3380715D01*
X10586466Y-3380715D01*
X10586466Y-3437284D01*
X10643035Y-3437284D01*
X10643035Y-4199285D02*
X10643035Y-4142715D01*
X10586466Y-4142715D01*
X10586466Y-4199285D01*
X10643035Y-4199285D01*
X5129785Y-5342285D02*
X5129785Y-5285716D01*
X5073216Y-5285716D01*
X5073216Y-5342285D01*
X5129785Y-5342285D01*
X5129785Y-6104284D02*
X5129785Y-6047715D01*
X5073216Y-6047715D01*
X5073216Y-6104284D01*
X5129785Y-6104284D01*
X16559784Y-5342285D02*
X16559784Y-5285716D01*
X16503215Y-5285716D01*
X16503215Y-5342285D01*
X16559784Y-5342285D01*
X16559784Y-6104284D02*
X16559784Y-6047715D01*
X16503215Y-6047715D01*
X16503215Y-6104284D01*
X16559784Y-6104284D01*
X17786785Y-1532284D02*
X17786785Y-1475715D01*
X17730216Y-1475715D01*
X17730216Y-1532284D01*
X17786785Y-1532284D01*
X17786785Y-2294285D02*
X17786785Y-2237716D01*
X17730216Y-2237716D01*
X17730216Y-2294285D01*
X17786785Y-2294285D01*
X24468284Y-7247284D02*
X24468284Y-7190715D01*
X24411715Y-7190715D01*
X24411715Y-7247284D01*
X24468284Y-7247284D01*
X24468284Y-8009284D02*
X24468284Y-7952715D01*
X24411715Y-7952715D01*
X24411715Y-8009284D01*
X24468284Y-8009284D01*
X16358034Y-3482284D02*
X16358034Y-3425715D01*
X16301465Y-3425715D01*
X16301465Y-3482284D01*
X16358034Y-3482284D01*
X16358034Y-4244285D02*
X16358034Y-4187715D01*
X16301465Y-4187715D01*
X16301465Y-4244285D01*
X16358034Y-4244285D01*
X21596785Y-1532284D02*
X21596785Y-1475715D01*
X21540216Y-1475715D01*
X21540216Y-1532284D01*
X21596785Y-1532284D01*
X21596785Y-2294285D02*
X21596785Y-2237716D01*
X21540216Y-2237716D01*
X21540216Y-2294285D01*
X21596785Y-2294285D01*
X8939785Y-5342285D02*
X8939785Y-5285716D01*
X8883216Y-5285716D01*
X8883216Y-5342285D01*
X8939785Y-5342285D01*
X8939785Y-6104284D02*
X8939785Y-6047715D01*
X8883216Y-6047715D01*
X8883216Y-6104284D01*
X8939785Y-6104284D01*
X10166785Y-1532284D02*
X10166785Y-1475715D01*
X10110216Y-1475715D01*
X10110216Y-1532284D01*
X10166785Y-1532284D01*
X10166785Y-2294285D02*
X10166785Y-2237716D01*
X10110216Y-2237716D01*
X10110216Y-2294285D01*
X10166785Y-2294285D01*
X5404285Y-5342285D02*
X5404285Y-5285716D01*
X5347716Y-5285716D01*
X5347716Y-5342285D01*
X5404285Y-5342285D01*
X5404285Y-6104284D02*
X5404285Y-6047715D01*
X5347716Y-6047715D01*
X5347716Y-6104284D01*
X5404285Y-6104284D01*
X18464785Y-7247284D02*
X18464785Y-7190715D01*
X18408216Y-7190715D01*
X18408216Y-7247284D01*
X18464785Y-7247284D01*
X18464785Y-8009284D02*
X18464785Y-7952715D01*
X18408216Y-7952715D01*
X18408216Y-8009284D01*
X18464785Y-8009284D01*
X9214285Y-7247284D02*
X9214285Y-7190715D01*
X9157716Y-7190715D01*
X9157716Y-7247284D01*
X9214285Y-7247284D01*
X9214285Y-8009284D02*
X9214285Y-7952715D01*
X9157716Y-7952715D01*
X9157716Y-8009284D01*
X9214285Y-8009284D01*
X24179784Y-5342285D02*
X24179784Y-5285716D01*
X24123215Y-5285716D01*
X24123215Y-5342285D01*
X24179784Y-5342285D01*
X24179784Y-6104284D02*
X24179784Y-6047715D01*
X24123215Y-6047715D01*
X24123215Y-6104284D01*
X24179784Y-6104284D01*
X18263035Y-3437284D02*
X18263035Y-3380715D01*
X18206466Y-3380715D01*
X18206466Y-3437284D01*
X18263035Y-3437284D01*
X18263035Y-4199285D02*
X18263035Y-4142715D01*
X18206466Y-4142715D01*
X18206466Y-4199285D01*
X18263035Y-4199285D01*
X3778284Y-2203285D02*
X3778284Y-2146716D01*
X3721715Y-2146716D01*
X3721715Y-2203285D01*
X3778284Y-2203285D01*
X3720000Y-2120000D02*
X3720000Y-2230000D01*
X3780000Y-2120000D02*
X3780000Y-2230000D01*
X3720000Y-2230000D02*
G75*
G03*
X3780000Y-2230000I30000J0D01*
G01*
X3780000Y-2120000D02*
G75*
G03*
X3720000Y-2120000I-30000J0D01*
G01*
X3778284Y-2678285D02*
X3778284Y-2621716D01*
X3721715Y-2621716D01*
X3721715Y-2678285D01*
X3778284Y-2678285D01*
X3720000Y-2595000D02*
X3720000Y-2705000D01*
X3780000Y-2595000D02*
X3780000Y-2705000D01*
X3720000Y-2705000D02*
G75*
G03*
X3780000Y-2705000I30000J0D01*
G01*
X3780000Y-2595000D02*
G75*
G03*
X3720000Y-2595000I-30000J0D01*
G01*
X4518285Y-2203285D02*
X4518285Y-2146716D01*
X4461716Y-2146716D01*
X4461716Y-2203285D01*
X4518285Y-2203285D01*
X4460000Y-2120000D02*
X4460000Y-2230000D01*
X4520000Y-2120000D02*
X4520000Y-2230000D01*
X4460000Y-2230000D02*
G75*
G03*
X4520000Y-2230000I30000J0D01*
G01*
X4520000Y-2120000D02*
G75*
G03*
X4460000Y-2120000I-30000J0D01*
G01*
X4518285Y-2678285D02*
X4518285Y-2621716D01*
X4461716Y-2621716D01*
X4461716Y-2678285D01*
X4518285Y-2678285D01*
X4460000Y-2595000D02*
X4460000Y-2705000D01*
X4520000Y-2595000D02*
X4520000Y-2705000D01*
X4460000Y-2705000D02*
G75*
G03*
X4520000Y-2705000I30000J0D01*
G01*
X4520000Y-2595000D02*
G75*
G03*
X4460000Y-2595000I-30000J0D01*
G01*
X6558534Y-3437284D02*
X6558534Y-3380715D01*
X6501965Y-3380715D01*
X6501965Y-3437284D01*
X6558534Y-3437284D01*
X6558534Y-4199285D02*
X6558534Y-4142715D01*
X6501965Y-4142715D01*
X6501965Y-4199285D01*
X6558534Y-4199285D01*
X8261784Y-1532284D02*
X8261784Y-1475715D01*
X8205215Y-1475715D01*
X8205215Y-1532284D01*
X8261784Y-1532284D01*
X8261784Y-2294285D02*
X8261784Y-2237716D01*
X8205215Y-2237716D01*
X8205215Y-2294285D01*
X8261784Y-2294285D01*
X3939159Y-3641284D02*
X3939159Y-3584715D01*
X3882590Y-3584715D01*
X3882590Y-3641284D01*
X3939159Y-3641284D01*
X3939159Y-4403285D02*
X3939159Y-4346716D01*
X3882590Y-4346716D01*
X3882590Y-4403285D01*
X3939159Y-4403285D01*
X15607284Y-1532284D02*
X15607284Y-1475715D01*
X15550715Y-1475715D01*
X15550715Y-1532284D01*
X15607284Y-1532284D01*
X15607284Y-2294285D02*
X15607284Y-2237716D01*
X15550715Y-2237716D01*
X15550715Y-2294285D01*
X15607284Y-2294285D01*
X20168035Y-3437284D02*
X20168035Y-3380715D01*
X20111466Y-3380715D01*
X20111466Y-3437284D01*
X20168035Y-3437284D01*
X20168035Y-4199285D02*
X20168035Y-4142715D01*
X20111466Y-4142715D01*
X20111466Y-4199285D01*
X20168035Y-4199285D01*
X20644285Y-5342285D02*
X20644285Y-5285716D01*
X20587716Y-5285716D01*
X20587716Y-5342285D01*
X20644285Y-5342285D01*
X20644285Y-6104284D02*
X20644285Y-6047715D01*
X20587716Y-6047715D01*
X20587716Y-6104284D01*
X20644285Y-6104284D01*
X16834285Y-5342285D02*
X16834285Y-5285716D01*
X16777716Y-5285716D01*
X16777716Y-5342285D01*
X16834285Y-5342285D01*
X16834285Y-6104284D02*
X16834285Y-6047715D01*
X16777716Y-6047715D01*
X16777716Y-6104284D01*
X16834285Y-6104284D01*
X3224784Y-7097284D02*
X3224784Y-7040715D01*
X3168215Y-7040715D01*
X3168215Y-7097284D01*
X3224784Y-7097284D01*
X3224784Y-7859284D02*
X3224784Y-7802715D01*
X3168215Y-7802715D01*
X3168215Y-7859284D01*
X3224784Y-7859284D01*
X2070534Y-2677285D02*
X2070534Y-2620716D01*
X2013965Y-2620716D01*
X2013965Y-2677285D01*
X2070534Y-2677285D01*
X2070534Y-3439284D02*
X2070534Y-3382715D01*
X2013965Y-3382715D01*
X2013965Y-3439284D01*
X2070534Y-3439284D01*
X5129785Y-7247284D02*
X5129785Y-7190715D01*
X5073216Y-7190715D01*
X5073216Y-7247284D01*
X5129785Y-7247284D01*
X5129785Y-8009284D02*
X5129785Y-7952715D01*
X5073216Y-7952715D01*
X5073216Y-8009284D01*
X5129785Y-8009284D01*
X10368535Y-3437284D02*
X10368535Y-3380715D01*
X10311966Y-3380715D01*
X10311966Y-3437284D01*
X10368535Y-3437284D01*
X10368535Y-4199285D02*
X10368535Y-4142715D01*
X10311966Y-4142715D01*
X10311966Y-4199285D01*
X10368535Y-4199285D01*
X26359284Y-1532284D02*
X26359284Y-1475715D01*
X26302715Y-1475715D01*
X26302715Y-1532284D01*
X26359284Y-1532284D01*
X26359284Y-2294285D02*
X26359284Y-2237716D01*
X26302715Y-2237716D01*
X26302715Y-2294285D01*
X26359284Y-2294285D01*
X11118285Y-5367285D02*
X11118285Y-5310716D01*
X11061716Y-5310716D01*
X11061716Y-5367285D01*
X11118285Y-5367285D01*
X11118285Y-6129284D02*
X11118285Y-6072715D01*
X11061716Y-6072715D01*
X11061716Y-6129284D01*
X11118285Y-6129284D01*
X24448284Y-5342285D02*
X24448284Y-5285716D01*
X24391715Y-5285716D01*
X24391715Y-5342285D01*
X24448284Y-5342285D01*
X24448284Y-6104284D02*
X24448284Y-6047715D01*
X24391715Y-6047715D01*
X24391715Y-6104284D01*
X24448284Y-6104284D01*
X14654784Y-5342285D02*
X14654784Y-5285716D01*
X14598215Y-5285716D01*
X14598215Y-5342285D01*
X14654784Y-5342285D01*
X14654784Y-6104284D02*
X14654784Y-6047715D01*
X14598215Y-6047715D01*
X14598215Y-6104284D01*
X14654784Y-6104284D01*
X4413250Y-8574530D02*
X4462780Y-8525000D01*
X4413250Y-8475470D01*
X4363720Y-8525000D01*
X4413250Y-8574530D01*
X6318250Y-6669530D02*
X6367780Y-6620000D01*
X6318250Y-6570470D01*
X6268720Y-6620000D01*
X6318250Y-6669530D01*
X12985750Y-2859530D02*
X13035280Y-2810000D01*
X12985750Y-2760470D01*
X12936220Y-2810000D01*
X12985750Y-2859530D01*
X27274500Y-6669530D02*
X27324030Y-6620000D01*
X27274500Y-6570470D01*
X27224970Y-6620000D01*
X27274500Y-6669530D01*
X9175750Y-2859530D02*
X9225280Y-2810000D01*
X9175750Y-2760470D01*
X9126220Y-2810000D01*
X9175750Y-2859530D01*
X15844500Y-6669530D02*
X15894030Y-6620000D01*
X15844500Y-6570470D01*
X15794970Y-6620000D01*
X15844500Y-6669530D01*
X12033250Y-6669530D02*
X12082780Y-6620000D01*
X12033250Y-6570470D01*
X11983720Y-6620000D01*
X12033250Y-6669530D01*
X8222000Y-6669530D02*
X8271530Y-6620000D01*
X8222000Y-6570470D01*
X8172470Y-6620000D01*
X8222000Y-6669530D01*
X6318250Y-8574530D02*
X6367780Y-8525000D01*
X6318250Y-8475470D01*
X6268720Y-8525000D01*
X6318250Y-8574530D01*
X3460750Y-6669530D02*
X3510280Y-6620000D01*
X3460750Y-6570470D01*
X3411220Y-6620000D01*
X3460750Y-6669530D01*
X25368250Y-6669530D02*
X25417780Y-6620000D01*
X25368250Y-6570470D01*
X25318720Y-6620000D01*
X25368250Y-6669530D01*
X19177000Y-4764530D02*
X19226530Y-4715000D01*
X19177000Y-4665470D01*
X19127470Y-4715000D01*
X19177000Y-4764530D01*
X5842000Y-4764530D02*
X5891530Y-4715000D01*
X5842000Y-4665470D01*
X5792470Y-4715000D01*
X5842000Y-4764530D01*
X14890750Y-2859530D02*
X14940280Y-2810000D01*
X14890750Y-2760470D01*
X14841220Y-2810000D01*
X14890750Y-2859530D01*
X11795125Y-8574530D02*
X11844655Y-8525000D01*
X11795125Y-8475470D01*
X11745595Y-8525000D01*
X11795125Y-8574530D01*
X27273250Y-4764530D02*
X27322780Y-4715000D01*
X27273250Y-4665470D01*
X27223720Y-4715000D01*
X27273250Y-4764530D01*
X3222625Y-4764530D02*
X3272155Y-4715000D01*
X3222625Y-4665470D01*
X3173095Y-4715000D01*
X3222625Y-4764530D01*
X13938250Y-6669530D02*
X13987780Y-6620000D01*
X13938250Y-6570470D01*
X13888720Y-6620000D01*
X13938250Y-6669530D01*
X18700750Y-2859530D02*
X18750280Y-2810000D01*
X18700750Y-2760470D01*
X18651220Y-2810000D01*
X18700750Y-2859530D01*
X24177625Y-4764530D02*
X24227155Y-4715000D01*
X24177625Y-4665470D01*
X24128095Y-4715000D01*
X24177625Y-4764530D01*
X19653250Y-8574530D02*
X19702780Y-8525000D01*
X19653250Y-8475470D01*
X19603720Y-8525000D01*
X19653250Y-8574530D01*
X9652000Y-4764530D02*
X9701530Y-4715000D01*
X9652000Y-4665470D01*
X9602470Y-4715000D01*
X9652000Y-4764530D01*
X13462000Y-4764530D02*
X13511530Y-4715000D01*
X13462000Y-4665470D01*
X13412470Y-4715000D01*
X13462000Y-4764530D01*
X24892000Y-2859530D02*
X24941530Y-2810000D01*
X24892000Y-2760470D01*
X24842470Y-2810000D01*
X24892000Y-2859530D01*
X8223250Y-8574530D02*
X8272780Y-8525000D01*
X8223250Y-8475470D01*
X8173720Y-8525000D01*
X8223250Y-8574530D01*
X2984500Y-2859530D02*
X3034030Y-2810000D01*
X2984500Y-2760470D01*
X2934970Y-2810000D01*
X2984500Y-2859530D01*
X7270750Y-2859530D02*
X7320280Y-2810000D01*
X7270750Y-2760470D01*
X7221220Y-2810000D01*
X7270750Y-2859530D01*
X23463250Y-6669530D02*
X23512780Y-6620000D01*
X23463250Y-6570470D01*
X23413720Y-6620000D01*
X23463250Y-6669530D01*
X23463250Y-8574530D02*
X23512780Y-8525000D01*
X23463250Y-8475470D01*
X23413720Y-8525000D01*
X23463250Y-8574530D01*
X17272000Y-4764530D02*
X17321530Y-4715000D01*
X17272000Y-4665470D01*
X17222470Y-4715000D01*
X17272000Y-4764530D01*
X27273250Y-8574530D02*
X27322780Y-8525000D01*
X27273250Y-8475470D01*
X27223720Y-8525000D01*
X27273250Y-8574530D01*
X11080750Y-2859530D02*
X11130280Y-2810000D01*
X11080750Y-2760470D01*
X11031220Y-2810000D01*
X11080750Y-2859530D01*
X16795750Y-2859530D02*
X16845280Y-2810000D01*
X16795750Y-2760470D01*
X16746220Y-2810000D01*
X16795750Y-2859530D01*
X5365750Y-2859530D02*
X5415280Y-2810000D01*
X5365750Y-2760470D01*
X5316220Y-2810000D01*
X5365750Y-2859530D01*
X19653250Y-6669530D02*
X19702780Y-6620000D01*
X19653250Y-6570470D01*
X19603720Y-6620000D01*
X19653250Y-6669530D01*
X15367000Y-4764530D02*
X15416530Y-4715000D01*
X15367000Y-4665470D01*
X15317470Y-4715000D01*
X15367000Y-4764530D01*
X17747000Y-6669530D02*
X17796530Y-6620000D01*
X17747000Y-6570470D01*
X17697470Y-6620000D01*
X17747000Y-6669530D01*
X7747000Y-4764530D02*
X7796530Y-4715000D01*
X7747000Y-4665470D01*
X7697470Y-4715000D01*
X7747000Y-4764530D01*
X25368250Y-8574530D02*
X25417780Y-8525000D01*
X25368250Y-8475470D01*
X25318720Y-8525000D01*
X25368250Y-8574530D01*
X27273250Y-2859530D02*
X27322780Y-2810000D01*
X27273250Y-2760470D01*
X27223720Y-2810000D01*
X27273250Y-2859530D01*
X22510750Y-2859530D02*
X22560280Y-2810000D01*
X22510750Y-2760470D01*
X22461220Y-2810000D01*
X22510750Y-2859530D01*
X21558250Y-8574530D02*
X21607780Y-8525000D01*
X21558250Y-8475470D01*
X21508720Y-8525000D01*
X21558250Y-8574530D01*
X21079500Y-4764530D02*
X21129030Y-4715000D01*
X21079500Y-4665470D01*
X21029970Y-4715000D01*
X21079500Y-4764530D01*
X16559500Y-8574530D02*
X16609030Y-8525000D01*
X16559500Y-8475470D01*
X16509970Y-8525000D01*
X16559500Y-8574530D01*
X11557000Y-4764530D02*
X11606530Y-4715000D01*
X11557000Y-4665470D01*
X11507470Y-4715000D01*
X11557000Y-4764530D01*
X2508250Y-8574530D02*
X2557780Y-8525000D01*
X2508250Y-8475470D01*
X2458720Y-8525000D01*
X2508250Y-8574530D01*
X21558250Y-6669530D02*
X21607780Y-6620000D01*
X21558250Y-6570470D01*
X21508720Y-6620000D01*
X21558250Y-6669530D01*
X20605750Y-2859530D02*
X20655280Y-2810000D01*
X20605750Y-2760470D01*
X20556220Y-2810000D01*
X20605750Y-2859530D01*
X10128250Y-6669530D02*
X10177780Y-6620000D01*
X10128250Y-6570470D01*
X10078720Y-6620000D01*
X10128250Y-6669530D01*
X19348450Y-6569200D02*
X19450050Y-6670800D01*
X19450050Y-6569200D02*
X19348450Y-6670800D01*
X19450050Y-6620000D02*
G75*
G03*
X19450050Y-6620000I-50800J0D01*
G01*
X15062200Y-4664200D02*
X15163800Y-4765800D01*
X15163800Y-4664200D02*
X15062200Y-4765800D01*
X15163800Y-4715000D02*
G75*
G03*
X15163800Y-4715000I-50800J0D01*
G01*
X17442200Y-6569200D02*
X17543800Y-6670800D01*
X17543800Y-6569200D02*
X17442200Y-6670800D01*
X17543800Y-6620000D02*
G75*
G03*
X17543800Y-6620000I-50800J0D01*
G01*
X7442200Y-4664200D02*
X7543800Y-4765800D01*
X7543800Y-4664200D02*
X7442200Y-4765800D01*
X7543800Y-4715000D02*
G75*
G03*
X7543800Y-4715000I-50800J0D01*
G01*
X25063450Y-8474200D02*
X25165050Y-8575800D01*
X25165050Y-8474200D02*
X25063450Y-8575800D01*
X25165050Y-8525000D02*
G75*
G03*
X25165050Y-8525000I-50800J0D01*
G01*
X26968450Y-2759200D02*
X27070050Y-2860800D01*
X27070050Y-2759200D02*
X26968450Y-2860800D01*
X27070050Y-2810000D02*
G75*
G03*
X27070050Y-2810000I-50800J0D01*
G01*
X22205950Y-2759200D02*
X22307550Y-2860800D01*
X22307550Y-2759200D02*
X22205950Y-2860800D01*
X22307550Y-2810000D02*
G75*
G03*
X22307550Y-2810000I-50800J0D01*
G01*
X21253450Y-8474200D02*
X21355050Y-8575800D01*
X21355050Y-8474200D02*
X21253450Y-8575800D01*
X21355050Y-8525000D02*
G75*
G03*
X21355050Y-8525000I-50800J0D01*
G01*
X20774700Y-4664200D02*
X20876300Y-4765800D01*
X20876300Y-4664200D02*
X20774700Y-4765800D01*
X20876300Y-4715000D02*
G75*
G03*
X20876300Y-4715000I-50800J0D01*
G01*
X16254700Y-8474200D02*
X16356300Y-8575800D01*
X16356300Y-8474200D02*
X16254700Y-8575800D01*
X16356300Y-8525000D02*
G75*
G03*
X16356300Y-8525000I-50800J0D01*
G01*
X11252200Y-4664200D02*
X11353800Y-4765800D01*
X11353800Y-4664200D02*
X11252200Y-4765800D01*
X11353800Y-4715000D02*
G75*
G03*
X11353800Y-4715000I-50800J0D01*
G01*
X2203450Y-8474200D02*
X2305050Y-8575800D01*
X2305050Y-8474200D02*
X2203450Y-8575800D01*
X2305050Y-8525000D02*
G75*
G03*
X2305050Y-8525000I-50800J0D01*
G01*
X21253450Y-6569200D02*
X21355050Y-6670800D01*
X21355050Y-6569200D02*
X21253450Y-6670800D01*
X21355050Y-6620000D02*
G75*
G03*
X21355050Y-6620000I-50800J0D01*
G01*
X20300950Y-2759200D02*
X20402550Y-2860800D01*
X20402550Y-2759200D02*
X20300950Y-2860800D01*
X20402550Y-2810000D02*
G75*
G03*
X20402550Y-2810000I-50800J0D01*
G01*
X9823450Y-6569200D02*
X9925050Y-6670800D01*
X9925050Y-6569200D02*
X9823450Y-6670800D01*
X9925050Y-6620000D02*
G75*
G03*
X9925050Y-6620000I-50800J0D01*
G01*
X4108450Y-8474200D02*
X4210050Y-8575800D01*
X4210050Y-8474200D02*
X4108450Y-8575800D01*
X4210050Y-8525000D02*
G75*
G03*
X4210050Y-8525000I-50800J0D01*
G01*
X6013450Y-6569200D02*
X6115050Y-6670800D01*
X6115050Y-6569200D02*
X6013450Y-6670800D01*
X6115050Y-6620000D02*
G75*
G03*
X6115050Y-6620000I-50800J0D01*
G01*
X12680950Y-2759200D02*
X12782550Y-2860800D01*
X12782550Y-2759200D02*
X12680950Y-2860800D01*
X12782550Y-2810000D02*
G75*
G03*
X12782550Y-2810000I-50800J0D01*
G01*
X26969700Y-6569200D02*
X27071300Y-6670800D01*
X27071300Y-6569200D02*
X26969700Y-6670800D01*
X27071300Y-6620000D02*
G75*
G03*
X27071300Y-6620000I-50800J0D01*
G01*
X8870950Y-2759200D02*
X8972550Y-2860800D01*
X8972550Y-2759200D02*
X8870950Y-2860800D01*
X8972550Y-2810000D02*
G75*
G03*
X8972550Y-2810000I-50800J0D01*
G01*
X15539700Y-6569200D02*
X15641300Y-6670800D01*
X15641300Y-6569200D02*
X15539700Y-6670800D01*
X15641300Y-6620000D02*
G75*
G03*
X15641300Y-6620000I-50800J0D01*
G01*
X11728450Y-6569200D02*
X11830050Y-6670800D01*
X11830050Y-6569200D02*
X11728450Y-6670800D01*
X11830050Y-6620000D02*
G75*
G03*
X11830050Y-6620000I-50800J0D01*
G01*
X7917200Y-6569200D02*
X8018800Y-6670800D01*
X8018800Y-6569200D02*
X7917200Y-6670800D01*
X8018800Y-6620000D02*
G75*
G03*
X8018800Y-6620000I-50800J0D01*
G01*
X12174200Y-3369200D02*
X12275800Y-3470800D01*
X12275800Y-3369200D02*
X12174200Y-3470800D01*
X12275800Y-3420000D02*
G75*
G03*
X12275800Y-3420000I-50800J0D01*
G01*
X12174200Y-4893200D02*
X12275800Y-4994800D01*
X12275800Y-4893200D02*
X12174200Y-4994800D01*
X12275800Y-4944000D02*
G75*
G03*
X12275800Y-4944000I-50800J0D01*
G01*
X12428200Y-3369200D02*
X12529800Y-3470800D01*
X12529800Y-3369200D02*
X12428200Y-3470800D01*
X12529800Y-3420000D02*
G75*
G03*
X12529800Y-3420000I-50800J0D01*
G01*
X12428200Y-4893200D02*
X12529800Y-4994800D01*
X12529800Y-4893200D02*
X12428200Y-4994800D01*
X12529800Y-4944000D02*
G75*
G03*
X12529800Y-4944000I-50800J0D01*
G01*
X12682200Y-3369200D02*
X12783800Y-3470800D01*
X12783800Y-3369200D02*
X12682200Y-3470800D01*
X12783800Y-3420000D02*
G75*
G03*
X12783800Y-3420000I-50800J0D01*
G01*
X12682200Y-4893200D02*
X12783800Y-4994800D01*
X12783800Y-4893200D02*
X12682200Y-4994800D01*
X12783800Y-4944000D02*
G75*
G03*
X12783800Y-4944000I-50800J0D01*
G01*
X12936200Y-3369200D02*
X13037800Y-3470800D01*
X13037800Y-3369200D02*
X12936200Y-3470800D01*
X13037800Y-3420000D02*
G75*
G03*
X13037800Y-3420000I-50800J0D01*
G01*
X12936200Y-4893200D02*
X13037800Y-4994800D01*
X13037800Y-4893200D02*
X12936200Y-4994800D01*
X13037800Y-4944000D02*
G75*
G03*
X13037800Y-4944000I-50800J0D01*
G01*
X13190200Y-3369200D02*
X13291800Y-3470800D01*
X13291800Y-3369200D02*
X13190200Y-3470800D01*
X13291800Y-3420000D02*
G75*
G03*
X13291800Y-3420000I-50800J0D01*
G01*
X13190200Y-4893200D02*
X13291800Y-4994800D01*
X13291800Y-4893200D02*
X13190200Y-4994800D01*
X13291800Y-4944000D02*
G75*
G03*
X13291800Y-4944000I-50800J0D01*
G01*
X13444200Y-3369200D02*
X13545800Y-3470800D01*
X13545800Y-3369200D02*
X13444200Y-3470800D01*
X13545800Y-3420000D02*
G75*
G03*
X13545800Y-3420000I-50800J0D01*
G01*
X13444200Y-4893200D02*
X13545800Y-4994800D01*
X13545800Y-4893200D02*
X13444200Y-4994800D01*
X13545800Y-4944000D02*
G75*
G03*
X13545800Y-4944000I-50800J0D01*
G01*
X13698200Y-3369200D02*
X13799800Y-3470800D01*
X13799800Y-3369200D02*
X13698200Y-3470800D01*
X13799800Y-3420000D02*
G75*
G03*
X13799800Y-3420000I-50800J0D01*
G01*
X13698200Y-4893200D02*
X13799800Y-4994800D01*
X13799800Y-4893200D02*
X13698200Y-4994800D01*
X13799800Y-4944000D02*
G75*
G03*
X13799800Y-4944000I-50800J0D01*
G01*
X13952200Y-3369200D02*
X14053800Y-3470800D01*
X14053800Y-3369200D02*
X13952200Y-3470800D01*
X14053800Y-3420000D02*
G75*
G03*
X14053800Y-3420000I-50800J0D01*
G01*
X13952200Y-4893200D02*
X14053800Y-4994800D01*
X14053800Y-4893200D02*
X13952200Y-4994800D01*
X14053800Y-4944000D02*
G75*
G03*
X14053800Y-4944000I-50800J0D01*
G01*
X14206200Y-3369200D02*
X14307800Y-3470800D01*
X14307800Y-3369200D02*
X14206200Y-3470800D01*
X14307800Y-3420000D02*
G75*
G03*
X14307800Y-3420000I-50800J0D01*
G01*
X14206200Y-4893200D02*
X14307800Y-4994800D01*
X14307800Y-4893200D02*
X14206200Y-4994800D01*
X14307800Y-4944000D02*
G75*
G03*
X14307800Y-4944000I-50800J0D01*
G01*
X14460200Y-3369200D02*
X14561800Y-3470800D01*
X14561800Y-3369200D02*
X14460200Y-3470800D01*
X14561800Y-3420000D02*
G75*
G03*
X14561800Y-3420000I-50800J0D01*
G01*
X14460200Y-4893200D02*
X14561800Y-4994800D01*
X14561800Y-4893200D02*
X14460200Y-4994800D01*
X14561800Y-4944000D02*
G75*
G03*
X14561800Y-4944000I-50800J0D01*
G01*
X14714200Y-3369200D02*
X14815800Y-3470800D01*
X14815800Y-3369200D02*
X14714200Y-3470800D01*
X14815800Y-3420000D02*
G75*
G03*
X14815800Y-3420000I-50800J0D01*
G01*
X14714200Y-4893200D02*
X14815800Y-4994800D01*
X14815800Y-4893200D02*
X14714200Y-4994800D01*
X14815800Y-4944000D02*
G75*
G03*
X14815800Y-4944000I-50800J0D01*
G01*
X14968200Y-3369200D02*
X15069800Y-3470800D01*
X15069800Y-3369200D02*
X14968200Y-3470800D01*
X15069800Y-3420000D02*
G75*
G03*
X15069800Y-3420000I-50800J0D01*
G01*
X14968200Y-4893200D02*
X15069800Y-4994800D01*
X15069800Y-4893200D02*
X14968200Y-4994800D01*
X15069800Y-4944000D02*
G75*
G03*
X15069800Y-4944000I-50800J0D01*
G01*
X6013450Y-8474200D02*
X6115050Y-8575800D01*
X6115050Y-8474200D02*
X6013450Y-8575800D01*
X6115050Y-8525000D02*
G75*
G03*
X6115050Y-8525000I-50800J0D01*
G01*
X3155950Y-6569200D02*
X3257550Y-6670800D01*
X3257550Y-6569200D02*
X3155950Y-6670800D01*
X3257550Y-6620000D02*
G75*
G03*
X3257550Y-6620000I-50800J0D01*
G01*
X25063450Y-6569200D02*
X25165050Y-6670800D01*
X25165050Y-6569200D02*
X25063450Y-6670800D01*
X25165050Y-6620000D02*
G75*
G03*
X25165050Y-6620000I-50800J0D01*
G01*
X18872200Y-4664200D02*
X18973800Y-4765800D01*
X18973800Y-4664200D02*
X18872200Y-4765800D01*
X18973800Y-4715000D02*
G75*
G03*
X18973800Y-4715000I-50800J0D01*
G01*
X5537200Y-4664200D02*
X5638800Y-4765800D01*
X5638800Y-4664200D02*
X5537200Y-4765800D01*
X5638800Y-4715000D02*
G75*
G03*
X5638800Y-4715000I-50800J0D01*
G01*
X14585950Y-2759200D02*
X14687550Y-2860800D01*
X14687550Y-2759200D02*
X14585950Y-2860800D01*
X14687550Y-2810000D02*
G75*
G03*
X14687550Y-2810000I-50800J0D01*
G01*
X11490325Y-8474200D02*
X11591925Y-8575800D01*
X11591925Y-8474200D02*
X11490325Y-8575800D01*
X11591925Y-8525000D02*
G75*
G03*
X11591925Y-8525000I-50800J0D01*
G01*
X26968450Y-4664200D02*
X27070050Y-4765800D01*
X27070050Y-4664200D02*
X26968450Y-4765800D01*
X27070050Y-4715000D02*
G75*
G03*
X27070050Y-4715000I-50800J0D01*
G01*
X2917825Y-4664200D02*
X3019425Y-4765800D01*
X3019425Y-4664200D02*
X2917825Y-4765800D01*
X3019425Y-4715000D02*
G75*
G03*
X3019425Y-4715000I-50800J0D01*
G01*
X13633450Y-6569200D02*
X13735050Y-6670800D01*
X13735050Y-6569200D02*
X13633450Y-6670800D01*
X13735050Y-6620000D02*
G75*
G03*
X13735050Y-6620000I-50800J0D01*
G01*
X18395950Y-2759200D02*
X18497550Y-2860800D01*
X18497550Y-2759200D02*
X18395950Y-2860800D01*
X18497550Y-2810000D02*
G75*
G03*
X18497550Y-2810000I-50800J0D01*
G01*
X23872825Y-4664200D02*
X23974425Y-4765800D01*
X23974425Y-4664200D02*
X23872825Y-4765800D01*
X23974425Y-4715000D02*
G75*
G03*
X23974425Y-4715000I-50800J0D01*
G01*
X19348450Y-8474200D02*
X19450050Y-8575800D01*
X19450050Y-8474200D02*
X19348450Y-8575800D01*
X19450050Y-8525000D02*
G75*
G03*
X19450050Y-8525000I-50800J0D01*
G01*
X9347200Y-4664200D02*
X9448800Y-4765800D01*
X9448800Y-4664200D02*
X9347200Y-4765800D01*
X9448800Y-4715000D02*
G75*
G03*
X9448800Y-4715000I-50800J0D01*
G01*
X13157200Y-4664200D02*
X13258800Y-4765800D01*
X13258800Y-4664200D02*
X13157200Y-4765800D01*
X13258800Y-4715000D02*
G75*
G03*
X13258800Y-4715000I-50800J0D01*
G01*
X24587200Y-2759200D02*
X24688800Y-2860800D01*
X24688800Y-2759200D02*
X24587200Y-2860800D01*
X24688800Y-2810000D02*
G75*
G03*
X24688800Y-2810000I-50800J0D01*
G01*
X7918450Y-8474200D02*
X8020050Y-8575800D01*
X8020050Y-8474200D02*
X7918450Y-8575800D01*
X8020050Y-8525000D02*
G75*
G03*
X8020050Y-8525000I-50800J0D01*
G01*
X2679700Y-2759200D02*
X2781300Y-2860800D01*
X2781300Y-2759200D02*
X2679700Y-2860800D01*
X2781300Y-2810000D02*
G75*
G03*
X2781300Y-2810000I-50800J0D01*
G01*
X6965950Y-2759200D02*
X7067550Y-2860800D01*
X7067550Y-2759200D02*
X6965950Y-2860800D01*
X7067550Y-2810000D02*
G75*
G03*
X7067550Y-2810000I-50800J0D01*
G01*
X23158450Y-6569200D02*
X23260050Y-6670800D01*
X23260050Y-6569200D02*
X23158450Y-6670800D01*
X23260050Y-6620000D02*
G75*
G03*
X23260050Y-6620000I-50800J0D01*
G01*
X23158450Y-8474200D02*
X23260050Y-8575800D01*
X23260050Y-8474200D02*
X23158450Y-8575800D01*
X23260050Y-8525000D02*
G75*
G03*
X23260050Y-8525000I-50800J0D01*
G01*
X16967200Y-4664200D02*
X17068800Y-4765800D01*
X17068800Y-4664200D02*
X16967200Y-4765800D01*
X17068800Y-4715000D02*
G75*
G03*
X17068800Y-4715000I-50800J0D01*
G01*
X26968450Y-8474200D02*
X27070050Y-8575800D01*
X27070050Y-8474200D02*
X26968450Y-8575800D01*
X27070050Y-8525000D02*
G75*
G03*
X27070050Y-8525000I-50800J0D01*
G01*
X10775950Y-2759200D02*
X10877550Y-2860800D01*
X10877550Y-2759200D02*
X10775950Y-2860800D01*
X10877550Y-2810000D02*
G75*
G03*
X10877550Y-2810000I-50800J0D01*
G01*
X16490950Y-2759200D02*
X16592550Y-2860800D01*
X16592550Y-2759200D02*
X16490950Y-2860800D01*
X16592550Y-2810000D02*
G75*
G03*
X16592550Y-2810000I-50800J0D01*
G01*
X5060950Y-2759200D02*
X5162550Y-2860800D01*
X5162550Y-2759200D02*
X5060950Y-2860800D01*
X5162550Y-2810000D02*
G75*
G03*
X5162550Y-2810000I-50800J0D01*
G01*
X4270000Y-4095000D02*
X4380000Y-4205000D01*
X4380000Y-4095000D02*
X4270000Y-4205000D01*
X4325000Y-4095000D02*
X4325000Y-4205000D01*
X4270000Y-4150000D02*
X4380000Y-4150000D01*
X4270000Y-4745000D02*
X4380000Y-4855000D01*
X4380000Y-4745000D02*
X4270000Y-4855000D01*
X4325000Y-4745000D02*
X4325000Y-4855000D01*
X4270000Y-4800000D02*
X4380000Y-4800000D01*
X4720000Y-4095000D02*
X4830000Y-4205000D01*
X4830000Y-4095000D02*
X4720000Y-4205000D01*
X4775000Y-4095000D02*
X4775000Y-4205000D01*
X4720000Y-4150000D02*
X4830000Y-4150000D01*
X4720000Y-4745000D02*
X4830000Y-4855000D01*
X4830000Y-4745000D02*
X4720000Y-4855000D01*
X4775000Y-4745000D02*
X4775000Y-4855000D01*
X4720000Y-4800000D02*
X4830000Y-4800000D01*
X23593425Y-3876675D02*
X23745825Y-4029075D01*
X23745825Y-3876675D02*
X23593425Y-4029075D01*
X23723507Y-4006757D02*
X23723507Y-3898993D01*
X23615743Y-3898993D01*
X23615743Y-4006757D01*
X23723507Y-4006757D01*
X24228425Y-3622675D02*
X24380825Y-3775075D01*
X24380825Y-3622675D02*
X24228425Y-3775075D01*
X24358507Y-3752757D02*
X24358507Y-3644993D01*
X24250743Y-3644993D01*
X24250743Y-3752757D01*
X24358507Y-3752757D01*
X15973425Y-7686675D02*
X16125825Y-7839075D01*
X16125825Y-7686675D02*
X15973425Y-7839075D01*
X16103507Y-7816757D02*
X16103507Y-7708993D01*
X15995743Y-7708993D01*
X15995743Y-7816757D01*
X16103507Y-7816757D01*
X16608425Y-7432675D02*
X16760825Y-7585075D01*
X16760825Y-7432675D02*
X16608425Y-7585075D01*
X16738507Y-7562757D02*
X16738507Y-7454993D01*
X16630743Y-7454993D01*
X16630743Y-7562757D01*
X16738507Y-7562757D01*
X2638425Y-3876675D02*
X2790825Y-4029075D01*
X2790825Y-3876675D02*
X2638425Y-4029075D01*
X2768507Y-4006757D02*
X2768507Y-3898993D01*
X2660743Y-3898993D01*
X2660743Y-4006757D01*
X2768507Y-4006757D01*
X3273425Y-3622675D02*
X3425825Y-3775075D01*
X3425825Y-3622675D02*
X3273425Y-3775075D01*
X3403507Y-3752757D02*
X3403507Y-3644993D01*
X3295743Y-3644993D01*
X3295743Y-3752757D01*
X3403507Y-3752757D01*
X24307800Y-1971675D02*
X24460200Y-2124075D01*
X24460200Y-1971675D02*
X24307800Y-2124075D01*
X24437882Y-2101757D02*
X24437882Y-1993993D01*
X24330118Y-1993993D01*
X24330118Y-2101757D01*
X24437882Y-2101757D01*
X24942800Y-1717675D02*
X25095200Y-1870075D01*
X25095200Y-1717675D02*
X24942800Y-1870075D01*
X25072882Y-1847757D02*
X25072882Y-1739993D01*
X24965118Y-1739993D01*
X24965118Y-1847757D01*
X25072882Y-1847757D01*
X11210925Y-7686675D02*
X11363325Y-7839075D01*
X11363325Y-7686675D02*
X11210925Y-7839075D01*
X11341007Y-7816757D02*
X11341007Y-7708993D01*
X11233243Y-7708993D01*
X11233243Y-7816757D01*
X11341007Y-7816757D01*
X11845925Y-7432675D02*
X11998325Y-7585075D01*
X11998325Y-7432675D02*
X11845925Y-7585075D01*
X11976007Y-7562757D02*
X11976007Y-7454993D01*
X11868243Y-7454993D01*
X11868243Y-7562757D01*
X11976007Y-7562757D01*
X2876550Y-5781675D02*
X3028950Y-5934075D01*
X3028950Y-5781675D02*
X2876550Y-5934075D01*
X3006632Y-5911757D02*
X3006632Y-5803993D01*
X2898868Y-5803993D01*
X2898868Y-5911757D01*
X3006632Y-5911757D01*
X3511550Y-5527675D02*
X3663950Y-5680075D01*
X3663950Y-5527675D02*
X3511550Y-5680075D01*
X3641632Y-5657757D02*
X3641632Y-5549993D01*
X3533868Y-5549993D01*
X3533868Y-5657757D01*
X3641632Y-5657757D01*
X2400300Y-1969800D02*
X2552700Y-2122200D01*
X2552700Y-1969800D02*
X2400300Y-2122200D01*
X2530382Y-2099882D02*
X2530382Y-1992118D01*
X2422618Y-1992118D01*
X2422618Y-2099882D01*
X2530382Y-2099882D01*
X3035300Y-1715800D02*
X3187700Y-1868200D01*
X3187700Y-1715800D02*
X3035300Y-1868200D01*
X3165382Y-1845882D02*
X3165382Y-1738118D01*
X3057618Y-1738118D01*
X3057618Y-1845882D01*
X3165382Y-1845882D01*
X24784000Y-5781625D02*
X24936500Y-5934125D01*
X24936500Y-5781625D02*
X24784000Y-5934125D01*
X24860250Y-5934125D02*
X24936500Y-5857875D01*
X24860250Y-5781625D01*
X24784000Y-5857875D01*
X24860250Y-5934125D01*
X25419000Y-5527625D02*
X25571500Y-5680125D01*
X25571500Y-5527625D02*
X25419000Y-5680125D01*
X25495250Y-5680125D02*
X25571500Y-5603875D01*
X25495250Y-5527625D01*
X25419000Y-5603875D01*
X25495250Y-5680125D01*
X17164000Y-5781625D02*
X17316500Y-5934125D01*
X17316500Y-5781625D02*
X17164000Y-5934125D01*
X17240250Y-5934125D02*
X17316500Y-5857875D01*
X17240250Y-5781625D01*
X17164000Y-5857875D01*
X17240250Y-5934125D01*
X17799000Y-5527625D02*
X17951500Y-5680125D01*
X17951500Y-5527625D02*
X17799000Y-5680125D01*
X17875250Y-5680125D02*
X17951500Y-5603875D01*
X17875250Y-5527625D01*
X17799000Y-5603875D01*
X17875250Y-5680125D01*
X9067750Y-3876625D02*
X9220250Y-4029125D01*
X9220250Y-3876625D02*
X9067750Y-4029125D01*
X9144000Y-4029125D02*
X9220250Y-3952875D01*
X9144000Y-3876625D01*
X9067750Y-3952875D01*
X9144000Y-4029125D01*
X9702750Y-3622625D02*
X9855250Y-3775125D01*
X9855250Y-3622625D02*
X9702750Y-3775125D01*
X9779000Y-3775125D02*
X9855250Y-3698875D01*
X9779000Y-3622625D01*
X9702750Y-3698875D01*
X9779000Y-3775125D01*
X11449000Y-5781625D02*
X11601500Y-5934125D01*
X11601500Y-5781625D02*
X11449000Y-5934125D01*
X11525250Y-5934125D02*
X11601500Y-5857875D01*
X11525250Y-5781625D01*
X11449000Y-5857875D01*
X11525250Y-5934125D01*
X12084000Y-5527625D02*
X12236500Y-5680125D01*
X12236500Y-5527625D02*
X12084000Y-5680125D01*
X12160250Y-5680125D02*
X12236500Y-5603875D01*
X12160250Y-5527625D01*
X12084000Y-5603875D01*
X12160250Y-5680125D01*
X14306500Y-1971625D02*
X14459000Y-2124125D01*
X14459000Y-1971625D02*
X14306500Y-2124125D01*
X14382750Y-2124125D02*
X14459000Y-2047875D01*
X14382750Y-1971625D01*
X14306500Y-2047875D01*
X14382750Y-2124125D01*
X14941500Y-1717625D02*
X15094000Y-1870125D01*
X15094000Y-1717625D02*
X14941500Y-1870125D01*
X15017750Y-1870125D02*
X15094000Y-1793875D01*
X15017750Y-1717625D01*
X14941500Y-1793875D01*
X15017750Y-1870125D01*
X26689000Y-7686625D02*
X26841500Y-7839125D01*
X26841500Y-7686625D02*
X26689000Y-7839125D01*
X26765250Y-7839125D02*
X26841500Y-7762875D01*
X26765250Y-7686625D01*
X26689000Y-7762875D01*
X26765250Y-7839125D01*
X27324000Y-7432625D02*
X27476500Y-7585125D01*
X27476500Y-7432625D02*
X27324000Y-7585125D01*
X27400250Y-7585125D02*
X27476500Y-7508875D01*
X27400250Y-7432625D01*
X27324000Y-7508875D01*
X27400250Y-7585125D01*
X5734000Y-5781625D02*
X5886500Y-5934125D01*
X5886500Y-5781625D02*
X5734000Y-5934125D01*
X5810250Y-5934125D02*
X5886500Y-5857875D01*
X5810250Y-5781625D01*
X5734000Y-5857875D01*
X5810250Y-5934125D01*
X6369000Y-5527625D02*
X6521500Y-5680125D01*
X6521500Y-5527625D02*
X6369000Y-5680125D01*
X6445250Y-5680125D02*
X6521500Y-5603875D01*
X6445250Y-5527625D01*
X6369000Y-5603875D01*
X6445250Y-5680125D01*
X20974000Y-7686625D02*
X21126500Y-7839125D01*
X21126500Y-7686625D02*
X20974000Y-7839125D01*
X21050250Y-7839125D02*
X21126500Y-7762875D01*
X21050250Y-7686625D01*
X20974000Y-7762875D01*
X21050250Y-7839125D01*
X21609000Y-7432625D02*
X21761500Y-7585125D01*
X21761500Y-7432625D02*
X21609000Y-7585125D01*
X21685250Y-7585125D02*
X21761500Y-7508875D01*
X21685250Y-7432625D01*
X21609000Y-7508875D01*
X21685250Y-7585125D01*
X16211500Y-1971625D02*
X16364000Y-2124125D01*
X16364000Y-1971625D02*
X16211500Y-2124125D01*
X16287750Y-2124125D02*
X16364000Y-2047875D01*
X16287750Y-1971625D01*
X16211500Y-2047875D01*
X16287750Y-2124125D01*
X16846500Y-1717625D02*
X16999000Y-1870125D01*
X16999000Y-1717625D02*
X16846500Y-1870125D01*
X16922750Y-1870125D02*
X16999000Y-1793875D01*
X16922750Y-1717625D01*
X16846500Y-1793875D01*
X16922750Y-1870125D01*
X5734000Y-7686625D02*
X5886500Y-7839125D01*
X5886500Y-7686625D02*
X5734000Y-7839125D01*
X5810250Y-7839125D02*
X5886500Y-7762875D01*
X5810250Y-7686625D01*
X5734000Y-7762875D01*
X5810250Y-7839125D01*
X6369000Y-7432625D02*
X6521500Y-7585125D01*
X6521500Y-7432625D02*
X6369000Y-7585125D01*
X6445250Y-7585125D02*
X6521500Y-7508875D01*
X6445250Y-7432625D01*
X6369000Y-7508875D01*
X6445250Y-7585125D01*
X13354000Y-5781625D02*
X13506500Y-5934125D01*
X13506500Y-5781625D02*
X13354000Y-5934125D01*
X13430250Y-5934125D02*
X13506500Y-5857875D01*
X13430250Y-5781625D01*
X13354000Y-5857875D01*
X13430250Y-5934125D01*
X13989000Y-5527625D02*
X14141500Y-5680125D01*
X14141500Y-5527625D02*
X13989000Y-5680125D01*
X14065250Y-5680125D02*
X14141500Y-5603875D01*
X14065250Y-5527625D01*
X13989000Y-5603875D01*
X14065250Y-5680125D01*
X12401500Y-1971625D02*
X12554000Y-2124125D01*
X12554000Y-1971625D02*
X12401500Y-2124125D01*
X12477750Y-2124125D02*
X12554000Y-2047875D01*
X12477750Y-1971625D01*
X12401500Y-2047875D01*
X12477750Y-2124125D01*
X13036500Y-1717625D02*
X13189000Y-1870125D01*
X13189000Y-1717625D02*
X13036500Y-1870125D01*
X13112750Y-1870125D02*
X13189000Y-1793875D01*
X13112750Y-1717625D01*
X13036500Y-1793875D01*
X13112750Y-1870125D01*
X5257750Y-3876625D02*
X5410250Y-4029125D01*
X5410250Y-3876625D02*
X5257750Y-4029125D01*
X5334000Y-4029125D02*
X5410250Y-3952875D01*
X5334000Y-3876625D01*
X5257750Y-3952875D01*
X5334000Y-4029125D01*
X5892750Y-3622625D02*
X6045250Y-3775125D01*
X6045250Y-3622625D02*
X5892750Y-3775125D01*
X5969000Y-3775125D02*
X6045250Y-3698875D01*
X5969000Y-3622625D01*
X5892750Y-3698875D01*
X5969000Y-3775125D01*
X16687750Y-3876625D02*
X16840250Y-4029125D01*
X16840250Y-3876625D02*
X16687750Y-4029125D01*
X16764000Y-4029125D02*
X16840250Y-3952875D01*
X16764000Y-3876625D01*
X16687750Y-3952875D01*
X16764000Y-4029125D01*
X17322750Y-3622625D02*
X17475250Y-3775125D01*
X17475250Y-3622625D02*
X17322750Y-3775125D01*
X17399000Y-3775125D02*
X17475250Y-3698875D01*
X17399000Y-3622625D01*
X17322750Y-3698875D01*
X17399000Y-3775125D01*
X22879000Y-5781625D02*
X23031500Y-5934125D01*
X23031500Y-5781625D02*
X22879000Y-5934125D01*
X22955250Y-5934125D02*
X23031500Y-5857875D01*
X22955250Y-5781625D01*
X22879000Y-5857875D01*
X22955250Y-5934125D01*
X23514000Y-5527625D02*
X23666500Y-5680125D01*
X23666500Y-5527625D02*
X23514000Y-5680125D01*
X23590250Y-5680125D02*
X23666500Y-5603875D01*
X23590250Y-5527625D01*
X23514000Y-5603875D01*
X23590250Y-5680125D01*
X6686500Y-1971625D02*
X6839000Y-2124125D01*
X6839000Y-1971625D02*
X6686500Y-2124125D01*
X6762750Y-2124125D02*
X6839000Y-2047875D01*
X6762750Y-1971625D01*
X6686500Y-2047875D01*
X6762750Y-2124125D01*
X7321500Y-1717625D02*
X7474000Y-1870125D01*
X7474000Y-1717625D02*
X7321500Y-1870125D01*
X7397750Y-1870125D02*
X7474000Y-1793875D01*
X7397750Y-1717625D01*
X7321500Y-1793875D01*
X7397750Y-1870125D01*
X12877750Y-3876625D02*
X13030250Y-4029125D01*
X13030250Y-3876625D02*
X12877750Y-4029125D01*
X12954000Y-4029125D02*
X13030250Y-3952875D01*
X12954000Y-3876625D01*
X12877750Y-3952875D01*
X12954000Y-4029125D01*
X13512750Y-3622625D02*
X13665250Y-3775125D01*
X13665250Y-3622625D02*
X13512750Y-3775125D01*
X13589000Y-3775125D02*
X13665250Y-3698875D01*
X13589000Y-3622625D01*
X13512750Y-3698875D01*
X13589000Y-3775125D01*
X10496500Y-1971625D02*
X10649000Y-2124125D01*
X10649000Y-1971625D02*
X10496500Y-2124125D01*
X10572750Y-2124125D02*
X10649000Y-2047875D01*
X10572750Y-1971625D01*
X10496500Y-2047875D01*
X10572750Y-2124125D01*
X11131500Y-1717625D02*
X11284000Y-1870125D01*
X11284000Y-1717625D02*
X11131500Y-1870125D01*
X11207750Y-1870125D02*
X11284000Y-1793875D01*
X11207750Y-1717625D01*
X11131500Y-1793875D01*
X11207750Y-1870125D01*
X26689000Y-1971625D02*
X26841500Y-2124125D01*
X26841500Y-1971625D02*
X26689000Y-2124125D01*
X26765250Y-2124125D02*
X26841500Y-2047875D01*
X26765250Y-1971625D01*
X26689000Y-2047875D01*
X26765250Y-2124125D01*
X27324000Y-1717625D02*
X27476500Y-1870125D01*
X27476500Y-1717625D02*
X27324000Y-1870125D01*
X27400250Y-1870125D02*
X27476500Y-1793875D01*
X27400250Y-1717625D01*
X27324000Y-1793875D01*
X27400250Y-1870125D01*
X1924000Y-7686625D02*
X2076500Y-7839125D01*
X2076500Y-7686625D02*
X1924000Y-7839125D01*
X2000250Y-7839125D02*
X2076500Y-7762875D01*
X2000250Y-7686625D01*
X1924000Y-7762875D01*
X2000250Y-7839125D01*
X2559000Y-7432625D02*
X2711500Y-7585125D01*
X2711500Y-7432625D02*
X2559000Y-7585125D01*
X2635250Y-7585125D02*
X2711500Y-7508875D01*
X2635250Y-7432625D01*
X2559000Y-7508875D01*
X2635250Y-7585125D01*
X20021500Y-1971625D02*
X20174000Y-2124125D01*
X20174000Y-1971625D02*
X20021500Y-2124125D01*
X20097750Y-2124125D02*
X20174000Y-2047875D01*
X20097750Y-1971625D01*
X20021500Y-2047875D01*
X20097750Y-2124125D01*
X20656500Y-1717625D02*
X20809000Y-1870125D01*
X20809000Y-1717625D02*
X20656500Y-1870125D01*
X20732750Y-1870125D02*
X20809000Y-1793875D01*
X20732750Y-1717625D01*
X20656500Y-1793875D01*
X20732750Y-1870125D01*
X20974000Y-5781625D02*
X21126500Y-5934125D01*
X21126500Y-5781625D02*
X20974000Y-5934125D01*
X21050250Y-5934125D02*
X21126500Y-5857875D01*
X21050250Y-5781625D01*
X20974000Y-5857875D01*
X21050250Y-5934125D01*
X21609000Y-5527625D02*
X21761500Y-5680125D01*
X21761500Y-5527625D02*
X21609000Y-5680125D01*
X21685250Y-5680125D02*
X21761500Y-5603875D01*
X21685250Y-5527625D01*
X21609000Y-5603875D01*
X21685250Y-5680125D01*
X7639000Y-5781625D02*
X7791500Y-5934125D01*
X7791500Y-5781625D02*
X7639000Y-5934125D01*
X7715250Y-5934125D02*
X7791500Y-5857875D01*
X7715250Y-5781625D01*
X7639000Y-5857875D01*
X7715250Y-5934125D01*
X8274000Y-5527625D02*
X8426500Y-5680125D01*
X8426500Y-5527625D02*
X8274000Y-5680125D01*
X8350250Y-5680125D02*
X8426500Y-5603875D01*
X8350250Y-5527625D01*
X8274000Y-5603875D01*
X8350250Y-5680125D01*
X26689000Y-5781625D02*
X26841500Y-5934125D01*
X26841500Y-5781625D02*
X26689000Y-5934125D01*
X26765250Y-5934125D02*
X26841500Y-5857875D01*
X26765250Y-5781625D01*
X26689000Y-5857875D01*
X26765250Y-5934125D01*
X27324000Y-5527625D02*
X27476500Y-5680125D01*
X27476500Y-5527625D02*
X27324000Y-5680125D01*
X27400250Y-5680125D02*
X27476500Y-5603875D01*
X27400250Y-5527625D01*
X27324000Y-5603875D01*
X27400250Y-5680125D01*
X7639000Y-7686625D02*
X7791500Y-7839125D01*
X7791500Y-7686625D02*
X7639000Y-7839125D01*
X7715250Y-7839125D02*
X7791500Y-7762875D01*
X7715250Y-7686625D01*
X7639000Y-7762875D01*
X7715250Y-7839125D01*
X8274000Y-7432625D02*
X8426500Y-7585125D01*
X8426500Y-7432625D02*
X8274000Y-7585125D01*
X8350250Y-7585125D02*
X8426500Y-7508875D01*
X8350250Y-7432625D01*
X8274000Y-7508875D01*
X8350250Y-7585125D01*
X4781500Y-1971625D02*
X4934000Y-2124125D01*
X4934000Y-1971625D02*
X4781500Y-2124125D01*
X4857750Y-2124125D02*
X4934000Y-2047875D01*
X4857750Y-1971625D01*
X4781500Y-2047875D01*
X4857750Y-2124125D01*
X5416500Y-1717625D02*
X5569000Y-1870125D01*
X5569000Y-1717625D02*
X5416500Y-1870125D01*
X5492750Y-1870125D02*
X5569000Y-1793875D01*
X5492750Y-1717625D01*
X5416500Y-1793875D01*
X5492750Y-1870125D01*
X24784000Y-7686625D02*
X24936500Y-7839125D01*
X24936500Y-7686625D02*
X24784000Y-7839125D01*
X24860250Y-7839125D02*
X24936500Y-7762875D01*
X24860250Y-7686625D01*
X24784000Y-7762875D01*
X24860250Y-7839125D01*
X25419000Y-7432625D02*
X25571500Y-7585125D01*
X25571500Y-7432625D02*
X25419000Y-7585125D01*
X25495250Y-7585125D02*
X25571500Y-7508875D01*
X25495250Y-7432625D01*
X25419000Y-7508875D01*
X25495250Y-7585125D01*
X18116500Y-1971625D02*
X18269000Y-2124125D01*
X18269000Y-1971625D02*
X18116500Y-2124125D01*
X18192750Y-2124125D02*
X18269000Y-2047875D01*
X18192750Y-1971625D01*
X18116500Y-2047875D01*
X18192750Y-2124125D01*
X18751500Y-1717625D02*
X18904000Y-1870125D01*
X18904000Y-1717625D02*
X18751500Y-1870125D01*
X18827750Y-1870125D02*
X18904000Y-1793875D01*
X18827750Y-1717625D01*
X18751500Y-1793875D01*
X18827750Y-1870125D01*
X15259000Y-5781625D02*
X15411500Y-5934125D01*
X15411500Y-5781625D02*
X15259000Y-5934125D01*
X15335250Y-5934125D02*
X15411500Y-5857875D01*
X15335250Y-5781625D01*
X15259000Y-5857875D01*
X15335250Y-5934125D01*
X15894000Y-5527625D02*
X16046500Y-5680125D01*
X16046500Y-5527625D02*
X15894000Y-5680125D01*
X15970250Y-5680125D02*
X16046500Y-5603875D01*
X15970250Y-5527625D01*
X15894000Y-5603875D01*
X15970250Y-5680125D01*
X8591500Y-1971625D02*
X8744000Y-2124125D01*
X8744000Y-1971625D02*
X8591500Y-2124125D01*
X8667750Y-2124125D02*
X8744000Y-2047875D01*
X8667750Y-1971625D01*
X8591500Y-2047875D01*
X8667750Y-2124125D01*
X9226500Y-1717625D02*
X9379000Y-1870125D01*
X9379000Y-1717625D02*
X9226500Y-1870125D01*
X9302750Y-1870125D02*
X9379000Y-1793875D01*
X9302750Y-1717625D01*
X9226500Y-1793875D01*
X9302750Y-1870125D01*
X18592750Y-3876625D02*
X18745250Y-4029125D01*
X18745250Y-3876625D02*
X18592750Y-4029125D01*
X18669000Y-4029125D02*
X18745250Y-3952875D01*
X18669000Y-3876625D01*
X18592750Y-3952875D01*
X18669000Y-4029125D01*
X19227750Y-3622625D02*
X19380250Y-3775125D01*
X19380250Y-3622625D02*
X19227750Y-3775125D01*
X19304000Y-3775125D02*
X19380250Y-3698875D01*
X19304000Y-3622625D01*
X19227750Y-3698875D01*
X19304000Y-3775125D01*
X20497750Y-3876625D02*
X20650250Y-4029125D01*
X20650250Y-3876625D02*
X20497750Y-4029125D01*
X20574000Y-4029125D02*
X20650250Y-3952875D01*
X20574000Y-3876625D01*
X20497750Y-3952875D01*
X20574000Y-4029125D01*
X21132750Y-3622625D02*
X21285250Y-3775125D01*
X21285250Y-3622625D02*
X21132750Y-3775125D01*
X21209000Y-3775125D02*
X21285250Y-3698875D01*
X21209000Y-3622625D01*
X21132750Y-3698875D01*
X21209000Y-3775125D01*
X21926500Y-1971625D02*
X22079000Y-2124125D01*
X22079000Y-1971625D02*
X21926500Y-2124125D01*
X22002750Y-2124125D02*
X22079000Y-2047875D01*
X22002750Y-1971625D01*
X21926500Y-2047875D01*
X22002750Y-2124125D01*
X22561500Y-1717625D02*
X22714000Y-1870125D01*
X22714000Y-1717625D02*
X22561500Y-1870125D01*
X22637750Y-1870125D02*
X22714000Y-1793875D01*
X22637750Y-1717625D01*
X22561500Y-1793875D01*
X22637750Y-1870125D01*
X26689000Y-3876625D02*
X26841500Y-4029125D01*
X26841500Y-3876625D02*
X26689000Y-4029125D01*
X26765250Y-4029125D02*
X26841500Y-3952875D01*
X26765250Y-3876625D01*
X26689000Y-3952875D01*
X26765250Y-4029125D01*
X27324000Y-3622625D02*
X27476500Y-3775125D01*
X27476500Y-3622625D02*
X27324000Y-3775125D01*
X27400250Y-3775125D02*
X27476500Y-3698875D01*
X27400250Y-3622625D01*
X27324000Y-3698875D01*
X27400250Y-3775125D01*
X7162750Y-3876625D02*
X7315250Y-4029125D01*
X7315250Y-3876625D02*
X7162750Y-4029125D01*
X7239000Y-4029125D02*
X7315250Y-3952875D01*
X7239000Y-3876625D01*
X7162750Y-3952875D01*
X7239000Y-4029125D01*
X7797750Y-3622625D02*
X7950250Y-3775125D01*
X7950250Y-3622625D02*
X7797750Y-3775125D01*
X7874000Y-3775125D02*
X7950250Y-3698875D01*
X7874000Y-3622625D01*
X7797750Y-3698875D01*
X7874000Y-3775125D01*
X9544000Y-5781625D02*
X9696500Y-5934125D01*
X9696500Y-5781625D02*
X9544000Y-5934125D01*
X9620250Y-5934125D02*
X9696500Y-5857875D01*
X9620250Y-5781625D01*
X9544000Y-5857875D01*
X9620250Y-5934125D01*
X10179000Y-5527625D02*
X10331500Y-5680125D01*
X10331500Y-5527625D02*
X10179000Y-5680125D01*
X10255250Y-5680125D02*
X10331500Y-5603875D01*
X10255250Y-5527625D01*
X10179000Y-5603875D01*
X10255250Y-5680125D01*
X19069000Y-5781625D02*
X19221500Y-5934125D01*
X19221500Y-5781625D02*
X19069000Y-5934125D01*
X19145250Y-5934125D02*
X19221500Y-5857875D01*
X19145250Y-5781625D01*
X19069000Y-5857875D01*
X19145250Y-5934125D01*
X19704000Y-5527625D02*
X19856500Y-5680125D01*
X19856500Y-5527625D02*
X19704000Y-5680125D01*
X19780250Y-5680125D02*
X19856500Y-5603875D01*
X19780250Y-5527625D01*
X19704000Y-5603875D01*
X19780250Y-5680125D01*
X19069000Y-7686625D02*
X19221500Y-7839125D01*
X19221500Y-7686625D02*
X19069000Y-7839125D01*
X19145250Y-7839125D02*
X19221500Y-7762875D01*
X19145250Y-7686625D01*
X19069000Y-7762875D01*
X19145250Y-7839125D01*
X19704000Y-7432625D02*
X19856500Y-7585125D01*
X19856500Y-7432625D02*
X19704000Y-7585125D01*
X19780250Y-7585125D02*
X19856500Y-7508875D01*
X19780250Y-7432625D01*
X19704000Y-7508875D01*
X19780250Y-7585125D01*
X3829000Y-7686625D02*
X3981500Y-7839125D01*
X3981500Y-7686625D02*
X3829000Y-7839125D01*
X3905250Y-7839125D02*
X3981500Y-7762875D01*
X3905250Y-7686625D01*
X3829000Y-7762875D01*
X3905250Y-7839125D01*
X4464000Y-7432625D02*
X4616500Y-7585125D01*
X4616500Y-7432625D02*
X4464000Y-7585125D01*
X4540250Y-7585125D02*
X4616500Y-7508875D01*
X4540250Y-7432625D01*
X4464000Y-7508875D01*
X4540250Y-7585125D01*
X14782750Y-3876625D02*
X14935250Y-4029125D01*
X14935250Y-3876625D02*
X14782750Y-4029125D01*
X14859000Y-4029125D02*
X14935250Y-3952875D01*
X14859000Y-3876625D01*
X14782750Y-3952875D01*
X14859000Y-4029125D01*
X15417750Y-3622625D02*
X15570250Y-3775125D01*
X15570250Y-3622625D02*
X15417750Y-3775125D01*
X15494000Y-3775125D02*
X15570250Y-3698875D01*
X15494000Y-3622625D01*
X15417750Y-3698875D01*
X15494000Y-3775125D01*
X10972750Y-3876625D02*
X11125250Y-4029125D01*
X11125250Y-3876625D02*
X10972750Y-4029125D01*
X11049000Y-4029125D02*
X11125250Y-3952875D01*
X11049000Y-3876625D01*
X10972750Y-3952875D01*
X11049000Y-4029125D01*
X11607750Y-3622625D02*
X11760250Y-3775125D01*
X11760250Y-3622625D02*
X11607750Y-3775125D01*
X11684000Y-3775125D02*
X11760250Y-3698875D01*
X11684000Y-3622625D01*
X11607750Y-3698875D01*
X11684000Y-3775125D01*
X22879000Y-7686625D02*
X23031500Y-7839125D01*
X23031500Y-7686625D02*
X22879000Y-7839125D01*
X22955250Y-7839125D02*
X23031500Y-7762875D01*
X22955250Y-7686625D01*
X22879000Y-7762875D01*
X22955250Y-7839125D01*
X23514000Y-7432625D02*
X23666500Y-7585125D01*
X23666500Y-7432625D02*
X23514000Y-7585125D01*
X23590250Y-7585125D02*
X23666500Y-7508875D01*
X23590250Y-7432625D01*
X23514000Y-7508875D01*
X23590250Y-7585125D01*
X22828250Y-7931785D02*
X22828250Y-8101965D01*
X22743160Y-8016875D02*
X22913340Y-8016875D01*
X22913340Y-8016875D02*
G75*
G03*
X22913340Y-8016875I-85090J0D01*
G01*
X23844250Y-7931785D02*
X23844250Y-8101965D01*
X23759160Y-8016875D02*
X23929340Y-8016875D01*
X23929340Y-8016875D02*
G75*
G03*
X23929340Y-8016875I-85090J0D01*
G01*
X24733250Y-6026785D02*
X24733250Y-6196965D01*
X24648160Y-6111875D02*
X24818340Y-6111875D01*
X24818340Y-6111875D02*
G75*
G03*
X24818340Y-6111875I-85090J0D01*
G01*
X25749250Y-6026785D02*
X25749250Y-6196965D01*
X25664160Y-6111875D02*
X25834340Y-6111875D01*
X25834340Y-6111875D02*
G75*
G03*
X25834340Y-6111875I-85090J0D01*
G01*
X17113250Y-6026785D02*
X17113250Y-6196965D01*
X17028160Y-6111875D02*
X17198340Y-6111875D01*
X17198340Y-6111875D02*
G75*
G03*
X17198340Y-6111875I-85090J0D01*
G01*
X18129250Y-6026785D02*
X18129250Y-6196965D01*
X18044160Y-6111875D02*
X18214340Y-6111875D01*
X18214340Y-6111875D02*
G75*
G03*
X18214340Y-6111875I-85090J0D01*
G01*
X9017000Y-4121785D02*
X9017000Y-4291965D01*
X8931910Y-4206875D02*
X9102090Y-4206875D01*
X9102090Y-4206875D02*
G75*
G03*
X9102090Y-4206875I-85090J0D01*
G01*
X10033000Y-4121785D02*
X10033000Y-4291965D01*
X9947910Y-4206875D02*
X10118090Y-4206875D01*
X10118090Y-4206875D02*
G75*
G03*
X10118090Y-4206875I-85090J0D01*
G01*
X11398250Y-6026785D02*
X11398250Y-6196965D01*
X11313160Y-6111875D02*
X11483340Y-6111875D01*
X11483340Y-6111875D02*
G75*
G03*
X11483340Y-6111875I-85090J0D01*
G01*
X12414250Y-6026785D02*
X12414250Y-6196965D01*
X12329160Y-6111875D02*
X12499340Y-6111875D01*
X12499340Y-6111875D02*
G75*
G03*
X12499340Y-6111875I-85090J0D01*
G01*
X14255750Y-2216785D02*
X14255750Y-2386965D01*
X14170660Y-2301875D02*
X14340840Y-2301875D01*
X14340840Y-2301875D02*
G75*
G03*
X14340840Y-2301875I-85090J0D01*
G01*
X15271750Y-2216785D02*
X15271750Y-2386965D01*
X15186660Y-2301875D02*
X15356840Y-2301875D01*
X15356840Y-2301875D02*
G75*
G03*
X15356840Y-2301875I-85090J0D01*
G01*
X26638250Y-7931785D02*
X26638250Y-8101965D01*
X26553160Y-8016875D02*
X26723340Y-8016875D01*
X26723340Y-8016875D02*
G75*
G03*
X26723340Y-8016875I-85090J0D01*
G01*
X27654250Y-7931785D02*
X27654250Y-8101965D01*
X27569160Y-8016875D02*
X27739340Y-8016875D01*
X27739340Y-8016875D02*
G75*
G03*
X27739340Y-8016875I-85090J0D01*
G01*
X5683250Y-6026785D02*
X5683250Y-6196965D01*
X5598160Y-6111875D02*
X5768340Y-6111875D01*
X5768340Y-6111875D02*
G75*
G03*
X5768340Y-6111875I-85090J0D01*
G01*
X6699250Y-6026785D02*
X6699250Y-6196965D01*
X6614160Y-6111875D02*
X6784340Y-6111875D01*
X6784340Y-6111875D02*
G75*
G03*
X6784340Y-6111875I-85090J0D01*
G01*
X2587625Y-4121785D02*
X2587625Y-4291965D01*
X2502535Y-4206875D02*
X2672715Y-4206875D01*
X2672715Y-4206875D02*
G75*
G03*
X2672715Y-4206875I-85090J0D01*
G01*
X3603625Y-4121785D02*
X3603625Y-4291965D01*
X3518535Y-4206875D02*
X3688715Y-4206875D01*
X3688715Y-4206875D02*
G75*
G03*
X3688715Y-4206875I-85090J0D01*
G01*
X20923250Y-7931785D02*
X20923250Y-8101965D01*
X20838160Y-8016875D02*
X21008340Y-8016875D01*
X21008340Y-8016875D02*
G75*
G03*
X21008340Y-8016875I-85090J0D01*
G01*
X21939250Y-7931785D02*
X21939250Y-8101965D01*
X21854160Y-8016875D02*
X22024340Y-8016875D01*
X22024340Y-8016875D02*
G75*
G03*
X22024340Y-8016875I-85090J0D01*
G01*
X24257000Y-2216785D02*
X24257000Y-2386965D01*
X24171910Y-2301875D02*
X24342090Y-2301875D01*
X24342090Y-2301875D02*
G75*
G03*
X24342090Y-2301875I-85090J0D01*
G01*
X25273000Y-2216785D02*
X25273000Y-2386965D01*
X25187910Y-2301875D02*
X25358090Y-2301875D01*
X25358090Y-2301875D02*
G75*
G03*
X25358090Y-2301875I-85090J0D01*
G01*
X16160750Y-2216785D02*
X16160750Y-2386965D01*
X16075660Y-2301875D02*
X16245840Y-2301875D01*
X16245840Y-2301875D02*
G75*
G03*
X16245840Y-2301875I-85090J0D01*
G01*
X17176750Y-2216785D02*
X17176750Y-2386965D01*
X17091660Y-2301875D02*
X17261840Y-2301875D01*
X17261840Y-2301875D02*
G75*
G03*
X17261840Y-2301875I-85090J0D01*
G01*
X5683250Y-7931785D02*
X5683250Y-8101965D01*
X5598160Y-8016875D02*
X5768340Y-8016875D01*
X5768340Y-8016875D02*
G75*
G03*
X5768340Y-8016875I-85090J0D01*
G01*
X6699250Y-7931785D02*
X6699250Y-8101965D01*
X6614160Y-8016875D02*
X6784340Y-8016875D01*
X6784340Y-8016875D02*
G75*
G03*
X6784340Y-8016875I-85090J0D01*
G01*
X13303250Y-6026785D02*
X13303250Y-6196965D01*
X13218160Y-6111875D02*
X13388340Y-6111875D01*
X13388340Y-6111875D02*
G75*
G03*
X13388340Y-6111875I-85090J0D01*
G01*
X14319250Y-6026785D02*
X14319250Y-6196965D01*
X14234160Y-6111875D02*
X14404340Y-6111875D01*
X14404340Y-6111875D02*
G75*
G03*
X14404340Y-6111875I-85090J0D01*
G01*
X12350750Y-2216785D02*
X12350750Y-2386965D01*
X12265660Y-2301875D02*
X12435840Y-2301875D01*
X12435840Y-2301875D02*
G75*
G03*
X12435840Y-2301875I-85090J0D01*
G01*
X13366750Y-2216785D02*
X13366750Y-2386965D01*
X13281660Y-2301875D02*
X13451840Y-2301875D01*
X13451840Y-2301875D02*
G75*
G03*
X13451840Y-2301875I-85090J0D01*
G01*
X11160125Y-7931785D02*
X11160125Y-8101965D01*
X11075035Y-8016875D02*
X11245215Y-8016875D01*
X11245215Y-8016875D02*
G75*
G03*
X11245215Y-8016875I-85090J0D01*
G01*
X12176125Y-7931785D02*
X12176125Y-8101965D01*
X12091035Y-8016875D02*
X12261215Y-8016875D01*
X12261215Y-8016875D02*
G75*
G03*
X12261215Y-8016875I-85090J0D01*
G01*
X5207000Y-4121785D02*
X5207000Y-4291965D01*
X5121910Y-4206875D02*
X5292090Y-4206875D01*
X5292090Y-4206875D02*
G75*
G03*
X5292090Y-4206875I-85090J0D01*
G01*
X6223000Y-4121785D02*
X6223000Y-4291965D01*
X6137910Y-4206875D02*
X6308090Y-4206875D01*
X6308090Y-4206875D02*
G75*
G03*
X6308090Y-4206875I-85090J0D01*
G01*
X16637000Y-4121785D02*
X16637000Y-4291965D01*
X16551910Y-4206875D02*
X16722090Y-4206875D01*
X16722090Y-4206875D02*
G75*
G03*
X16722090Y-4206875I-85090J0D01*
G01*
X17653000Y-4121785D02*
X17653000Y-4291965D01*
X17567910Y-4206875D02*
X17738090Y-4206875D01*
X17738090Y-4206875D02*
G75*
G03*
X17738090Y-4206875I-85090J0D01*
G01*
X22828250Y-6026785D02*
X22828250Y-6196965D01*
X22743160Y-6111875D02*
X22913340Y-6111875D01*
X22913340Y-6111875D02*
G75*
G03*
X22913340Y-6111875I-85090J0D01*
G01*
X23844250Y-6026785D02*
X23844250Y-6196965D01*
X23759160Y-6111875D02*
X23929340Y-6111875D01*
X23929340Y-6111875D02*
G75*
G03*
X23929340Y-6111875I-85090J0D01*
G01*
X6635750Y-2216785D02*
X6635750Y-2386965D01*
X6550660Y-2301875D02*
X6720840Y-2301875D01*
X6720840Y-2301875D02*
G75*
G03*
X6720840Y-2301875I-85090J0D01*
G01*
X7651750Y-2216785D02*
X7651750Y-2386965D01*
X7566660Y-2301875D02*
X7736840Y-2301875D01*
X7736840Y-2301875D02*
G75*
G03*
X7736840Y-2301875I-85090J0D01*
G01*
X12827000Y-4121785D02*
X12827000Y-4291965D01*
X12741910Y-4206875D02*
X12912090Y-4206875D01*
X12912090Y-4206875D02*
G75*
G03*
X12912090Y-4206875I-85090J0D01*
G01*
X13843000Y-4121785D02*
X13843000Y-4291965D01*
X13757910Y-4206875D02*
X13928090Y-4206875D01*
X13928090Y-4206875D02*
G75*
G03*
X13928090Y-4206875I-85090J0D01*
G01*
X10445750Y-2216785D02*
X10445750Y-2386965D01*
X10360660Y-2301875D02*
X10530840Y-2301875D01*
X10530840Y-2301875D02*
G75*
G03*
X10530840Y-2301875I-85090J0D01*
G01*
X11461750Y-2216785D02*
X11461750Y-2386965D01*
X11376660Y-2301875D02*
X11546840Y-2301875D01*
X11546840Y-2301875D02*
G75*
G03*
X11546840Y-2301875I-85090J0D01*
G01*
X26638250Y-2216785D02*
X26638250Y-2386965D01*
X26553160Y-2301875D02*
X26723340Y-2301875D01*
X26723340Y-2301875D02*
G75*
G03*
X26723340Y-2301875I-85090J0D01*
G01*
X27654250Y-2216785D02*
X27654250Y-2386965D01*
X27569160Y-2301875D02*
X27739340Y-2301875D01*
X27739340Y-2301875D02*
G75*
G03*
X27739340Y-2301875I-85090J0D01*
G01*
X1873250Y-7931785D02*
X1873250Y-8101965D01*
X1788160Y-8016875D02*
X1958340Y-8016875D01*
X1958340Y-8016875D02*
G75*
G03*
X1958340Y-8016875I-85090J0D01*
G01*
X2889250Y-7931785D02*
X2889250Y-8101965D01*
X2804160Y-8016875D02*
X2974340Y-8016875D01*
X2974340Y-8016875D02*
G75*
G03*
X2974340Y-8016875I-85090J0D01*
G01*
X19970750Y-2216785D02*
X19970750Y-2386965D01*
X19885660Y-2301875D02*
X20055840Y-2301875D01*
X20055840Y-2301875D02*
G75*
G03*
X20055840Y-2301875I-85090J0D01*
G01*
X20986750Y-2216785D02*
X20986750Y-2386965D01*
X20901660Y-2301875D02*
X21071840Y-2301875D01*
X21071840Y-2301875D02*
G75*
G03*
X21071840Y-2301875I-85090J0D01*
G01*
X20923250Y-6026785D02*
X20923250Y-6196965D01*
X20838160Y-6111875D02*
X21008340Y-6111875D01*
X21008340Y-6111875D02*
G75*
G03*
X21008340Y-6111875I-85090J0D01*
G01*
X21939250Y-6026785D02*
X21939250Y-6196965D01*
X21854160Y-6111875D02*
X22024340Y-6111875D01*
X22024340Y-6111875D02*
G75*
G03*
X22024340Y-6111875I-85090J0D01*
G01*
X7588250Y-6026785D02*
X7588250Y-6196965D01*
X7503160Y-6111875D02*
X7673340Y-6111875D01*
X7673340Y-6111875D02*
G75*
G03*
X7673340Y-6111875I-85090J0D01*
G01*
X8604250Y-6026785D02*
X8604250Y-6196965D01*
X8519160Y-6111875D02*
X8689340Y-6111875D01*
X8689340Y-6111875D02*
G75*
G03*
X8689340Y-6111875I-85090J0D01*
G01*
X26638250Y-6026785D02*
X26638250Y-6196965D01*
X26553160Y-6111875D02*
X26723340Y-6111875D01*
X26723340Y-6111875D02*
G75*
G03*
X26723340Y-6111875I-85090J0D01*
G01*
X27654250Y-6026785D02*
X27654250Y-6196965D01*
X27569160Y-6111875D02*
X27739340Y-6111875D01*
X27739340Y-6111875D02*
G75*
G03*
X27739340Y-6111875I-85090J0D01*
G01*
X7588250Y-7931785D02*
X7588250Y-8101965D01*
X7503160Y-8016875D02*
X7673340Y-8016875D01*
X7673340Y-8016875D02*
G75*
G03*
X7673340Y-8016875I-85090J0D01*
G01*
X8604250Y-7931785D02*
X8604250Y-8101965D01*
X8519160Y-8016875D02*
X8689340Y-8016875D01*
X8689340Y-8016875D02*
G75*
G03*
X8689340Y-8016875I-85090J0D01*
G01*
X4730750Y-2216785D02*
X4730750Y-2386965D01*
X4645660Y-2301875D02*
X4815840Y-2301875D01*
X4815840Y-2301875D02*
G75*
G03*
X4815840Y-2301875I-85090J0D01*
G01*
X5746750Y-2216785D02*
X5746750Y-2386965D01*
X5661660Y-2301875D02*
X5831840Y-2301875D01*
X5831840Y-2301875D02*
G75*
G03*
X5831840Y-2301875I-85090J0D01*
G01*
X2825750Y-6026785D02*
X2825750Y-6196965D01*
X2740660Y-6111875D02*
X2910840Y-6111875D01*
X2910840Y-6111875D02*
G75*
G03*
X2910840Y-6111875I-85090J0D01*
G01*
X3841750Y-6026785D02*
X3841750Y-6196965D01*
X3756660Y-6111875D02*
X3926840Y-6111875D01*
X3926840Y-6111875D02*
G75*
G03*
X3926840Y-6111875I-85090J0D01*
G01*
X2349500Y-2214910D02*
X2349500Y-2385090D01*
X2264410Y-2300000D02*
X2434590Y-2300000D01*
X2434590Y-2300000D02*
G75*
G03*
X2434590Y-2300000I-85090J0D01*
G01*
X3365500Y-2214910D02*
X3365500Y-2385090D01*
X3280410Y-2300000D02*
X3450590Y-2300000D01*
X3450590Y-2300000D02*
G75*
G03*
X3450590Y-2300000I-85090J0D01*
G01*
X24733250Y-7931785D02*
X24733250Y-8101965D01*
X24648160Y-8016875D02*
X24818340Y-8016875D01*
X24818340Y-8016875D02*
G75*
G03*
X24818340Y-8016875I-85090J0D01*
G01*
X25749250Y-7931785D02*
X25749250Y-8101965D01*
X25664160Y-8016875D02*
X25834340Y-8016875D01*
X25834340Y-8016875D02*
G75*
G03*
X25834340Y-8016875I-85090J0D01*
G01*
X18065750Y-2216785D02*
X18065750Y-2386965D01*
X17980660Y-2301875D02*
X18150840Y-2301875D01*
X18150840Y-2301875D02*
G75*
G03*
X18150840Y-2301875I-85090J0D01*
G01*
X19081750Y-2216785D02*
X19081750Y-2386965D01*
X18996660Y-2301875D02*
X19166840Y-2301875D01*
X19166840Y-2301875D02*
G75*
G03*
X19166840Y-2301875I-85090J0D01*
G01*
X15208250Y-6026785D02*
X15208250Y-6196965D01*
X15123160Y-6111875D02*
X15293340Y-6111875D01*
X15293340Y-6111875D02*
G75*
G03*
X15293340Y-6111875I-85090J0D01*
G01*
X16224250Y-6026785D02*
X16224250Y-6196965D01*
X16139160Y-6111875D02*
X16309340Y-6111875D01*
X16309340Y-6111875D02*
G75*
G03*
X16309340Y-6111875I-85090J0D01*
G01*
X8540750Y-2216785D02*
X8540750Y-2386965D01*
X8455660Y-2301875D02*
X8625840Y-2301875D01*
X8625840Y-2301875D02*
G75*
G03*
X8625840Y-2301875I-85090J0D01*
G01*
X9556750Y-2216785D02*
X9556750Y-2386965D01*
X9471660Y-2301875D02*
X9641840Y-2301875D01*
X9641840Y-2301875D02*
G75*
G03*
X9641840Y-2301875I-85090J0D01*
G01*
X18542000Y-4121785D02*
X18542000Y-4291965D01*
X18456910Y-4206875D02*
X18627090Y-4206875D01*
X18627090Y-4206875D02*
G75*
G03*
X18627090Y-4206875I-85090J0D01*
G01*
X19558000Y-4121785D02*
X19558000Y-4291965D01*
X19472910Y-4206875D02*
X19643090Y-4206875D01*
X19643090Y-4206875D02*
G75*
G03*
X19643090Y-4206875I-85090J0D01*
G01*
X20447000Y-4121785D02*
X20447000Y-4291965D01*
X20361910Y-4206875D02*
X20532090Y-4206875D01*
X20532090Y-4206875D02*
G75*
G03*
X20532090Y-4206875I-85090J0D01*
G01*
X21463000Y-4121785D02*
X21463000Y-4291965D01*
X21377910Y-4206875D02*
X21548090Y-4206875D01*
X21548090Y-4206875D02*
G75*
G03*
X21548090Y-4206875I-85090J0D01*
G01*
X21875750Y-2216785D02*
X21875750Y-2386965D01*
X21790660Y-2301875D02*
X21960840Y-2301875D01*
X21960840Y-2301875D02*
G75*
G03*
X21960840Y-2301875I-85090J0D01*
G01*
X22891750Y-2216785D02*
X22891750Y-2386965D01*
X22806660Y-2301875D02*
X22976840Y-2301875D01*
X22976840Y-2301875D02*
G75*
G03*
X22976840Y-2301875I-85090J0D01*
G01*
X26638250Y-4121785D02*
X26638250Y-4291965D01*
X26553160Y-4206875D02*
X26723340Y-4206875D01*
X26723340Y-4206875D02*
G75*
G03*
X26723340Y-4206875I-85090J0D01*
G01*
X27654250Y-4121785D02*
X27654250Y-4291965D01*
X27569160Y-4206875D02*
X27739340Y-4206875D01*
X27739340Y-4206875D02*
G75*
G03*
X27739340Y-4206875I-85090J0D01*
G01*
X7112000Y-4121785D02*
X7112000Y-4291965D01*
X7026910Y-4206875D02*
X7197090Y-4206875D01*
X7197090Y-4206875D02*
G75*
G03*
X7197090Y-4206875I-85090J0D01*
G01*
X8128000Y-4121785D02*
X8128000Y-4291965D01*
X8042910Y-4206875D02*
X8213090Y-4206875D01*
X8213090Y-4206875D02*
G75*
G03*
X8213090Y-4206875I-85090J0D01*
G01*
X9493250Y-6026785D02*
X9493250Y-6196965D01*
X9408160Y-6111875D02*
X9578340Y-6111875D01*
X9578340Y-6111875D02*
G75*
G03*
X9578340Y-6111875I-85090J0D01*
G01*
X10509250Y-6026785D02*
X10509250Y-6196965D01*
X10424160Y-6111875D02*
X10594340Y-6111875D01*
X10594340Y-6111875D02*
G75*
G03*
X10594340Y-6111875I-85090J0D01*
G01*
X19018250Y-6026785D02*
X19018250Y-6196965D01*
X18933160Y-6111875D02*
X19103340Y-6111875D01*
X19103340Y-6111875D02*
G75*
G03*
X19103340Y-6111875I-85090J0D01*
G01*
X20034250Y-6026785D02*
X20034250Y-6196965D01*
X19949160Y-6111875D02*
X20119340Y-6111875D01*
X20119340Y-6111875D02*
G75*
G03*
X20119340Y-6111875I-85090J0D01*
G01*
X19018250Y-7931785D02*
X19018250Y-8101965D01*
X18933160Y-8016875D02*
X19103340Y-8016875D01*
X19103340Y-8016875D02*
G75*
G03*
X19103340Y-8016875I-85090J0D01*
G01*
X20034250Y-7931785D02*
X20034250Y-8101965D01*
X19949160Y-8016875D02*
X20119340Y-8016875D01*
X20119340Y-8016875D02*
G75*
G03*
X20119340Y-8016875I-85090J0D01*
G01*
X23542625Y-4121785D02*
X23542625Y-4291965D01*
X23457535Y-4206875D02*
X23627715Y-4206875D01*
X23627715Y-4206875D02*
G75*
G03*
X23627715Y-4206875I-85090J0D01*
G01*
X24558625Y-4121785D02*
X24558625Y-4291965D01*
X24473535Y-4206875D02*
X24643715Y-4206875D01*
X24643715Y-4206875D02*
G75*
G03*
X24643715Y-4206875I-85090J0D01*
G01*
X3778250Y-7931785D02*
X3778250Y-8101965D01*
X3693160Y-8016875D02*
X3863340Y-8016875D01*
X3863340Y-8016875D02*
G75*
G03*
X3863340Y-8016875I-85090J0D01*
G01*
X4794250Y-7931785D02*
X4794250Y-8101965D01*
X4709160Y-8016875D02*
X4879340Y-8016875D01*
X4879340Y-8016875D02*
G75*
G03*
X4879340Y-8016875I-85090J0D01*
G01*
X14732000Y-4121785D02*
X14732000Y-4291965D01*
X14646910Y-4206875D02*
X14817090Y-4206875D01*
X14817090Y-4206875D02*
G75*
G03*
X14817090Y-4206875I-85090J0D01*
G01*
X15748000Y-4121785D02*
X15748000Y-4291965D01*
X15662910Y-4206875D02*
X15833090Y-4206875D01*
X15833090Y-4206875D02*
G75*
G03*
X15833090Y-4206875I-85090J0D01*
G01*
X10922000Y-4121785D02*
X10922000Y-4291965D01*
X10836910Y-4206875D02*
X11007090Y-4206875D01*
X11007090Y-4206875D02*
G75*
G03*
X11007090Y-4206875I-85090J0D01*
G01*
X11938000Y-4121785D02*
X11938000Y-4291965D01*
X11852910Y-4206875D02*
X12023090Y-4206875D01*
X12023090Y-4206875D02*
G75*
G03*
X12023090Y-4206875I-85090J0D01*
G01*
X15922625Y-7931785D02*
X15922625Y-8101965D01*
X15837535Y-8016875D02*
X16007715Y-8016875D01*
X16007715Y-8016875D02*
G75*
G03*
X16007715Y-8016875I-85090J0D01*
G01*
X16938625Y-7931785D02*
X16938625Y-8101965D01*
X16853535Y-8016875D02*
X17023715Y-8016875D01*
X17023715Y-8016875D02*
G75*
G03*
X17023715Y-8016875I-85090J0D01*
G01*
X2247714Y-5521139D02*
X2247714Y-5305611D01*
X2032186Y-5305611D01*
X2032186Y-5521139D01*
X2247714Y-5521139D01*
X2292350Y-5413375D02*
G75*
G03*
X2292350Y-5413375I-152400J0D01*
G01*
X4635314Y-5521139D02*
X4635314Y-5305611D01*
X4419786Y-5305611D01*
X4419786Y-5521139D01*
X4635314Y-5521139D01*
X4679950Y-5413375D02*
G75*
G03*
X4679950Y-5413375I-152400J0D01*
G01*
X22964589Y-3616139D02*
X22964589Y-3400611D01*
X22749061Y-3400611D01*
X22749061Y-3616139D01*
X22964589Y-3616139D01*
X23009225Y-3508375D02*
G75*
G03*
X23009225Y-3508375I-152400J0D01*
G01*
X25352189Y-3616139D02*
X25352189Y-3400611D01*
X25136661Y-3400611D01*
X25136661Y-3616139D01*
X25352189Y-3616139D01*
X25396825Y-3508375D02*
G75*
G03*
X25396825Y-3508375I-152400J0D01*
G01*
X15344589Y-8823139D02*
X15344589Y-8607611D01*
X15129061Y-8607611D01*
X15129061Y-8823139D01*
X15344589Y-8823139D01*
X15389225Y-8715375D02*
G75*
G03*
X15389225Y-8715375I-152400J0D01*
G01*
X17732189Y-8823139D02*
X17732189Y-8607611D01*
X17516661Y-8607611D01*
X17516661Y-8823139D01*
X17732189Y-8823139D01*
X17776825Y-8715375D02*
G75*
G03*
X17776825Y-8715375I-152400J0D01*
G01*
X10582089Y-8823139D02*
X10582089Y-8607611D01*
X10366561Y-8607611D01*
X10366561Y-8823139D01*
X10582089Y-8823139D01*
X10626725Y-8715375D02*
G75*
G03*
X10626725Y-8715375I-152400J0D01*
G01*
X12969689Y-8823139D02*
X12969689Y-8607611D01*
X12754161Y-8607611D01*
X12754161Y-8823139D01*
X12969689Y-8823139D01*
X13014325Y-8715375D02*
G75*
G03*
X13014325Y-8715375I-152400J0D01*
G01*
X5715000Y-4406265D02*
X5914390Y-4206875D01*
X5715000Y-4007485D01*
X5515610Y-4206875D01*
X5715000Y-4406265D01*
X5914390Y-4206875D02*
G75*
G03*
X5914390Y-4206875I-199390J0D01*
G01*
X17145000Y-4406265D02*
X17344390Y-4206875D01*
X17145000Y-4007485D01*
X16945610Y-4206875D01*
X17145000Y-4406265D01*
X17344390Y-4206875D02*
G75*
G03*
X17344390Y-4206875I-199390J0D01*
G01*
X23336250Y-6311265D02*
X23535640Y-6111875D01*
X23336250Y-5912485D01*
X23136860Y-6111875D01*
X23336250Y-6311265D01*
X23535640Y-6111875D02*
G75*
G03*
X23535640Y-6111875I-199390J0D01*
G01*
X7143750Y-2501265D02*
X7343140Y-2301875D01*
X7143750Y-2102485D01*
X6944360Y-2301875D01*
X7143750Y-2501265D01*
X7343140Y-2301875D02*
G75*
G03*
X7343140Y-2301875I-199390J0D01*
G01*
X13335000Y-4406265D02*
X13534390Y-4206875D01*
X13335000Y-4007485D01*
X13135610Y-4206875D01*
X13335000Y-4406265D01*
X13534390Y-4206875D02*
G75*
G03*
X13534390Y-4206875I-199390J0D01*
G01*
X10953750Y-2501265D02*
X11153140Y-2301875D01*
X10953750Y-2102485D01*
X10754360Y-2301875D01*
X10953750Y-2501265D01*
X11153140Y-2301875D02*
G75*
G03*
X11153140Y-2301875I-199390J0D01*
G01*
X27146250Y-2501265D02*
X27345640Y-2301875D01*
X27146250Y-2102485D01*
X26946860Y-2301875D01*
X27146250Y-2501265D01*
X27345640Y-2301875D02*
G75*
G03*
X27345640Y-2301875I-199390J0D01*
G01*
X2381250Y-8216265D02*
X2580640Y-8016875D01*
X2381250Y-7817485D01*
X2181860Y-8016875D01*
X2381250Y-8216265D01*
X2580640Y-8016875D02*
G75*
G03*
X2580640Y-8016875I-199390J0D01*
G01*
X20478750Y-2501265D02*
X20678140Y-2301875D01*
X20478750Y-2102485D01*
X20279360Y-2301875D01*
X20478750Y-2501265D01*
X20678140Y-2301875D02*
G75*
G03*
X20678140Y-2301875I-199390J0D01*
G01*
X21431250Y-6311265D02*
X21630640Y-6111875D01*
X21431250Y-5912485D01*
X21231860Y-6111875D01*
X21431250Y-6311265D01*
X21630640Y-6111875D02*
G75*
G03*
X21630640Y-6111875I-199390J0D01*
G01*
X8096250Y-6311265D02*
X8295640Y-6111875D01*
X8096250Y-5912485D01*
X7896860Y-6111875D01*
X8096250Y-6311265D01*
X8295640Y-6111875D02*
G75*
G03*
X8295640Y-6111875I-199390J0D01*
G01*
X27146250Y-6311265D02*
X27345640Y-6111875D01*
X27146250Y-5912485D01*
X26946860Y-6111875D01*
X27146250Y-6311265D01*
X27345640Y-6111875D02*
G75*
G03*
X27345640Y-6111875I-199390J0D01*
G01*
X8096250Y-8216265D02*
X8295640Y-8016875D01*
X8096250Y-7817485D01*
X7896860Y-8016875D01*
X8096250Y-8216265D01*
X8295640Y-8016875D02*
G75*
G03*
X8295640Y-8016875I-199390J0D01*
G01*
X5238750Y-2501265D02*
X5438140Y-2301875D01*
X5238750Y-2102485D01*
X5039360Y-2301875D01*
X5238750Y-2501265D01*
X5438140Y-2301875D02*
G75*
G03*
X5438140Y-2301875I-199390J0D01*
G01*
X2139950Y-7136765D02*
X2339340Y-6937375D01*
X2139950Y-6737985D01*
X1940560Y-6937375D01*
X2139950Y-7136765D01*
X2339340Y-6937375D02*
G75*
G03*
X2339340Y-6937375I-199390J0D01*
G01*
X3333750Y-6311265D02*
X3533140Y-6111875D01*
X3333750Y-5912485D01*
X3134360Y-6111875D01*
X3333750Y-6311265D01*
X3533140Y-6111875D02*
G75*
G03*
X3533140Y-6111875I-199390J0D01*
G01*
X4527550Y-7136765D02*
X4726940Y-6937375D01*
X4527550Y-6737985D01*
X4328160Y-6937375D01*
X4527550Y-7136765D01*
X4726940Y-6937375D02*
G75*
G03*
X4726940Y-6937375I-199390J0D01*
G01*
X2857500Y-2499390D02*
X3056890Y-2300000D01*
X2857500Y-2100610D01*
X2658110Y-2300000D01*
X2857500Y-2499390D01*
X3056890Y-2300000D02*
G75*
G03*
X3056890Y-2300000I-199390J0D01*
G01*
X25241250Y-8216265D02*
X25440640Y-8016875D01*
X25241250Y-7817485D01*
X25041860Y-8016875D01*
X25241250Y-8216265D01*
X25440640Y-8016875D02*
G75*
G03*
X25440640Y-8016875I-199390J0D01*
G01*
X18573750Y-2501265D02*
X18773140Y-2301875D01*
X18573750Y-2102485D01*
X18374360Y-2301875D01*
X18573750Y-2501265D01*
X18773140Y-2301875D02*
G75*
G03*
X18773140Y-2301875I-199390J0D01*
G01*
X15716250Y-6311265D02*
X15915640Y-6111875D01*
X15716250Y-5912485D01*
X15516860Y-6111875D01*
X15716250Y-6311265D01*
X15915640Y-6111875D02*
G75*
G03*
X15915640Y-6111875I-199390J0D01*
G01*
X9048750Y-2501265D02*
X9248140Y-2301875D01*
X9048750Y-2102485D01*
X8849360Y-2301875D01*
X9048750Y-2501265D01*
X9248140Y-2301875D02*
G75*
G03*
X9248140Y-2301875I-199390J0D01*
G01*
X19050000Y-4406265D02*
X19249390Y-4206875D01*
X19050000Y-4007485D01*
X18850610Y-4206875D01*
X19050000Y-4406265D01*
X19249390Y-4206875D02*
G75*
G03*
X19249390Y-4206875I-199390J0D01*
G01*
X20955000Y-4406265D02*
X21154390Y-4206875D01*
X20955000Y-4007485D01*
X20755610Y-4206875D01*
X20955000Y-4406265D01*
X21154390Y-4206875D02*
G75*
G03*
X21154390Y-4206875I-199390J0D01*
G01*
X22383750Y-2501265D02*
X22583140Y-2301875D01*
X22383750Y-2102485D01*
X22184360Y-2301875D01*
X22383750Y-2501265D01*
X22583140Y-2301875D02*
G75*
G03*
X22583140Y-2301875I-199390J0D01*
G01*
X27146250Y-4406265D02*
X27345640Y-4206875D01*
X27146250Y-4007485D01*
X26946860Y-4206875D01*
X27146250Y-4406265D01*
X27345640Y-4206875D02*
G75*
G03*
X27345640Y-4206875I-199390J0D01*
G01*
X7620000Y-4406265D02*
X7819390Y-4206875D01*
X7620000Y-4007485D01*
X7420610Y-4206875D01*
X7620000Y-4406265D01*
X7819390Y-4206875D02*
G75*
G03*
X7819390Y-4206875I-199390J0D01*
G01*
X10001250Y-6311265D02*
X10200640Y-6111875D01*
X10001250Y-5912485D01*
X9801860Y-6111875D01*
X10001250Y-6311265D01*
X10200640Y-6111875D02*
G75*
G03*
X10200640Y-6111875I-199390J0D01*
G01*
X19526250Y-6311265D02*
X19725640Y-6111875D01*
X19526250Y-5912485D01*
X19326860Y-6111875D01*
X19526250Y-6311265D01*
X19725640Y-6111875D02*
G75*
G03*
X19725640Y-6111875I-199390J0D01*
G01*
X19526250Y-8216265D02*
X19725640Y-8016875D01*
X19526250Y-7817485D01*
X19326860Y-8016875D01*
X19526250Y-8216265D01*
X19725640Y-8016875D02*
G75*
G03*
X19725640Y-8016875I-199390J0D01*
G01*
X22856825Y-5231765D02*
X23056215Y-5032375D01*
X22856825Y-4832985D01*
X22657435Y-5032375D01*
X22856825Y-5231765D01*
X23056215Y-5032375D02*
G75*
G03*
X23056215Y-5032375I-199390J0D01*
G01*
X24050625Y-4406265D02*
X24250015Y-4206875D01*
X24050625Y-4007485D01*
X23851235Y-4206875D01*
X24050625Y-4406265D01*
X24250015Y-4206875D02*
G75*
G03*
X24250015Y-4206875I-199390J0D01*
G01*
X25244425Y-5231765D02*
X25443815Y-5032375D01*
X25244425Y-4832985D01*
X25045035Y-5032375D01*
X25244425Y-5231765D01*
X25443815Y-5032375D02*
G75*
G03*
X25443815Y-5032375I-199390J0D01*
G01*
X4286250Y-8216265D02*
X4485640Y-8016875D01*
X4286250Y-7817485D01*
X4086860Y-8016875D01*
X4286250Y-8216265D01*
X4485640Y-8016875D02*
G75*
G03*
X4485640Y-8016875I-199390J0D01*
G01*
X15240000Y-4406265D02*
X15439390Y-4206875D01*
X15240000Y-4007485D01*
X15040610Y-4206875D01*
X15240000Y-4406265D01*
X15439390Y-4206875D02*
G75*
G03*
X15439390Y-4206875I-199390J0D01*
G01*
X11430000Y-4406265D02*
X11629390Y-4206875D01*
X11430000Y-4007485D01*
X11230610Y-4206875D01*
X11430000Y-4406265D01*
X11629390Y-4206875D02*
G75*
G03*
X11629390Y-4206875I-199390J0D01*
G01*
X15236825Y-7390765D02*
X15436215Y-7191375D01*
X15236825Y-6991985D01*
X15037435Y-7191375D01*
X15236825Y-7390765D01*
X15436215Y-7191375D02*
G75*
G03*
X15436215Y-7191375I-199390J0D01*
G01*
X16430625Y-8216265D02*
X16630015Y-8016875D01*
X16430625Y-7817485D01*
X16231235Y-8016875D01*
X16430625Y-8216265D01*
X16630015Y-8016875D02*
G75*
G03*
X16630015Y-8016875I-199390J0D01*
G01*
X17624425Y-7390765D02*
X17823815Y-7191375D01*
X17624425Y-6991985D01*
X17425035Y-7191375D01*
X17624425Y-7390765D01*
X17823815Y-7191375D02*
G75*
G03*
X17823815Y-7191375I-199390J0D01*
G01*
X23336250Y-8216265D02*
X23535640Y-8016875D01*
X23336250Y-7817485D01*
X23136860Y-8016875D01*
X23336250Y-8216265D01*
X23535640Y-8016875D02*
G75*
G03*
X23535640Y-8016875I-199390J0D01*
G01*
X25241250Y-6311265D02*
X25440640Y-6111875D01*
X25241250Y-5912485D01*
X25041860Y-6111875D01*
X25241250Y-6311265D01*
X25440640Y-6111875D02*
G75*
G03*
X25440640Y-6111875I-199390J0D01*
G01*
X17621250Y-6311265D02*
X17820640Y-6111875D01*
X17621250Y-5912485D01*
X17421860Y-6111875D01*
X17621250Y-6311265D01*
X17820640Y-6111875D02*
G75*
G03*
X17820640Y-6111875I-199390J0D01*
G01*
X9525000Y-4406265D02*
X9724390Y-4206875D01*
X9525000Y-4007485D01*
X9325610Y-4206875D01*
X9525000Y-4406265D01*
X9724390Y-4206875D02*
G75*
G03*
X9724390Y-4206875I-199390J0D01*
G01*
X11906250Y-6311265D02*
X12105640Y-6111875D01*
X11906250Y-5912485D01*
X11706860Y-6111875D01*
X11906250Y-6311265D01*
X12105640Y-6111875D02*
G75*
G03*
X12105640Y-6111875I-199390J0D01*
G01*
X14763750Y-2501265D02*
X14963140Y-2301875D01*
X14763750Y-2102485D01*
X14564360Y-2301875D01*
X14763750Y-2501265D01*
X14963140Y-2301875D02*
G75*
G03*
X14963140Y-2301875I-199390J0D01*
G01*
X27146250Y-8216265D02*
X27345640Y-8016875D01*
X27146250Y-7817485D01*
X26946860Y-8016875D01*
X27146250Y-8216265D01*
X27345640Y-8016875D02*
G75*
G03*
X27345640Y-8016875I-199390J0D01*
G01*
X6191250Y-6311265D02*
X6390640Y-6111875D01*
X6191250Y-5912485D01*
X5991860Y-6111875D01*
X6191250Y-6311265D01*
X6390640Y-6111875D02*
G75*
G03*
X6390640Y-6111875I-199390J0D01*
G01*
X3095625Y-4406265D02*
X3295015Y-4206875D01*
X3095625Y-4007485D01*
X2896235Y-4206875D01*
X3095625Y-4406265D01*
X3295015Y-4206875D02*
G75*
G03*
X3295015Y-4206875I-199390J0D01*
G01*
X21431250Y-8216265D02*
X21630640Y-8016875D01*
X21431250Y-7817485D01*
X21231860Y-8016875D01*
X21431250Y-8216265D01*
X21630640Y-8016875D02*
G75*
G03*
X21630640Y-8016875I-199390J0D01*
G01*
X24765000Y-2501265D02*
X24964390Y-2301875D01*
X24765000Y-2102485D01*
X24565610Y-2301875D01*
X24765000Y-2501265D01*
X24964390Y-2301875D02*
G75*
G03*
X24964390Y-2301875I-199390J0D01*
G01*
X16668750Y-2501265D02*
X16868140Y-2301875D01*
X16668750Y-2102485D01*
X16469360Y-2301875D01*
X16668750Y-2501265D01*
X16868140Y-2301875D02*
G75*
G03*
X16868140Y-2301875I-199390J0D01*
G01*
X6191250Y-8216265D02*
X6390640Y-8016875D01*
X6191250Y-7817485D01*
X5991860Y-8016875D01*
X6191250Y-8216265D01*
X6390640Y-8016875D02*
G75*
G03*
X6390640Y-8016875I-199390J0D01*
G01*
X13811250Y-6311265D02*
X14010640Y-6111875D01*
X13811250Y-5912485D01*
X13611860Y-6111875D01*
X13811250Y-6311265D01*
X14010640Y-6111875D02*
G75*
G03*
X14010640Y-6111875I-199390J0D01*
G01*
X12858750Y-2501265D02*
X13058140Y-2301875D01*
X12858750Y-2102485D01*
X12659360Y-2301875D01*
X12858750Y-2501265D01*
X13058140Y-2301875D02*
G75*
G03*
X13058140Y-2301875I-199390J0D01*
G01*
X10474325Y-7390765D02*
X10673715Y-7191375D01*
X10474325Y-6991985D01*
X10274935Y-7191375D01*
X10474325Y-7390765D01*
X10673715Y-7191375D02*
G75*
G03*
X10673715Y-7191375I-199390J0D01*
G01*
X11668125Y-8216265D02*
X11867515Y-8016875D01*
X11668125Y-7817485D01*
X11468735Y-8016875D01*
X11668125Y-8216265D01*
X11867515Y-8016875D02*
G75*
G03*
X11867515Y-8016875I-199390J0D01*
G01*
X12861925Y-7390765D02*
X13061315Y-7191375D01*
X12861925Y-6991985D01*
X12662535Y-7191375D01*
X12861925Y-7390765D01*
X13061315Y-7191375D02*
G75*
G03*
X13061315Y-7191375I-199390J0D01*
G01*
D12*
X1701428Y-9450714D02*
X1701428Y-9150714D01*
X1772857Y-9150714D01*
X1815714Y-9165000D01*
X1844286Y-9193572D01*
X1858571Y-9222143D01*
X1872857Y-9279286D01*
X1872857Y-9322143D01*
X1858571Y-9379286D01*
X1844286Y-9407857D01*
X1815714Y-9436429D01*
X1772857Y-9450714D01*
X1701428Y-9450714D01*
X2001428Y-9450714D02*
X2001428Y-9250714D01*
X2001428Y-9307857D02*
X2015714Y-9279286D01*
X2030000Y-9265000D01*
X2058571Y-9250714D01*
X2087143Y-9250714D01*
X2187143Y-9450714D02*
X2187143Y-9250714D01*
X2187143Y-9150714D02*
X2172857Y-9165000D01*
X2187143Y-9179286D01*
X2201428Y-9165000D01*
X2187143Y-9150714D01*
X2187143Y-9179286D01*
X2372857Y-9450714D02*
X2344286Y-9436429D01*
X2330000Y-9407857D01*
X2330000Y-9150714D01*
X2530000Y-9450714D02*
X2501428Y-9436429D01*
X2487143Y-9407857D01*
X2487143Y-9150714D01*
X2872857Y-9450714D02*
X2872857Y-9150714D01*
X2972857Y-9365000D01*
X3072857Y-9150714D01*
X3072857Y-9450714D01*
X3344286Y-9450714D02*
X3344286Y-9293572D01*
X3330000Y-9265000D01*
X3301428Y-9250714D01*
X3244286Y-9250714D01*
X3215714Y-9265000D01*
X3344286Y-9436429D02*
X3315714Y-9450714D01*
X3244286Y-9450714D01*
X3215714Y-9436429D01*
X3201428Y-9407857D01*
X3201428Y-9379286D01*
X3215714Y-9350714D01*
X3244286Y-9336429D01*
X3315714Y-9336429D01*
X3344286Y-9322143D01*
X3487143Y-9250714D02*
X3487143Y-9550714D01*
X3487143Y-9265000D02*
X3515714Y-9250714D01*
X3572857Y-9250714D01*
X3601428Y-9265000D01*
X3615714Y-9279286D01*
X3630000Y-9307857D01*
X3630000Y-9393572D01*
X3615714Y-9422143D01*
X3601428Y-9436429D01*
X3572857Y-9450714D01*
X3515714Y-9450714D01*
X3487143Y-9436429D01*
X3758571Y-9422143D02*
X3772857Y-9436429D01*
X3758571Y-9450714D01*
X3744286Y-9436429D01*
X3758571Y-9422143D01*
X3758571Y-9450714D01*
X3758571Y-9265000D02*
X3772857Y-9279286D01*
X3758571Y-9293572D01*
X3744286Y-9279286D01*
X3758571Y-9265000D01*
X3758571Y-9293572D01*
X1375000Y-9925000D02*
X1415000Y-9965000D01*
X1415000Y-9925000D02*
X1375000Y-9965000D01*
X1758571Y-9780714D02*
X1787143Y-9780714D01*
X1815714Y-9795000D01*
X1830000Y-9809286D01*
X1844286Y-9837857D01*
X1858571Y-9895000D01*
X1858571Y-9966429D01*
X1844286Y-10023572D01*
X1830000Y-10052143D01*
X1815714Y-10066429D01*
X1787143Y-10080714D01*
X1758571Y-10080714D01*
X1730000Y-10066429D01*
X1715714Y-10052143D01*
X1701428Y-10023572D01*
X1687143Y-9966429D01*
X1687143Y-9895000D01*
X1701428Y-9837857D01*
X1715714Y-9809286D01*
X1730000Y-9795000D01*
X1758571Y-9780714D01*
X1987143Y-10052143D02*
X2001428Y-10066429D01*
X1987143Y-10080714D01*
X1972857Y-10066429D01*
X1987143Y-10052143D01*
X1987143Y-10080714D01*
X2258571Y-9880714D02*
X2258571Y-10080714D01*
X2187143Y-9766429D02*
X2115714Y-9980714D01*
X2301428Y-9980714D01*
X2472857Y-9780714D02*
X2501428Y-9780714D01*
X2530000Y-9795000D01*
X2544286Y-9809286D01*
X2558571Y-9837857D01*
X2572857Y-9895000D01*
X2572857Y-9966429D01*
X2558571Y-10023572D01*
X2544286Y-10052143D01*
X2530000Y-10066429D01*
X2501428Y-10080714D01*
X2472857Y-10080714D01*
X2444286Y-10066429D01*
X2430000Y-10052143D01*
X2415714Y-10023572D01*
X2401428Y-9966429D01*
X2401428Y-9895000D01*
X2415714Y-9837857D01*
X2430000Y-9809286D01*
X2444286Y-9795000D01*
X2472857Y-9780714D01*
X2701428Y-10080714D02*
X2701428Y-9880714D01*
X2701428Y-9909286D02*
X2715714Y-9895000D01*
X2744286Y-9880714D01*
X2787143Y-9880714D01*
X2815714Y-9895000D01*
X2830000Y-9923572D01*
X2830000Y-10080714D01*
X2830000Y-9923572D02*
X2844286Y-9895000D01*
X2872857Y-9880714D01*
X2915714Y-9880714D01*
X2944286Y-9895000D01*
X2958571Y-9923572D01*
X2958571Y-10080714D01*
X3101428Y-10080714D02*
X3101428Y-9880714D01*
X3101428Y-9909286D02*
X3115714Y-9895000D01*
X3144286Y-9880714D01*
X3187143Y-9880714D01*
X3215714Y-9895000D01*
X3230000Y-9923572D01*
X3230000Y-10080714D01*
X3230000Y-9923572D02*
X3244286Y-9895000D01*
X3272857Y-9880714D01*
X3315714Y-9880714D01*
X3344286Y-9895000D01*
X3358571Y-9923572D01*
X3358571Y-10080714D01*
X3944286Y-9766429D02*
X3687143Y-10152143D01*
X4330000Y-9780714D02*
X4358571Y-9780714D01*
X4387143Y-9795000D01*
X4401428Y-9809286D01*
X4415714Y-9837857D01*
X4430000Y-9895000D01*
X4430000Y-9966429D01*
X4415714Y-10023572D01*
X4401428Y-10052143D01*
X4387143Y-10066429D01*
X4358571Y-10080714D01*
X4330000Y-10080714D01*
X4301428Y-10066429D01*
X4287143Y-10052143D01*
X4272857Y-10023572D01*
X4258571Y-9966429D01*
X4258571Y-9895000D01*
X4272857Y-9837857D01*
X4287143Y-9809286D01*
X4301428Y-9795000D01*
X4330000Y-9780714D01*
X4558571Y-10052143D02*
X4572857Y-10066429D01*
X4558571Y-10080714D01*
X4544286Y-10066429D01*
X4558571Y-10052143D01*
X4558571Y-10080714D01*
X4758571Y-9780714D02*
X4787143Y-9780714D01*
X4815714Y-9795000D01*
X4830000Y-9809286D01*
X4844286Y-9837857D01*
X4858571Y-9895000D01*
X4858571Y-9966429D01*
X4844286Y-10023572D01*
X4830000Y-10052143D01*
X4815714Y-10066429D01*
X4787143Y-10080714D01*
X4758571Y-10080714D01*
X4730000Y-10066429D01*
X4715714Y-10052143D01*
X4701428Y-10023572D01*
X4687143Y-9966429D01*
X4687143Y-9895000D01*
X4701428Y-9837857D01*
X4715714Y-9809286D01*
X4730000Y-9795000D01*
X4758571Y-9780714D01*
X5144286Y-10080714D02*
X4972857Y-10080714D01*
X5058571Y-10080714D02*
X5058571Y-9780714D01*
X5030000Y-9823572D01*
X5001428Y-9852143D01*
X4972857Y-9866429D01*
X5401428Y-9780714D02*
X5344286Y-9780714D01*
X5315714Y-9795000D01*
X5301428Y-9809286D01*
X5272857Y-9852143D01*
X5258571Y-9909286D01*
X5258571Y-10023572D01*
X5272857Y-10052143D01*
X5287143Y-10066429D01*
X5315714Y-10080714D01*
X5372857Y-10080714D01*
X5401428Y-10066429D01*
X5415714Y-10052143D01*
X5430000Y-10023572D01*
X5430000Y-9952143D01*
X5415714Y-9923572D01*
X5401428Y-9909286D01*
X5372857Y-9895000D01*
X5315714Y-9895000D01*
X5287143Y-9909286D01*
X5272857Y-9923572D01*
X5258571Y-9952143D01*
X5544286Y-9780714D02*
X5544286Y-9837857D01*
X5658571Y-9780714D02*
X5658571Y-9837857D01*
X6101428Y-10195000D02*
X6087143Y-10180714D01*
X6058571Y-10137857D01*
X6044286Y-10109286D01*
X6030000Y-10066429D01*
X6015714Y-9995000D01*
X6015714Y-9937857D01*
X6030000Y-9866429D01*
X6044286Y-9823572D01*
X6058571Y-9795000D01*
X6087143Y-9752143D01*
X6101428Y-9737857D01*
X6372857Y-10080714D02*
X6201428Y-10080714D01*
X6287143Y-10080714D02*
X6287143Y-9780714D01*
X6258571Y-9823572D01*
X6230000Y-9852143D01*
X6201428Y-9866429D01*
X6644286Y-9780714D02*
X6501428Y-9780714D01*
X6487143Y-9923572D01*
X6501428Y-9909286D01*
X6530000Y-9895000D01*
X6601428Y-9895000D01*
X6630000Y-9909286D01*
X6644286Y-9923572D01*
X6658571Y-9952143D01*
X6658571Y-10023572D01*
X6644286Y-10052143D01*
X6630000Y-10066429D01*
X6601428Y-10080714D01*
X6530000Y-10080714D01*
X6501428Y-10066429D01*
X6487143Y-10052143D01*
X7015714Y-10080714D02*
X7015714Y-9780714D01*
X7144286Y-10080714D02*
X7144286Y-9923572D01*
X7130000Y-9895000D01*
X7101428Y-9880714D01*
X7058571Y-9880714D01*
X7030000Y-9895000D01*
X7015714Y-9909286D01*
X7330000Y-10080714D02*
X7301428Y-10066429D01*
X7287143Y-10052143D01*
X7272857Y-10023572D01*
X7272857Y-9937857D01*
X7287143Y-9909286D01*
X7301428Y-9895000D01*
X7330000Y-9880714D01*
X7372857Y-9880714D01*
X7401428Y-9895000D01*
X7415714Y-9909286D01*
X7430000Y-9937857D01*
X7430000Y-10023572D01*
X7415714Y-10052143D01*
X7401428Y-10066429D01*
X7372857Y-10080714D01*
X7330000Y-10080714D01*
X7601428Y-10080714D02*
X7572857Y-10066429D01*
X7558571Y-10037857D01*
X7558571Y-9780714D01*
X7830000Y-10066429D02*
X7801428Y-10080714D01*
X7744286Y-10080714D01*
X7715714Y-10066429D01*
X7701428Y-10037857D01*
X7701428Y-9923572D01*
X7715714Y-9895000D01*
X7744286Y-9880714D01*
X7801428Y-9880714D01*
X7830000Y-9895000D01*
X7844286Y-9923572D01*
X7844286Y-9952143D01*
X7701428Y-9980714D01*
X7958571Y-10066429D02*
X7987143Y-10080714D01*
X8044286Y-10080714D01*
X8072857Y-10066429D01*
X8087143Y-10037857D01*
X8087143Y-10023572D01*
X8072857Y-9995000D01*
X8044286Y-9980714D01*
X8001428Y-9980714D01*
X7972857Y-9966429D01*
X7958571Y-9937857D01*
X7958571Y-9923572D01*
X7972857Y-9895000D01*
X8001428Y-9880714D01*
X8044286Y-9880714D01*
X8072857Y-9895000D01*
X8187143Y-10195000D02*
X8201428Y-10180714D01*
X8230000Y-10137857D01*
X8244286Y-10109286D01*
X8258571Y-10066429D01*
X8272857Y-9995000D01*
X8272857Y-9937857D01*
X8258571Y-9866429D01*
X8244286Y-9823572D01*
X8230000Y-9795000D01*
X8201428Y-9752143D01*
X8187143Y-9737857D01*
X1415000Y-10341000D02*
G75*
G03*
X1415000Y-10341000I-35000J0D01*
G01*
X1758571Y-10176714D02*
X1787143Y-10176714D01*
X1815714Y-10191000D01*
X1830000Y-10205286D01*
X1844286Y-10233857D01*
X1858571Y-10291000D01*
X1858571Y-10362429D01*
X1844286Y-10419572D01*
X1830000Y-10448143D01*
X1815714Y-10462429D01*
X1787143Y-10476714D01*
X1758571Y-10476714D01*
X1730000Y-10462429D01*
X1715714Y-10448143D01*
X1701428Y-10419572D01*
X1687143Y-10362429D01*
X1687143Y-10291000D01*
X1701428Y-10233857D01*
X1715714Y-10205286D01*
X1730000Y-10191000D01*
X1758571Y-10176714D01*
X1987143Y-10448143D02*
X2001428Y-10462429D01*
X1987143Y-10476714D01*
X1972857Y-10462429D01*
X1987143Y-10448143D01*
X1987143Y-10476714D01*
X2101428Y-10176714D02*
X2301428Y-10176714D01*
X2172857Y-10476714D01*
X2472857Y-10176714D02*
X2501428Y-10176714D01*
X2530000Y-10191000D01*
X2544286Y-10205286D01*
X2558571Y-10233857D01*
X2572857Y-10291000D01*
X2572857Y-10362429D01*
X2558571Y-10419572D01*
X2544286Y-10448143D01*
X2530000Y-10462429D01*
X2501428Y-10476714D01*
X2472857Y-10476714D01*
X2444286Y-10462429D01*
X2430000Y-10448143D01*
X2415714Y-10419572D01*
X2401428Y-10362429D01*
X2401428Y-10291000D01*
X2415714Y-10233857D01*
X2430000Y-10205286D01*
X2444286Y-10191000D01*
X2472857Y-10176714D01*
X2701428Y-10476714D02*
X2701428Y-10276714D01*
X2701428Y-10305286D02*
X2715714Y-10291000D01*
X2744286Y-10276714D01*
X2787143Y-10276714D01*
X2815714Y-10291000D01*
X2830000Y-10319572D01*
X2830000Y-10476714D01*
X2830000Y-10319572D02*
X2844286Y-10291000D01*
X2872857Y-10276714D01*
X2915714Y-10276714D01*
X2944286Y-10291000D01*
X2958571Y-10319572D01*
X2958571Y-10476714D01*
X3101428Y-10476714D02*
X3101428Y-10276714D01*
X3101428Y-10305286D02*
X3115714Y-10291000D01*
X3144286Y-10276714D01*
X3187143Y-10276714D01*
X3215714Y-10291000D01*
X3230000Y-10319572D01*
X3230000Y-10476714D01*
X3230000Y-10319572D02*
X3244286Y-10291000D01*
X3272857Y-10276714D01*
X3315714Y-10276714D01*
X3344286Y-10291000D01*
X3358571Y-10319572D01*
X3358571Y-10476714D01*
X3944286Y-10162429D02*
X3687143Y-10548143D01*
X4330000Y-10176714D02*
X4358571Y-10176714D01*
X4387143Y-10191000D01*
X4401428Y-10205286D01*
X4415714Y-10233857D01*
X4430000Y-10291000D01*
X4430000Y-10362429D01*
X4415714Y-10419572D01*
X4401428Y-10448143D01*
X4387143Y-10462429D01*
X4358571Y-10476714D01*
X4330000Y-10476714D01*
X4301428Y-10462429D01*
X4287143Y-10448143D01*
X4272857Y-10419572D01*
X4258571Y-10362429D01*
X4258571Y-10291000D01*
X4272857Y-10233857D01*
X4287143Y-10205286D01*
X4301428Y-10191000D01*
X4330000Y-10176714D01*
X4558571Y-10448143D02*
X4572857Y-10462429D01*
X4558571Y-10476714D01*
X4544286Y-10462429D01*
X4558571Y-10448143D01*
X4558571Y-10476714D01*
X4758571Y-10176714D02*
X4787143Y-10176714D01*
X4815714Y-10191000D01*
X4830000Y-10205286D01*
X4844286Y-10233857D01*
X4858571Y-10291000D01*
X4858571Y-10362429D01*
X4844286Y-10419572D01*
X4830000Y-10448143D01*
X4815714Y-10462429D01*
X4787143Y-10476714D01*
X4758571Y-10476714D01*
X4730000Y-10462429D01*
X4715714Y-10448143D01*
X4701428Y-10419572D01*
X4687143Y-10362429D01*
X4687143Y-10291000D01*
X4701428Y-10233857D01*
X4715714Y-10205286D01*
X4730000Y-10191000D01*
X4758571Y-10176714D01*
X4972857Y-10205286D02*
X4987143Y-10191000D01*
X5015714Y-10176714D01*
X5087143Y-10176714D01*
X5115714Y-10191000D01*
X5130000Y-10205286D01*
X5144286Y-10233857D01*
X5144286Y-10262429D01*
X5130000Y-10305286D01*
X4958571Y-10476714D01*
X5144286Y-10476714D01*
X5315714Y-10305286D02*
X5287143Y-10291000D01*
X5272857Y-10276714D01*
X5258571Y-10248143D01*
X5258571Y-10233857D01*
X5272857Y-10205286D01*
X5287143Y-10191000D01*
X5315714Y-10176714D01*
X5372857Y-10176714D01*
X5401428Y-10191000D01*
X5415714Y-10205286D01*
X5430000Y-10233857D01*
X5430000Y-10248143D01*
X5415714Y-10276714D01*
X5401428Y-10291000D01*
X5372857Y-10305286D01*
X5315714Y-10305286D01*
X5287143Y-10319572D01*
X5272857Y-10333857D01*
X5258571Y-10362429D01*
X5258571Y-10419572D01*
X5272857Y-10448143D01*
X5287143Y-10462429D01*
X5315714Y-10476714D01*
X5372857Y-10476714D01*
X5401428Y-10462429D01*
X5415714Y-10448143D01*
X5430000Y-10419572D01*
X5430000Y-10362429D01*
X5415714Y-10333857D01*
X5401428Y-10319572D01*
X5372857Y-10305286D01*
X5544286Y-10176714D02*
X5544286Y-10233857D01*
X5658571Y-10176714D02*
X5658571Y-10233857D01*
X6101428Y-10591000D02*
X6087143Y-10576714D01*
X6058571Y-10533857D01*
X6044286Y-10505286D01*
X6030000Y-10462429D01*
X6015714Y-10391000D01*
X6015714Y-10333857D01*
X6030000Y-10262429D01*
X6044286Y-10219572D01*
X6058571Y-10191000D01*
X6087143Y-10148143D01*
X6101428Y-10133857D01*
X6372857Y-10476714D02*
X6201428Y-10476714D01*
X6287143Y-10476714D02*
X6287143Y-10176714D01*
X6258571Y-10219572D01*
X6230000Y-10248143D01*
X6201428Y-10262429D01*
X6558571Y-10176714D02*
X6587143Y-10176714D01*
X6615714Y-10191000D01*
X6630000Y-10205286D01*
X6644286Y-10233857D01*
X6658571Y-10291000D01*
X6658571Y-10362429D01*
X6644286Y-10419572D01*
X6630000Y-10448143D01*
X6615714Y-10462429D01*
X6587143Y-10476714D01*
X6558571Y-10476714D01*
X6530000Y-10462429D01*
X6515714Y-10448143D01*
X6501428Y-10419572D01*
X6487143Y-10362429D01*
X6487143Y-10291000D01*
X6501428Y-10233857D01*
X6515714Y-10205286D01*
X6530000Y-10191000D01*
X6558571Y-10176714D01*
X6758571Y-10176714D02*
X6958571Y-10176714D01*
X6830000Y-10476714D01*
X7301428Y-10476714D02*
X7301428Y-10176714D01*
X7430000Y-10476714D02*
X7430000Y-10319572D01*
X7415714Y-10291000D01*
X7387143Y-10276714D01*
X7344286Y-10276714D01*
X7315714Y-10291000D01*
X7301428Y-10305286D01*
X7615714Y-10476714D02*
X7587143Y-10462429D01*
X7572857Y-10448143D01*
X7558571Y-10419572D01*
X7558571Y-10333857D01*
X7572857Y-10305286D01*
X7587143Y-10291000D01*
X7615714Y-10276714D01*
X7658571Y-10276714D01*
X7687143Y-10291000D01*
X7701428Y-10305286D01*
X7715714Y-10333857D01*
X7715714Y-10419572D01*
X7701428Y-10448143D01*
X7687143Y-10462429D01*
X7658571Y-10476714D01*
X7615714Y-10476714D01*
X7887143Y-10476714D02*
X7858571Y-10462429D01*
X7844286Y-10433857D01*
X7844286Y-10176714D01*
X8115714Y-10462429D02*
X8087143Y-10476714D01*
X8030000Y-10476714D01*
X8001428Y-10462429D01*
X7987143Y-10433857D01*
X7987143Y-10319572D01*
X8001428Y-10291000D01*
X8030000Y-10276714D01*
X8087143Y-10276714D01*
X8115714Y-10291000D01*
X8130000Y-10319572D01*
X8130000Y-10348143D01*
X7987143Y-10376714D01*
X8244286Y-10462429D02*
X8272857Y-10476714D01*
X8330000Y-10476714D01*
X8358571Y-10462429D01*
X8372857Y-10433857D01*
X8372857Y-10419572D01*
X8358571Y-10391000D01*
X8330000Y-10376714D01*
X8287143Y-10376714D01*
X8258571Y-10362429D01*
X8244286Y-10333857D01*
X8244286Y-10319572D01*
X8258571Y-10291000D01*
X8287143Y-10276714D01*
X8330000Y-10276714D01*
X8358571Y-10291000D01*
X8472857Y-10591000D02*
X8487143Y-10576714D01*
X8515714Y-10533857D01*
X8530000Y-10505286D01*
X8544286Y-10462429D01*
X8558571Y-10391000D01*
X8558571Y-10333857D01*
X8544286Y-10262429D01*
X8530000Y-10219572D01*
X8515714Y-10191000D01*
X8487143Y-10148143D01*
X8472857Y-10133857D01*
X1376900Y-10698900D02*
X1376900Y-10775100D01*
X1338800Y-10737000D02*
X1415000Y-10737000D01*
X1758571Y-10572714D02*
X1787143Y-10572714D01*
X1815714Y-10587000D01*
X1830000Y-10601286D01*
X1844286Y-10629857D01*
X1858571Y-10687000D01*
X1858571Y-10758429D01*
X1844286Y-10815572D01*
X1830000Y-10844143D01*
X1815714Y-10858429D01*
X1787143Y-10872714D01*
X1758571Y-10872714D01*
X1730000Y-10858429D01*
X1715714Y-10844143D01*
X1701428Y-10815572D01*
X1687143Y-10758429D01*
X1687143Y-10687000D01*
X1701428Y-10629857D01*
X1715714Y-10601286D01*
X1730000Y-10587000D01*
X1758571Y-10572714D01*
X1987143Y-10844143D02*
X2001428Y-10858429D01*
X1987143Y-10872714D01*
X1972857Y-10858429D01*
X1987143Y-10844143D01*
X1987143Y-10872714D01*
X2101428Y-10572714D02*
X2301428Y-10572714D01*
X2172857Y-10872714D01*
X2544286Y-10572714D02*
X2487143Y-10572714D01*
X2458571Y-10587000D01*
X2444286Y-10601286D01*
X2415714Y-10644143D01*
X2401428Y-10701286D01*
X2401428Y-10815572D01*
X2415714Y-10844143D01*
X2430000Y-10858429D01*
X2458571Y-10872714D01*
X2515714Y-10872714D01*
X2544286Y-10858429D01*
X2558571Y-10844143D01*
X2572857Y-10815572D01*
X2572857Y-10744143D01*
X2558571Y-10715572D01*
X2544286Y-10701286D01*
X2515714Y-10687000D01*
X2458571Y-10687000D01*
X2430000Y-10701286D01*
X2415714Y-10715572D01*
X2401428Y-10744143D01*
X2701428Y-10872714D02*
X2701428Y-10672714D01*
X2701428Y-10701286D02*
X2715714Y-10687000D01*
X2744286Y-10672714D01*
X2787143Y-10672714D01*
X2815714Y-10687000D01*
X2830000Y-10715572D01*
X2830000Y-10872714D01*
X2830000Y-10715572D02*
X2844286Y-10687000D01*
X2872857Y-10672714D01*
X2915714Y-10672714D01*
X2944286Y-10687000D01*
X2958571Y-10715572D01*
X2958571Y-10872714D01*
X3101428Y-10872714D02*
X3101428Y-10672714D01*
X3101428Y-10701286D02*
X3115714Y-10687000D01*
X3144286Y-10672714D01*
X3187143Y-10672714D01*
X3215714Y-10687000D01*
X3230000Y-10715572D01*
X3230000Y-10872714D01*
X3230000Y-10715572D02*
X3244286Y-10687000D01*
X3272857Y-10672714D01*
X3315714Y-10672714D01*
X3344286Y-10687000D01*
X3358571Y-10715572D01*
X3358571Y-10872714D01*
X3944286Y-10558429D02*
X3687143Y-10944143D01*
X4330000Y-10572714D02*
X4358571Y-10572714D01*
X4387143Y-10587000D01*
X4401428Y-10601286D01*
X4415714Y-10629857D01*
X4430000Y-10687000D01*
X4430000Y-10758429D01*
X4415714Y-10815572D01*
X4401428Y-10844143D01*
X4387143Y-10858429D01*
X4358571Y-10872714D01*
X4330000Y-10872714D01*
X4301428Y-10858429D01*
X4287143Y-10844143D01*
X4272857Y-10815572D01*
X4258571Y-10758429D01*
X4258571Y-10687000D01*
X4272857Y-10629857D01*
X4287143Y-10601286D01*
X4301428Y-10587000D01*
X4330000Y-10572714D01*
X4558571Y-10844143D02*
X4572857Y-10858429D01*
X4558571Y-10872714D01*
X4544286Y-10858429D01*
X4558571Y-10844143D01*
X4558571Y-10872714D01*
X4758571Y-10572714D02*
X4787143Y-10572714D01*
X4815714Y-10587000D01*
X4830000Y-10601286D01*
X4844286Y-10629857D01*
X4858571Y-10687000D01*
X4858571Y-10758429D01*
X4844286Y-10815572D01*
X4830000Y-10844143D01*
X4815714Y-10858429D01*
X4787143Y-10872714D01*
X4758571Y-10872714D01*
X4730000Y-10858429D01*
X4715714Y-10844143D01*
X4701428Y-10815572D01*
X4687143Y-10758429D01*
X4687143Y-10687000D01*
X4701428Y-10629857D01*
X4715714Y-10601286D01*
X4730000Y-10587000D01*
X4758571Y-10572714D01*
X4958571Y-10572714D02*
X5144286Y-10572714D01*
X5044286Y-10687000D01*
X5087143Y-10687000D01*
X5115714Y-10701286D01*
X5130000Y-10715572D01*
X5144286Y-10744143D01*
X5144286Y-10815572D01*
X5130000Y-10844143D01*
X5115714Y-10858429D01*
X5087143Y-10872714D01*
X5001428Y-10872714D01*
X4972857Y-10858429D01*
X4958571Y-10844143D01*
X5330000Y-10572714D02*
X5358571Y-10572714D01*
X5387143Y-10587000D01*
X5401428Y-10601286D01*
X5415714Y-10629857D01*
X5430000Y-10687000D01*
X5430000Y-10758429D01*
X5415714Y-10815572D01*
X5401428Y-10844143D01*
X5387143Y-10858429D01*
X5358571Y-10872714D01*
X5330000Y-10872714D01*
X5301428Y-10858429D01*
X5287143Y-10844143D01*
X5272857Y-10815572D01*
X5258571Y-10758429D01*
X5258571Y-10687000D01*
X5272857Y-10629857D01*
X5287143Y-10601286D01*
X5301428Y-10587000D01*
X5330000Y-10572714D01*
X5544286Y-10572714D02*
X5544286Y-10629857D01*
X5658571Y-10572714D02*
X5658571Y-10629857D01*
X6101428Y-10987000D02*
X6087143Y-10972714D01*
X6058571Y-10929857D01*
X6044286Y-10901286D01*
X6030000Y-10858429D01*
X6015714Y-10787000D01*
X6015714Y-10729857D01*
X6030000Y-10658429D01*
X6044286Y-10615572D01*
X6058571Y-10587000D01*
X6087143Y-10544143D01*
X6101428Y-10529857D01*
X6358571Y-10572714D02*
X6215714Y-10572714D01*
X6201428Y-10715572D01*
X6215714Y-10701286D01*
X6244286Y-10687000D01*
X6315714Y-10687000D01*
X6344286Y-10701286D01*
X6358571Y-10715572D01*
X6372857Y-10744143D01*
X6372857Y-10815572D01*
X6358571Y-10844143D01*
X6344286Y-10858429D01*
X6315714Y-10872714D01*
X6244286Y-10872714D01*
X6215714Y-10858429D01*
X6201428Y-10844143D01*
X6730000Y-10872714D02*
X6730000Y-10572714D01*
X6858571Y-10872714D02*
X6858571Y-10715572D01*
X6844286Y-10687000D01*
X6815714Y-10672714D01*
X6772857Y-10672714D01*
X6744286Y-10687000D01*
X6730000Y-10701286D01*
X7044286Y-10872714D02*
X7015714Y-10858429D01*
X7001428Y-10844143D01*
X6987143Y-10815572D01*
X6987143Y-10729857D01*
X7001428Y-10701286D01*
X7015714Y-10687000D01*
X7044286Y-10672714D01*
X7087143Y-10672714D01*
X7115714Y-10687000D01*
X7130000Y-10701286D01*
X7144286Y-10729857D01*
X7144286Y-10815572D01*
X7130000Y-10844143D01*
X7115714Y-10858429D01*
X7087143Y-10872714D01*
X7044286Y-10872714D01*
X7315714Y-10872714D02*
X7287143Y-10858429D01*
X7272857Y-10829857D01*
X7272857Y-10572714D01*
X7544286Y-10858429D02*
X7515714Y-10872714D01*
X7458571Y-10872714D01*
X7430000Y-10858429D01*
X7415714Y-10829857D01*
X7415714Y-10715572D01*
X7430000Y-10687000D01*
X7458571Y-10672714D01*
X7515714Y-10672714D01*
X7544286Y-10687000D01*
X7558571Y-10715572D01*
X7558571Y-10744143D01*
X7415714Y-10772714D01*
X7672857Y-10858429D02*
X7701428Y-10872714D01*
X7758571Y-10872714D01*
X7787143Y-10858429D01*
X7801428Y-10829857D01*
X7801428Y-10815572D01*
X7787143Y-10787000D01*
X7758571Y-10772714D01*
X7715714Y-10772714D01*
X7687143Y-10758429D01*
X7672857Y-10729857D01*
X7672857Y-10715572D01*
X7687143Y-10687000D01*
X7715714Y-10672714D01*
X7758571Y-10672714D01*
X7787143Y-10687000D01*
X7901428Y-10987000D02*
X7915714Y-10972714D01*
X7944286Y-10929857D01*
X7958571Y-10901286D01*
X7972857Y-10858429D01*
X7987143Y-10787000D01*
X7987143Y-10729857D01*
X7972857Y-10658429D01*
X7958571Y-10615572D01*
X7944286Y-10587000D01*
X7915714Y-10544143D01*
X7901428Y-10529857D01*
X1403284Y-11161285D02*
X1403284Y-11104716D01*
X1346715Y-11104716D01*
X1346715Y-11161285D01*
X1403284Y-11161285D01*
X1758571Y-10968714D02*
X1787143Y-10968714D01*
X1815714Y-10983000D01*
X1830000Y-10997286D01*
X1844286Y-11025857D01*
X1858571Y-11083000D01*
X1858571Y-11154429D01*
X1844286Y-11211571D01*
X1830000Y-11240143D01*
X1815714Y-11254429D01*
X1787143Y-11268714D01*
X1758571Y-11268714D01*
X1730000Y-11254429D01*
X1715714Y-11240143D01*
X1701428Y-11211571D01*
X1687143Y-11154429D01*
X1687143Y-11083000D01*
X1701428Y-11025857D01*
X1715714Y-10997286D01*
X1730000Y-10983000D01*
X1758571Y-10968714D01*
X1987143Y-11240143D02*
X2001428Y-11254429D01*
X1987143Y-11268714D01*
X1972857Y-11254429D01*
X1987143Y-11240143D01*
X1987143Y-11268714D01*
X2172857Y-11097286D02*
X2144286Y-11083000D01*
X2130000Y-11068714D01*
X2115714Y-11040143D01*
X2115714Y-11025857D01*
X2130000Y-10997286D01*
X2144286Y-10983000D01*
X2172857Y-10968714D01*
X2230000Y-10968714D01*
X2258571Y-10983000D01*
X2272857Y-10997286D01*
X2287143Y-11025857D01*
X2287143Y-11040143D01*
X2272857Y-11068714D01*
X2258571Y-11083000D01*
X2230000Y-11097286D01*
X2172857Y-11097286D01*
X2144286Y-11111572D01*
X2130000Y-11125857D01*
X2115714Y-11154429D01*
X2115714Y-11211571D01*
X2130000Y-11240143D01*
X2144286Y-11254429D01*
X2172857Y-11268714D01*
X2230000Y-11268714D01*
X2258571Y-11254429D01*
X2272857Y-11240143D01*
X2287143Y-11211571D01*
X2287143Y-11154429D01*
X2272857Y-11125857D01*
X2258571Y-11111572D01*
X2230000Y-11097286D01*
X2472857Y-10968714D02*
X2501428Y-10968714D01*
X2530000Y-10983000D01*
X2544286Y-10997286D01*
X2558571Y-11025857D01*
X2572857Y-11083000D01*
X2572857Y-11154429D01*
X2558571Y-11211571D01*
X2544286Y-11240143D01*
X2530000Y-11254429D01*
X2501428Y-11268714D01*
X2472857Y-11268714D01*
X2444286Y-11254429D01*
X2430000Y-11240143D01*
X2415714Y-11211571D01*
X2401428Y-11154429D01*
X2401428Y-11083000D01*
X2415714Y-11025857D01*
X2430000Y-10997286D01*
X2444286Y-10983000D01*
X2472857Y-10968714D01*
X2701428Y-11268714D02*
X2701428Y-11068714D01*
X2701428Y-11097286D02*
X2715714Y-11083000D01*
X2744286Y-11068714D01*
X2787143Y-11068714D01*
X2815714Y-11083000D01*
X2830000Y-11111572D01*
X2830000Y-11268714D01*
X2830000Y-11111572D02*
X2844286Y-11083000D01*
X2872857Y-11068714D01*
X2915714Y-11068714D01*
X2944286Y-11083000D01*
X2958571Y-11111572D01*
X2958571Y-11268714D01*
X3101428Y-11268714D02*
X3101428Y-11068714D01*
X3101428Y-11097286D02*
X3115714Y-11083000D01*
X3144286Y-11068714D01*
X3187143Y-11068714D01*
X3215714Y-11083000D01*
X3230000Y-11111572D01*
X3230000Y-11268714D01*
X3230000Y-11111572D02*
X3244286Y-11083000D01*
X3272857Y-11068714D01*
X3315714Y-11068714D01*
X3344286Y-11083000D01*
X3358571Y-11111572D01*
X3358571Y-11268714D01*
X3944286Y-10954429D02*
X3687143Y-11340143D01*
X4330000Y-10968714D02*
X4358571Y-10968714D01*
X4387143Y-10983000D01*
X4401428Y-10997286D01*
X4415714Y-11025857D01*
X4430000Y-11083000D01*
X4430000Y-11154429D01*
X4415714Y-11211571D01*
X4401428Y-11240143D01*
X4387143Y-11254429D01*
X4358571Y-11268714D01*
X4330000Y-11268714D01*
X4301428Y-11254429D01*
X4287143Y-11240143D01*
X4272857Y-11211571D01*
X4258571Y-11154429D01*
X4258571Y-11083000D01*
X4272857Y-11025857D01*
X4287143Y-10997286D01*
X4301428Y-10983000D01*
X4330000Y-10968714D01*
X4558571Y-11240143D02*
X4572857Y-11254429D01*
X4558571Y-11268714D01*
X4544286Y-11254429D01*
X4558571Y-11240143D01*
X4558571Y-11268714D01*
X4758571Y-10968714D02*
X4787143Y-10968714D01*
X4815714Y-10983000D01*
X4830000Y-10997286D01*
X4844286Y-11025857D01*
X4858571Y-11083000D01*
X4858571Y-11154429D01*
X4844286Y-11211571D01*
X4830000Y-11240143D01*
X4815714Y-11254429D01*
X4787143Y-11268714D01*
X4758571Y-11268714D01*
X4730000Y-11254429D01*
X4715714Y-11240143D01*
X4701428Y-11211571D01*
X4687143Y-11154429D01*
X4687143Y-11083000D01*
X4701428Y-11025857D01*
X4715714Y-10997286D01*
X4730000Y-10983000D01*
X4758571Y-10968714D01*
X4958571Y-10968714D02*
X5144286Y-10968714D01*
X5044286Y-11083000D01*
X5087143Y-11083000D01*
X5115714Y-11097286D01*
X5130000Y-11111572D01*
X5144286Y-11140143D01*
X5144286Y-11211571D01*
X5130000Y-11240143D01*
X5115714Y-11254429D01*
X5087143Y-11268714D01*
X5001428Y-11268714D01*
X4972857Y-11254429D01*
X4958571Y-11240143D01*
X5430000Y-11268714D02*
X5258571Y-11268714D01*
X5344286Y-11268714D02*
X5344286Y-10968714D01*
X5315714Y-11011572D01*
X5287143Y-11040143D01*
X5258571Y-11054429D01*
X5544286Y-10968714D02*
X5544286Y-11025857D01*
X5658571Y-10968714D02*
X5658571Y-11025857D01*
X6101428Y-11383000D02*
X6087143Y-11368714D01*
X6058571Y-11325857D01*
X6044286Y-11297286D01*
X6030000Y-11254429D01*
X6015714Y-11183000D01*
X6015714Y-11125857D01*
X6030000Y-11054429D01*
X6044286Y-11011572D01*
X6058571Y-10983000D01*
X6087143Y-10940143D01*
X6101428Y-10925857D01*
X6230000Y-11268714D02*
X6287143Y-11268714D01*
X6315714Y-11254429D01*
X6330000Y-11240143D01*
X6358571Y-11197286D01*
X6372857Y-11140143D01*
X6372857Y-11025857D01*
X6358571Y-10997286D01*
X6344286Y-10983000D01*
X6315714Y-10968714D01*
X6258571Y-10968714D01*
X6230000Y-10983000D01*
X6215714Y-10997286D01*
X6201428Y-11025857D01*
X6201428Y-11097286D01*
X6215714Y-11125857D01*
X6230000Y-11140143D01*
X6258571Y-11154429D01*
X6315714Y-11154429D01*
X6344286Y-11140143D01*
X6358571Y-11125857D01*
X6372857Y-11097286D01*
X6544286Y-11097286D02*
X6515714Y-11083000D01*
X6501428Y-11068714D01*
X6487143Y-11040143D01*
X6487143Y-11025857D01*
X6501428Y-10997286D01*
X6515714Y-10983000D01*
X6544286Y-10968714D01*
X6601428Y-10968714D01*
X6630000Y-10983000D01*
X6644286Y-10997286D01*
X6658571Y-11025857D01*
X6658571Y-11040143D01*
X6644286Y-11068714D01*
X6630000Y-11083000D01*
X6601428Y-11097286D01*
X6544286Y-11097286D01*
X6515714Y-11111572D01*
X6501428Y-11125857D01*
X6487143Y-11154429D01*
X6487143Y-11211571D01*
X6501428Y-11240143D01*
X6515714Y-11254429D01*
X6544286Y-11268714D01*
X6601428Y-11268714D01*
X6630000Y-11254429D01*
X6644286Y-11240143D01*
X6658571Y-11211571D01*
X6658571Y-11154429D01*
X6644286Y-11125857D01*
X6630000Y-11111572D01*
X6601428Y-11097286D01*
X7015714Y-11268714D02*
X7015714Y-10968714D01*
X7144286Y-11268714D02*
X7144286Y-11111572D01*
X7130000Y-11083000D01*
X7101428Y-11068714D01*
X7058571Y-11068714D01*
X7030000Y-11083000D01*
X7015714Y-11097286D01*
X7330000Y-11268714D02*
X7301428Y-11254429D01*
X7287143Y-11240143D01*
X7272857Y-11211571D01*
X7272857Y-11125857D01*
X7287143Y-11097286D01*
X7301428Y-11083000D01*
X7330000Y-11068714D01*
X7372857Y-11068714D01*
X7401428Y-11083000D01*
X7415714Y-11097286D01*
X7430000Y-11125857D01*
X7430000Y-11211571D01*
X7415714Y-11240143D01*
X7401428Y-11254429D01*
X7372857Y-11268714D01*
X7330000Y-11268714D01*
X7601428Y-11268714D02*
X7572857Y-11254429D01*
X7558571Y-11225857D01*
X7558571Y-10968714D01*
X7830000Y-11254429D02*
X7801428Y-11268714D01*
X7744286Y-11268714D01*
X7715714Y-11254429D01*
X7701428Y-11225857D01*
X7701428Y-11111572D01*
X7715714Y-11083000D01*
X7744286Y-11068714D01*
X7801428Y-11068714D01*
X7830000Y-11083000D01*
X7844286Y-11111572D01*
X7844286Y-11140143D01*
X7701428Y-11168714D01*
X7958571Y-11254429D02*
X7987143Y-11268714D01*
X8044286Y-11268714D01*
X8072857Y-11254429D01*
X8087143Y-11225857D01*
X8087143Y-11211571D01*
X8072857Y-11183000D01*
X8044286Y-11168714D01*
X8001428Y-11168714D01*
X7972857Y-11154429D01*
X7958571Y-11125857D01*
X7958571Y-11111572D01*
X7972857Y-11083000D01*
X8001428Y-11068714D01*
X8044286Y-11068714D01*
X8072857Y-11083000D01*
X8444286Y-11154429D02*
X8672857Y-11154429D01*
X8558571Y-11268714D02*
X8558571Y-11040143D01*
X9172857Y-11068714D02*
X9172857Y-11268714D01*
X9101428Y-10954429D02*
X9030000Y-11168714D01*
X9215714Y-11168714D01*
X9544286Y-11254429D02*
X9572857Y-11268714D01*
X9630000Y-11268714D01*
X9658571Y-11254429D01*
X9672857Y-11225857D01*
X9672857Y-11211571D01*
X9658571Y-11183000D01*
X9630000Y-11168714D01*
X9587143Y-11168714D01*
X9558571Y-11154429D01*
X9544286Y-11125857D01*
X9544286Y-11111572D01*
X9558571Y-11083000D01*
X9587143Y-11068714D01*
X9630000Y-11068714D01*
X9658571Y-11083000D01*
X9844286Y-11268714D02*
X9815714Y-11254429D01*
X9801428Y-11225857D01*
X9801428Y-10968714D01*
X10001428Y-11268714D02*
X9972857Y-11254429D01*
X9958571Y-11240143D01*
X9944286Y-11211571D01*
X9944286Y-11125857D01*
X9958571Y-11097286D01*
X9972857Y-11083000D01*
X10001428Y-11068714D01*
X10044286Y-11068714D01*
X10072857Y-11083000D01*
X10087143Y-11097286D01*
X10101428Y-11125857D01*
X10101428Y-11211571D01*
X10087143Y-11240143D01*
X10072857Y-11254429D01*
X10044286Y-11268714D01*
X10001428Y-11268714D01*
X10187143Y-11068714D02*
X10301428Y-11068714D01*
X10230000Y-10968714D02*
X10230000Y-11225857D01*
X10244286Y-11254429D01*
X10272857Y-11268714D01*
X10301428Y-11268714D01*
X10387143Y-11254429D02*
X10415714Y-11268714D01*
X10472857Y-11268714D01*
X10501428Y-11254429D01*
X10515714Y-11225857D01*
X10515714Y-11211571D01*
X10501428Y-11183000D01*
X10472857Y-11168714D01*
X10430000Y-11168714D01*
X10401428Y-11154429D01*
X10387143Y-11125857D01*
X10387143Y-11111572D01*
X10401428Y-11083000D01*
X10430000Y-11068714D01*
X10472857Y-11068714D01*
X10501428Y-11083000D01*
X10615714Y-11383000D02*
X10630000Y-11368714D01*
X10658571Y-11325857D01*
X10672857Y-11297286D01*
X10687143Y-11254429D01*
X10701428Y-11183000D01*
X10701428Y-11125857D01*
X10687143Y-11054429D01*
X10672857Y-11011572D01*
X10658571Y-10983000D01*
X10630000Y-10940143D01*
X10615714Y-10925857D01*
X1365470Y-11578530D02*
X1415000Y-11529000D01*
X1365470Y-11479470D01*
X1315940Y-11529000D01*
X1365470Y-11578530D01*
X1758571Y-11364714D02*
X1787143Y-11364714D01*
X1815714Y-11379000D01*
X1830000Y-11393286D01*
X1844286Y-11421857D01*
X1858571Y-11479000D01*
X1858571Y-11550429D01*
X1844286Y-11607571D01*
X1830000Y-11636143D01*
X1815714Y-11650429D01*
X1787143Y-11664714D01*
X1758571Y-11664714D01*
X1730000Y-11650429D01*
X1715714Y-11636143D01*
X1701428Y-11607571D01*
X1687143Y-11550429D01*
X1687143Y-11479000D01*
X1701428Y-11421857D01*
X1715714Y-11393286D01*
X1730000Y-11379000D01*
X1758571Y-11364714D01*
X1987143Y-11636143D02*
X2001428Y-11650429D01*
X1987143Y-11664714D01*
X1972857Y-11650429D01*
X1987143Y-11636143D01*
X1987143Y-11664714D01*
X2144286Y-11664714D02*
X2201428Y-11664714D01*
X2230000Y-11650429D01*
X2244286Y-11636143D01*
X2272857Y-11593286D01*
X2287143Y-11536143D01*
X2287143Y-11421857D01*
X2272857Y-11393286D01*
X2258571Y-11379000D01*
X2230000Y-11364714D01*
X2172857Y-11364714D01*
X2144286Y-11379000D01*
X2130000Y-11393286D01*
X2115714Y-11421857D01*
X2115714Y-11493286D01*
X2130000Y-11521857D01*
X2144286Y-11536143D01*
X2172857Y-11550429D01*
X2230000Y-11550429D01*
X2258571Y-11536143D01*
X2272857Y-11521857D01*
X2287143Y-11493286D01*
X2430000Y-11664714D02*
X2487143Y-11664714D01*
X2515714Y-11650429D01*
X2530000Y-11636143D01*
X2558571Y-11593286D01*
X2572857Y-11536143D01*
X2572857Y-11421857D01*
X2558571Y-11393286D01*
X2544286Y-11379000D01*
X2515714Y-11364714D01*
X2458571Y-11364714D01*
X2430000Y-11379000D01*
X2415714Y-11393286D01*
X2401428Y-11421857D01*
X2401428Y-11493286D01*
X2415714Y-11521857D01*
X2430000Y-11536143D01*
X2458571Y-11550429D01*
X2515714Y-11550429D01*
X2544286Y-11536143D01*
X2558571Y-11521857D01*
X2572857Y-11493286D01*
X2701428Y-11664714D02*
X2701428Y-11464714D01*
X2701428Y-11493286D02*
X2715714Y-11479000D01*
X2744286Y-11464714D01*
X2787143Y-11464714D01*
X2815714Y-11479000D01*
X2830000Y-11507571D01*
X2830000Y-11664714D01*
X2830000Y-11507571D02*
X2844286Y-11479000D01*
X2872857Y-11464714D01*
X2915714Y-11464714D01*
X2944286Y-11479000D01*
X2958571Y-11507571D01*
X2958571Y-11664714D01*
X3101428Y-11664714D02*
X3101428Y-11464714D01*
X3101428Y-11493286D02*
X3115714Y-11479000D01*
X3144286Y-11464714D01*
X3187143Y-11464714D01*
X3215714Y-11479000D01*
X3230000Y-11507571D01*
X3230000Y-11664714D01*
X3230000Y-11507571D02*
X3244286Y-11479000D01*
X3272857Y-11464714D01*
X3315714Y-11464714D01*
X3344286Y-11479000D01*
X3358571Y-11507571D01*
X3358571Y-11664714D01*
X3944286Y-11350429D02*
X3687143Y-11736143D01*
X4330000Y-11364714D02*
X4358571Y-11364714D01*
X4387143Y-11379000D01*
X4401428Y-11393286D01*
X4415714Y-11421857D01*
X4430000Y-11479000D01*
X4430000Y-11550429D01*
X4415714Y-11607571D01*
X4401428Y-11636143D01*
X4387143Y-11650429D01*
X4358571Y-11664714D01*
X4330000Y-11664714D01*
X4301428Y-11650429D01*
X4287143Y-11636143D01*
X4272857Y-11607571D01*
X4258571Y-11550429D01*
X4258571Y-11479000D01*
X4272857Y-11421857D01*
X4287143Y-11393286D01*
X4301428Y-11379000D01*
X4330000Y-11364714D01*
X4558571Y-11636143D02*
X4572857Y-11650429D01*
X4558571Y-11664714D01*
X4544286Y-11650429D01*
X4558571Y-11636143D01*
X4558571Y-11664714D01*
X4758571Y-11364714D02*
X4787143Y-11364714D01*
X4815714Y-11379000D01*
X4830000Y-11393286D01*
X4844286Y-11421857D01*
X4858571Y-11479000D01*
X4858571Y-11550429D01*
X4844286Y-11607571D01*
X4830000Y-11636143D01*
X4815714Y-11650429D01*
X4787143Y-11664714D01*
X4758571Y-11664714D01*
X4730000Y-11650429D01*
X4715714Y-11636143D01*
X4701428Y-11607571D01*
X4687143Y-11550429D01*
X4687143Y-11479000D01*
X4701428Y-11421857D01*
X4715714Y-11393286D01*
X4730000Y-11379000D01*
X4758571Y-11364714D01*
X4958571Y-11364714D02*
X5144286Y-11364714D01*
X5044286Y-11479000D01*
X5087143Y-11479000D01*
X5115714Y-11493286D01*
X5130000Y-11507571D01*
X5144286Y-11536143D01*
X5144286Y-11607571D01*
X5130000Y-11636143D01*
X5115714Y-11650429D01*
X5087143Y-11664714D01*
X5001428Y-11664714D01*
X4972857Y-11650429D01*
X4958571Y-11636143D01*
X5287143Y-11664714D02*
X5344286Y-11664714D01*
X5372857Y-11650429D01*
X5387143Y-11636143D01*
X5415714Y-11593286D01*
X5430000Y-11536143D01*
X5430000Y-11421857D01*
X5415714Y-11393286D01*
X5401428Y-11379000D01*
X5372857Y-11364714D01*
X5315714Y-11364714D01*
X5287143Y-11379000D01*
X5272857Y-11393286D01*
X5258571Y-11421857D01*
X5258571Y-11493286D01*
X5272857Y-11521857D01*
X5287143Y-11536143D01*
X5315714Y-11550429D01*
X5372857Y-11550429D01*
X5401428Y-11536143D01*
X5415714Y-11521857D01*
X5430000Y-11493286D01*
X5544286Y-11364714D02*
X5544286Y-11421857D01*
X5658571Y-11364714D02*
X5658571Y-11421857D01*
X6101428Y-11779000D02*
X6087143Y-11764714D01*
X6058571Y-11721857D01*
X6044286Y-11693286D01*
X6030000Y-11650429D01*
X6015714Y-11579000D01*
X6015714Y-11521857D01*
X6030000Y-11450429D01*
X6044286Y-11407571D01*
X6058571Y-11379000D01*
X6087143Y-11336143D01*
X6101428Y-11321857D01*
X6344286Y-11464714D02*
X6344286Y-11664714D01*
X6272857Y-11350429D02*
X6201428Y-11564714D01*
X6387143Y-11564714D01*
X6515714Y-11664714D02*
X6572857Y-11664714D01*
X6601428Y-11650429D01*
X6615714Y-11636143D01*
X6644286Y-11593286D01*
X6658571Y-11536143D01*
X6658571Y-11421857D01*
X6644286Y-11393286D01*
X6630000Y-11379000D01*
X6601428Y-11364714D01*
X6544286Y-11364714D01*
X6515714Y-11379000D01*
X6501428Y-11393286D01*
X6487143Y-11421857D01*
X6487143Y-11493286D01*
X6501428Y-11521857D01*
X6515714Y-11536143D01*
X6544286Y-11550429D01*
X6601428Y-11550429D01*
X6630000Y-11536143D01*
X6644286Y-11521857D01*
X6658571Y-11493286D01*
X7015714Y-11664714D02*
X7015714Y-11364714D01*
X7144286Y-11664714D02*
X7144286Y-11507571D01*
X7130000Y-11479000D01*
X7101428Y-11464714D01*
X7058571Y-11464714D01*
X7030000Y-11479000D01*
X7015714Y-11493286D01*
X7330000Y-11664714D02*
X7301428Y-11650429D01*
X7287143Y-11636143D01*
X7272857Y-11607571D01*
X7272857Y-11521857D01*
X7287143Y-11493286D01*
X7301428Y-11479000D01*
X7330000Y-11464714D01*
X7372857Y-11464714D01*
X7401428Y-11479000D01*
X7415714Y-11493286D01*
X7430000Y-11521857D01*
X7430000Y-11607571D01*
X7415714Y-11636143D01*
X7401428Y-11650429D01*
X7372857Y-11664714D01*
X7330000Y-11664714D01*
X7601428Y-11664714D02*
X7572857Y-11650429D01*
X7558571Y-11621857D01*
X7558571Y-11364714D01*
X7830000Y-11650429D02*
X7801428Y-11664714D01*
X7744286Y-11664714D01*
X7715714Y-11650429D01*
X7701428Y-11621857D01*
X7701428Y-11507571D01*
X7715714Y-11479000D01*
X7744286Y-11464714D01*
X7801428Y-11464714D01*
X7830000Y-11479000D01*
X7844286Y-11507571D01*
X7844286Y-11536143D01*
X7701428Y-11564714D01*
X7958571Y-11650429D02*
X7987143Y-11664714D01*
X8044286Y-11664714D01*
X8072857Y-11650429D01*
X8087143Y-11621857D01*
X8087143Y-11607571D01*
X8072857Y-11579000D01*
X8044286Y-11564714D01*
X8001428Y-11564714D01*
X7972857Y-11550429D01*
X7958571Y-11521857D01*
X7958571Y-11507571D01*
X7972857Y-11479000D01*
X8001428Y-11464714D01*
X8044286Y-11464714D01*
X8072857Y-11479000D01*
X8187143Y-11779000D02*
X8201428Y-11764714D01*
X8230000Y-11721857D01*
X8244286Y-11693286D01*
X8258571Y-11650429D01*
X8272857Y-11579000D01*
X8272857Y-11521857D01*
X8258571Y-11450429D01*
X8244286Y-11407571D01*
X8230000Y-11379000D01*
X8201428Y-11336143D01*
X8187143Y-11321857D01*
X1313400Y-11874200D02*
X1415000Y-11975800D01*
X1415000Y-11874200D02*
X1313400Y-11975800D01*
X1415000Y-11925000D02*
G75*
G03*
X1415000Y-11925000I-50800J0D01*
G01*
X1858571Y-12060714D02*
X1687143Y-12060714D01*
X1772857Y-12060714D02*
X1772857Y-11760714D01*
X1744286Y-11803571D01*
X1715714Y-11832143D01*
X1687143Y-11846429D01*
X1987143Y-12032143D02*
X2001428Y-12046429D01*
X1987143Y-12060714D01*
X1972857Y-12046429D01*
X1987143Y-12032143D01*
X1987143Y-12060714D01*
X2187143Y-11760714D02*
X2215714Y-11760714D01*
X2244286Y-11775000D01*
X2258571Y-11789286D01*
X2272857Y-11817857D01*
X2287143Y-11875000D01*
X2287143Y-11946429D01*
X2272857Y-12003571D01*
X2258571Y-12032143D01*
X2244286Y-12046429D01*
X2215714Y-12060714D01*
X2187143Y-12060714D01*
X2158571Y-12046429D01*
X2144286Y-12032143D01*
X2130000Y-12003571D01*
X2115714Y-11946429D01*
X2115714Y-11875000D01*
X2130000Y-11817857D01*
X2144286Y-11789286D01*
X2158571Y-11775000D01*
X2187143Y-11760714D01*
X2401428Y-11789286D02*
X2415714Y-11775000D01*
X2444286Y-11760714D01*
X2515714Y-11760714D01*
X2544286Y-11775000D01*
X2558571Y-11789286D01*
X2572857Y-11817857D01*
X2572857Y-11846429D01*
X2558571Y-11889286D01*
X2387143Y-12060714D01*
X2572857Y-12060714D01*
X2701428Y-12060714D02*
X2701428Y-11860714D01*
X2701428Y-11889286D02*
X2715714Y-11875000D01*
X2744286Y-11860714D01*
X2787143Y-11860714D01*
X2815714Y-11875000D01*
X2830000Y-11903571D01*
X2830000Y-12060714D01*
X2830000Y-11903571D02*
X2844286Y-11875000D01*
X2872857Y-11860714D01*
X2915714Y-11860714D01*
X2944286Y-11875000D01*
X2958571Y-11903571D01*
X2958571Y-12060714D01*
X3101428Y-12060714D02*
X3101428Y-11860714D01*
X3101428Y-11889286D02*
X3115714Y-11875000D01*
X3144286Y-11860714D01*
X3187143Y-11860714D01*
X3215714Y-11875000D01*
X3230000Y-11903571D01*
X3230000Y-12060714D01*
X3230000Y-11903571D02*
X3244286Y-11875000D01*
X3272857Y-11860714D01*
X3315714Y-11860714D01*
X3344286Y-11875000D01*
X3358571Y-11903571D01*
X3358571Y-12060714D01*
X3944286Y-11746429D02*
X3687143Y-12132143D01*
X4330000Y-11760714D02*
X4358571Y-11760714D01*
X4387143Y-11775000D01*
X4401428Y-11789286D01*
X4415714Y-11817857D01*
X4430000Y-11875000D01*
X4430000Y-11946429D01*
X4415714Y-12003571D01*
X4401428Y-12032143D01*
X4387143Y-12046429D01*
X4358571Y-12060714D01*
X4330000Y-12060714D01*
X4301428Y-12046429D01*
X4287143Y-12032143D01*
X4272857Y-12003571D01*
X4258571Y-11946429D01*
X4258571Y-11875000D01*
X4272857Y-11817857D01*
X4287143Y-11789286D01*
X4301428Y-11775000D01*
X4330000Y-11760714D01*
X4558571Y-12032143D02*
X4572857Y-12046429D01*
X4558571Y-12060714D01*
X4544286Y-12046429D01*
X4558571Y-12032143D01*
X4558571Y-12060714D01*
X4758571Y-11760714D02*
X4787143Y-11760714D01*
X4815714Y-11775000D01*
X4830000Y-11789286D01*
X4844286Y-11817857D01*
X4858571Y-11875000D01*
X4858571Y-11946429D01*
X4844286Y-12003571D01*
X4830000Y-12032143D01*
X4815714Y-12046429D01*
X4787143Y-12060714D01*
X4758571Y-12060714D01*
X4730000Y-12046429D01*
X4715714Y-12032143D01*
X4701428Y-12003571D01*
X4687143Y-11946429D01*
X4687143Y-11875000D01*
X4701428Y-11817857D01*
X4715714Y-11789286D01*
X4730000Y-11775000D01*
X4758571Y-11760714D01*
X5115714Y-11860714D02*
X5115714Y-12060714D01*
X5044286Y-11746429D02*
X4972857Y-11960714D01*
X5158571Y-11960714D01*
X5330000Y-11760714D02*
X5358571Y-11760714D01*
X5387143Y-11775000D01*
X5401428Y-11789286D01*
X5415714Y-11817857D01*
X5430000Y-11875000D01*
X5430000Y-11946429D01*
X5415714Y-12003571D01*
X5401428Y-12032143D01*
X5387143Y-12046429D01*
X5358571Y-12060714D01*
X5330000Y-12060714D01*
X5301428Y-12046429D01*
X5287143Y-12032143D01*
X5272857Y-12003571D01*
X5258571Y-11946429D01*
X5258571Y-11875000D01*
X5272857Y-11817857D01*
X5287143Y-11789286D01*
X5301428Y-11775000D01*
X5330000Y-11760714D01*
X5544286Y-11760714D02*
X5544286Y-11817857D01*
X5658571Y-11760714D02*
X5658571Y-11817857D01*
X6101428Y-12175000D02*
X6087143Y-12160714D01*
X6058571Y-12117857D01*
X6044286Y-12089286D01*
X6030000Y-12046429D01*
X6015714Y-11975000D01*
X6015714Y-11917857D01*
X6030000Y-11846429D01*
X6044286Y-11803571D01*
X6058571Y-11775000D01*
X6087143Y-11732143D01*
X6101428Y-11717857D01*
X6187143Y-11760714D02*
X6387143Y-11760714D01*
X6258571Y-12060714D01*
X6472857Y-11760714D02*
X6658571Y-11760714D01*
X6558571Y-11875000D01*
X6601428Y-11875000D01*
X6630000Y-11889286D01*
X6644286Y-11903571D01*
X6658571Y-11932143D01*
X6658571Y-12003571D01*
X6644286Y-12032143D01*
X6630000Y-12046429D01*
X6601428Y-12060714D01*
X6515714Y-12060714D01*
X6487143Y-12046429D01*
X6472857Y-12032143D01*
X7015714Y-12060714D02*
X7015714Y-11760714D01*
X7144286Y-12060714D02*
X7144286Y-11903571D01*
X7130000Y-11875000D01*
X7101428Y-11860714D01*
X7058571Y-11860714D01*
X7030000Y-11875000D01*
X7015714Y-11889286D01*
X7330000Y-12060714D02*
X7301428Y-12046429D01*
X7287143Y-12032143D01*
X7272857Y-12003571D01*
X7272857Y-11917857D01*
X7287143Y-11889286D01*
X7301428Y-11875000D01*
X7330000Y-11860714D01*
X7372857Y-11860714D01*
X7401428Y-11875000D01*
X7415714Y-11889286D01*
X7430000Y-11917857D01*
X7430000Y-12003571D01*
X7415714Y-12032143D01*
X7401428Y-12046429D01*
X7372857Y-12060714D01*
X7330000Y-12060714D01*
X7601428Y-12060714D02*
X7572857Y-12046429D01*
X7558571Y-12017857D01*
X7558571Y-11760714D01*
X7830000Y-12046429D02*
X7801428Y-12060714D01*
X7744286Y-12060714D01*
X7715714Y-12046429D01*
X7701428Y-12017857D01*
X7701428Y-11903571D01*
X7715714Y-11875000D01*
X7744286Y-11860714D01*
X7801428Y-11860714D01*
X7830000Y-11875000D01*
X7844286Y-11903571D01*
X7844286Y-11932143D01*
X7701428Y-11960714D01*
X7958571Y-12046429D02*
X7987143Y-12060714D01*
X8044286Y-12060714D01*
X8072857Y-12046429D01*
X8087143Y-12017857D01*
X8087143Y-12003571D01*
X8072857Y-11975000D01*
X8044286Y-11960714D01*
X8001428Y-11960714D01*
X7972857Y-11946429D01*
X7958571Y-11917857D01*
X7958571Y-11903571D01*
X7972857Y-11875000D01*
X8001428Y-11860714D01*
X8044286Y-11860714D01*
X8072857Y-11875000D01*
X8187143Y-12175000D02*
X8201428Y-12160714D01*
X8230000Y-12117857D01*
X8244286Y-12089286D01*
X8258571Y-12046429D01*
X8272857Y-11975000D01*
X8272857Y-11917857D01*
X8258571Y-11846429D01*
X8244286Y-11803571D01*
X8230000Y-11775000D01*
X8201428Y-11732143D01*
X8187143Y-11717857D01*
X1305000Y-12266000D02*
X1415000Y-12376000D01*
X1415000Y-12266000D02*
X1305000Y-12376000D01*
X1360000Y-12266000D02*
X1360000Y-12376000D01*
X1305000Y-12321000D02*
X1415000Y-12321000D01*
X1858571Y-12456714D02*
X1687143Y-12456714D01*
X1772857Y-12456714D02*
X1772857Y-12156714D01*
X1744286Y-12199571D01*
X1715714Y-12228143D01*
X1687143Y-12242429D01*
X1987143Y-12428143D02*
X2001428Y-12442429D01*
X1987143Y-12456714D01*
X1972857Y-12442429D01*
X1987143Y-12428143D01*
X1987143Y-12456714D01*
X2287143Y-12456714D02*
X2115714Y-12456714D01*
X2201428Y-12456714D02*
X2201428Y-12156714D01*
X2172857Y-12199571D01*
X2144286Y-12228143D01*
X2115714Y-12242429D01*
X2472857Y-12156714D02*
X2501428Y-12156714D01*
X2530000Y-12171000D01*
X2544286Y-12185286D01*
X2558571Y-12213857D01*
X2572857Y-12271000D01*
X2572857Y-12342429D01*
X2558571Y-12399571D01*
X2544286Y-12428143D01*
X2530000Y-12442429D01*
X2501428Y-12456714D01*
X2472857Y-12456714D01*
X2444286Y-12442429D01*
X2430000Y-12428143D01*
X2415714Y-12399571D01*
X2401428Y-12342429D01*
X2401428Y-12271000D01*
X2415714Y-12213857D01*
X2430000Y-12185286D01*
X2444286Y-12171000D01*
X2472857Y-12156714D01*
X2701428Y-12456714D02*
X2701428Y-12256714D01*
X2701428Y-12285286D02*
X2715714Y-12271000D01*
X2744286Y-12256714D01*
X2787143Y-12256714D01*
X2815714Y-12271000D01*
X2830000Y-12299571D01*
X2830000Y-12456714D01*
X2830000Y-12299571D02*
X2844286Y-12271000D01*
X2872857Y-12256714D01*
X2915714Y-12256714D01*
X2944286Y-12271000D01*
X2958571Y-12299571D01*
X2958571Y-12456714D01*
X3101428Y-12456714D02*
X3101428Y-12256714D01*
X3101428Y-12285286D02*
X3115714Y-12271000D01*
X3144286Y-12256714D01*
X3187143Y-12256714D01*
X3215714Y-12271000D01*
X3230000Y-12299571D01*
X3230000Y-12456714D01*
X3230000Y-12299571D02*
X3244286Y-12271000D01*
X3272857Y-12256714D01*
X3315714Y-12256714D01*
X3344286Y-12271000D01*
X3358571Y-12299571D01*
X3358571Y-12456714D01*
X3944286Y-12142429D02*
X3687143Y-12528143D01*
X4330000Y-12156714D02*
X4358571Y-12156714D01*
X4387143Y-12171000D01*
X4401428Y-12185286D01*
X4415714Y-12213857D01*
X4430000Y-12271000D01*
X4430000Y-12342429D01*
X4415714Y-12399571D01*
X4401428Y-12428143D01*
X4387143Y-12442429D01*
X4358571Y-12456714D01*
X4330000Y-12456714D01*
X4301428Y-12442429D01*
X4287143Y-12428143D01*
X4272857Y-12399571D01*
X4258571Y-12342429D01*
X4258571Y-12271000D01*
X4272857Y-12213857D01*
X4287143Y-12185286D01*
X4301428Y-12171000D01*
X4330000Y-12156714D01*
X4558571Y-12428143D02*
X4572857Y-12442429D01*
X4558571Y-12456714D01*
X4544286Y-12442429D01*
X4558571Y-12428143D01*
X4558571Y-12456714D01*
X4758571Y-12156714D02*
X4787143Y-12156714D01*
X4815714Y-12171000D01*
X4830000Y-12185286D01*
X4844286Y-12213857D01*
X4858571Y-12271000D01*
X4858571Y-12342429D01*
X4844286Y-12399571D01*
X4830000Y-12428143D01*
X4815714Y-12442429D01*
X4787143Y-12456714D01*
X4758571Y-12456714D01*
X4730000Y-12442429D01*
X4715714Y-12428143D01*
X4701428Y-12399571D01*
X4687143Y-12342429D01*
X4687143Y-12271000D01*
X4701428Y-12213857D01*
X4715714Y-12185286D01*
X4730000Y-12171000D01*
X4758571Y-12156714D01*
X5115714Y-12256714D02*
X5115714Y-12456714D01*
X5044286Y-12142429D02*
X4972857Y-12356714D01*
X5158571Y-12356714D01*
X5244286Y-12156714D02*
X5430000Y-12156714D01*
X5330000Y-12271000D01*
X5372857Y-12271000D01*
X5401428Y-12285286D01*
X5415714Y-12299571D01*
X5430000Y-12328143D01*
X5430000Y-12399571D01*
X5415714Y-12428143D01*
X5401428Y-12442429D01*
X5372857Y-12456714D01*
X5287143Y-12456714D01*
X5258571Y-12442429D01*
X5244286Y-12428143D01*
X5544286Y-12156714D02*
X5544286Y-12213857D01*
X5658571Y-12156714D02*
X5658571Y-12213857D01*
X6101428Y-12571000D02*
X6087143Y-12556714D01*
X6058571Y-12513857D01*
X6044286Y-12485286D01*
X6030000Y-12442429D01*
X6015714Y-12371000D01*
X6015714Y-12313857D01*
X6030000Y-12242429D01*
X6044286Y-12199571D01*
X6058571Y-12171000D01*
X6087143Y-12128143D01*
X6101428Y-12113857D01*
X6344286Y-12256714D02*
X6344286Y-12456714D01*
X6272857Y-12142429D02*
X6201428Y-12356714D01*
X6387143Y-12356714D01*
X6730000Y-12456714D02*
X6730000Y-12156714D01*
X6858571Y-12456714D02*
X6858571Y-12299571D01*
X6844286Y-12271000D01*
X6815714Y-12256714D01*
X6772857Y-12256714D01*
X6744286Y-12271000D01*
X6730000Y-12285286D01*
X7044286Y-12456714D02*
X7015714Y-12442429D01*
X7001428Y-12428143D01*
X6987143Y-12399571D01*
X6987143Y-12313857D01*
X7001428Y-12285286D01*
X7015714Y-12271000D01*
X7044286Y-12256714D01*
X7087143Y-12256714D01*
X7115714Y-12271000D01*
X7130000Y-12285286D01*
X7144286Y-12313857D01*
X7144286Y-12399571D01*
X7130000Y-12428143D01*
X7115714Y-12442429D01*
X7087143Y-12456714D01*
X7044286Y-12456714D01*
X7315714Y-12456714D02*
X7287143Y-12442429D01*
X7272857Y-12413857D01*
X7272857Y-12156714D01*
X7544286Y-12442429D02*
X7515714Y-12456714D01*
X7458571Y-12456714D01*
X7430000Y-12442429D01*
X7415714Y-12413857D01*
X7415714Y-12299571D01*
X7430000Y-12271000D01*
X7458571Y-12256714D01*
X7515714Y-12256714D01*
X7544286Y-12271000D01*
X7558571Y-12299571D01*
X7558571Y-12328143D01*
X7415714Y-12356714D01*
X7672857Y-12442429D02*
X7701428Y-12456714D01*
X7758571Y-12456714D01*
X7787143Y-12442429D01*
X7801428Y-12413857D01*
X7801428Y-12399571D01*
X7787143Y-12371000D01*
X7758571Y-12356714D01*
X7715714Y-12356714D01*
X7687143Y-12342429D01*
X7672857Y-12313857D01*
X7672857Y-12299571D01*
X7687143Y-12271000D01*
X7715714Y-12256714D01*
X7758571Y-12256714D01*
X7787143Y-12271000D01*
X7901428Y-12571000D02*
X7915714Y-12556714D01*
X7944286Y-12513857D01*
X7958571Y-12485286D01*
X7972857Y-12442429D01*
X7987143Y-12371000D01*
X7987143Y-12313857D01*
X7972857Y-12242429D01*
X7958571Y-12199571D01*
X7944286Y-12171000D01*
X7915714Y-12128143D01*
X7901428Y-12113857D01*
X1262600Y-12640800D02*
X1415000Y-12793200D01*
X1415000Y-12640800D02*
X1262600Y-12793200D01*
X1392682Y-12770882D02*
X1392682Y-12663118D01*
X1284918Y-12663118D01*
X1284918Y-12770882D01*
X1392682Y-12770882D01*
X1858571Y-12852714D02*
X1687143Y-12852714D01*
X1772857Y-12852714D02*
X1772857Y-12552714D01*
X1744286Y-12595571D01*
X1715714Y-12624143D01*
X1687143Y-12638429D01*
X1987143Y-12824143D02*
X2001428Y-12838429D01*
X1987143Y-12852714D01*
X1972857Y-12838429D01*
X1987143Y-12824143D01*
X1987143Y-12852714D01*
X2272857Y-12552714D02*
X2130000Y-12552714D01*
X2115714Y-12695571D01*
X2130000Y-12681286D01*
X2158571Y-12667000D01*
X2230000Y-12667000D01*
X2258571Y-12681286D01*
X2272857Y-12695571D01*
X2287143Y-12724143D01*
X2287143Y-12795571D01*
X2272857Y-12824143D01*
X2258571Y-12838429D01*
X2230000Y-12852714D01*
X2158571Y-12852714D01*
X2130000Y-12838429D01*
X2115714Y-12824143D01*
X2401428Y-12581286D02*
X2415714Y-12567000D01*
X2444286Y-12552714D01*
X2515714Y-12552714D01*
X2544286Y-12567000D01*
X2558571Y-12581286D01*
X2572857Y-12609857D01*
X2572857Y-12638429D01*
X2558571Y-12681286D01*
X2387143Y-12852714D01*
X2572857Y-12852714D01*
X2701428Y-12852714D02*
X2701428Y-12652714D01*
X2701428Y-12681286D02*
X2715714Y-12667000D01*
X2744286Y-12652714D01*
X2787143Y-12652714D01*
X2815714Y-12667000D01*
X2830000Y-12695571D01*
X2830000Y-12852714D01*
X2830000Y-12695571D02*
X2844286Y-12667000D01*
X2872857Y-12652714D01*
X2915714Y-12652714D01*
X2944286Y-12667000D01*
X2958571Y-12695571D01*
X2958571Y-12852714D01*
X3101428Y-12852714D02*
X3101428Y-12652714D01*
X3101428Y-12681286D02*
X3115714Y-12667000D01*
X3144286Y-12652714D01*
X3187143Y-12652714D01*
X3215714Y-12667000D01*
X3230000Y-12695571D01*
X3230000Y-12852714D01*
X3230000Y-12695571D02*
X3244286Y-12667000D01*
X3272857Y-12652714D01*
X3315714Y-12652714D01*
X3344286Y-12667000D01*
X3358571Y-12695571D01*
X3358571Y-12852714D01*
X3944286Y-12538429D02*
X3687143Y-12924143D01*
X4330000Y-12552714D02*
X4358571Y-12552714D01*
X4387143Y-12567000D01*
X4401428Y-12581286D01*
X4415714Y-12609857D01*
X4430000Y-12667000D01*
X4430000Y-12738429D01*
X4415714Y-12795571D01*
X4401428Y-12824143D01*
X4387143Y-12838429D01*
X4358571Y-12852714D01*
X4330000Y-12852714D01*
X4301428Y-12838429D01*
X4287143Y-12824143D01*
X4272857Y-12795571D01*
X4258571Y-12738429D01*
X4258571Y-12667000D01*
X4272857Y-12609857D01*
X4287143Y-12581286D01*
X4301428Y-12567000D01*
X4330000Y-12552714D01*
X4558571Y-12824143D02*
X4572857Y-12838429D01*
X4558571Y-12852714D01*
X4544286Y-12838429D01*
X4558571Y-12824143D01*
X4558571Y-12852714D01*
X4758571Y-12552714D02*
X4787143Y-12552714D01*
X4815714Y-12567000D01*
X4830000Y-12581286D01*
X4844286Y-12609857D01*
X4858571Y-12667000D01*
X4858571Y-12738429D01*
X4844286Y-12795571D01*
X4830000Y-12824143D01*
X4815714Y-12838429D01*
X4787143Y-12852714D01*
X4758571Y-12852714D01*
X4730000Y-12838429D01*
X4715714Y-12824143D01*
X4701428Y-12795571D01*
X4687143Y-12738429D01*
X4687143Y-12667000D01*
X4701428Y-12609857D01*
X4715714Y-12581286D01*
X4730000Y-12567000D01*
X4758571Y-12552714D01*
X5115714Y-12552714D02*
X5058571Y-12552714D01*
X5030000Y-12567000D01*
X5015714Y-12581286D01*
X4987143Y-12624143D01*
X4972857Y-12681286D01*
X4972857Y-12795571D01*
X4987143Y-12824143D01*
X5001428Y-12838429D01*
X5030000Y-12852714D01*
X5087143Y-12852714D01*
X5115714Y-12838429D01*
X5130000Y-12824143D01*
X5144286Y-12795571D01*
X5144286Y-12724143D01*
X5130000Y-12695571D01*
X5115714Y-12681286D01*
X5087143Y-12667000D01*
X5030000Y-12667000D01*
X5001428Y-12681286D01*
X4987143Y-12695571D01*
X4972857Y-12724143D01*
X5330000Y-12552714D02*
X5358571Y-12552714D01*
X5387143Y-12567000D01*
X5401428Y-12581286D01*
X5415714Y-12609857D01*
X5430000Y-12667000D01*
X5430000Y-12738429D01*
X5415714Y-12795571D01*
X5401428Y-12824143D01*
X5387143Y-12838429D01*
X5358571Y-12852714D01*
X5330000Y-12852714D01*
X5301428Y-12838429D01*
X5287143Y-12824143D01*
X5272857Y-12795571D01*
X5258571Y-12738429D01*
X5258571Y-12667000D01*
X5272857Y-12609857D01*
X5287143Y-12581286D01*
X5301428Y-12567000D01*
X5330000Y-12552714D01*
X5544286Y-12552714D02*
X5544286Y-12609857D01*
X5658571Y-12552714D02*
X5658571Y-12609857D01*
X6101428Y-12967000D02*
X6087143Y-12952714D01*
X6058571Y-12909857D01*
X6044286Y-12881286D01*
X6030000Y-12838429D01*
X6015714Y-12767000D01*
X6015714Y-12709857D01*
X6030000Y-12638429D01*
X6044286Y-12595571D01*
X6058571Y-12567000D01*
X6087143Y-12524143D01*
X6101428Y-12509857D01*
X6372857Y-12852714D02*
X6201428Y-12852714D01*
X6287143Y-12852714D02*
X6287143Y-12552714D01*
X6258571Y-12595571D01*
X6230000Y-12624143D01*
X6201428Y-12638429D01*
X6630000Y-12652714D02*
X6630000Y-12852714D01*
X6558571Y-12538429D02*
X6487143Y-12752714D01*
X6672857Y-12752714D01*
X7015714Y-12852714D02*
X7015714Y-12552714D01*
X7144286Y-12852714D02*
X7144286Y-12695571D01*
X7130000Y-12667000D01*
X7101428Y-12652714D01*
X7058571Y-12652714D01*
X7030000Y-12667000D01*
X7015714Y-12681286D01*
X7330000Y-12852714D02*
X7301428Y-12838429D01*
X7287143Y-12824143D01*
X7272857Y-12795571D01*
X7272857Y-12709857D01*
X7287143Y-12681286D01*
X7301428Y-12667000D01*
X7330000Y-12652714D01*
X7372857Y-12652714D01*
X7401428Y-12667000D01*
X7415714Y-12681286D01*
X7430000Y-12709857D01*
X7430000Y-12795571D01*
X7415714Y-12824143D01*
X7401428Y-12838429D01*
X7372857Y-12852714D01*
X7330000Y-12852714D01*
X7601428Y-12852714D02*
X7572857Y-12838429D01*
X7558571Y-12809857D01*
X7558571Y-12552714D01*
X7830000Y-12838429D02*
X7801428Y-12852714D01*
X7744286Y-12852714D01*
X7715714Y-12838429D01*
X7701428Y-12809857D01*
X7701428Y-12695571D01*
X7715714Y-12667000D01*
X7744286Y-12652714D01*
X7801428Y-12652714D01*
X7830000Y-12667000D01*
X7844286Y-12695571D01*
X7844286Y-12724143D01*
X7701428Y-12752714D01*
X7958571Y-12838429D02*
X7987143Y-12852714D01*
X8044286Y-12852714D01*
X8072857Y-12838429D01*
X8087143Y-12809857D01*
X8087143Y-12795571D01*
X8072857Y-12767000D01*
X8044286Y-12752714D01*
X8001428Y-12752714D01*
X7972857Y-12738429D01*
X7958571Y-12709857D01*
X7958571Y-12695571D01*
X7972857Y-12667000D01*
X8001428Y-12652714D01*
X8044286Y-12652714D01*
X8072857Y-12667000D01*
X8187143Y-12967000D02*
X8201428Y-12952714D01*
X8230000Y-12909857D01*
X8244286Y-12881286D01*
X8258571Y-12838429D01*
X8272857Y-12767000D01*
X8272857Y-12709857D01*
X8258571Y-12638429D01*
X8244286Y-12595571D01*
X8230000Y-12567000D01*
X8201428Y-12524143D01*
X8187143Y-12509857D01*
X1262500Y-13036750D02*
X1415000Y-13189250D01*
X1415000Y-13036750D02*
X1262500Y-13189250D01*
X1338750Y-13189250D02*
X1415000Y-13113000D01*
X1338750Y-13036750D01*
X1262500Y-13113000D01*
X1338750Y-13189250D01*
X1858571Y-13248714D02*
X1687143Y-13248714D01*
X1772857Y-13248714D02*
X1772857Y-12948714D01*
X1744286Y-12991571D01*
X1715714Y-13020143D01*
X1687143Y-13034429D01*
X1987143Y-13220143D02*
X2001428Y-13234429D01*
X1987143Y-13248714D01*
X1972857Y-13234429D01*
X1987143Y-13220143D01*
X1987143Y-13248714D01*
X2272857Y-12948714D02*
X2130000Y-12948714D01*
X2115714Y-13091571D01*
X2130000Y-13077286D01*
X2158571Y-13063000D01*
X2230000Y-13063000D01*
X2258571Y-13077286D01*
X2272857Y-13091571D01*
X2287143Y-13120143D01*
X2287143Y-13191571D01*
X2272857Y-13220143D01*
X2258571Y-13234429D01*
X2230000Y-13248714D01*
X2158571Y-13248714D01*
X2130000Y-13234429D01*
X2115714Y-13220143D01*
X2401428Y-12977286D02*
X2415714Y-12963000D01*
X2444286Y-12948714D01*
X2515714Y-12948714D01*
X2544286Y-12963000D01*
X2558571Y-12977286D01*
X2572857Y-13005857D01*
X2572857Y-13034429D01*
X2558571Y-13077286D01*
X2387143Y-13248714D01*
X2572857Y-13248714D01*
X2701428Y-13248714D02*
X2701428Y-13048714D01*
X2701428Y-13077286D02*
X2715714Y-13063000D01*
X2744286Y-13048714D01*
X2787143Y-13048714D01*
X2815714Y-13063000D01*
X2830000Y-13091571D01*
X2830000Y-13248714D01*
X2830000Y-13091571D02*
X2844286Y-13063000D01*
X2872857Y-13048714D01*
X2915714Y-13048714D01*
X2944286Y-13063000D01*
X2958571Y-13091571D01*
X2958571Y-13248714D01*
X3101428Y-13248714D02*
X3101428Y-13048714D01*
X3101428Y-13077286D02*
X3115714Y-13063000D01*
X3144286Y-13048714D01*
X3187143Y-13048714D01*
X3215714Y-13063000D01*
X3230000Y-13091571D01*
X3230000Y-13248714D01*
X3230000Y-13091571D02*
X3244286Y-13063000D01*
X3272857Y-13048714D01*
X3315714Y-13048714D01*
X3344286Y-13063000D01*
X3358571Y-13091571D01*
X3358571Y-13248714D01*
X3944286Y-12934429D02*
X3687143Y-13320143D01*
X4330000Y-12948714D02*
X4358571Y-12948714D01*
X4387143Y-12963000D01*
X4401428Y-12977286D01*
X4415714Y-13005857D01*
X4430000Y-13063000D01*
X4430000Y-13134429D01*
X4415714Y-13191571D01*
X4401428Y-13220143D01*
X4387143Y-13234429D01*
X4358571Y-13248714D01*
X4330000Y-13248714D01*
X4301428Y-13234429D01*
X4287143Y-13220143D01*
X4272857Y-13191571D01*
X4258571Y-13134429D01*
X4258571Y-13063000D01*
X4272857Y-13005857D01*
X4287143Y-12977286D01*
X4301428Y-12963000D01*
X4330000Y-12948714D01*
X4558571Y-13220143D02*
X4572857Y-13234429D01*
X4558571Y-13248714D01*
X4544286Y-13234429D01*
X4558571Y-13220143D01*
X4558571Y-13248714D01*
X4758571Y-12948714D02*
X4787143Y-12948714D01*
X4815714Y-12963000D01*
X4830000Y-12977286D01*
X4844286Y-13005857D01*
X4858571Y-13063000D01*
X4858571Y-13134429D01*
X4844286Y-13191571D01*
X4830000Y-13220143D01*
X4815714Y-13234429D01*
X4787143Y-13248714D01*
X4758571Y-13248714D01*
X4730000Y-13234429D01*
X4715714Y-13220143D01*
X4701428Y-13191571D01*
X4687143Y-13134429D01*
X4687143Y-13063000D01*
X4701428Y-13005857D01*
X4715714Y-12977286D01*
X4730000Y-12963000D01*
X4758571Y-12948714D01*
X5115714Y-12948714D02*
X5058571Y-12948714D01*
X5030000Y-12963000D01*
X5015714Y-12977286D01*
X4987143Y-13020143D01*
X4972857Y-13077286D01*
X4972857Y-13191571D01*
X4987143Y-13220143D01*
X5001428Y-13234429D01*
X5030000Y-13248714D01*
X5087143Y-13248714D01*
X5115714Y-13234429D01*
X5130000Y-13220143D01*
X5144286Y-13191571D01*
X5144286Y-13120143D01*
X5130000Y-13091571D01*
X5115714Y-13077286D01*
X5087143Y-13063000D01*
X5030000Y-13063000D01*
X5001428Y-13077286D01*
X4987143Y-13091571D01*
X4972857Y-13120143D01*
X5330000Y-12948714D02*
X5358571Y-12948714D01*
X5387143Y-12963000D01*
X5401428Y-12977286D01*
X5415714Y-13005857D01*
X5430000Y-13063000D01*
X5430000Y-13134429D01*
X5415714Y-13191571D01*
X5401428Y-13220143D01*
X5387143Y-13234429D01*
X5358571Y-13248714D01*
X5330000Y-13248714D01*
X5301428Y-13234429D01*
X5287143Y-13220143D01*
X5272857Y-13191571D01*
X5258571Y-13134429D01*
X5258571Y-13063000D01*
X5272857Y-13005857D01*
X5287143Y-12977286D01*
X5301428Y-12963000D01*
X5330000Y-12948714D01*
X5544286Y-12948714D02*
X5544286Y-13005857D01*
X5658571Y-12948714D02*
X5658571Y-13005857D01*
X6101428Y-13363000D02*
X6087143Y-13348714D01*
X6058571Y-13305857D01*
X6044286Y-13277286D01*
X6030000Y-13234429D01*
X6015714Y-13163000D01*
X6015714Y-13105857D01*
X6030000Y-13034429D01*
X6044286Y-12991571D01*
X6058571Y-12963000D01*
X6087143Y-12920143D01*
X6101428Y-12905857D01*
X6258571Y-13077286D02*
X6230000Y-13063000D01*
X6215714Y-13048714D01*
X6201428Y-13020143D01*
X6201428Y-13005857D01*
X6215714Y-12977286D01*
X6230000Y-12963000D01*
X6258571Y-12948714D01*
X6315714Y-12948714D01*
X6344286Y-12963000D01*
X6358571Y-12977286D01*
X6372857Y-13005857D01*
X6372857Y-13020143D01*
X6358571Y-13048714D01*
X6344286Y-13063000D01*
X6315714Y-13077286D01*
X6258571Y-13077286D01*
X6230000Y-13091571D01*
X6215714Y-13105857D01*
X6201428Y-13134429D01*
X6201428Y-13191571D01*
X6215714Y-13220143D01*
X6230000Y-13234429D01*
X6258571Y-13248714D01*
X6315714Y-13248714D01*
X6344286Y-13234429D01*
X6358571Y-13220143D01*
X6372857Y-13191571D01*
X6372857Y-13134429D01*
X6358571Y-13105857D01*
X6344286Y-13091571D01*
X6315714Y-13077286D01*
X6630000Y-13048714D02*
X6630000Y-13248714D01*
X6558571Y-12934429D02*
X6487143Y-13148714D01*
X6672857Y-13148714D01*
X7015714Y-13248714D02*
X7015714Y-12948714D01*
X7144286Y-13248714D02*
X7144286Y-13091571D01*
X7130000Y-13063000D01*
X7101428Y-13048714D01*
X7058571Y-13048714D01*
X7030000Y-13063000D01*
X7015714Y-13077286D01*
X7330000Y-13248714D02*
X7301428Y-13234429D01*
X7287143Y-13220143D01*
X7272857Y-13191571D01*
X7272857Y-13105857D01*
X7287143Y-13077286D01*
X7301428Y-13063000D01*
X7330000Y-13048714D01*
X7372857Y-13048714D01*
X7401428Y-13063000D01*
X7415714Y-13077286D01*
X7430000Y-13105857D01*
X7430000Y-13191571D01*
X7415714Y-13220143D01*
X7401428Y-13234429D01*
X7372857Y-13248714D01*
X7330000Y-13248714D01*
X7601428Y-13248714D02*
X7572857Y-13234429D01*
X7558571Y-13205857D01*
X7558571Y-12948714D01*
X7830000Y-13234429D02*
X7801428Y-13248714D01*
X7744286Y-13248714D01*
X7715714Y-13234429D01*
X7701428Y-13205857D01*
X7701428Y-13091571D01*
X7715714Y-13063000D01*
X7744286Y-13048714D01*
X7801428Y-13048714D01*
X7830000Y-13063000D01*
X7844286Y-13091571D01*
X7844286Y-13120143D01*
X7701428Y-13148714D01*
X7958571Y-13234429D02*
X7987143Y-13248714D01*
X8044286Y-13248714D01*
X8072857Y-13234429D01*
X8087143Y-13205857D01*
X8087143Y-13191571D01*
X8072857Y-13163000D01*
X8044286Y-13148714D01*
X8001428Y-13148714D01*
X7972857Y-13134429D01*
X7958571Y-13105857D01*
X7958571Y-13091571D01*
X7972857Y-13063000D01*
X8001428Y-13048714D01*
X8044286Y-13048714D01*
X8072857Y-13063000D01*
X8187143Y-13363000D02*
X8201428Y-13348714D01*
X8230000Y-13305857D01*
X8244286Y-13277286D01*
X8258571Y-13234429D01*
X8272857Y-13163000D01*
X8272857Y-13105857D01*
X8258571Y-13034429D01*
X8244286Y-12991571D01*
X8230000Y-12963000D01*
X8201428Y-12920143D01*
X8187143Y-12905857D01*
X1329910Y-13423910D02*
X1329910Y-13594090D01*
X1244820Y-13509000D02*
X1415000Y-13509000D01*
X1415000Y-13509000D02*
G75*
G03*
X1415000Y-13509000I-85090J0D01*
G01*
X1858571Y-13644714D02*
X1687143Y-13644714D01*
X1772857Y-13644714D02*
X1772857Y-13344714D01*
X1744286Y-13387571D01*
X1715714Y-13416143D01*
X1687143Y-13430429D01*
X1987143Y-13616143D02*
X2001428Y-13630429D01*
X1987143Y-13644714D01*
X1972857Y-13630429D01*
X1987143Y-13616143D01*
X1987143Y-13644714D01*
X2101428Y-13344714D02*
X2301428Y-13344714D01*
X2172857Y-13644714D01*
X2472857Y-13344714D02*
X2501428Y-13344714D01*
X2530000Y-13359000D01*
X2544286Y-13373286D01*
X2558571Y-13401857D01*
X2572857Y-13459000D01*
X2572857Y-13530429D01*
X2558571Y-13587571D01*
X2544286Y-13616143D01*
X2530000Y-13630429D01*
X2501428Y-13644714D01*
X2472857Y-13644714D01*
X2444286Y-13630429D01*
X2430000Y-13616143D01*
X2415714Y-13587571D01*
X2401428Y-13530429D01*
X2401428Y-13459000D01*
X2415714Y-13401857D01*
X2430000Y-13373286D01*
X2444286Y-13359000D01*
X2472857Y-13344714D01*
X2701428Y-13644714D02*
X2701428Y-13444714D01*
X2701428Y-13473286D02*
X2715714Y-13459000D01*
X2744286Y-13444714D01*
X2787143Y-13444714D01*
X2815714Y-13459000D01*
X2830000Y-13487571D01*
X2830000Y-13644714D01*
X2830000Y-13487571D02*
X2844286Y-13459000D01*
X2872857Y-13444714D01*
X2915714Y-13444714D01*
X2944286Y-13459000D01*
X2958571Y-13487571D01*
X2958571Y-13644714D01*
X3101428Y-13644714D02*
X3101428Y-13444714D01*
X3101428Y-13473286D02*
X3115714Y-13459000D01*
X3144286Y-13444714D01*
X3187143Y-13444714D01*
X3215714Y-13459000D01*
X3230000Y-13487571D01*
X3230000Y-13644714D01*
X3230000Y-13487571D02*
X3244286Y-13459000D01*
X3272857Y-13444714D01*
X3315714Y-13444714D01*
X3344286Y-13459000D01*
X3358571Y-13487571D01*
X3358571Y-13644714D01*
X3944286Y-13330429D02*
X3687143Y-13716143D01*
X4330000Y-13344714D02*
X4358571Y-13344714D01*
X4387143Y-13359000D01*
X4401428Y-13373286D01*
X4415714Y-13401857D01*
X4430000Y-13459000D01*
X4430000Y-13530429D01*
X4415714Y-13587571D01*
X4401428Y-13616143D01*
X4387143Y-13630429D01*
X4358571Y-13644714D01*
X4330000Y-13644714D01*
X4301428Y-13630429D01*
X4287143Y-13616143D01*
X4272857Y-13587571D01*
X4258571Y-13530429D01*
X4258571Y-13459000D01*
X4272857Y-13401857D01*
X4287143Y-13373286D01*
X4301428Y-13359000D01*
X4330000Y-13344714D01*
X4558571Y-13616143D02*
X4572857Y-13630429D01*
X4558571Y-13644714D01*
X4544286Y-13630429D01*
X4558571Y-13616143D01*
X4558571Y-13644714D01*
X4758571Y-13344714D02*
X4787143Y-13344714D01*
X4815714Y-13359000D01*
X4830000Y-13373286D01*
X4844286Y-13401857D01*
X4858571Y-13459000D01*
X4858571Y-13530429D01*
X4844286Y-13587571D01*
X4830000Y-13616143D01*
X4815714Y-13630429D01*
X4787143Y-13644714D01*
X4758571Y-13644714D01*
X4730000Y-13630429D01*
X4715714Y-13616143D01*
X4701428Y-13587571D01*
X4687143Y-13530429D01*
X4687143Y-13459000D01*
X4701428Y-13401857D01*
X4715714Y-13373286D01*
X4730000Y-13359000D01*
X4758571Y-13344714D01*
X5115714Y-13344714D02*
X5058571Y-13344714D01*
X5030000Y-13359000D01*
X5015714Y-13373286D01*
X4987143Y-13416143D01*
X4972857Y-13473286D01*
X4972857Y-13587571D01*
X4987143Y-13616143D01*
X5001428Y-13630429D01*
X5030000Y-13644714D01*
X5087143Y-13644714D01*
X5115714Y-13630429D01*
X5130000Y-13616143D01*
X5144286Y-13587571D01*
X5144286Y-13516143D01*
X5130000Y-13487571D01*
X5115714Y-13473286D01*
X5087143Y-13459000D01*
X5030000Y-13459000D01*
X5001428Y-13473286D01*
X4987143Y-13487571D01*
X4972857Y-13516143D01*
X5244286Y-13344714D02*
X5444286Y-13344714D01*
X5315714Y-13644714D01*
X5544286Y-13344714D02*
X5544286Y-13401857D01*
X5658571Y-13344714D02*
X5658571Y-13401857D01*
X6101428Y-13759000D02*
X6087143Y-13744714D01*
X6058571Y-13701857D01*
X6044286Y-13673286D01*
X6030000Y-13630429D01*
X6015714Y-13559000D01*
X6015714Y-13501857D01*
X6030000Y-13430429D01*
X6044286Y-13387571D01*
X6058571Y-13359000D01*
X6087143Y-13316143D01*
X6101428Y-13301857D01*
X6230000Y-13644714D02*
X6287143Y-13644714D01*
X6315714Y-13630429D01*
X6330000Y-13616143D01*
X6358571Y-13573286D01*
X6372857Y-13516143D01*
X6372857Y-13401857D01*
X6358571Y-13373286D01*
X6344286Y-13359000D01*
X6315714Y-13344714D01*
X6258571Y-13344714D01*
X6230000Y-13359000D01*
X6215714Y-13373286D01*
X6201428Y-13401857D01*
X6201428Y-13473286D01*
X6215714Y-13501857D01*
X6230000Y-13516143D01*
X6258571Y-13530429D01*
X6315714Y-13530429D01*
X6344286Y-13516143D01*
X6358571Y-13501857D01*
X6372857Y-13473286D01*
X6544286Y-13473286D02*
X6515714Y-13459000D01*
X6501428Y-13444714D01*
X6487143Y-13416143D01*
X6487143Y-13401857D01*
X6501428Y-13373286D01*
X6515714Y-13359000D01*
X6544286Y-13344714D01*
X6601428Y-13344714D01*
X6630000Y-13359000D01*
X6644286Y-13373286D01*
X6658571Y-13401857D01*
X6658571Y-13416143D01*
X6644286Y-13444714D01*
X6630000Y-13459000D01*
X6601428Y-13473286D01*
X6544286Y-13473286D01*
X6515714Y-13487571D01*
X6501428Y-13501857D01*
X6487143Y-13530429D01*
X6487143Y-13587571D01*
X6501428Y-13616143D01*
X6515714Y-13630429D01*
X6544286Y-13644714D01*
X6601428Y-13644714D01*
X6630000Y-13630429D01*
X6644286Y-13616143D01*
X6658571Y-13587571D01*
X6658571Y-13530429D01*
X6644286Y-13501857D01*
X6630000Y-13487571D01*
X6601428Y-13473286D01*
X7015714Y-13644714D02*
X7015714Y-13344714D01*
X7144286Y-13644714D02*
X7144286Y-13487571D01*
X7130000Y-13459000D01*
X7101428Y-13444714D01*
X7058571Y-13444714D01*
X7030000Y-13459000D01*
X7015714Y-13473286D01*
X7330000Y-13644714D02*
X7301428Y-13630429D01*
X7287143Y-13616143D01*
X7272857Y-13587571D01*
X7272857Y-13501857D01*
X7287143Y-13473286D01*
X7301428Y-13459000D01*
X7330000Y-13444714D01*
X7372857Y-13444714D01*
X7401428Y-13459000D01*
X7415714Y-13473286D01*
X7430000Y-13501857D01*
X7430000Y-13587571D01*
X7415714Y-13616143D01*
X7401428Y-13630429D01*
X7372857Y-13644714D01*
X7330000Y-13644714D01*
X7601428Y-13644714D02*
X7572857Y-13630429D01*
X7558571Y-13601857D01*
X7558571Y-13344714D01*
X7830000Y-13630429D02*
X7801428Y-13644714D01*
X7744286Y-13644714D01*
X7715714Y-13630429D01*
X7701428Y-13601857D01*
X7701428Y-13487571D01*
X7715714Y-13459000D01*
X7744286Y-13444714D01*
X7801428Y-13444714D01*
X7830000Y-13459000D01*
X7844286Y-13487571D01*
X7844286Y-13516143D01*
X7701428Y-13544714D01*
X7958571Y-13630429D02*
X7987143Y-13644714D01*
X8044286Y-13644714D01*
X8072857Y-13630429D01*
X8087143Y-13601857D01*
X8087143Y-13587571D01*
X8072857Y-13559000D01*
X8044286Y-13544714D01*
X8001428Y-13544714D01*
X7972857Y-13530429D01*
X7958571Y-13501857D01*
X7958571Y-13487571D01*
X7972857Y-13459000D01*
X8001428Y-13444714D01*
X8044286Y-13444714D01*
X8072857Y-13459000D01*
X8187143Y-13759000D02*
X8201428Y-13744714D01*
X8230000Y-13701857D01*
X8244286Y-13673286D01*
X8258571Y-13630429D01*
X8272857Y-13559000D01*
X8272857Y-13501857D01*
X8258571Y-13430429D01*
X8244286Y-13387571D01*
X8230000Y-13359000D01*
X8201428Y-13316143D01*
X8187143Y-13301857D01*
X8730000Y-13759000D02*
X8715714Y-13744714D01*
X8687143Y-13701857D01*
X8672857Y-13673286D01*
X8658571Y-13630429D01*
X8644286Y-13559000D01*
X8644286Y-13501857D01*
X8658571Y-13430429D01*
X8672857Y-13387571D01*
X8687143Y-13359000D01*
X8715714Y-13316143D01*
X8730000Y-13301857D01*
X8844286Y-13444714D02*
X8844286Y-13644714D01*
X8844286Y-13473286D02*
X8858571Y-13459000D01*
X8887143Y-13444714D01*
X8930000Y-13444714D01*
X8958571Y-13459000D01*
X8972857Y-13487571D01*
X8972857Y-13644714D01*
X9158571Y-13644714D02*
X9130000Y-13630429D01*
X9115714Y-13616143D01*
X9101428Y-13587571D01*
X9101428Y-13501857D01*
X9115714Y-13473286D01*
X9130000Y-13459000D01*
X9158571Y-13444714D01*
X9201428Y-13444714D01*
X9230000Y-13459000D01*
X9244286Y-13473286D01*
X9258571Y-13501857D01*
X9258571Y-13587571D01*
X9244286Y-13616143D01*
X9230000Y-13630429D01*
X9201428Y-13644714D01*
X9158571Y-13644714D01*
X9344286Y-13444714D02*
X9458571Y-13444714D01*
X9387143Y-13344714D02*
X9387143Y-13601857D01*
X9401428Y-13630429D01*
X9430000Y-13644714D01*
X9458571Y-13644714D01*
X9787143Y-13444714D02*
X9787143Y-13744714D01*
X9787143Y-13459000D02*
X9815714Y-13444714D01*
X9872857Y-13444714D01*
X9901428Y-13459000D01*
X9915714Y-13473286D01*
X9930000Y-13501857D01*
X9930000Y-13587571D01*
X9915714Y-13616143D01*
X9901428Y-13630429D01*
X9872857Y-13644714D01*
X9815714Y-13644714D01*
X9787143Y-13630429D01*
X10101428Y-13644714D02*
X10072857Y-13630429D01*
X10058571Y-13601857D01*
X10058571Y-13344714D01*
X10344286Y-13644714D02*
X10344286Y-13487571D01*
X10330000Y-13459000D01*
X10301428Y-13444714D01*
X10244286Y-13444714D01*
X10215714Y-13459000D01*
X10344286Y-13630429D02*
X10315714Y-13644714D01*
X10244286Y-13644714D01*
X10215714Y-13630429D01*
X10201428Y-13601857D01*
X10201428Y-13573286D01*
X10215714Y-13544714D01*
X10244286Y-13530429D01*
X10315714Y-13530429D01*
X10344286Y-13516143D01*
X10444286Y-13444714D02*
X10558571Y-13444714D01*
X10487143Y-13344714D02*
X10487143Y-13601857D01*
X10501428Y-13630429D01*
X10530000Y-13644714D01*
X10558571Y-13644714D01*
X10772857Y-13630429D02*
X10744286Y-13644714D01*
X10687143Y-13644714D01*
X10658571Y-13630429D01*
X10644286Y-13601857D01*
X10644286Y-13487571D01*
X10658571Y-13459000D01*
X10687143Y-13444714D01*
X10744286Y-13444714D01*
X10772857Y-13459000D01*
X10787143Y-13487571D01*
X10787143Y-13516143D01*
X10644286Y-13544714D01*
X11044286Y-13644714D02*
X11044286Y-13344714D01*
X11044286Y-13630429D02*
X11015714Y-13644714D01*
X10958571Y-13644714D01*
X10930000Y-13630429D01*
X10915714Y-13616143D01*
X10901428Y-13587571D01*
X10901428Y-13501857D01*
X10915714Y-13473286D01*
X10930000Y-13459000D01*
X10958571Y-13444714D01*
X11015714Y-13444714D01*
X11044286Y-13459000D01*
X11158571Y-13759000D02*
X11172857Y-13744714D01*
X11201428Y-13701857D01*
X11215714Y-13673286D01*
X11230000Y-13630429D01*
X11244286Y-13559000D01*
X11244286Y-13501857D01*
X11230000Y-13430429D01*
X11215714Y-13387571D01*
X11201428Y-13359000D01*
X11172857Y-13316143D01*
X11158571Y-13301857D01*
X1370364Y-14012764D02*
X1370364Y-13797236D01*
X1154836Y-13797236D01*
X1154836Y-14012764D01*
X1370364Y-14012764D01*
X1415000Y-13905000D02*
G75*
G03*
X1415000Y-13905000I-152400J0D01*
G01*
X1672857Y-13740714D02*
X1858571Y-13740714D01*
X1758571Y-13855000D01*
X1801428Y-13855000D01*
X1830000Y-13869286D01*
X1844286Y-13883571D01*
X1858571Y-13912143D01*
X1858571Y-13983571D01*
X1844286Y-14012143D01*
X1830000Y-14026429D01*
X1801428Y-14040714D01*
X1715714Y-14040714D01*
X1687143Y-14026429D01*
X1672857Y-14012143D01*
X1987143Y-14012143D02*
X2001428Y-14026429D01*
X1987143Y-14040714D01*
X1972857Y-14026429D01*
X1987143Y-14012143D01*
X1987143Y-14040714D01*
X2187143Y-13740714D02*
X2215714Y-13740714D01*
X2244286Y-13755000D01*
X2258571Y-13769286D01*
X2272857Y-13797857D01*
X2287143Y-13855000D01*
X2287143Y-13926429D01*
X2272857Y-13983571D01*
X2258571Y-14012143D01*
X2244286Y-14026429D01*
X2215714Y-14040714D01*
X2187143Y-14040714D01*
X2158571Y-14026429D01*
X2144286Y-14012143D01*
X2130000Y-13983571D01*
X2115714Y-13926429D01*
X2115714Y-13855000D01*
X2130000Y-13797857D01*
X2144286Y-13769286D01*
X2158571Y-13755000D01*
X2187143Y-13740714D01*
X2558571Y-13740714D02*
X2415714Y-13740714D01*
X2401428Y-13883571D01*
X2415714Y-13869286D01*
X2444286Y-13855000D01*
X2515714Y-13855000D01*
X2544286Y-13869286D01*
X2558571Y-13883571D01*
X2572857Y-13912143D01*
X2572857Y-13983571D01*
X2558571Y-14012143D01*
X2544286Y-14026429D01*
X2515714Y-14040714D01*
X2444286Y-14040714D01*
X2415714Y-14026429D01*
X2401428Y-14012143D01*
X2701428Y-14040714D02*
X2701428Y-13840714D01*
X2701428Y-13869286D02*
X2715714Y-13855000D01*
X2744286Y-13840714D01*
X2787143Y-13840714D01*
X2815714Y-13855000D01*
X2830000Y-13883571D01*
X2830000Y-14040714D01*
X2830000Y-13883571D02*
X2844286Y-13855000D01*
X2872857Y-13840714D01*
X2915714Y-13840714D01*
X2944286Y-13855000D01*
X2958571Y-13883571D01*
X2958571Y-14040714D01*
X3101428Y-14040714D02*
X3101428Y-13840714D01*
X3101428Y-13869286D02*
X3115714Y-13855000D01*
X3144286Y-13840714D01*
X3187143Y-13840714D01*
X3215714Y-13855000D01*
X3230000Y-13883571D01*
X3230000Y-14040714D01*
X3230000Y-13883571D02*
X3244286Y-13855000D01*
X3272857Y-13840714D01*
X3315714Y-13840714D01*
X3344286Y-13855000D01*
X3358571Y-13883571D01*
X3358571Y-14040714D01*
X3944286Y-13726429D02*
X3687143Y-14112143D01*
X4330000Y-13740714D02*
X4358571Y-13740714D01*
X4387143Y-13755000D01*
X4401428Y-13769286D01*
X4415714Y-13797857D01*
X4430000Y-13855000D01*
X4430000Y-13926429D01*
X4415714Y-13983571D01*
X4401428Y-14012143D01*
X4387143Y-14026429D01*
X4358571Y-14040714D01*
X4330000Y-14040714D01*
X4301428Y-14026429D01*
X4287143Y-14012143D01*
X4272857Y-13983571D01*
X4258571Y-13926429D01*
X4258571Y-13855000D01*
X4272857Y-13797857D01*
X4287143Y-13769286D01*
X4301428Y-13755000D01*
X4330000Y-13740714D01*
X4558571Y-14012143D02*
X4572857Y-14026429D01*
X4558571Y-14040714D01*
X4544286Y-14026429D01*
X4558571Y-14012143D01*
X4558571Y-14040714D01*
X4858571Y-14040714D02*
X4687143Y-14040714D01*
X4772857Y-14040714D02*
X4772857Y-13740714D01*
X4744286Y-13783571D01*
X4715714Y-13812143D01*
X4687143Y-13826429D01*
X4972857Y-13769286D02*
X4987143Y-13755000D01*
X5015714Y-13740714D01*
X5087143Y-13740714D01*
X5115714Y-13755000D01*
X5130000Y-13769286D01*
X5144286Y-13797857D01*
X5144286Y-13826429D01*
X5130000Y-13869286D01*
X4958571Y-14040714D01*
X5144286Y-14040714D01*
X5330000Y-13740714D02*
X5358571Y-13740714D01*
X5387143Y-13755000D01*
X5401428Y-13769286D01*
X5415714Y-13797857D01*
X5430000Y-13855000D01*
X5430000Y-13926429D01*
X5415714Y-13983571D01*
X5401428Y-14012143D01*
X5387143Y-14026429D01*
X5358571Y-14040714D01*
X5330000Y-14040714D01*
X5301428Y-14026429D01*
X5287143Y-14012143D01*
X5272857Y-13983571D01*
X5258571Y-13926429D01*
X5258571Y-13855000D01*
X5272857Y-13797857D01*
X5287143Y-13769286D01*
X5301428Y-13755000D01*
X5330000Y-13740714D01*
X5544286Y-13740714D02*
X5544286Y-13797857D01*
X5658571Y-13740714D02*
X5658571Y-13797857D01*
X6101428Y-14155000D02*
X6087143Y-14140714D01*
X6058571Y-14097857D01*
X6044286Y-14069286D01*
X6030000Y-14026429D01*
X6015714Y-13955000D01*
X6015714Y-13897857D01*
X6030000Y-13826429D01*
X6044286Y-13783571D01*
X6058571Y-13755000D01*
X6087143Y-13712143D01*
X6101428Y-13697857D01*
X6258571Y-13869286D02*
X6230000Y-13855000D01*
X6215714Y-13840714D01*
X6201428Y-13812143D01*
X6201428Y-13797857D01*
X6215714Y-13769286D01*
X6230000Y-13755000D01*
X6258571Y-13740714D01*
X6315714Y-13740714D01*
X6344286Y-13755000D01*
X6358571Y-13769286D01*
X6372857Y-13797857D01*
X6372857Y-13812143D01*
X6358571Y-13840714D01*
X6344286Y-13855000D01*
X6315714Y-13869286D01*
X6258571Y-13869286D01*
X6230000Y-13883571D01*
X6215714Y-13897857D01*
X6201428Y-13926429D01*
X6201428Y-13983571D01*
X6215714Y-14012143D01*
X6230000Y-14026429D01*
X6258571Y-14040714D01*
X6315714Y-14040714D01*
X6344286Y-14026429D01*
X6358571Y-14012143D01*
X6372857Y-13983571D01*
X6372857Y-13926429D01*
X6358571Y-13897857D01*
X6344286Y-13883571D01*
X6315714Y-13869286D01*
X6730000Y-14040714D02*
X6730000Y-13740714D01*
X6858571Y-14040714D02*
X6858571Y-13883571D01*
X6844286Y-13855000D01*
X6815714Y-13840714D01*
X6772857Y-13840714D01*
X6744286Y-13855000D01*
X6730000Y-13869286D01*
X7044286Y-14040714D02*
X7015714Y-14026429D01*
X7001428Y-14012143D01*
X6987143Y-13983571D01*
X6987143Y-13897857D01*
X7001428Y-13869286D01*
X7015714Y-13855000D01*
X7044286Y-13840714D01*
X7087143Y-13840714D01*
X7115714Y-13855000D01*
X7130000Y-13869286D01*
X7144286Y-13897857D01*
X7144286Y-13983571D01*
X7130000Y-14012143D01*
X7115714Y-14026429D01*
X7087143Y-14040714D01*
X7044286Y-14040714D01*
X7315714Y-14040714D02*
X7287143Y-14026429D01*
X7272857Y-13997857D01*
X7272857Y-13740714D01*
X7544286Y-14026429D02*
X7515714Y-14040714D01*
X7458571Y-14040714D01*
X7430000Y-14026429D01*
X7415714Y-13997857D01*
X7415714Y-13883571D01*
X7430000Y-13855000D01*
X7458571Y-13840714D01*
X7515714Y-13840714D01*
X7544286Y-13855000D01*
X7558571Y-13883571D01*
X7558571Y-13912143D01*
X7415714Y-13940714D01*
X7672857Y-14026429D02*
X7701428Y-14040714D01*
X7758571Y-14040714D01*
X7787143Y-14026429D01*
X7801428Y-13997857D01*
X7801428Y-13983571D01*
X7787143Y-13955000D01*
X7758571Y-13940714D01*
X7715714Y-13940714D01*
X7687143Y-13926429D01*
X7672857Y-13897857D01*
X7672857Y-13883571D01*
X7687143Y-13855000D01*
X7715714Y-13840714D01*
X7758571Y-13840714D01*
X7787143Y-13855000D01*
X7901428Y-14155000D02*
X7915714Y-14140714D01*
X7944286Y-14097857D01*
X7958571Y-14069286D01*
X7972857Y-14026429D01*
X7987143Y-13955000D01*
X7987143Y-13897857D01*
X7972857Y-13826429D01*
X7958571Y-13783571D01*
X7944286Y-13755000D01*
X7915714Y-13712143D01*
X7901428Y-13697857D01*
X8444286Y-14155000D02*
X8430000Y-14140714D01*
X8401428Y-14097857D01*
X8387143Y-14069286D01*
X8372857Y-14026429D01*
X8358571Y-13955000D01*
X8358571Y-13897857D01*
X8372857Y-13826429D01*
X8387143Y-13783571D01*
X8401428Y-13755000D01*
X8430000Y-13712143D01*
X8444286Y-13697857D01*
X8558571Y-13840714D02*
X8558571Y-14040714D01*
X8558571Y-13869286D02*
X8572857Y-13855000D01*
X8601428Y-13840714D01*
X8644286Y-13840714D01*
X8672857Y-13855000D01*
X8687143Y-13883571D01*
X8687143Y-14040714D01*
X8872857Y-14040714D02*
X8844286Y-14026429D01*
X8830000Y-14012143D01*
X8815714Y-13983571D01*
X8815714Y-13897857D01*
X8830000Y-13869286D01*
X8844286Y-13855000D01*
X8872857Y-13840714D01*
X8915714Y-13840714D01*
X8944286Y-13855000D01*
X8958571Y-13869286D01*
X8972857Y-13897857D01*
X8972857Y-13983571D01*
X8958571Y-14012143D01*
X8944286Y-14026429D01*
X8915714Y-14040714D01*
X8872857Y-14040714D01*
X9058571Y-13840714D02*
X9172857Y-13840714D01*
X9101428Y-13740714D02*
X9101428Y-13997857D01*
X9115714Y-14026429D01*
X9144286Y-14040714D01*
X9172857Y-14040714D01*
X9501428Y-13840714D02*
X9501428Y-14140714D01*
X9501428Y-13855000D02*
X9530000Y-13840714D01*
X9587143Y-13840714D01*
X9615714Y-13855000D01*
X9630000Y-13869286D01*
X9644286Y-13897857D01*
X9644286Y-13983571D01*
X9630000Y-14012143D01*
X9615714Y-14026429D01*
X9587143Y-14040714D01*
X9530000Y-14040714D01*
X9501428Y-14026429D01*
X9815714Y-14040714D02*
X9787143Y-14026429D01*
X9772857Y-13997857D01*
X9772857Y-13740714D01*
X10058571Y-14040714D02*
X10058571Y-13883571D01*
X10044286Y-13855000D01*
X10015714Y-13840714D01*
X9958571Y-13840714D01*
X9930000Y-13855000D01*
X10058571Y-14026429D02*
X10030000Y-14040714D01*
X9958571Y-14040714D01*
X9930000Y-14026429D01*
X9915714Y-13997857D01*
X9915714Y-13969286D01*
X9930000Y-13940714D01*
X9958571Y-13926429D01*
X10030000Y-13926429D01*
X10058571Y-13912143D01*
X10158571Y-13840714D02*
X10272857Y-13840714D01*
X10201428Y-13740714D02*
X10201428Y-13997857D01*
X10215714Y-14026429D01*
X10244286Y-14040714D01*
X10272857Y-14040714D01*
X10487143Y-14026429D02*
X10458571Y-14040714D01*
X10401428Y-14040714D01*
X10372857Y-14026429D01*
X10358571Y-13997857D01*
X10358571Y-13883571D01*
X10372857Y-13855000D01*
X10401428Y-13840714D01*
X10458571Y-13840714D01*
X10487143Y-13855000D01*
X10501428Y-13883571D01*
X10501428Y-13912143D01*
X10358571Y-13940714D01*
X10758571Y-14040714D02*
X10758571Y-13740714D01*
X10758571Y-14026429D02*
X10730000Y-14040714D01*
X10672857Y-14040714D01*
X10644286Y-14026429D01*
X10630000Y-14012143D01*
X10615714Y-13983571D01*
X10615714Y-13897857D01*
X10630000Y-13869286D01*
X10644286Y-13855000D01*
X10672857Y-13840714D01*
X10730000Y-13840714D01*
X10758571Y-13855000D01*
X10872857Y-14155000D02*
X10887143Y-14140714D01*
X10915714Y-14097857D01*
X10930000Y-14069286D01*
X10944286Y-14026429D01*
X10958571Y-13955000D01*
X10958571Y-13897857D01*
X10944286Y-13826429D01*
X10930000Y-13783571D01*
X10915714Y-13755000D01*
X10887143Y-13712143D01*
X10872857Y-13697857D01*
X1215610Y-14539190D02*
X1415000Y-14339800D01*
X1215610Y-14140410D01*
X1016220Y-14339800D01*
X1215610Y-14539190D01*
X1415000Y-14339800D02*
G75*
G03*
X1415000Y-14339800I-199390J0D01*
G01*
X1672857Y-14175514D02*
X1858571Y-14175514D01*
X1758571Y-14289800D01*
X1801428Y-14289800D01*
X1830000Y-14304086D01*
X1844286Y-14318371D01*
X1858571Y-14346943D01*
X1858571Y-14418371D01*
X1844286Y-14446943D01*
X1830000Y-14461229D01*
X1801428Y-14475514D01*
X1715714Y-14475514D01*
X1687143Y-14461229D01*
X1672857Y-14446943D01*
X1987143Y-14446943D02*
X2001428Y-14461229D01*
X1987143Y-14475514D01*
X1972857Y-14461229D01*
X1987143Y-14446943D01*
X1987143Y-14475514D01*
X2144286Y-14475514D02*
X2201428Y-14475514D01*
X2230000Y-14461229D01*
X2244286Y-14446943D01*
X2272857Y-14404086D01*
X2287143Y-14346943D01*
X2287143Y-14232657D01*
X2272857Y-14204086D01*
X2258571Y-14189800D01*
X2230000Y-14175514D01*
X2172857Y-14175514D01*
X2144286Y-14189800D01*
X2130000Y-14204086D01*
X2115714Y-14232657D01*
X2115714Y-14304086D01*
X2130000Y-14332657D01*
X2144286Y-14346943D01*
X2172857Y-14361229D01*
X2230000Y-14361229D01*
X2258571Y-14346943D01*
X2272857Y-14332657D01*
X2287143Y-14304086D01*
X2430000Y-14475514D02*
X2487143Y-14475514D01*
X2515714Y-14461229D01*
X2530000Y-14446943D01*
X2558571Y-14404086D01*
X2572857Y-14346943D01*
X2572857Y-14232657D01*
X2558571Y-14204086D01*
X2544286Y-14189800D01*
X2515714Y-14175514D01*
X2458571Y-14175514D01*
X2430000Y-14189800D01*
X2415714Y-14204086D01*
X2401428Y-14232657D01*
X2401428Y-14304086D01*
X2415714Y-14332657D01*
X2430000Y-14346943D01*
X2458571Y-14361229D01*
X2515714Y-14361229D01*
X2544286Y-14346943D01*
X2558571Y-14332657D01*
X2572857Y-14304086D01*
X2701428Y-14475514D02*
X2701428Y-14275514D01*
X2701428Y-14304086D02*
X2715714Y-14289800D01*
X2744286Y-14275514D01*
X2787143Y-14275514D01*
X2815714Y-14289800D01*
X2830000Y-14318371D01*
X2830000Y-14475514D01*
X2830000Y-14318371D02*
X2844286Y-14289800D01*
X2872857Y-14275514D01*
X2915714Y-14275514D01*
X2944286Y-14289800D01*
X2958571Y-14318371D01*
X2958571Y-14475514D01*
X3101428Y-14475514D02*
X3101428Y-14275514D01*
X3101428Y-14304086D02*
X3115714Y-14289800D01*
X3144286Y-14275514D01*
X3187143Y-14275514D01*
X3215714Y-14289800D01*
X3230000Y-14318371D01*
X3230000Y-14475514D01*
X3230000Y-14318371D02*
X3244286Y-14289800D01*
X3272857Y-14275514D01*
X3315714Y-14275514D01*
X3344286Y-14289800D01*
X3358571Y-14318371D01*
X3358571Y-14475514D01*
X3944286Y-14161229D02*
X3687143Y-14546943D01*
X4330000Y-14175514D02*
X4358571Y-14175514D01*
X4387143Y-14189800D01*
X4401428Y-14204086D01*
X4415714Y-14232657D01*
X4430000Y-14289800D01*
X4430000Y-14361229D01*
X4415714Y-14418371D01*
X4401428Y-14446943D01*
X4387143Y-14461229D01*
X4358571Y-14475514D01*
X4330000Y-14475514D01*
X4301428Y-14461229D01*
X4287143Y-14446943D01*
X4272857Y-14418371D01*
X4258571Y-14361229D01*
X4258571Y-14289800D01*
X4272857Y-14232657D01*
X4287143Y-14204086D01*
X4301428Y-14189800D01*
X4330000Y-14175514D01*
X4558571Y-14446943D02*
X4572857Y-14461229D01*
X4558571Y-14475514D01*
X4544286Y-14461229D01*
X4558571Y-14446943D01*
X4558571Y-14475514D01*
X4858571Y-14475514D02*
X4687143Y-14475514D01*
X4772857Y-14475514D02*
X4772857Y-14175514D01*
X4744286Y-14218371D01*
X4715714Y-14246943D01*
X4687143Y-14261229D01*
X5130000Y-14175514D02*
X4987143Y-14175514D01*
X4972857Y-14318371D01*
X4987143Y-14304086D01*
X5015714Y-14289800D01*
X5087143Y-14289800D01*
X5115714Y-14304086D01*
X5130000Y-14318371D01*
X5144286Y-14346943D01*
X5144286Y-14418371D01*
X5130000Y-14446943D01*
X5115714Y-14461229D01*
X5087143Y-14475514D01*
X5015714Y-14475514D01*
X4987143Y-14461229D01*
X4972857Y-14446943D01*
X5244286Y-14175514D02*
X5444286Y-14175514D01*
X5315714Y-14475514D01*
X5544286Y-14175514D02*
X5544286Y-14232657D01*
X5658571Y-14175514D02*
X5658571Y-14232657D01*
X6101428Y-14589800D02*
X6087143Y-14575514D01*
X6058571Y-14532657D01*
X6044286Y-14504086D01*
X6030000Y-14461229D01*
X6015714Y-14389800D01*
X6015714Y-14332657D01*
X6030000Y-14261229D01*
X6044286Y-14218371D01*
X6058571Y-14189800D01*
X6087143Y-14146943D01*
X6101428Y-14132657D01*
X6358571Y-14175514D02*
X6215714Y-14175514D01*
X6201428Y-14318371D01*
X6215714Y-14304086D01*
X6244286Y-14289800D01*
X6315714Y-14289800D01*
X6344286Y-14304086D01*
X6358571Y-14318371D01*
X6372857Y-14346943D01*
X6372857Y-14418371D01*
X6358571Y-14446943D01*
X6344286Y-14461229D01*
X6315714Y-14475514D01*
X6244286Y-14475514D01*
X6215714Y-14461229D01*
X6201428Y-14446943D01*
X6472857Y-14175514D02*
X6672857Y-14175514D01*
X6544286Y-14475514D01*
X7015714Y-14475514D02*
X7015714Y-14175514D01*
X7144286Y-14475514D02*
X7144286Y-14318371D01*
X7130000Y-14289800D01*
X7101428Y-14275514D01*
X7058571Y-14275514D01*
X7030000Y-14289800D01*
X7015714Y-14304086D01*
X7330000Y-14475514D02*
X7301428Y-14461229D01*
X7287143Y-14446943D01*
X7272857Y-14418371D01*
X7272857Y-14332657D01*
X7287143Y-14304086D01*
X7301428Y-14289800D01*
X7330000Y-14275514D01*
X7372857Y-14275514D01*
X7401428Y-14289800D01*
X7415714Y-14304086D01*
X7430000Y-14332657D01*
X7430000Y-14418371D01*
X7415714Y-14446943D01*
X7401428Y-14461229D01*
X7372857Y-14475514D01*
X7330000Y-14475514D01*
X7601428Y-14475514D02*
X7572857Y-14461229D01*
X7558571Y-14432657D01*
X7558571Y-14175514D01*
X7830000Y-14461229D02*
X7801428Y-14475514D01*
X7744286Y-14475514D01*
X7715714Y-14461229D01*
X7701428Y-14432657D01*
X7701428Y-14318371D01*
X7715714Y-14289800D01*
X7744286Y-14275514D01*
X7801428Y-14275514D01*
X7830000Y-14289800D01*
X7844286Y-14318371D01*
X7844286Y-14346943D01*
X7701428Y-14375514D01*
X7958571Y-14461229D02*
X7987143Y-14475514D01*
X8044286Y-14475514D01*
X8072857Y-14461229D01*
X8087143Y-14432657D01*
X8087143Y-14418371D01*
X8072857Y-14389800D01*
X8044286Y-14375514D01*
X8001428Y-14375514D01*
X7972857Y-14361229D01*
X7958571Y-14332657D01*
X7958571Y-14318371D01*
X7972857Y-14289800D01*
X8001428Y-14275514D01*
X8044286Y-14275514D01*
X8072857Y-14289800D01*
X8187143Y-14589800D02*
X8201428Y-14575514D01*
X8230000Y-14532657D01*
X8244286Y-14504086D01*
X8258571Y-14461229D01*
X8272857Y-14389800D01*
X8272857Y-14332657D01*
X8258571Y-14261229D01*
X8244286Y-14218371D01*
X8230000Y-14189800D01*
X8201428Y-14146943D01*
X8187143Y-14132657D01*
X8730000Y-14589800D02*
X8715714Y-14575514D01*
X8687143Y-14532657D01*
X8672857Y-14504086D01*
X8658571Y-14461229D01*
X8644286Y-14389800D01*
X8644286Y-14332657D01*
X8658571Y-14261229D01*
X8672857Y-14218371D01*
X8687143Y-14189800D01*
X8715714Y-14146943D01*
X8730000Y-14132657D01*
X8844286Y-14275514D02*
X8844286Y-14475514D01*
X8844286Y-14304086D02*
X8858571Y-14289800D01*
X8887143Y-14275514D01*
X8930000Y-14275514D01*
X8958571Y-14289800D01*
X8972857Y-14318371D01*
X8972857Y-14475514D01*
X9158571Y-14475514D02*
X9130000Y-14461229D01*
X9115714Y-14446943D01*
X9101428Y-14418371D01*
X9101428Y-14332657D01*
X9115714Y-14304086D01*
X9130000Y-14289800D01*
X9158571Y-14275514D01*
X9201428Y-14275514D01*
X9230000Y-14289800D01*
X9244286Y-14304086D01*
X9258571Y-14332657D01*
X9258571Y-14418371D01*
X9244286Y-14446943D01*
X9230000Y-14461229D01*
X9201428Y-14475514D01*
X9158571Y-14475514D01*
X9344286Y-14275514D02*
X9458571Y-14275514D01*
X9387143Y-14175514D02*
X9387143Y-14432657D01*
X9401428Y-14461229D01*
X9430000Y-14475514D01*
X9458571Y-14475514D01*
X9787143Y-14275514D02*
X9787143Y-14575514D01*
X9787143Y-14289800D02*
X9815714Y-14275514D01*
X9872857Y-14275514D01*
X9901428Y-14289800D01*
X9915714Y-14304086D01*
X9930000Y-14332657D01*
X9930000Y-14418371D01*
X9915714Y-14446943D01*
X9901428Y-14461229D01*
X9872857Y-14475514D01*
X9815714Y-14475514D01*
X9787143Y-14461229D01*
X10101428Y-14475514D02*
X10072857Y-14461229D01*
X10058571Y-14432657D01*
X10058571Y-14175514D01*
X10344286Y-14475514D02*
X10344286Y-14318371D01*
X10330000Y-14289800D01*
X10301428Y-14275514D01*
X10244286Y-14275514D01*
X10215714Y-14289800D01*
X10344286Y-14461229D02*
X10315714Y-14475514D01*
X10244286Y-14475514D01*
X10215714Y-14461229D01*
X10201428Y-14432657D01*
X10201428Y-14404086D01*
X10215714Y-14375514D01*
X10244286Y-14361229D01*
X10315714Y-14361229D01*
X10344286Y-14346943D01*
X10444286Y-14275514D02*
X10558571Y-14275514D01*
X10487143Y-14175514D02*
X10487143Y-14432657D01*
X10501428Y-14461229D01*
X10530000Y-14475514D01*
X10558571Y-14475514D01*
X10772857Y-14461229D02*
X10744286Y-14475514D01*
X10687143Y-14475514D01*
X10658571Y-14461229D01*
X10644286Y-14432657D01*
X10644286Y-14318371D01*
X10658571Y-14289800D01*
X10687143Y-14275514D01*
X10744286Y-14275514D01*
X10772857Y-14289800D01*
X10787143Y-14318371D01*
X10787143Y-14346943D01*
X10644286Y-14375514D01*
X11044286Y-14475514D02*
X11044286Y-14175514D01*
X11044286Y-14461229D02*
X11015714Y-14475514D01*
X10958571Y-14475514D01*
X10930000Y-14461229D01*
X10915714Y-14446943D01*
X10901428Y-14418371D01*
X10901428Y-14332657D01*
X10915714Y-14304086D01*
X10930000Y-14289800D01*
X10958571Y-14275514D01*
X11015714Y-14275514D01*
X11044286Y-14289800D01*
X11158571Y-14589800D02*
X11172857Y-14575514D01*
X11201428Y-14532657D01*
X11215714Y-14504086D01*
X11230000Y-14461229D01*
X11244286Y-14389800D01*
X11244286Y-14332657D01*
X11230000Y-14261229D01*
X11215714Y-14218371D01*
X11201428Y-14189800D01*
X11172857Y-14146943D01*
X11158571Y-14132657D01*
M02*
