M48
INCH,TZ
T1C0.0157
T2C0.0276
T3C0.0300
T4C0.0315
T5C0.0390
T6C0.0400
T7C0.0433
T8C0.0600
T9C0.0600
T10C0.0670
T11C0.1200
T12C0.1570
%
G90
G05
T1
X22146Y-13091
X32875Y-20611
X52894Y-20472
X55339Y-20256
X56969Y-28504
X59104Y-14459
X68500Y-12122
X76000Y-12220
X83500Y-12240
X89125Y-13047
X98058Y-12192
X107875Y-12912
X108862Y-10083
X108894Y-25083
X109012Y-17583
T2
X95085Y-25083
X95085Y-27083
X63190Y-17720
X63190Y-19720
X81165Y-25083
X81165Y-27083
X34290Y-17583
X34290Y-19583
X43665Y-25083
X43665Y-27083
X103665Y-10083
X103665Y-12083
X72585Y-32583
X72585Y-34583
X95085Y-32583
X95085Y-34583
X71790Y-17583
X71790Y-19583
X15591Y-10906
X15906Y-10433
X16220Y-10906
X16535Y-10433
X16850Y-10906
X103665Y-17583
X103665Y-19583
X102585Y-17583
X102585Y-19583
X94290Y-10083
X94290Y-12083
X15397Y-18094
X15397Y-20094
X35085Y-32583
X35085Y-34583
X96220Y-32583
X96220Y-34583
X20085Y-32583
X20085Y-34583
X26790Y-17583
X26790Y-19583
X69915Y-10083
X69915Y-12083
X56000Y-28394
X58000Y-28394
X9817Y-12283
X11817Y-12283
X9882Y-34646
X11882Y-34646
X73665Y-32583
X73665Y-34583
X103665Y-25083
X103665Y-27083
X65085Y-25083
X65085Y-27083
X62415Y-10083
X62415Y-12083
X84915Y-10083
X84915Y-12083
X47415Y-10083
X47415Y-12083
X77415Y-10083
X77415Y-12083
X57585Y-25083
X57585Y-27083
X36165Y-25083
X36165Y-27083
X36165Y-32583
X36165Y-34583
X96142Y-25083
X96142Y-27083
X64271Y-17720
X64271Y-19720
X39915Y-10083
X39915Y-12083
X88665Y-32583
X88665Y-34583
X52500Y-28394
X54500Y-28394
X23780Y-10083
X23780Y-12083
X81165Y-32583
X81165Y-34583
X79290Y-17583
X79290Y-19583
X21165Y-32583
X21165Y-34583
X66165Y-25083
X66165Y-27083
X41790Y-17583
X41790Y-19583
X24915Y-10083
X24915Y-12083
X25710Y-17583
X25710Y-19583
X40710Y-17583
X40710Y-19583
X20085Y-25083
X20085Y-27083
X73665Y-25083
X73665Y-27083
X21165Y-25083
X21165Y-27083
X35085Y-25083
X35085Y-27083
X32415Y-10083
X32415Y-12083
X61335Y-10083
X61335Y-12083
T3
X14220Y-12795
X15220Y-12795
X16220Y-12795
X17220Y-12795
X18220Y-12795
T4
X26790Y-13421
X26790Y-16421
X35085Y-28421
X35085Y-31421
X21165Y-28421
X21165Y-31421
X73665Y-20921
X73665Y-23921
X95085Y-28421
X95085Y-31421
X63210Y-13598
X63210Y-16598
X94290Y-5921
X94290Y-8921
X36165Y-20921
X36165Y-23921
X34290Y-13421
X34290Y-16421
X62415Y-5921
X62415Y-8921
X103665Y-20921
X103665Y-23921
X77415Y-5921
X77415Y-8921
X81165Y-28421
X81165Y-31421
X23780Y-5921
X23780Y-8921
X24915Y-5921
X24915Y-8921
X47415Y-5921
X47415Y-8921
X103665Y-13421
X103665Y-16421
X73665Y-28421
X73665Y-31421
X102585Y-13421
X102585Y-16421
X88665Y-28421
X88665Y-31421
X41790Y-13421
X41790Y-16421
X20085Y-20921
X20085Y-23921
X65085Y-20921
X65085Y-23921
X69915Y-5921
X69915Y-8921
X96220Y-28421
X96220Y-31421
X64290Y-13598
X64290Y-16598
X84915Y-5921
X84915Y-8921
X35085Y-20921
X35085Y-23921
X39915Y-5921
X39915Y-8921
X21165Y-20921
X21165Y-23921
X72585Y-28421
X72585Y-31421
X36165Y-28421
X36165Y-31421
X95085Y-20921
X95085Y-23921
X71790Y-13421
X71790Y-16421
X25710Y-13421
X25710Y-16421
X32415Y-5921
X32415Y-8921
X15397Y-14224
X15397Y-17224
X61335Y-5921
X61335Y-8921
X79290Y-13421
X79290Y-16421
X81165Y-20921
X81165Y-23921
X66165Y-20921
X66165Y-23921
X12585Y-27831
X12585Y-30831
X8040Y-10429
X8040Y-13429
X20085Y-28421
X20085Y-31421
X40710Y-13421
X40710Y-16421
X103665Y-5921
X103665Y-8921
X43661Y-21020
X43661Y-24020
X96142Y-20921
X96142Y-23921
X57585Y-20921
X57585Y-23921
T5
X17375Y-33563
X24875Y-26063
X51125Y-11063
X107380Y-26063
X36125Y-11063
X62380Y-26063
X47375Y-26063
X32370Y-26063
X24875Y-33563
X13625Y-26063
X99875Y-26063
X75500Y-18563
X23000Y-18563
X58625Y-11063
X46438Y-33563
X107375Y-18563
X12688Y-18563
X54875Y-26063
X73625Y-11063
X95187Y-18563
X77375Y-33563
X38000Y-18563
X53000Y-18563
X98000Y-11063
X32375Y-33563
X11750Y-11063
X28625Y-11063
X92375Y-26063
X92375Y-33563
X68000Y-18563
X107375Y-33563
X43625Y-11063
X66125Y-11063
X21125Y-11063
X77375Y-26063
X60500Y-18563
X69870Y-26063
X30500Y-18563
X99875Y-33563
X107375Y-11063
X88625Y-11063
X84875Y-33563
X82990Y-18563
X65195Y-33563
X45500Y-18563
X9875Y-33563
X84875Y-26063
X81125Y-11063
X39875Y-26063
T6
X76375Y-26063
X59500Y-18563
X68870Y-26063
X29500Y-18563
X98875Y-33563
X106375Y-11063
X87625Y-11063
X83875Y-33563
X81990Y-18563
X64195Y-33563
X44500Y-18563
X8875Y-33563
X83875Y-26063
X80125Y-11063
X38875Y-26063
X16375Y-33563
X23875Y-26063
X50125Y-11063
X106380Y-26063
X35125Y-11063
X61380Y-26063
X46375Y-26063
X31370Y-26063
X48130Y-13465
X48130Y-19465
X49130Y-13465
X49130Y-19465
X50130Y-13465
X50130Y-19465
X51130Y-13465
X51130Y-19465
X52130Y-13465
X52130Y-19465
X53130Y-13465
X53130Y-19465
X54130Y-13465
X54130Y-19465
X55130Y-13465
X55130Y-19465
X56130Y-13465
X56130Y-19465
X57130Y-13465
X57130Y-19465
X58130Y-13465
X58130Y-19465
X59130Y-13465
X59130Y-19465
X23875Y-33563
X12625Y-26063
X98875Y-26063
X74500Y-18563
X22000Y-18563
X57625Y-11063
X45438Y-33563
X106375Y-18563
X11688Y-18563
X53875Y-26063
X72625Y-11063
X94188Y-18563
X76375Y-33563
X37000Y-18563
X52000Y-18563
X97000Y-11063
X31375Y-33563
X10750Y-11063
X27625Y-11063
X91375Y-26063
X91375Y-33563
X67000Y-18563
X106375Y-33563
X42625Y-11063
X65125Y-11063
X20125Y-11063
T7
X17028Y-16339
X17028Y-18898
X18799Y-16339
X18799Y-18898
T8
X93188Y-15563
X95688Y-14563
X63188Y-30563
X65688Y-29563
X10687Y-15563
X13187Y-14563
X96000Y-8063
X98500Y-7062
X44438Y-30563
X46938Y-29563
X11625Y-23063
X14125Y-22063
X9750Y-8055
X12250Y-7055
T9
X97875Y-23063
X100375Y-22063
X67875Y-23063
X70375Y-22063
X36000Y-15563
X38500Y-14563
X45375Y-23063
X47875Y-22063
X56625Y-8063
X59125Y-7062
X105375Y-30563
X107875Y-29563
X22875Y-23063
X25375Y-22063
X82875Y-30563
X85375Y-29563
X64125Y-8063
X66625Y-7062
X22875Y-30563
X25375Y-29563
X52875Y-23063
X55375Y-22063
X49125Y-8063
X51625Y-7062
X21000Y-15563
X23500Y-14563
X66000Y-15563
X68500Y-14563
X90375Y-23063
X92875Y-22063
X26625Y-8063
X29125Y-7062
X51000Y-15563
X53500Y-14563
X41625Y-8063
X44125Y-7062
X105375Y-8063
X107875Y-7062
X7875Y-30563
X10375Y-29563
X79125Y-8063
X81625Y-7062
X82875Y-23063
X85375Y-22063
X30375Y-23063
X32875Y-22063
X105375Y-23063
X107875Y-22063
X30375Y-30563
X32875Y-29563
X19125Y-8063
X21625Y-7062
X97875Y-30563
X100375Y-29563
X71625Y-8063
X74125Y-7062
X60375Y-23063
X62875Y-22063
X34125Y-8063
X36625Y-7062
X73500Y-15563
X76000Y-14563
X81000Y-15563
X83500Y-14563
X86625Y-8063
X89125Y-7062
X105375Y-15563
X107875Y-14563
X28500Y-15563
X31000Y-14563
X37875Y-23063
X40375Y-22063
X75375Y-23063
X77875Y-22063
X75375Y-30563
X77875Y-29563
X15375Y-30563
X17875Y-29563
X58500Y-15563
X61000Y-14563
X43500Y-15563
X46000Y-14563
X90375Y-30563
X92875Y-29563
T10
X89875Y-31563
X93875Y-31563
X97375Y-24063
X101375Y-24063
X67375Y-24063
X71375Y-24063
X35500Y-16563
X39500Y-16563
X44875Y-24063
X48875Y-24063
X56125Y-9063
X60125Y-9063
X104875Y-31563
X108875Y-31563
X22375Y-24063
X26375Y-24063
X10188Y-16563
X14188Y-16563
X82375Y-31563
X86375Y-31563
X95500Y-9063
X99500Y-9063
X63625Y-9063
X67625Y-9063
X22375Y-31563
X26375Y-31563
X52375Y-24063
X56375Y-24063
X48625Y-9063
X52625Y-9063
X43938Y-31563
X47938Y-31563
X20500Y-16563
X24500Y-16563
X65500Y-16563
X69500Y-16563
X89875Y-24063
X93875Y-24063
X26125Y-9063
X30125Y-9063
X50500Y-16563
X54500Y-16563
X41125Y-9063
X45125Y-9063
X104875Y-9063
X108875Y-9063
X7375Y-31563
X11375Y-31563
X78625Y-9063
X82625Y-9063
X82375Y-24063
X86375Y-24063
X29875Y-24063
X33875Y-24063
X104875Y-24063
X108875Y-24063
X29875Y-31563
X33875Y-31563
X18625Y-9063
X22625Y-9063
X11125Y-24063
X15125Y-24063
X9250Y-9055
X13250Y-9055
X97375Y-31563
X101375Y-31563
X71125Y-9063
X75125Y-9063
X59875Y-24063
X63875Y-24063
X33625Y-9063
X37625Y-9063
X73000Y-16563
X77000Y-16563
X80500Y-16563
X84500Y-16563
X86125Y-9063
X90125Y-9063
X104875Y-16563
X108875Y-16563
X28000Y-16563
X32000Y-16563
X37375Y-24063
X41375Y-24063
X74875Y-24063
X78875Y-24063
X74875Y-31563
X78875Y-31563
X92687Y-16563
X96688Y-16563
X14875Y-31563
X18875Y-31563
X58000Y-16563
X62000Y-16563
X43000Y-16563
X47000Y-16563
X62688Y-31563
X66688Y-31563
T11
X8425Y-21313
X17825Y-21313
X89988Y-13812
X99388Y-13812
X59988Y-34313
X69388Y-34313
X41238Y-34313
X50637Y-34313
T12
X22500Y-16563
X67500Y-16563
X91875Y-24063
X28125Y-9063
X52500Y-16563
X43125Y-9063
X106875Y-9063
X9375Y-31563
X80625Y-9063
X84375Y-24063
X31875Y-24063
X106875Y-24063
X31875Y-31563
X20625Y-9063
X8425Y-27312
X13125Y-24063
X17825Y-27312
X11250Y-9055
X99375Y-31563
X73125Y-9063
X61875Y-24063
X35625Y-9063
X75000Y-16563
X82500Y-16563
X88125Y-9063
X106875Y-16563
X30000Y-16563
X39375Y-24063
X76875Y-24063
X76875Y-31563
X89988Y-19813
X94688Y-16563
X99388Y-19813
X16875Y-31563
X60000Y-16563
X45000Y-16563
X59988Y-28313
X64688Y-31563
X69388Y-28313
X91875Y-31563
X99375Y-24063
X69375Y-24063
X37500Y-16563
X46875Y-24063
X58125Y-9063
X106875Y-31563
X24375Y-24063
X12188Y-16563
X84375Y-31563
X97500Y-9063
X65625Y-9063
X24375Y-31563
X54375Y-24063
X50625Y-9063
X41238Y-28313
X45938Y-31563
X50637Y-28313
T4
G00X14764Y-8346
M15
G01X14764Y-8780
M16
G05
G00X14764Y-10217
M15
G01X14764Y-10650
M16
G05
G00X17677Y-8346
M15
G01X17677Y-8780
M16
G05
G00X17677Y-10217
M15
G01X17677Y-10650
M16
G05
T0
M30
